<svg width="300" height="49" viewBox="0 0 300 49" fill="none" xmlns="http://www.w3.org/2000/svg">
<path d="M0 4.37126V47.3438H31.8277V39.4191H8.99877V4.37126H0Z" fill="#002B3D"/>
<path d="M33.707 4.37126V33.5113C33.707 33.5113 38.1396 48.4179 51.836 48.0145C65.5325 47.6112 69.1583 39.5551 70.5021 32.5709V4.37126H62.4437V32.0338C62.4437 32.0338 61.3696 41.5674 52.1034 40.4933C42.8372 39.4191 42.3002 31.7642 42.3002 31.7642V4.37126H33.707Z" fill="#002B3D"/>
<path d="M79.5 47.3438V4.37126H80.7078L101.388 28.9451L122.069 4.37126H122.74V47.3438H114.55V26.1963L101.121 41.5674L88.4965 26.1963V47.3438H79.5Z" fill="#002B3D"/>
<path d="M126.504 47.3436H135.636L148.125 16.9934C148.125 16.9934 148.528 15.7856 149.333 16.9934L162.091 47.3436H170.954L151.617 1.55204C151.617 1.55204 148.932 -1.94005 146.38 1.55204L126.504 47.3436Z" fill="#C72C2B"/>
<path d="M174.574 47.3438H182.9V21.9632L211.369 48.0214V4.9084H203.179L203.717 29.8856L175.515 3.69829H174.574V47.3438Z" fill="#002B3D"/>
<path d="M221.312 4.37126V47.3438H252.601V39.5528H229.502V30.0192H249.782V22.3643H229.502V12.4273H252.601V4.37126H221.312Z" fill="#002B3D"/>
<path d="M257.434 4.37126L273.281 25.8609L257.434 47.3438H268.041L278.515 32.5709L288.989 47.3438H300L283.886 25.8609L300 4.37126C296.508 4.37126 293.019 4.37126 289.526 4.37126C285.923 9.47457 282.32 14.5779 278.717 19.6812L267.504 4.37126H257.434Z" fill="#002B3D"/>
<path d="M148.656 39.7271C151.333 39.7271 153.503 37.557 153.503 34.8799C153.503 32.2029 151.333 30.0327 148.656 30.0327C145.979 30.0327 143.809 32.2029 143.809 34.8799C143.809 37.557 145.979 39.7271 148.656 39.7271Z" fill="#002B3D"/>
</svg>
