<svg width="63" height="63" viewBox="0 0 63 63" fill="none" xmlns="http://www.w3.org/2000/svg">
<g clip-path="url(#clip0_36_388)">
<path d="M60.0468 29.5313H56.1093V27.5626C56.1093 27.019 55.6685 26.5783 55.1249 26.5783H53.1561V21.6563C53.1561 9.71499 43.4413 0 31.4999 0C19.5586 0 9.84375 9.71499 9.84375 21.6562V26.5782H7.87494C7.33134 26.5782 6.89059 27.0189 6.89059 27.5625V29.5312H2.95309C2.40949 29.5312 1.96875 29.9719 1.96875 30.5155V43.3124C1.96875 43.856 2.40949 44.2967 2.95309 44.2967H6.89059V46.2654C6.89059 46.809 7.33134 47.2497 7.87494 47.2497H13.7812C14.325 47.2497 14.7656 46.809 14.7656 46.2654V27.5625C14.7656 27.0189 14.3248 26.5782 13.7812 26.5782H11.8124V21.6562C11.8124 10.8005 20.6441 1.96869 31.4999 1.96869C42.3557 1.96869 51.1874 10.8005 51.1874 21.6562V26.5782H49.2187C48.6751 26.5782 48.2344 27.0189 48.2344 27.5625V46.2657C48.2344 46.8093 48.6751 47.25 49.2187 47.25H51.1874V51.1875C51.1874 53.9014 48.9795 56.1095 46.2656 56.1095H36.3382C35.868 53.3197 33.4369 51.1875 30.5156 51.1875C27.2589 51.1875 24.6093 53.837 24.6093 57.0938C24.6093 60.3505 27.2587 63 30.5156 63C33.4369 63 35.868 60.8678 36.3382 58.0782H46.2656C50.0651 58.0782 53.1561 54.987 53.1561 51.1875V47.25H55.1249C55.6685 47.25 56.1093 46.8093 56.1093 46.2657V44.297H60.0468C60.5904 44.297 61.0311 43.8562 61.0311 43.3126V30.5158C61.0311 29.9719 60.5904 29.5313 60.0468 29.5313ZM6.89046 42.3282H3.93744V31.5H6.89046V42.3282ZM12.7968 28.5468V45.2813H8.85928V28.5468H12.7968ZM30.5156 61.0313C28.3444 61.0313 26.5781 59.265 26.5781 57.0938C26.5781 54.9226 28.3444 53.1562 30.5156 53.1562C32.6866 53.1562 34.4531 54.9226 34.4531 57.0938C34.4531 59.265 32.6866 61.0313 30.5156 61.0313ZM54.1406 45.2813H50.2031V28.5468H54.1406V45.2813ZM59.0624 42.3282H56.1093V31.5H59.0624V42.3282Z" fill="black"/>
<path d="M31.4999 47.0474V40.1568C31.4999 39.6132 31.0592 39.1725 30.5156 39.1725C29.972 39.1725 29.5312 39.6132 29.5312 40.1568V47.0474C29.5312 47.5911 29.972 48.0317 30.5156 48.0317C31.0592 48.0318 31.4999 47.5911 31.4999 47.0474Z" fill="black"/>
<path d="M34.9445 49.2189C35.2847 49.2189 35.6155 49.0423 35.7978 48.7266L39.2431 42.7592C39.5149 42.2884 39.3536 41.6864 38.8829 41.4146C38.4122 41.1428 37.8101 41.3043 37.5383 41.7748L34.093 47.7422C33.8212 48.2131 33.9825 48.815 34.4532 49.0868C34.6081 49.1764 34.7775 49.2189 34.9445 49.2189Z" fill="black"/>
<path d="M26.0869 49.2188C26.2539 49.2188 26.4232 49.1762 26.5782 49.0868C27.049 48.815 27.2104 48.2129 26.9384 47.7422L23.4931 41.7748C23.2213 41.3037 22.6189 41.1426 22.1484 41.4145C21.6775 41.6863 21.5162 42.2884 21.7881 42.7591L25.2334 48.7265C25.4158 49.0424 25.7466 49.2188 26.0869 49.2188Z" fill="black"/>
</g>
<defs>
<clipPath id="clip0_36_388">
<rect width="63" height="63" fill="white"/>
</clipPath>
</defs>
</svg>
