<svg width="91" height="91" viewBox="0 0 91 91" fill="none" xmlns="http://www.w3.org/2000/svg">
<g clip-path="url(#clip0_36_398)">
<path d="M48.4806 90.9429C47.3884 90.9429 46.2971 90.5271 45.466 89.6968C45.4 89.6308 45.3477 89.5526 45.3119 89.4664C45.2762 89.3802 45.2578 89.2878 45.2578 89.1945C45.2578 89.1012 45.2762 89.0088 45.3119 88.9226C45.3477 88.8364 45.4 88.7581 45.466 88.6922C45.532 88.6262 45.6103 88.5739 45.6965 88.5381C45.7827 88.5024 45.8751 88.484 45.9684 88.484C46.0617 88.484 46.1541 88.5024 46.2403 88.5381C46.3265 88.5739 46.4048 88.6262 46.4708 88.6922C47.5807 89.8008 49.3847 89.7993 50.492 88.6908C51.5988 87.5828 51.5981 85.7802 50.4892 84.6724C50.4232 84.6065 50.3708 84.5282 50.3351 84.442C50.2993 84.3558 50.2809 84.2634 50.2809 84.1701C50.2809 84.0768 50.2993 83.9844 50.3351 83.8983C50.3708 83.8121 50.4232 83.7338 50.4892 83.6678C50.5551 83.6018 50.6334 83.5495 50.7196 83.5137C50.8058 83.478 50.8982 83.4596 50.9915 83.4596C51.0848 83.4596 51.1771 83.478 51.2633 83.5137C51.3495 83.5495 51.4278 83.6018 51.4937 83.6678C53.1561 85.3288 53.1573 88.0325 51.4966 89.6955C50.6653 90.5264 49.5724 90.9429 48.4806 90.9429ZM55.5162 83.9117C54.3762 83.9117 53.305 83.4677 52.4995 82.6615C52.4335 82.5956 52.3811 82.5173 52.3454 82.4311C52.3097 82.3449 52.2913 82.2525 52.2913 82.1592C52.2913 82.0659 52.3097 81.9735 52.3454 81.8874C52.3811 81.8012 52.4335 81.7229 52.4995 81.657C52.5655 81.5909 52.6438 81.5386 52.7299 81.5028C52.8161 81.4671 52.9085 81.4487 53.0018 81.4487C53.0951 81.4487 53.1875 81.4671 53.2737 81.5028C53.3599 81.5386 53.4382 81.5909 53.5041 81.657C54.5767 82.7303 56.4491 82.7331 57.5225 81.6598C58.6305 80.552 58.6298 78.7485 57.5211 77.64L51.9957 72.1117C51.9297 72.0458 51.8774 71.9675 51.8417 71.8813C51.806 71.7951 51.7876 71.7027 51.7876 71.6095C51.7876 71.5162 51.806 71.4238 51.8417 71.3376C51.8774 71.2514 51.9297 71.1731 51.9957 71.1072C52.0616 71.0412 52.1399 70.9889 52.2261 70.9532C52.3123 70.9175 52.4047 70.8991 52.4979 70.8991C52.5912 70.8991 52.6836 70.9175 52.7698 70.9532C52.8559 70.9889 52.9343 71.0412 53.0002 71.1072L58.5256 76.6354C60.1887 78.2978 60.1887 81.0029 58.527 82.6645C57.7239 83.4684 56.6542 83.9117 55.5162 83.9117ZM62.5465 76.8773C61.4543 76.8773 60.3632 76.4618 59.532 75.6305L54.0065 70.1049C53.9406 70.039 53.8883 69.9607 53.8526 69.8745C53.8169 69.7883 53.7985 69.6959 53.7985 69.6027C53.7985 69.5094 53.8169 69.417 53.8526 69.3308C53.8883 69.2446 53.9406 69.1663 54.0065 69.1004C54.0725 69.0344 54.1508 68.9821 54.237 68.9464C54.3232 68.9107 54.4155 68.8923 54.5088 68.8923C54.6021 68.8923 54.6945 68.9107 54.7806 68.9464C54.8668 68.9821 54.9451 69.0344 55.0111 69.1004L60.5365 74.626C61.6452 75.7345 63.4478 75.7345 64.5563 74.626C65.665 73.5173 65.665 71.7133 64.5563 70.6045L59.0295 65.0806C58.7519 64.8031 58.7519 64.3535 59.0295 64.076C59.3071 63.7986 59.7568 63.7984 60.034 64.076L65.5609 69.6C67.2239 71.2625 67.2239 73.9683 65.5609 75.6307C64.73 76.4618 63.6387 76.8773 62.5465 76.8773ZM69.5802 69.8437C68.4889 69.8437 67.3978 69.4287 66.5663 68.5988L61.0388 63.07C60.9728 63.0041 60.9205 62.9258 60.8848 62.8396C60.8491 62.7534 60.8307 62.661 60.8307 62.5678C60.8307 62.4745 60.8491 62.3821 60.8848 62.2959C60.9205 62.2097 60.9728 62.1314 61.0388 62.0655C61.1047 61.9995 61.183 61.9471 61.2692 61.9114C61.3554 61.8756 61.4478 61.8572 61.5411 61.8572C61.6344 61.8572 61.7267 61.8756 61.8129 61.9114C61.8991 61.9471 61.9774 61.9995 62.0433 62.0655L67.5702 67.5937C68.6789 68.6998 70.4815 68.701 71.5887 67.5937C72.6973 66.485 72.6973 64.6812 71.5887 63.5725L53.002 44.9866C52.936 44.9207 52.8836 44.8424 52.8479 44.7562C52.8121 44.67 52.7937 44.5777 52.7937 44.4844C52.7937 44.3911 52.8121 44.2987 52.8479 44.2125C52.8836 44.1263 52.936 44.048 53.002 43.9821C53.0679 43.9161 53.1462 43.8637 53.2324 43.828C53.3186 43.7922 53.411 43.7738 53.5043 43.7738C53.5976 43.7738 53.6899 43.7922 53.7761 43.828C53.8623 43.8637 53.9406 43.9161 54.0065 43.9821L72.5935 62.5676C74.2564 64.2301 74.2564 66.9358 72.5935 68.5981C71.7638 69.4287 70.6723 69.8437 69.5802 69.8437ZM17.3787 59.2166C17.2476 59.2167 17.119 59.1805 17.0072 59.112C16.8954 59.0436 16.8047 58.9454 16.7452 58.8286C13.6683 52.7933 12.6559 46.8599 12.6143 46.6101C12.5835 46.4243 12.6276 46.2339 12.737 46.0807C12.8464 45.9275 13.0122 45.824 13.1978 45.7928C13.5885 45.7345 13.9505 45.9905 14.0158 46.3763C14.0256 46.4361 15.0377 52.3512 18.0107 58.1836C18.066 58.2918 18.0926 58.4124 18.088 58.5338C18.0833 58.6553 18.0476 58.7735 17.9842 58.8772C17.9207 58.9809 17.8318 59.0665 17.7257 59.1259C17.6197 59.1854 17.5002 59.2166 17.3787 59.2166ZM38.6528 33.9191C38.5587 33.9192 38.4655 33.9005 38.3787 33.8642C33.4459 31.7987 30.0995 30.0594 30.0663 30.042C29.8993 29.9547 29.7738 29.8046 29.7174 29.6249C29.6609 29.4451 29.6781 29.2502 29.7652 29.0831C29.8082 29.0002 29.8671 28.9266 29.9387 28.8666C30.0102 28.8065 30.0929 28.7612 30.182 28.7332C30.2711 28.7052 30.3649 28.6951 30.4579 28.7035C30.5509 28.7119 30.6414 28.7386 30.7241 28.7821C30.7568 28.7995 34.0536 30.5132 38.9268 32.5529C39.078 32.6165 39.2026 32.7304 39.2793 32.8753C39.3561 33.0202 39.3805 33.1872 39.3482 33.348C39.316 33.5088 39.2291 33.6535 39.1024 33.7576C38.9756 33.8617 38.8168 33.9187 38.6528 33.9191ZM72.4209 60.088C72.2903 60.088 72.1623 60.0521 72.0509 59.9841C71.9394 59.9162 71.8489 59.8188 71.7891 59.7027C71.7294 59.5867 71.7028 59.4564 71.7123 59.3262C71.7218 59.196 71.767 59.0709 71.8429 58.9647C76.084 53.0183 76.9014 44.5053 76.909 44.42C76.9451 44.0301 77.2801 43.7373 77.6813 43.7768C77.8689 43.794 78.0421 43.885 78.1626 44.0298C78.2832 44.1746 78.3414 44.3614 78.3243 44.549C78.2909 44.9125 77.462 53.5339 73.0003 59.7905C72.9344 59.8826 72.8475 59.9577 72.7467 60.0095C72.6459 60.0612 72.5342 60.0882 72.4209 60.088ZM42.452 88.9348H42.4513C41.3135 88.9348 40.243 88.4908 39.4382 87.6862C37.7773 86.0258 37.7773 83.3213 39.4375 81.6577L42.452 78.6431C44.0644 77.0323 46.8716 77.0336 48.4799 78.6445C50.1415 80.3062 50.1415 83.0106 48.4799 84.6724L45.4673 87.6848C44.6611 88.4908 43.5904 88.9348 42.452 88.9348ZM45.4666 78.8164C45.0931 78.8155 44.7231 78.8885 44.378 79.0313C44.0329 79.1741 43.7195 79.3838 43.4559 79.6484L40.4427 82.6615C39.3362 83.7709 39.3355 85.5742 40.4427 86.6815C40.7059 86.9462 41.0189 87.1561 41.3636 87.299C41.7084 87.4419 42.0781 87.515 42.4513 87.514H42.452C43.2111 87.514 43.9251 87.2179 44.4626 86.6803L47.4752 83.6678C48.583 82.5599 48.583 80.7571 47.4752 79.6493C47.2122 79.3844 46.8992 79.1743 46.5544 79.0314C46.2096 78.8884 45.8398 78.8153 45.4666 78.8164ZM35.4182 81.9019C34.2803 81.9019 33.2106 81.4586 32.4058 80.6538C30.7448 78.9909 30.7448 76.2864 32.4058 74.6233L36.4243 70.6047C38.0353 68.9959 40.8453 68.9944 42.452 70.6047C44.1144 72.2673 44.1144 74.9717 42.452 76.634L38.4336 80.6524C37.628 81.4579 36.5568 81.9019 35.4182 81.9019ZM39.4394 70.7782C39.066 70.777 38.6961 70.8498 38.351 70.9925C38.0059 71.1351 37.6925 71.3448 37.4289 71.6093L33.4103 75.6279C32.303 76.7364 32.303 78.5406 33.4103 79.6491C33.6734 79.9136 33.9863 80.1234 34.3309 80.2662C34.6756 80.409 35.0451 80.482 35.4182 80.4811C35.7918 80.4819 36.1618 80.4087 36.5069 80.2657C36.852 80.1226 37.1654 79.9127 37.4289 79.6478L41.4473 75.6295C42.5553 74.5215 42.5553 72.7175 41.4473 71.6095C41.1843 71.3449 40.8714 71.1351 40.5267 70.9924C40.1821 70.8497 39.8125 70.7769 39.4394 70.7782ZM28.3858 74.8673C27.2465 74.8673 26.1767 74.4248 25.3732 73.6196C24.5677 72.8157 24.1237 71.7451 24.123 70.6065C24.1212 70.0463 24.2305 69.4912 24.4446 68.9735C24.6587 68.4558 24.9735 67.9858 25.3705 67.5905L28.3858 64.5767C29.9961 62.965 32.806 62.9662 34.4149 64.5781C35.2204 65.3816 35.6638 66.4514 35.6638 67.5905C35.6638 68.7284 35.2204 69.7991 34.4149 70.6044L31.3996 73.6196C30.5941 74.4248 29.5236 74.8673 28.3858 74.8673ZM31.3998 64.7491C31.0265 64.7481 30.6566 64.8211 30.3117 64.964C29.9668 65.1069 29.6537 65.3168 29.3905 65.5816L26.3752 68.5954C26.1106 68.8589 25.9009 69.1723 25.7583 69.5174C25.6156 69.8626 25.5428 70.2325 25.5442 70.606C25.5436 70.9794 25.617 71.3492 25.7601 71.694C25.9032 72.0389 26.1133 72.352 26.3781 72.6153C27.4493 73.6879 29.3212 73.6879 30.3952 72.6153L33.4105 69.6C33.6752 69.3368 33.8852 69.0236 34.0281 68.6787C34.171 68.3339 34.2441 67.964 34.2432 67.5907C34.2432 66.8318 33.9476 66.1192 33.4112 65.5836C33.1479 65.3183 32.8345 65.1079 32.4892 64.9646C32.1439 64.8214 31.7736 64.7481 31.3998 64.7491ZM21.3528 67.8351H21.3521C20.2136 67.8351 19.1438 67.3924 18.3397 66.5874C16.6779 64.9245 16.6779 62.2201 18.3397 60.5583L20.349 58.549C21.9593 56.938 24.765 56.9407 26.3752 58.5504C27.1807 59.3557 27.6242 60.4257 27.6249 61.5636C27.6256 62.7014 27.1822 63.7714 26.3767 64.5767L24.3674 66.586C23.5617 67.3916 22.4912 67.8351 21.3528 67.8351ZM23.3607 58.7219C22.9877 58.721 22.6183 58.7941 22.2738 58.9369C21.9293 59.0797 21.6165 59.2894 21.3535 59.5539L19.3443 61.5632C18.237 62.6712 18.237 64.4743 19.3443 65.583C19.6073 65.8475 19.9202 66.0571 20.2649 66.1998C20.6096 66.3425 20.9791 66.4154 21.3521 66.4143H21.3528C22.1119 66.4143 22.8257 66.1187 23.3628 65.5816L25.3721 63.5723C25.909 63.0354 26.2041 62.3221 26.2041 61.5637C26.2041 60.8053 25.9078 60.0923 25.3709 59.5552C24.8329 59.0182 24.1196 58.7219 23.3607 58.7219ZM36.4256 48.7443C35.3334 48.7443 34.2414 48.328 33.4103 47.4968C31.7487 45.8351 31.7487 43.1321 33.4103 41.4705L39.9405 34.9377C46.0654 28.8128 59.854 26.7834 60.4373 26.6995C60.8218 26.6377 61.1854 26.9132 61.2416 27.3024C61.2682 27.489 61.2197 27.6785 61.1066 27.8293C60.9935 27.9801 60.8251 28.0798 60.6385 28.1065C60.4997 28.1259 46.734 30.1531 40.9448 35.9423L34.4149 42.4751C33.3076 43.5823 33.3076 45.3849 34.4149 46.4922C35.5229 47.6009 37.3253 47.6009 38.4335 46.4936C38.8026 46.1245 47.5271 37.5061 51.9973 41.9715C52.0632 42.0375 52.1156 42.1158 52.1513 42.202C52.187 42.2882 52.2053 42.3805 52.2053 42.4738C52.2053 42.5671 52.187 42.6595 52.1513 42.7457C52.1156 42.8318 52.0632 42.9101 51.9973 42.9761C51.9313 43.0421 51.853 43.0945 51.7668 43.1302C51.6807 43.1659 51.5883 43.1843 51.495 43.1843C51.4017 43.1843 51.3093 43.1659 51.2231 43.1302C51.1369 43.0945 51.0586 43.0421 50.9927 42.9761C48.1106 40.0982 41.6748 45.2628 39.438 47.4982C38.6076 48.3287 37.5163 48.7443 36.4256 48.7443ZM80.632 44.1902C80.5387 44.1904 80.4463 44.172 80.3601 44.1363C80.2739 44.1006 80.1956 44.0482 80.1298 43.9821L61.0404 24.8914C60.9744 24.8255 60.9221 24.7472 60.8864 24.661C60.8507 24.5748 60.8323 24.4825 60.8323 24.3892C60.8323 24.2959 60.8507 24.2035 60.8864 24.1173C60.9221 24.0312 60.9744 23.9528 61.0404 23.8869C61.1063 23.8209 61.1846 23.7685 61.2708 23.7328C61.357 23.697 61.4494 23.6787 61.5427 23.6787C61.636 23.6787 61.7283 23.697 61.8145 23.7328C61.9007 23.7685 61.979 23.8209 62.0449 23.8869L81.1343 42.9775C81.2337 43.0768 81.3015 43.2034 81.3289 43.3412C81.3564 43.4791 81.3423 43.6219 81.2885 43.7517C81.2348 43.8816 81.1437 43.9925 81.0268 44.0706C80.91 44.1486 80.7726 44.1903 80.632 44.1902ZM87.6657 41.1749C87.5724 41.1751 87.48 41.1568 87.3938 41.1211C87.3076 41.0853 87.2293 41.0329 87.1634 40.9668L64.0542 17.859C63.9883 17.7931 63.9359 17.7148 63.9002 17.6286C63.8645 17.5424 63.8461 17.45 63.8461 17.3568C63.8461 17.2635 63.8645 17.1711 63.9002 17.0849C63.9359 16.9987 63.9883 16.9204 64.0542 16.8545C64.1202 16.7885 64.1984 16.7361 64.2846 16.7004C64.3708 16.6646 64.4632 16.6462 64.5565 16.6462C64.6498 16.6462 64.7422 16.6646 64.8284 16.7004C64.9146 16.7361 64.9928 16.7885 65.0588 16.8545L88.168 39.9623C88.2674 40.0616 88.3351 40.1882 88.3626 40.326C88.39 40.4638 88.376 40.6067 88.3222 40.7365C88.2684 40.8663 88.1773 40.9773 88.0605 41.0553C87.9436 41.1334 87.8062 41.175 87.6657 41.1749Z" fill="black"/>
<path d="M61.5426 25.0994C61.4021 25.0994 61.2647 25.0578 61.1479 24.9798C61.031 24.9017 60.9399 24.7907 60.8861 24.6609C60.8324 24.5311 60.8183 24.3882 60.8458 24.2504C60.8732 24.1126 60.9409 23.986 61.0404 23.8867L64.0542 20.8727C64.1202 20.8067 64.1985 20.7544 64.2846 20.7187C64.3708 20.683 64.4632 20.6646 64.5565 20.6646C64.6498 20.6646 64.7421 20.683 64.8283 20.7187C64.9145 20.7544 64.9928 20.8067 65.0588 20.8727C65.1247 20.9386 65.177 21.0169 65.2127 21.1031C65.2484 21.1893 65.2668 21.2817 65.2668 21.3749C65.2668 21.4682 65.2484 21.5606 65.2127 21.6468C65.177 21.7329 65.1247 21.8113 65.0588 21.8772L62.0449 24.8912C61.9791 24.9573 61.9008 25.0098 61.8146 25.0455C61.7284 25.0812 61.6359 25.0995 61.5426 25.0994ZM80.632 44.19C80.5387 44.1901 80.4463 44.1718 80.3601 44.1361C80.2739 44.1004 80.1956 44.048 80.1297 43.9819C80.0637 43.9159 80.0114 43.8376 79.9756 43.7515C79.9399 43.6653 79.9215 43.5729 79.9215 43.4796C79.9215 43.3863 79.9399 43.2939 79.9756 43.2077C80.0114 43.1215 80.0637 43.0432 80.1297 42.9773L83.1436 39.9633C83.2096 39.8973 83.2879 39.845 83.3741 39.8093C83.4603 39.7736 83.5526 39.7553 83.6459 39.7553C83.7392 39.7553 83.8316 39.7737 83.9178 39.8094C84.004 39.8451 84.0823 39.8974 84.1482 39.9634C84.2142 40.0294 84.2665 40.1077 84.3022 40.1939C84.3379 40.2801 84.3563 40.3724 84.3563 40.4657C84.3562 40.559 84.3379 40.6514 84.3022 40.7376C84.2664 40.8238 84.2141 40.9021 84.1481 40.968L81.1343 43.9819C81.0684 44.0479 80.9901 44.1003 80.9039 44.1361C80.8177 44.1718 80.7253 44.1901 80.632 44.19ZM64.5565 18.0669C64.416 18.067 64.2786 18.0254 64.1617 17.9473C64.0448 17.8693 63.9538 17.7583 63.9 17.6285C63.8462 17.4987 63.8322 17.3558 63.8596 17.218C63.8871 17.0802 63.9548 16.9536 64.0542 16.8543L80.6432 0.265423C80.7092 0.199463 80.7875 0.147141 80.8737 0.111444C80.9598 0.0757462 81.0522 0.057373 81.1455 0.057373C81.2388 0.057373 81.3311 0.0757462 81.4173 0.111444C81.5035 0.147141 81.5818 0.199463 81.6478 0.265423C81.7137 0.331383 81.7661 0.409689 81.8018 0.49587C81.8374 0.582051 81.8558 0.674419 81.8558 0.767701C81.8558 0.860982 81.8374 0.95335 81.8018 1.03953C81.7661 1.12571 81.7137 1.20402 81.6478 1.26998L65.0588 17.8588C64.9929 17.9249 64.9146 17.9773 64.8284 18.0131C64.7422 18.0488 64.6498 18.0671 64.5565 18.0669ZM87.6657 41.1747C87.5724 41.1749 87.4799 41.1566 87.3937 41.1208C87.3075 41.0851 87.2293 41.0327 87.1634 40.9666C87.0974 40.9007 87.045 40.8224 87.0093 40.7362C86.9736 40.65 86.9552 40.5576 86.9552 40.4643C86.9552 40.371 86.9736 40.2786 87.0093 40.1925C87.045 40.1063 87.0974 40.028 87.1634 39.962L89.7875 37.3408C89.8534 37.2749 89.9317 37.2225 90.0179 37.1868C90.1041 37.1511 90.1965 37.1328 90.2897 37.1328C90.383 37.1328 90.4754 37.1511 90.5616 37.1868C90.6478 37.2225 90.7261 37.2749 90.792 37.3408C90.858 37.4068 90.9103 37.4851 90.946 37.5713C90.9817 37.6574 91.0001 37.7498 91.0001 37.8431C91.0001 37.9364 90.9817 38.0287 90.946 38.1149C90.9103 38.2011 90.858 38.2794 90.792 38.3454L88.168 40.9666C88.1021 41.0327 88.0238 41.0851 87.9376 41.1208C87.8514 41.1565 87.759 41.1748 87.6657 41.1747ZM10.3013 46.1964C10.1607 46.1965 10.0233 46.1549 9.90644 46.0769C9.78955 45.9989 9.69844 45.8879 9.64465 45.7581C9.59085 45.6282 9.57679 45.4853 9.60423 45.3475C9.63168 45.2097 9.6994 45.0831 9.79883 44.9837L28.8895 25.8958C29.1669 25.6182 29.6166 25.6182 29.894 25.8958C30.1715 26.1734 30.1716 26.6229 29.894 26.9003L10.8036 45.9883C10.7376 46.0543 10.6594 46.1067 10.5732 46.1424C10.487 46.1781 10.3946 46.1965 10.3013 46.1964ZM3.26887 43.184C3.17556 43.1841 3.08315 43.1658 2.99695 43.1301C2.91075 43.0944 2.83246 43.042 2.76659 42.9759C2.70057 42.91 2.6482 42.8317 2.61247 42.7455C2.57674 42.6593 2.55835 42.5669 2.55835 42.4736C2.55835 42.3803 2.57674 42.2879 2.61247 42.2017C2.6482 42.1156 2.70057 42.0373 2.76659 41.9713L25.8758 18.8636C25.9417 18.7975 26.02 18.7452 26.1062 18.7094C26.1924 18.6737 26.2848 18.6553 26.3781 18.6553C26.4714 18.6553 26.5637 18.6737 26.6499 18.7094C26.7361 18.7452 26.8144 18.7975 26.8803 18.8636C26.9464 18.9295 26.9987 19.0078 27.0345 19.094C27.0702 19.1801 27.0886 19.2725 27.0886 19.3658C27.0886 19.4591 27.0702 19.5515 27.0345 19.6377C26.9987 19.7239 26.9464 19.8022 26.8803 19.8681L3.77114 42.9759C3.70526 43.042 3.62697 43.0944 3.54078 43.1301C3.45458 43.1658 3.36217 43.1841 3.26887 43.184Z" fill="black"/>
<path d="M10.3013 46.1966C10.2079 46.1967 10.1155 46.1784 10.0293 46.1427C9.94307 46.1069 9.86474 46.0546 9.79881 45.9885L6.78497 42.9761C6.50735 42.6985 6.50735 42.249 6.78497 41.9715C7.06259 41.6941 7.51208 41.6939 7.78952 41.9715L10.8035 44.984C10.903 45.0833 10.9707 45.2099 10.9981 45.3477C11.0256 45.4855 11.0115 45.6284 10.9578 45.7582C10.904 45.888 10.8129 45.999 10.696 46.077C10.5792 46.1551 10.4418 46.1967 10.3013 46.1966ZM29.3919 27.1087C29.2986 27.1088 29.2062 27.0905 29.12 27.0548C29.0338 27.019 28.9555 26.9666 28.8896 26.9005L25.8756 23.8867C25.8096 23.8208 25.7572 23.7425 25.7215 23.6563C25.6857 23.5701 25.6674 23.4777 25.6674 23.3844C25.6674 23.2911 25.6857 23.1987 25.7215 23.1126C25.7572 23.0264 25.8096 22.9481 25.8756 22.8821C25.9415 22.8161 26.0198 22.7638 26.106 22.728C26.1922 22.6923 26.2846 22.6739 26.3779 22.6739C26.4712 22.6739 26.5636 22.6923 26.6497 22.728C26.7359 22.7638 26.8142 22.8161 26.8801 22.8821L29.8942 25.896C29.9602 25.9619 30.0126 26.0402 30.0483 26.1264C30.084 26.2126 30.1024 26.305 30.1024 26.3983C30.1024 26.4916 30.084 26.584 30.0483 26.6701C30.0126 26.7563 29.9602 26.8346 29.8942 26.9005C29.8283 26.9666 29.75 27.019 29.6638 27.0547C29.5776 27.0905 29.4852 27.1088 29.3919 27.1087ZM3.26885 43.1842C3.17554 43.1843 3.08313 43.166 2.99693 43.1303C2.91073 43.0946 2.83244 43.0422 2.76657 42.9761L0.260515 40.47C0.128659 40.3365 0.0549747 40.1563 0.0555476 39.9687C0.0561205 39.781 0.130904 39.6012 0.263572 39.4685C0.396241 39.3358 0.576017 39.261 0.763654 39.2604C0.95129 39.2598 1.13155 39.3335 1.26507 39.4653L3.77112 41.9714C3.83714 42.0373 3.88951 42.1156 3.92524 42.2018C3.96097 42.288 3.97936 42.3803 3.97936 42.4736C3.97936 42.5669 3.96097 42.6593 3.92524 42.7455C3.88951 42.8317 3.83714 42.91 3.77112 42.9759C3.70528 43.042 3.627 43.0945 3.54079 43.1302C3.45459 43.166 3.36217 43.1843 3.26885 43.1842ZM26.3779 20.0764C26.2846 20.0765 26.1922 20.0581 26.106 20.0224C26.0198 19.9867 25.9415 19.9343 25.8756 19.8683L7.28316 1.27569C7.00553 0.998071 7.00553 0.548581 7.28316 0.271137C7.56078 -0.0063059 8.01027 -0.00648364 8.28771 0.271137L26.8801 18.8636C26.9462 18.9295 26.9985 19.0078 27.0343 19.094C27.07 19.1802 27.0884 19.2726 27.0884 19.3659C27.0884 19.4592 27.07 19.5515 27.0343 19.6377C26.9985 19.7239 26.9462 19.8022 26.8801 19.8681C26.8143 19.9343 26.736 19.9867 26.6498 20.0224C26.5636 20.0582 26.4712 20.0765 26.3779 20.0764ZM2.12957 36.9496C1.84934 36.9505 1.57174 36.8957 1.31282 36.7885C1.0539 36.6814 0.818803 36.5239 0.621138 36.3253C-0.207993 35.4921 -0.206571 34.1406 0.62256 33.3114C1.42467 32.5066 2.83375 32.5059 3.63711 33.3121C3.83543 33.5094 3.99261 33.744 4.09955 34.0025C4.20648 34.2609 4.26105 34.538 4.26007 34.8177C4.26112 35.0978 4.20653 35.3753 4.09947 35.6341C3.99241 35.8929 3.83501 36.1278 3.6364 36.3253C3.43913 36.524 3.20433 36.6815 2.94565 36.7887C2.68697 36.8959 2.40957 36.9506 2.12957 36.9496ZM2.12957 34.1079C1.93939 34.1079 1.76113 34.1814 1.628 34.3153C1.49472 34.4488 1.4198 34.6298 1.41967 34.8185C1.41953 35.0072 1.49419 35.1882 1.62729 35.322C1.89229 35.5862 2.36347 35.5884 2.63114 35.3212C2.69739 35.2554 2.7499 35.177 2.78563 35.0906C2.82136 35.0043 2.83959 34.9117 2.83926 34.8183C2.83926 34.6281 2.76568 34.4498 2.63185 34.316C2.56613 34.2497 2.48787 34.1971 2.40164 34.1614C2.3154 34.1257 2.22291 34.1075 2.12957 34.1079Z" fill="black"/>
</g>
<defs>
<clipPath id="clip0_36_398">
<rect width="91" height="91" fill="white"/>
</clipPath>
</defs>
</svg>
