<svg width="83" height="83" viewBox="0 0 83 83" fill="none" xmlns="http://www.w3.org/2000/svg">
<path d="M7.18194 10.3846C6.82433 10.3846 6.52734 10.0947 6.52734 9.73629C6.52734 9.37786 6.81104 9.08801 7.1693 9.08801H7.18194C7.5402 9.08801 7.83022 9.37786 7.83022 9.73629C7.83022 10.0947 7.5402 10.3846 7.18194 10.3846ZM9.77488 10.3846C9.41727 10.3846 9.12028 10.0947 9.12028 9.73629C9.12028 9.37786 9.40398 9.08801 9.76224 9.08801H9.77488C10.1331 9.08801 10.4232 9.37786 10.4232 9.73629C10.4232 10.0947 10.1331 10.3846 9.77488 10.3846ZM12.3678 10.3846C12.0102 10.3846 11.7132 10.0947 11.7132 9.73629C11.7132 9.37786 11.9969 9.08801 12.3552 9.08801H12.3678C12.7261 9.08801 13.0161 9.37786 13.0161 9.73629C13.0161 10.0947 12.7261 10.3846 12.3678 10.3846ZM55.1131 55.741H0.661093C0.575956 55.741 0.491641 55.7243 0.41297 55.6918C0.3343 55.6592 0.262816 55.6115 0.202608 55.5513C0.142399 55.4911 0.0946466 55.4196 0.0620808 55.341C0.0295151 55.2623 0.0127748 55.178 0.0128175 55.0929C0.0127748 55.0077 0.0295139 54.9234 0.0620777 54.8447C0.0946415 54.7661 0.142391 54.6946 0.202598 54.6344C0.262804 54.5742 0.334287 54.5264 0.412958 54.4939C0.49163 54.4613 0.575948 54.4446 0.661093 54.4446H55.1131C55.1983 54.4445 55.2826 54.4613 55.3613 54.4938C55.44 54.5264 55.5114 54.5741 55.5716 54.6343C55.6318 54.6945 55.6796 54.766 55.7121 54.8447C55.7446 54.9234 55.7613 55.0077 55.7613 55.0929C55.7613 55.178 55.7446 55.2623 55.7121 55.341C55.6795 55.4196 55.6318 55.4911 55.5716 55.5513C55.5114 55.6115 55.4399 55.6592 55.3612 55.6918C55.2826 55.7243 55.1983 55.741 55.1131 55.741ZM41.5 62.2208C40.0699 62.2208 38.9071 61.0585 38.9071 59.6279C38.9071 58.1973 40.0699 57.0349 41.5 57.0349C42.9308 57.0349 44.0931 58.1973 44.0931 59.6279C44.0931 61.0585 42.9308 62.2208 41.5 62.2208ZM41.5 58.3315C40.7853 58.3315 40.2035 58.9138 40.2035 59.6279C40.2035 60.342 40.7853 60.9243 41.5 60.9243C42.2146 60.9243 42.7966 60.342 42.7966 59.6279C42.7966 58.9138 42.2146 58.3315 41.5 58.3315ZM30.4882 79.0776C30.3912 79.0775 30.2954 79.0557 30.2078 79.0137C30.1203 78.9717 30.0433 78.9107 29.9826 78.835C29.9218 78.7593 29.8787 78.671 29.8565 78.5765C29.8344 78.482 29.8337 78.3837 29.8546 78.2889L32.4475 66.6206C32.5253 66.2724 32.8766 66.057 33.2211 66.128C33.3889 66.1655 33.5349 66.268 33.6273 66.413C33.7196 66.558 33.7507 66.7337 33.7137 66.9016L31.1208 78.5699C31.0887 78.7138 31.0086 78.8425 30.8937 78.9348C30.7787 79.0271 30.6357 79.0774 30.4882 79.0776ZM52.5124 79.0776C52.3649 79.0776 52.2218 79.0273 52.1068 78.935C51.9917 78.8426 51.9116 78.7139 51.8796 78.5699L49.2868 66.9016C49.2497 66.7337 49.2807 66.558 49.373 66.413C49.4653 66.268 49.6113 66.1655 49.7791 66.128C50.1273 66.0558 50.4754 66.2724 50.5525 66.6206L53.1456 78.2889C53.1665 78.3837 53.1658 78.4819 53.1437 78.5764C53.1216 78.6709 53.0786 78.7592 53.0179 78.8349C52.9571 78.9105 52.8802 78.9716 52.7927 79.0136C52.7052 79.0556 52.6095 79.0775 52.5124 79.0776Z" fill="black"/>
<path d="M54.4651 79.0776H28.5354C28.4502 79.0777 28.3659 79.061 28.2872 79.0284C28.2085 78.9959 28.137 78.9481 28.0768 78.8879C28.0166 78.8277 27.9689 78.7562 27.9363 78.6775C27.9037 78.5988 27.887 78.5145 27.8871 78.4294C27.887 78.3442 27.9038 78.2599 27.9363 78.1813C27.9689 78.1026 28.0167 78.0311 28.0769 77.9709C28.1371 77.9107 28.2086 77.863 28.2872 77.8305C28.3659 77.7979 28.4502 77.7812 28.5354 77.7813H54.4651C54.5502 77.7812 54.6345 77.7979 54.7132 77.8305C54.7918 77.8631 54.8633 77.9108 54.9235 77.971C54.9837 78.0312 55.0314 78.1026 55.0639 78.1813C55.0965 78.2599 55.1132 78.3442 55.1132 78.4294C55.1133 78.5145 55.0965 78.5988 55.064 78.6775C55.0314 78.7562 54.9837 78.8276 54.9235 78.8879C54.8633 78.9481 54.7919 78.9958 54.7132 79.0284C54.6345 79.0609 54.5502 79.0777 54.4651 79.0776ZM78.4496 76.4847H64.1884C61.6867 76.4847 59.651 74.4488 59.651 71.9471V43.4244C59.651 40.9226 61.6869 38.8868 64.1884 38.8868H78.4496C80.9516 38.8868 82.9874 40.9228 82.9874 43.4244V71.9469C82.9874 74.4488 80.9515 76.4847 78.4496 76.4847ZM64.1884 40.1832C62.4008 40.1832 60.9472 41.6373 60.9472 43.4244V71.9469C60.9472 73.7347 62.4008 75.1882 64.1884 75.1882H78.4496C80.2376 75.1882 81.6909 73.7347 81.6909 71.9469V43.4244C81.6909 41.6375 80.2376 40.1832 78.4496 40.1832H64.1884Z" fill="black"/>
<path d="M79.7461 53.1685H62.8918C62.8066 53.1685 62.7223 53.1517 62.6437 53.1192C62.565 53.0866 62.4936 53.0388 62.4334 52.9786C62.3732 52.9184 62.3255 52.847 62.2929 52.7683C62.2603 52.6896 62.2436 52.6053 62.2437 52.5202V44.7414C62.2436 44.6562 62.2603 44.5719 62.2929 44.4933C62.3254 44.4146 62.3731 44.3431 62.4333 44.2829C62.4935 44.2227 62.565 44.1749 62.6437 44.1424C62.7223 44.1098 62.8066 44.0931 62.8918 44.0931H79.7461C79.8313 44.093 79.9156 44.1098 79.9943 44.1423C80.0729 44.1749 80.1444 44.2226 80.2046 44.2828C80.2648 44.3431 80.3125 44.4146 80.3451 44.4932C80.3776 44.5719 80.3943 44.6562 80.3942 44.7414V52.5202C80.3943 52.6053 80.3776 52.6896 80.345 52.7683C80.3125 52.847 80.2647 52.9185 80.2046 52.9787C80.1444 53.0389 80.0729 53.0866 79.9942 53.1192C79.9156 53.1518 79.8313 53.1685 79.7461 53.1685ZM63.5402 51.8718H79.098V45.3893H63.5402V51.8718ZM79.7461 64.8366H62.8918C62.8066 64.8367 62.7223 64.8199 62.6437 64.7874C62.565 64.7548 62.4935 64.707 62.4333 64.6468C62.3731 64.5866 62.3254 64.5151 62.2929 64.4365C62.2603 64.3578 62.2436 64.2735 62.2437 64.1883V55.1131C62.2436 55.028 62.2603 54.9437 62.2929 54.865C62.3254 54.7863 62.3731 54.7149 62.4333 54.6547C62.4935 54.5944 62.565 54.5467 62.6437 54.5141C62.7223 54.4816 62.8066 54.4648 62.8918 54.4649H79.7461C79.8313 54.4648 79.9156 54.4815 79.9943 54.5141C80.0729 54.5466 80.1444 54.5944 80.2046 54.6546C80.2648 54.7148 80.3125 54.7863 80.3451 54.865C80.3776 54.9437 80.3943 55.028 80.3942 55.1131V64.1883C80.3943 64.2735 80.3776 64.3578 80.3451 64.4365C80.3125 64.5152 80.2648 64.5867 80.2046 64.6469C80.1444 64.7071 80.0729 64.7548 79.9943 64.7874C79.9156 64.82 79.8313 64.8367 79.7461 64.8366ZM63.5402 63.5401H79.098V55.7612H63.5402V63.5401ZM73.2635 42.7965H69.3742C69.0158 42.7965 68.7261 42.5065 68.7261 42.1483C68.7261 41.79 69.0158 41.5 69.3742 41.5H73.2635C73.6219 41.5 73.912 41.79 73.912 42.1483C73.912 42.5065 73.6219 42.7965 73.2635 42.7965Z" fill="black"/>
<path d="M77.1939 47.9825H65.5254C65.167 47.9825 64.877 47.6925 64.877 47.3342C64.877 46.9759 65.167 46.6859 65.5254 46.6859H77.1939C77.552 46.6859 77.842 46.9759 77.842 47.3342C77.842 47.6925 77.552 47.9825 77.1939 47.9825ZM74.5602 50.5752H68.1589C68.0737 50.5753 67.9894 50.5585 67.9108 50.526C67.8321 50.4934 67.7607 50.4457 67.7005 50.3855C67.6403 50.3253 67.5926 50.2539 67.56 50.1752C67.5274 50.0966 67.5107 50.0123 67.5107 49.9271C67.5107 49.842 67.5274 49.7577 67.5599 49.679C67.5925 49.6003 67.6402 49.5289 67.7004 49.4686C67.7606 49.4084 67.8321 49.3607 67.9108 49.3281C67.9894 49.2956 68.0737 49.2788 68.1589 49.2789H74.5602C74.6454 49.2788 74.7297 49.2955 74.8084 49.3281C74.887 49.3606 74.9585 49.4084 75.0187 49.4686C75.0789 49.5288 75.1267 49.6003 75.1592 49.679C75.1917 49.7577 75.2084 49.842 75.2084 49.9271C75.2084 50.0123 75.1917 50.0966 75.1591 50.1752C75.1266 50.2539 75.0789 50.3254 75.0187 50.3856C74.9585 50.4458 74.887 50.4935 74.8083 50.526C74.7297 50.5586 74.6454 50.5753 74.5602 50.5752ZM71.3594 75.2086C70.287 75.2086 69.4147 74.3361 69.4147 73.2638C69.4147 72.1914 70.287 71.3191 71.3594 71.3191C72.4317 71.3191 73.3041 72.1914 73.3041 73.2638C73.3041 74.3361 72.4319 75.2086 71.3594 75.2086ZM71.3594 72.6155C71.1876 72.6158 71.023 72.6842 70.9015 72.8057C70.78 72.9272 70.7116 73.0918 70.7113 73.2636C70.7116 73.4354 70.78 73.6001 70.9015 73.7216C71.0229 73.843 71.1876 73.9115 71.3594 73.9119C71.7165 73.9119 72.0078 73.6207 72.0078 73.2636C72.0074 73.0918 71.939 72.9271 71.8175 72.8056C71.6959 72.6841 71.5312 72.6158 71.3594 72.6155ZM79.7461 67.4296H62.8918C62.5337 67.4296 62.2437 67.1396 62.2437 66.7813C62.2437 66.4231 62.5337 66.133 62.8918 66.133H79.7461C80.1045 66.133 80.3942 66.4231 80.3942 66.7813C80.3942 67.1396 80.1045 67.4296 79.7461 67.4296ZM79.7461 70.0225H62.8918C62.5337 70.0225 62.2437 69.7325 62.2437 69.3743C62.2437 69.016 62.5337 68.726 62.8918 68.726H79.7461C80.1045 68.726 80.3942 69.016 80.3942 69.3743C80.3942 69.7325 80.1045 70.0225 79.7461 70.0225ZM79.7461 64.8367C79.6338 64.8368 79.5234 64.8077 79.4257 64.7522C79.3281 64.6967 79.2465 64.6168 79.1891 64.5202L75.8566 58.9467L72.5241 64.5202C72.4347 64.6649 72.292 64.7687 72.1267 64.8092C71.9615 64.8496 71.787 64.8235 71.6408 64.7365C71.4946 64.6495 71.3885 64.5085 71.3453 64.3439C71.3021 64.1794 71.3254 64.0045 71.41 63.8569L75.2993 57.3516C75.5348 56.9591 76.1783 56.9591 76.4135 57.3516L80.3031 63.8569C80.3909 64.0047 80.4165 64.1812 80.3742 64.3478C80.3319 64.5145 80.2253 64.6575 80.0776 64.7456C79.9772 64.805 79.8628 64.8364 79.7461 64.8367Z" fill="black"/>
<path d="M68.0777 64.8366C67.9502 64.8367 67.8255 64.7987 67.7196 64.7277C67.6487 64.6807 67.5878 64.6202 67.5403 64.5496C67.4928 64.4791 67.4597 64.3998 67.4429 64.3164C67.4261 64.2331 67.4259 64.1472 67.4423 64.0637C67.4587 63.9803 67.4914 63.9009 67.5385 63.8301L70.1313 59.9203C70.3694 59.5583 70.9723 59.5583 71.21 59.9203L73.1217 62.802C73.1689 62.8728 73.2016 62.9522 73.218 63.0356C73.2344 63.119 73.2342 63.2049 73.2175 63.2883C73.2007 63.3716 73.1676 63.4509 73.1202 63.5214C73.0727 63.592 73.0118 63.6526 72.941 63.6996C72.6408 63.8996 72.2381 63.8161 72.0434 63.5187L70.6708 61.4511L68.6172 64.5468C68.5585 64.6361 68.4784 64.7095 68.3842 64.7601C68.29 64.8107 68.1846 64.837 68.0777 64.8366ZM38.2595 47.9824C38.1513 47.9825 38.0449 47.9556 37.9498 47.9041C37.8547 47.8526 37.774 47.7781 37.7151 47.6874L29.8317 35.5589L21.9485 47.6874C21.8548 47.8316 21.7077 47.9327 21.5395 47.9686C21.3713 48.0044 21.1958 47.9721 21.0514 47.8787C20.9073 47.7848 20.8063 47.6375 20.7706 47.4693C20.7349 47.301 20.7674 47.1254 20.8609 46.9811L29.288 34.0162C29.5274 33.6477 30.1363 33.6477 30.3756 34.0162L38.8027 46.9811C38.8962 47.1255 38.9287 47.301 38.8929 47.4693C38.8572 47.6376 38.7562 47.7848 38.6121 47.8787C38.5071 47.9468 38.3846 47.9828 38.2595 47.9824Z" fill="black"/>
<path d="M16.218 47.9824C16.1007 47.9824 15.9856 47.9505 15.885 47.8902C15.7844 47.8298 15.702 47.7433 15.6467 47.6399C15.5914 47.5364 15.5652 47.4199 15.571 47.3027C15.5767 47.1855 15.6142 47.0721 15.6793 46.9746L20.8652 39.2038C20.9245 39.1151 21.0047 39.0423 21.0987 38.992C21.1928 38.9417 21.2979 38.9154 21.4046 38.9154C21.5113 38.9154 21.6163 38.9417 21.7104 38.992C21.8045 39.0423 21.8847 39.1151 21.9439 39.2038L24.4989 43.0332C24.5462 43.104 24.579 43.1834 24.5955 43.2669C24.6121 43.3505 24.612 43.4364 24.5953 43.5199C24.5786 43.6034 24.5456 43.6827 24.4982 43.7535C24.4508 43.8242 24.39 43.8849 24.3191 43.9321C24.0217 44.1284 23.6183 44.0499 23.4202 43.7525L21.4046 40.7316L16.758 47.6938C16.6987 47.7827 16.6184 47.8555 16.5242 47.9059C16.43 47.9562 16.3248 47.9825 16.218 47.9824ZM66.8219 60.9471C65.7496 60.9471 64.8769 60.0748 64.8769 59.0024C64.8769 57.9301 65.7496 57.0578 66.8219 57.0578C67.8943 57.0578 68.7666 57.9301 68.7666 59.0024C68.7666 60.0748 67.8943 60.9471 66.8219 60.9471ZM66.8219 58.3543C66.4648 58.3543 66.1735 58.6455 66.1735 59.0024C66.1738 59.1743 66.2423 59.339 66.3638 59.4605C66.4854 59.582 66.6501 59.6504 66.8219 59.6507C66.9937 59.6503 67.1584 59.5819 67.2799 59.4604C67.4013 59.3389 67.4697 59.1742 67.4701 59.0024C67.4697 58.8306 67.4013 58.666 67.2798 58.5445C67.1584 58.423 66.9937 58.3546 66.8219 58.3543ZM14.9221 38.907C13.135 38.907 11.6809 37.4529 11.6809 35.6658C11.6809 33.8789 13.135 32.4248 14.9221 32.4248C16.7092 32.4248 18.1633 33.8789 18.1633 35.6658C18.1633 37.4529 16.7092 38.907 14.9221 38.907ZM14.9221 33.7211C13.8498 33.7211 12.9775 34.5935 12.9775 35.6658C12.9775 36.7382 13.8498 37.6106 14.9221 37.6106C15.9945 37.6106 16.8668 36.7383 16.8668 35.6658C16.8668 34.5935 15.9946 33.7211 14.9221 33.7211ZM78.4496 11.6811H4.55038C4.46523 11.6811 4.38091 11.6644 4.30224 11.6318C4.22357 11.5992 4.15209 11.5515 4.09188 11.4913C4.03167 11.4311 3.98392 11.3596 3.95136 11.2809C3.9188 11.2023 3.90206 11.1179 3.9021 11.0328C3.90206 10.9477 3.9188 10.8633 3.95136 10.7847C3.98392 10.706 4.03167 10.6345 4.09188 10.5743C4.15209 10.5141 4.22357 10.4663 4.30224 10.4338C4.38091 10.4012 4.46523 10.3845 4.55038 10.3845H78.4496C78.808 10.3845 79.098 10.6745 79.098 11.0328C79.098 11.118 79.0813 11.2023 79.0487 11.281C79.0161 11.3597 78.9684 11.4311 78.9082 11.4913C78.8479 11.5516 78.7764 11.5993 78.6977 11.6319C78.619 11.6644 78.5347 11.6811 78.4496 11.6811ZM74.5602 25.9422H8.4397C8.35456 25.9422 8.27024 25.9255 8.19157 25.8929C8.1129 25.8603 8.04141 25.8126 7.98121 25.7524C7.921 25.6922 7.87325 25.6207 7.84069 25.542C7.80812 25.4633 7.79139 25.379 7.79143 25.2939V14.9221C7.79139 14.837 7.80812 14.7527 7.84069 14.674C7.87325 14.5953 7.921 14.5238 7.98121 14.4636C8.04141 14.4034 8.1129 14.3557 8.19157 14.3231C8.27024 14.2905 8.35456 14.2738 8.4397 14.2739H74.5601C74.6452 14.2738 74.7295 14.2905 74.8082 14.3231C74.8869 14.3556 74.9584 14.4034 75.0186 14.4636C75.0788 14.5238 75.1265 14.5953 75.159 14.674C75.1916 14.7527 75.2083 14.837 75.2082 14.9221V25.2939C75.2083 25.379 75.1916 25.4633 75.1591 25.542C75.1266 25.6207 75.0788 25.6922 75.0187 25.7524C74.9585 25.8126 74.887 25.8604 74.8083 25.8929C74.7297 25.9255 74.6454 25.9422 74.5602 25.9422ZM9.08798 24.6458H73.912V15.5704H9.08798V24.6458Z" fill="black"/>
<path d="M39.5552 47.9825H8.43979C8.35464 47.9825 8.27033 47.9658 8.19165 47.9332C8.11298 47.9007 8.0415 47.8529 7.98129 47.7927C7.92109 47.7325 7.87334 47.661 7.84077 47.5823C7.80821 47.5037 7.79147 47.4193 7.79151 47.3342V29.1835C7.79147 29.0983 7.80821 29.014 7.84077 28.9353C7.87334 28.8567 7.92109 28.7852 7.98129 28.725C8.0415 28.6648 8.11298 28.617 8.19165 28.5844C8.27033 28.5519 8.35464 28.5351 8.43979 28.5352H39.5552C39.6404 28.5351 39.7247 28.5519 39.8034 28.5844C39.882 28.617 39.9535 28.6648 40.0137 28.725C40.0739 28.7852 40.1217 28.8567 40.1542 28.9353C40.1868 29.014 40.2035 29.0983 40.2035 29.1835V47.3342C40.2035 47.4193 40.1868 47.5037 40.1542 47.5823C40.1217 47.661 40.0739 47.7325 40.0137 47.7927C39.9535 47.8529 39.882 47.9007 39.8034 47.9332C39.7247 47.9658 39.6404 47.9825 39.5552 47.9825ZM9.08806 46.6859H38.9071V29.8317H9.08806V46.6859ZM74.5603 35.0176H43.4447C43.3596 35.0176 43.2753 35.0009 43.1966 34.9683C43.118 34.9357 43.0465 34.888 42.9863 34.8278C42.9261 34.7676 42.8784 34.6961 42.8458 34.6174C42.8133 34.5388 42.7966 34.4545 42.7966 34.3693C42.7966 34.2842 42.8133 34.1999 42.8458 34.1212C42.8784 34.0426 42.9261 33.9711 42.9863 33.9109C43.0465 33.8507 43.118 33.8029 43.1966 33.7704C43.2753 33.7378 43.3596 33.721 43.4447 33.7211H74.5601C74.6453 33.721 74.7296 33.7378 74.8083 33.7703C74.8869 33.8029 74.9584 33.8506 75.0186 33.9109C75.0788 33.9711 75.1265 34.0425 75.1591 34.1212C75.1916 34.1999 75.2083 34.2842 75.2083 34.3693C75.2084 34.4545 75.1917 34.5388 75.1592 34.6175C75.1266 34.6962 75.0789 34.7676 75.0187 34.8279C74.9585 34.8881 74.8871 34.9358 74.8084 34.9684C74.7298 35.001 74.6454 35.0177 74.5603 35.0176ZM74.5603 31.1283H43.4447C43.0866 31.1283 42.7966 30.8384 42.7966 30.48C42.7966 30.1216 43.0866 29.8317 43.4447 29.8317H74.5601C74.9186 29.8317 75.2083 30.1216 75.2083 30.48C75.2083 30.8384 74.9186 31.1283 74.5603 31.1283ZM56.4097 38.9071H43.4447C43.3596 38.9072 43.2753 38.8904 43.1966 38.8578C43.1179 38.8253 43.0465 38.7775 42.9863 38.7173C42.9261 38.6571 42.8783 38.5856 42.8458 38.507C42.8133 38.4283 42.7965 38.344 42.7966 38.2588C42.7966 38.1737 42.8133 38.0894 42.8458 38.0107C42.8784 37.9321 42.9261 37.8606 42.9863 37.8004C43.0465 37.7402 43.118 37.6924 43.1966 37.6599C43.2753 37.6273 43.3596 37.6105 43.4447 37.6106H56.4097C56.4949 37.6105 56.5792 37.6273 56.6578 37.6599C56.7365 37.6924 56.8079 37.7402 56.8681 37.8004C56.9283 37.8606 56.976 37.9321 57.0086 38.0107C57.0412 38.0894 57.0579 38.1737 57.0578 38.2588C57.0579 38.344 57.0412 38.4283 57.0086 38.507C56.9761 38.5856 56.9284 38.6571 56.8682 38.7173C56.808 38.7775 56.7365 38.8253 56.6578 38.8578C56.5792 38.8904 56.4949 38.9072 56.4097 38.9071ZM55.1132 42.7966H43.4447C43.0866 42.7966 42.7966 42.5066 42.7966 42.1483C42.7966 41.7901 43.0866 41.5 43.4447 41.5H55.1132C55.4716 41.5 55.7613 41.7901 55.7613 42.1483C55.7613 42.5066 55.4716 42.7966 55.1132 42.7966ZM55.1132 46.6859H43.4447C43.0866 46.6859 42.7966 46.3959 42.7966 46.0377C42.7966 45.6794 43.0866 45.3894 43.4447 45.3894H55.1132C55.4716 45.3894 55.7613 45.6794 55.7613 46.0377C55.7613 46.3959 55.4716 46.6859 55.1132 46.6859ZM82.3393 9.08822C81.9809 9.08822 81.6908 8.79821 81.6908 8.43995C81.6908 6.62254 80.268 5.19873 78.4496 5.19873H4.55046C2.73305 5.19873 1.30925 6.62254 1.30925 8.43995C1.30929 8.52509 1.29255 8.60941 1.25999 8.68808C1.22742 8.76675 1.17967 8.83824 1.11947 8.89844C1.05926 8.95865 0.987777 9.0064 0.909105 9.03896C0.830434 9.07153 0.746115 9.08827 0.660971 9.08822C0.575826 9.08827 0.491508 9.07153 0.412836 9.03896C0.334164 9.0064 0.262682 8.95865 0.202476 8.89844C0.142269 8.83824 0.0945194 8.76675 0.0619556 8.68808C0.0293918 8.60941 0.0126528 8.52509 0.0126954 8.43995C0.0126954 5.8958 2.00615 3.90234 4.5503 3.90234H78.4495C80.9944 3.90234 82.9872 5.8958 82.9872 8.43995C82.9873 8.52508 82.9706 8.60939 82.9381 8.68806C82.9056 8.76673 82.8578 8.83821 82.7977 8.89842C82.7375 8.95863 82.666 9.00639 82.5874 9.03896C82.5087 9.07152 82.4244 9.08827 82.3393 9.08822ZM55.1132 67.4296H4.55046C2.00632 67.4296 0.0128575 65.4368 0.0128575 62.8918V60.2991C0.0128149 60.2139 0.0295539 60.1296 0.0621177 60.0509C0.0946815 59.9723 0.142432 59.9008 0.202638 59.8406C0.262844 59.7804 0.334327 59.7326 0.412998 59.7C0.49167 59.6675 0.575988 59.6507 0.661133 59.6508C0.746278 59.6507 0.830596 59.6675 0.909267 59.7C0.987939 59.7326 1.05942 59.7804 1.11963 59.8406C1.17983 59.9008 1.22758 59.9723 1.26015 60.0509C1.29271 60.1296 1.30945 60.2139 1.30941 60.2991V62.8918C1.30941 64.7101 2.73321 66.1331 4.55062 66.1331H55.1133C55.4718 66.1331 55.7615 66.4231 55.7615 66.7813C55.7615 67.1396 55.4716 67.4296 55.1132 67.4296Z" fill="black"/>
<path d="M55.1131 64.8253H4.55042C2.00628 64.8253 0.0128175 62.8312 0.0128175 60.2877V57.6947C0.0127748 57.6096 0.0295139 57.5253 0.0620777 57.4466C0.0946415 57.3679 0.142391 57.2964 0.202598 57.2362C0.262804 57.176 0.334287 57.1283 0.412958 57.0957C0.49163 57.0631 0.575948 57.0464 0.661093 57.0464C0.746238 57.0464 0.830556 57.0631 0.909228 57.0957C0.987899 57.1283 1.05938 57.176 1.11959 57.2362C1.17979 57.2964 1.22754 57.3679 1.26011 57.4466C1.29267 57.5253 1.30941 57.6096 1.30937 57.6947V60.2877C1.30937 62.1044 2.73317 63.5289 4.55058 63.5289H55.1133C55.1984 63.5288 55.2827 63.5455 55.3614 63.5781C55.4401 63.6106 55.5115 63.6584 55.5717 63.7186C55.6319 63.7788 55.6797 63.8502 55.7122 63.9289C55.7448 64.0076 55.7615 64.0919 55.7614 64.177C55.7615 64.2621 55.7447 64.3465 55.7122 64.4251C55.6796 64.5038 55.6318 64.5753 55.5716 64.6355C55.5114 64.6957 55.44 64.7434 55.3613 64.776C55.2826 64.8086 55.1983 64.8253 55.1131 64.8253Z" fill="black"/>
<path d="M0.661093 58.3429C0.575948 58.3429 0.49163 58.3262 0.412958 58.2936C0.334287 58.2611 0.262804 58.2133 0.202598 58.1531C0.142391 58.0929 0.0946415 58.0214 0.0620777 57.9427C0.0295139 57.8641 0.0127748 57.7798 0.0128175 57.6946V8.43978C0.0127748 8.35463 0.0295139 8.27032 0.0620777 8.19164C0.0946415 8.11297 0.142391 8.04149 0.202598 7.98128C0.262804 7.92108 0.334287 7.87333 0.412958 7.84076C0.49163 7.8082 0.575948 7.79146 0.661093 7.7915C0.746238 7.79146 0.830556 7.8082 0.909227 7.84076C0.987899 7.87333 1.05938 7.92108 1.11959 7.98128C1.17979 8.04149 1.22754 8.11297 1.26011 8.19164C1.29267 8.27032 1.30941 8.35463 1.30937 8.43978V57.6946C1.30939 57.7797 1.29264 57.8641 1.26006 57.9427C1.22749 58.0214 1.17974 58.0929 1.11954 58.1531C1.05934 58.2133 0.987864 58.261 0.909202 58.2936C0.83054 58.3262 0.746232 58.3429 0.661093 58.3429ZM82.3392 36.3142C81.9808 36.3142 81.6908 36.0243 81.6908 35.6659V8.43978C81.6908 8.35462 81.7075 8.27029 81.7401 8.19161C81.7727 8.11292 81.8204 8.04144 81.8806 7.98123C81.9409 7.92102 82.0124 7.87327 82.0911 7.84072C82.1698 7.80816 82.2541 7.79144 82.3392 7.7915C82.4244 7.79148 82.5087 7.80824 82.5873 7.84081C82.666 7.87338 82.7374 7.92114 82.7976 7.98134C82.8578 8.04155 82.9056 8.11302 82.9381 8.19168C82.9707 8.27034 82.9874 8.35465 82.9874 8.43978V35.6657C82.9874 36.0243 82.6973 36.3142 82.3392 36.3142ZM78.4496 9.08822H4.55042C4.46528 9.08826 4.38096 9.07152 4.30229 9.03896C4.22361 9.00639 4.15213 8.95864 4.09193 8.89844C4.03172 8.83823 3.98397 8.76675 3.95141 8.68808C3.91884 8.6094 3.9021 8.52509 3.90215 8.43994C3.9021 8.3548 3.91884 8.27048 3.95141 8.19181C3.98397 8.11314 4.03172 8.04165 4.09193 7.98145C4.15213 7.92124 4.22361 7.87349 4.30229 7.84093C4.38096 7.80836 4.46528 7.79162 4.55042 7.79167H78.4496C78.808 7.79167 79.098 8.08168 79.098 8.43994C79.0981 8.5251 79.0813 8.60943 79.0488 8.68811C79.0162 8.7668 78.9684 8.83829 78.9082 8.89849C78.848 8.9587 78.7765 9.00645 78.6978 9.039C78.6191 9.07156 78.5348 9.08828 78.4496 9.08822ZM55.1131 51.8718H4.55042C4.19216 51.8718 3.90215 51.5818 3.90215 51.2235C3.90215 50.8653 4.19216 50.5752 4.55042 50.5752H55.1131C55.4716 50.5752 55.7612 50.8653 55.7612 51.2235C55.7612 51.5818 55.4716 51.8718 55.1131 51.8718Z" fill="black"/>
<path d="M4.55038 51.8718C4.46523 51.8718 4.38091 51.8551 4.30224 51.8225C4.22357 51.79 4.15209 51.7422 4.09188 51.682C4.03167 51.6218 3.98392 51.5503 3.95136 51.4717C3.9188 51.393 3.90206 51.3087 3.9021 51.2235V8.43978C3.90206 8.35463 3.9188 8.27032 3.95136 8.19164C3.98392 8.11297 4.03167 8.04149 4.09188 7.98128C4.15209 7.92108 4.22357 7.87333 4.30224 7.84076C4.38091 7.8082 4.46523 7.79146 4.55038 7.7915C4.63552 7.79146 4.71984 7.8082 4.79851 7.84076C4.87718 7.87333 4.94866 7.92108 5.00887 7.98128C5.06908 8.04149 5.11683 8.11297 5.14939 8.19164C5.18195 8.27032 5.19869 8.35463 5.19865 8.43978V51.2235C5.19869 51.3087 5.18195 51.393 5.14939 51.4717C5.11683 51.5503 5.06908 51.6218 5.00887 51.682C4.94866 51.7422 4.87718 51.79 4.79851 51.8225C4.71984 51.8551 4.63552 51.8718 4.55038 51.8718ZM78.4496 35.0176C78.3644 35.0176 78.2801 35.0009 78.2015 34.9683C78.1228 34.9357 78.0514 34.888 77.9912 34.8278C77.931 34.7676 77.8832 34.6961 77.8507 34.6174C77.8181 34.5388 77.8014 34.4545 77.8014 34.3693V8.43978C77.8014 8.35465 77.8181 8.27034 77.8507 8.19168C77.8832 8.11302 77.931 8.04155 77.9912 7.98134C78.0514 7.92114 78.1228 7.87338 78.2015 7.84081C78.2801 7.80824 78.3644 7.79148 78.4496 7.7915C78.808 7.7915 79.098 8.08152 79.098 8.43978V34.3693C79.098 34.4545 79.0813 34.5388 79.0487 34.6175C79.0161 34.6962 78.9684 34.7677 78.9082 34.8279C78.8479 34.8881 78.7764 34.9358 78.6977 34.9684C78.619 35.001 78.5347 35.0177 78.4496 35.0176ZM78.4496 79.0979H64.1883C61.6437 79.0979 59.6509 77.1051 59.6509 74.5603V71.9674C59.6509 71.6091 59.9406 71.3191 60.299 71.3191C60.6574 71.3191 60.9471 71.6091 60.9471 71.9674V74.5603C60.9471 76.3784 62.3703 77.8015 64.1883 77.8015H78.4496C80.2679 77.8015 81.6908 76.3784 81.6908 74.5603V71.9876C81.6907 71.9025 81.7075 71.8181 81.7401 71.7395C81.7726 71.6608 81.8204 71.5893 81.8806 71.5291C81.9408 71.4689 82.0123 71.4211 82.091 71.3886C82.1697 71.356 82.2541 71.3393 82.3392 71.3394C82.4243 71.3393 82.5086 71.3561 82.5873 71.3887C82.6659 71.4212 82.7374 71.469 82.7976 71.5292C82.8578 71.5894 82.9055 71.6609 82.9381 71.7395C82.9706 71.8182 82.9874 71.9025 82.9873 71.9876V74.5603C82.9873 77.1051 80.9945 79.0979 78.4496 79.0979Z" fill="black"/>
<path d="M69.3743 20.7563H13.6258C13.2676 20.7563 12.9775 20.4664 12.9775 20.108C12.9775 19.7496 13.2674 19.4597 13.6258 19.4597H69.3744C69.7328 19.4597 70.0225 19.7496 70.0225 20.108C70.0225 20.4664 69.7327 20.7563 69.3743 20.7563Z" fill="black"/>
</svg>
