<svg width="46" height="46" viewBox="0 0 46 46" fill="none" xmlns="http://www.w3.org/2000/svg">
<g clip-path="url(#clip0_491_235)">
<mask id="mask0_491_235" style="mask-type:luminance" maskUnits="userSpaceOnUse" x="0" y="0" width="46" height="46">
<path d="M46 0H0V46H46V0Z" fill="white"/>
</mask>
<g mask="url(#mask0_491_235)">
<path fill-rule="evenodd" clip-rule="evenodd" d="M13.477 0L0 13.4687V32.5313L13.477 46H32.5214L46 32.5313V13.4687L32.5214 0H13.477Z" fill="#0061AA"/>
<path d="M23.5936 30.4468H18.5449V15.5527H23.5936C27.8666 15.5527 31.0721 18.7152 31.0721 22.9898C31.0721 27.2645 27.8666 30.4468 23.5936 30.4468ZM23.5936 18.7997H21.7919V27.1799H23.5936C26.0649 27.1799 27.8251 25.4827 27.8251 22.9898C27.8251 20.497 26.0649 18.7997 23.5936 18.7997Z" fill="white"/>
<path d="M31.4844 30.7355V19.0685H27.0938V15.3027H39.7402V19.0685H35.3115V30.7355H31.4844Z" fill="white"/>
<path d="M39.4476 15.5938V18.7795H35.0205V30.4465H31.7735V18.7795H27.3829V15.5938H39.4493M40.0294 15.0137H26.8027V19.353H31.1934V31.02H35.5957V19.353H40.0244V15.0137H40.0294Z" fill="#0061AA"/>
<path d="M18.0266 30.7367L17.2559 29.2135H11.0287L10.2364 30.7367H6.07617L14.1431 14.9492L22.1885 30.7367H18.0266ZM15.3746 25.5488L14.1415 23.1255L12.8884 25.5488H15.3746Z" fill="white"/>
<path d="M14.1417 15.5867L21.713 30.446H18.2025L17.4318 28.9228H10.8532L10.061 30.446H6.55041L14.1417 15.5867ZM12.4162 25.8382H15.8472L14.1417 22.4885L12.4162 25.8382ZM14.1433 14.3105L13.6262 15.3232L6.03494 30.1825L5.5957 31.0261H10.4024L10.5681 30.7129L11.198 29.5029H17.0671L17.6771 30.7079L17.8428 31.0261H22.6495L22.2202 30.1825L14.6588 15.3232L14.1433 14.3105ZM13.3693 25.2498L14.14 23.7581L14.9024 25.2498H13.3693Z" fill="#0061AA"/>
</g>
</g>
<defs>
<clipPath id="clip0_491_235">
<rect width="46" height="46" fill="white"/>
</clipPath>
</defs>
</svg>
