<svg width="264" height="40" viewBox="0 0 264 40" fill="none" xmlns="http://www.w3.org/2000/svg">
<g clip-path="url(#clip0_491_246)">
<path d="M67.2698 30.79C67.1443 30.4205 66.987 30.0625 66.7998 29.72C66.6138 29.37 66.3997 29.0356 66.1598 28.72C58.2698 19.43 50.1898 9.57 42.3998 0L34.8798 9L34.5898 9.36C40.3898 16.2 46.1098 22.98 51.7198 29.89L51.9298 30.19L52.1998 30.62C52.8811 31.8805 53.2049 33.3032 53.1361 34.7343C53.0674 36.1655 52.6088 37.5506 51.8098 38.74L50.9998 39.91H64.9998C66.2117 38.7668 67.0699 37.2996 67.4723 35.6829C67.8747 34.0662 67.8044 32.3679 67.2698 30.79Z" fill="#009FE0"/>
<path d="M29.5801 23.6791C30.3201 26.4591 32.7101 28.6791 33.8701 31.1291C35.0301 28.6491 37.4201 26.4591 38.1601 23.6791C39.6201 19.3891 36.0001 15.9991 33.8901 12.6191C31.7501 15.9991 28.1401 19.3891 29.5801 23.6791Z" fill="#00529F"/>
<path d="M33.8806 33.0007C33.6106 32.3707 33.0106 31.2507 33.0106 31.2507C33.0106 31.2507 30.8206 26.1007 24.0106 26.2507C22.0106 26.3007 21.4306 26.3407 21.0706 26.3507C20.7106 26.3607 20.4406 26.3507 20.0706 26.3507C19.9681 26.7872 19.9078 27.2326 19.8906 27.6807C19.793 28.7822 19.9579 29.8911 20.3716 30.9167C20.7853 31.9422 21.436 32.8551 22.2706 33.5807C24.1006 35.4407 25.9706 35.5807 28.7706 35.7207C31.5706 35.8607 32.2306 36.6007 32.7706 37.2207C33.2371 37.8902 33.5949 38.6294 33.8306 39.4107C34.0662 38.6294 34.424 37.8902 34.8906 37.2207C35.4506 36.5907 36.1106 35.8807 38.8906 35.7207C41.6706 35.5607 43.5706 35.4407 45.3906 33.5807C46.2251 32.8551 46.8759 31.9422 47.2895 30.9167C47.7032 29.8911 47.8681 28.7822 47.7706 27.6807C47.7533 27.2326 47.693 26.7872 47.5906 26.3507C47.2506 26.3507 46.9806 26.3507 46.5906 26.3507C46.2006 26.3507 45.6506 26.3507 43.6506 26.2507C36.8406 26.0707 34.6506 31.2507 34.6506 31.2507C34.6506 31.2507 34.1506 32.3607 33.8806 33.0007Z" fill="#00529F"/>
<path d="M40.9304 0.000234375H26.0004C25.9846 -0.00636693 25.9676 -0.00976563 25.9504 -0.00976562C25.9332 -0.00976563 25.9162 -0.00636693 25.9004 0.000234375C17.7404 9.33023 9.5604 19.3202 1.5804 28.7502C1.33236 29.06 1.11783 29.3952 0.940401 29.7502C0.751679 30.0919 0.594366 30.4501 0.470401 30.8202C-0.0534489 32.3945 -0.116202 34.0858 0.289542 35.6946C0.695285 37.3034 1.5526 38.7626 2.7604 39.9002H16.7604L15.9404 38.7002C15.1415 37.5109 14.6828 36.1257 14.6141 34.6946C14.5454 33.2634 14.8691 31.8407 15.5504 30.5802L15.8104 30.1602L16.0204 29.8702C24.0204 19.9802 32.3204 10.3302 40.7204 0.430234L41.0004 0.000234375H40.8904H40.9304Z" fill="#00529F"/>
<path d="M258.209 18.4707C258.205 17.8972 258.371 17.3353 258.687 16.8563C259.002 16.3772 259.452 16.0024 259.981 15.7792C260.509 15.5561 261.092 15.4947 261.655 15.6027C262.218 15.7107 262.737 15.9833 263.145 16.3861C263.554 16.7888 263.834 17.3036 263.949 17.8654C264.065 18.4272 264.012 19.0106 263.796 19.542C263.58 20.0734 263.211 20.5289 262.737 20.8508C262.262 21.1728 261.703 21.3467 261.129 21.3507C260.748 21.3533 260.371 21.2809 260.018 21.1376C259.665 20.9943 259.344 20.7829 259.073 20.5155C258.801 20.2481 258.586 19.9298 258.437 19.579C258.289 19.2281 258.212 18.8515 258.209 18.4707ZM263.649 18.4707C263.651 17.9671 263.503 17.4742 263.224 17.0548C262.946 16.6353 262.548 16.3083 262.083 16.1151C261.618 15.9219 261.106 15.8713 260.612 15.9698C260.118 16.0684 259.665 16.3115 259.309 16.6683C258.954 17.0251 258.713 17.4796 258.616 17.9739C258.52 18.4682 258.572 18.98 258.767 19.4443C258.962 19.9087 259.291 20.3046 259.711 20.5817C260.132 20.8588 260.625 21.0047 261.129 21.0007C261.463 20.9981 261.794 20.9295 262.102 20.7988C262.41 20.6681 262.689 20.4779 262.923 20.2391C263.157 20.0003 263.342 19.7177 263.466 19.4073C263.591 19.097 263.653 18.7651 263.649 18.4307M262.559 20.0607H262.089L261.149 18.5807H260.419V20.0707H259.999V16.8407H261.409C261.681 16.8168 261.955 16.8688 262.199 16.9907C262.315 17.0644 262.409 17.1665 262.474 17.2874C262.539 17.4082 262.572 17.5436 262.569 17.6807C262.569 18.3207 262.129 18.5607 261.569 18.5807L262.559 20.0607ZM260.999 18.2707C261.459 18.2707 262.159 18.3407 262.159 17.6807C262.159 17.1807 261.709 17.1207 261.309 17.1307H260.379V18.2707H260.999Z" fill="#009FE0"/>
<path d="M176.05 37.9992C176.12 37.4292 175.58 36.9992 175.18 36.6492C174.697 36.2958 174.242 35.9046 173.82 35.4792C173.487 35.056 173.317 34.5273 173.34 33.9892C173.34 33.3392 173.28 32.6892 173.26 32.0392C173.214 30.6659 173.214 29.2959 173.26 27.9292C173.26 26.5892 173.36 25.2192 173.44 23.8792C173.52 22.5392 174.71 22.6792 175.7 22.5692C175.977 22.5737 176.251 22.5158 176.502 22.3998C176.753 22.2838 176.975 22.1127 177.15 21.8992C177.358 21.4627 177.458 20.9824 177.44 20.4992C177.544 19.9431 177.467 19.3684 177.22 18.8592C177.065 18.6951 176.875 18.5684 176.663 18.4887C176.452 18.409 176.225 18.3784 176 18.3992C175.11 18.3992 174 18.6292 173.84 17.4492C173.68 16.2692 174.2 15.2792 173.96 14.1992C173.85 13.7092 173.5 13.1992 172.96 13.1992C172.422 13.2988 171.926 13.5605 171.54 13.9492C170.49 14.7692 169.49 15.6392 168.47 16.4992C167.578 17.4063 166.459 18.0588 165.23 18.3892C163.96 18.6292 162.66 18.4792 161.38 18.6592C160.246 18.812 159.213 19.3913 158.49 20.2792C158.26 20.5592 157.86 21.1592 157.49 21.1692C157.12 21.1792 157.19 20.7792 157.19 20.5592C157.322 19.8414 157.164 19.1007 156.75 18.4992C156.311 18.172 155.766 18.0188 155.22 18.0692C154.58 18.0692 153.93 18.0692 153.3 18.0692C152.67 18.0692 151.91 18.1792 151.22 18.2592C150.635 18.2901 150.062 18.4327 149.53 18.6792C149.286 18.7785 149.08 18.9558 148.947 19.1836C148.813 19.4114 148.758 19.677 148.79 19.9392C148.92 20.4992 149.48 20.8392 149.84 21.2392C150.193 21.6611 150.375 22.1998 150.35 22.7492C150.35 23.3792 150.35 24.0092 150.42 24.6292C150.547 27.4384 150.527 30.2522 150.36 33.0592C150.36 33.7392 150.26 34.4192 150.21 35.0592C150.179 35.6521 149.946 36.2165 149.55 36.6592C149.18 37.0105 148.959 37.4898 148.93 37.9992C148.948 38.249 149.031 38.4897 149.172 38.6969C149.312 38.9041 149.505 39.0705 149.73 39.1792C150.25 39.4058 150.814 39.515 151.38 39.4992L153.2 39.5592C154.387 39.6046 155.576 39.5812 156.76 39.4892C157.53 39.4192 158.5 39.2492 158.83 38.4292C159.16 37.6092 158.54 36.8792 158.11 36.1492C157.875 35.7363 157.763 35.264 157.79 34.7892C157.79 34.1192 157.79 33.4492 157.79 32.7892V28.6192C157.79 27.9192 157.79 27.2292 157.79 26.5292C157.76 25.958 157.881 25.3888 158.14 24.8792C159.08 23.2292 161.14 23.0292 162.86 23.0592C163.28 23.0592 163.7 23.0592 164.12 23.1192C164.538 23.113 164.954 23.1773 165.35 23.3092C165.561 23.401 165.736 23.5592 165.848 23.7597C165.959 23.9602 166.003 24.1919 165.97 24.4192C165.97 25.0592 165.97 25.7092 165.97 26.3492C165.93 27.7759 165.894 29.2026 165.86 30.6292C165.86 31.9692 165.73 33.3092 165.74 34.6292C165.67 35.8068 165.948 36.979 166.54 37.9992C166.54 37.9992 167.46 39.6392 170.74 39.6592C174.02 39.6792 175.87 39.5192 176.05 37.9992Z" fill="#009FE0"/>
<path d="M74.2905 39.9502C70.8705 39.8502 71.6205 37.0002 71.6205 37.0002L73.8705 31.1802C75.5905 27.0002 77.0005 22.6802 78.6705 18.4202L79.6705 15.7202C79.9392 15.0872 80.0818 14.4078 80.0905 13.7202C80.0905 13.7202 79.9205 12.7802 79.6205 12.5502C79.3205 12.3202 78.6205 10.2702 82.7005 10.4002C84.7804 10.3941 86.8585 10.5277 88.9205 10.8002C88.9205 10.8002 90.3605 11.0002 91.0005 13.7002L96.7705 35.4002C96.7705 35.4002 97.1705 36.8902 98.2305 36.8702C99.6805 36.8702 99.6105 34.1102 99.6105 34.1102C99.6105 34.1102 99.7005 32.9402 99.7105 32.5402C99.8405 28.3202 99.9605 23.4202 99.7105 19.0002L99.6005 17.2802C99.4905 15.4002 96.2705 14.0202 99.0805 12.7702C100.903 11.8996 102.772 11.1317 104.68 10.4702C104.68 10.4702 107.33 9.47019 107.22 11.7902C106.9 18.7902 106.65 26.0802 106.81 32.7902C106.81 33.0602 106.88 35.1802 106.88 35.1802C106.88 36.1802 107.88 36.8102 108.29 37.6002C108.29 37.6002 109 38.7302 106.77 39.6002C105.05 40.2402 95.4405 39.9702 91.5705 39.9402C88.0205 39.9402 88.3105 37.9402 88.3105 37.9402C88.5005 36.8602 88.6205 37.0902 89.1405 36.1602C89.2895 35.8586 89.367 35.5266 89.367 35.1902C89.367 34.8538 89.2895 34.5218 89.1405 34.2202C88.8705 33.5102 88.2105 30.8402 88.2105 30.8402C88.1395 30.5923 87.9878 30.3751 87.7796 30.2229C87.5713 30.0708 87.3183 29.9924 87.0605 30.0002C85.5505 29.9002 83.8705 30.1702 82.5305 29.7002C81.6823 29.4227 80.9687 28.8376 80.5305 28.0602C80.5305 28.0602 80.3005 27.7202 80.0305 27.7402C79.7605 27.7602 79.6905 28.0802 79.6905 28.0802C78.8605 30.4902 78.1905 32.7602 77.4605 35.0802C76.8205 37.1602 78.7005 37.3102 78.2905 38.8902C78.3105 38.8902 78.3405 40.0602 74.2905 39.9502ZM84.1005 17.3202C83.5305 17.3202 83.1005 17.7302 82.8105 18.3902L80.7205 24.6702C80.7205 24.6702 80.5905 25.2102 81.0405 25.3102C81.8442 25.486 82.6597 25.603 83.4805 25.6602C83.7768 25.6802 84.0742 25.6802 84.3705 25.6602H85.0005C85.3166 25.6926 85.636 25.6576 85.9376 25.5577C86.2393 25.4577 86.5163 25.295 86.7505 25.0802C86.7505 25.0802 86.9305 24.9002 86.8105 24.3702C86.7305 24.0002 86.1105 21.1502 85.7305 19.4402C85.7305 19.4502 85.2605 17.3002 84.0905 17.3202H84.1005Z" fill="#009FE0"/>
<path d="M192.781 37.941C193.768 36.7949 194.357 35.36 194.461 33.851C194.733 32.2834 194.469 30.6697 193.711 29.271C191.951 26.701 188.011 26.671 185.451 24.831C185.117 24.6391 184.831 24.3752 184.613 24.0585C184.395 23.7419 184.251 23.3806 184.191 23.001C184.206 22.5054 184.41 22.0345 184.761 21.6849C185.113 21.3353 185.585 21.1335 186.081 21.121C187.018 20.9307 187.993 21.0908 188.821 21.571C188.949 21.6601 189.064 21.7679 189.161 21.891C189.951 22.891 188.781 23.791 188.551 24.821C188.471 25.191 188.641 25.341 188.641 25.341C188.95 25.6913 189.384 25.9066 189.851 25.941C190.14 26.0082 190.442 26.0098 190.732 25.9458C191.023 25.8818 191.296 25.7537 191.531 25.571C192.307 24.9631 192.922 24.1731 193.321 23.271C193.821 22.3549 194.041 21.3112 193.951 20.271C193.884 19.9832 193.754 19.7138 193.571 19.4821C193.388 19.2504 193.155 19.0622 192.891 18.931C189.201 16.931 184.261 17.171 180.371 18.931C179.657 19.3261 179.064 19.9061 178.652 20.6099C178.24 21.3138 178.025 22.1155 178.031 22.931C177.924 23.9511 177.914 24.979 178.001 26.001C178.361 28.621 180.611 30.081 182.831 30.861C182.831 30.861 188.041 32.421 188.311 34.051C188.581 35.681 187.201 36.571 185.581 36.371C184.408 36.3213 183.266 35.9774 182.261 35.371C181.382 34.6022 180.621 33.7095 180.001 32.721C179.871 32.5456 179.694 32.4104 179.491 32.331C179.25 32.2058 178.977 32.156 178.708 32.1881C178.438 32.2202 178.185 32.3327 177.981 32.511C177.887 32.6032 177.824 32.7219 177.801 32.851C177.641 33.771 177.021 38.001 179.191 38.981C181.151 39.881 189.861 41.001 192.781 37.941Z" fill="#009FE0"/>
<path d="M256.141 37.941C257.128 36.7949 257.717 35.36 257.821 33.851C258.093 32.2834 257.829 30.6697 257.071 29.271C255.311 26.701 251.371 26.671 248.811 24.831C248.478 24.6391 248.192 24.3752 247.974 24.0585C247.756 23.7419 247.611 23.3806 247.551 23.001C247.566 22.5054 247.77 22.0345 248.122 21.6849C248.473 21.3353 248.945 21.1335 249.441 21.121C250.378 20.9307 251.353 21.0908 252.181 21.571C252.309 21.6601 252.424 21.7679 252.521 21.891C253.311 22.891 252.141 23.791 251.911 24.821C251.831 25.191 252.001 25.341 252.001 25.341C252.31 25.6913 252.744 25.9066 253.211 25.941C253.501 26.0082 253.802 26.0098 254.092 25.9458C254.383 25.8818 254.656 25.7537 254.891 25.571C255.667 24.9631 256.282 24.1731 256.681 23.271C257.182 22.3549 257.401 21.3112 257.311 20.271C257.244 19.9832 257.114 19.7138 256.931 19.4821C256.748 19.2504 256.515 19.0622 256.251 18.931C252.561 16.931 247.621 17.171 243.731 18.931C243.017 19.3261 242.424 19.9061 242.012 20.6099C241.6 21.3138 241.385 22.1155 241.391 22.931C241.287 23.9917 241.287 25.0602 241.391 26.121C241.751 28.741 244.001 30.201 246.221 30.981C246.221 30.981 251.431 32.541 251.701 34.171C251.971 35.801 250.591 36.691 248.971 36.491C247.798 36.4413 246.656 36.0974 245.651 35.491C244.745 34.7022 243.963 33.7819 243.331 32.761C243.201 32.5856 243.024 32.4504 242.821 32.371C242.58 32.2458 242.307 32.196 242.038 32.2281C241.769 32.2602 241.515 32.3727 241.311 32.551C241.217 32.6432 241.154 32.7619 241.131 32.891C240.971 33.811 240.351 38.041 242.521 39.021C244.511 39.881 253.221 41.001 256.141 37.941Z" fill="#009FE0"/>
<path d="M233.29 18.32C232.16 17.11 230.5 17.45 228.76 18C227.18 18.5 226.29 19.38 224.98 19.89C224.42 20.1 224.32 19.74 224.32 19.74C224.19 19.43 224.32 19.01 224.08 18.5C223.66 17.69 222.77 17.67 221.96 17.73C221.15 17.79 217.96 18.35 217.96 18.35C217.287 18.482 216.665 18.8049 216.17 19.28C215.36 20.61 217.25 21.41 217.31 22.68C217.712 26.8913 217.782 31.1277 217.52 35.35C217.27 36.35 216.26 36.99 216.37 38.01C216.37 38.01 216.37 39.69 220 39.73C223.63 39.77 225.44 39.55 225.79 38.29C225.817 37.9257 225.767 37.5598 225.645 37.2155C225.523 36.8713 225.331 36.5561 225.08 36.29C223.98 35.05 224.28 25.71 224.28 25.71C224.28 25.71 223.95 23.61 225.63 23.42C226.108 23.3798 226.585 23.5035 226.983 23.7707C227.381 24.0379 227.677 24.4326 227.82 24.89C229.13 29.05 229.97 33.58 231.13 37.89C231.378 38.492 231.811 38.9996 232.367 39.3393C232.922 39.679 233.571 39.8334 234.22 39.78C236.73 39.78 239.03 39.86 239.84 38.97C239.99 38.7403 240.091 38.4822 240.137 38.2117C240.183 37.9413 240.173 37.6642 240.108 37.3979C240.042 37.1315 239.922 36.8815 239.756 36.6634C239.589 36.4453 239.38 36.2637 239.14 36.13C238.866 35.8418 238.652 35.5018 238.51 35.13C237 30.85 236.18 26.26 234.82 21.87C234.29 20.16 234.17 19.47 233.26 18.42" fill="#009FE0"/>
<path d="M209.46 39.7203C206.339 40.2008 203.154 40.0751 200.08 39.3503C197.5 38.5703 196.37 36.2303 195.96 33.8103C195.341 30.4418 195.341 26.9889 195.96 23.6203C196.35 21.6203 196.96 19.4403 199.03 18.6203C202.32 17.3044 205.938 17.0492 209.38 17.8903C210.1 18.0484 210.781 18.3512 211.38 18.7803C212.807 19.7463 213.881 21.1503 214.44 22.7803C215.394 26.0975 215.706 29.5662 215.36 33.0003C215.36 33.0003 214.63 38.9303 209.46 39.7203ZM205.7 21.2103C205.281 21.1356 204.85 21.1556 204.439 21.2687C204.028 21.3818 203.648 21.5852 203.326 21.8641C203.004 22.143 202.748 22.4903 202.578 22.8807C202.407 23.271 202.326 23.6946 202.34 24.1203C202.232 26.8248 202.342 29.5336 202.67 32.2203C202.778 33.5231 203.379 34.7357 204.35 35.6103C204.98 36.0093 205.73 36.1756 206.47 36.0803C206.47 36.0803 208.11 35.8203 208.53 34.9903C209.15 33.7603 209.19 32.7403 209.15 30.7603C209.15 30.7603 208.96 23.9603 207.67 22.3603C207.171 21.7621 206.477 21.3586 205.71 21.2203L205.7 21.2103Z" fill="#009FE0"/>
<path d="M122.45 39.6509C118.88 40.3109 112.57 39.6509 112.57 39.6509C111.31 39.6509 110.01 39.3809 109.57 38.6509C109.13 37.9209 110.07 36.4209 110.07 36.4209C110.211 36.2343 110.297 36.013 110.32 35.7809C110.738 30.458 110.819 25.1139 110.56 19.7809L110.48 17.6709C110.41 16.3509 107.96 15.7909 109.57 14.3909C111.541 13.0587 113.646 11.9359 115.85 11.0409C116.71 10.6809 117 11.0409 117 11.0409C117.32 11.2809 117.31 11.9409 117.31 11.9409V19.3509C117.31 19.3509 117.23 20.1009 117.71 19.8909C118.82 19.4009 120.06 18.7709 121.24 18.2909C121.958 18.0028 122.749 17.9552 123.496 18.1554C124.242 18.3556 124.903 18.7926 125.38 19.4009C127.22 21.4009 128.38 26.7509 128.38 26.7509C129.18 30.5109 129.46 35.2309 126.51 38.2009C125.52 39.2409 122.45 39.6509 122.45 39.6509ZM121.45 35.6509C121.803 35.2667 122.041 34.7925 122.14 34.2809C122.63 32.3509 122 30.2809 121.62 28.2809L121.38 27.0009C121 25.6209 120.71 24.0609 119.38 23.4309C119.192 23.3486 118.985 23.3176 118.78 23.3409C118.538 23.3418 118.299 23.3972 118.081 23.5027C117.863 23.6083 117.671 23.7614 117.52 23.9509C117.52 23.9509 117.2 24.2109 117.12 25.1809C117.12 25.1809 116.97 32.1809 117.05 33.5309C117.059 34.1631 117.178 34.789 117.4 35.3809C117.569 35.7806 117.879 36.1044 118.27 36.2909C118.655 36.4697 119.078 36.5488 119.5 36.5209C120.255 36.4867 120.97 36.1689 121.5 35.6309L121.45 35.6509Z" fill="#009FE0"/>
<path d="M145.159 30.5099C145.451 30.4861 145.743 30.5487 145.999 30.6899C146.999 31.1799 147.999 31.7599 147.999 32.9499C148.017 34.1482 147.708 35.3285 147.105 36.3644C146.503 37.4003 145.629 38.2526 144.579 38.8299C141.718 39.9748 138.567 40.1849 135.579 39.4299C134.641 39.2289 133.762 38.815 133.01 38.2203C132.257 37.6256 131.652 36.8659 131.239 35.9999C130.046 31.4771 130.098 26.7157 131.389 22.2199C131.564 21.5071 131.862 20.8302 132.269 20.2199C132.885 19.5184 133.633 18.9453 134.47 18.5334C135.307 18.1216 136.218 17.8791 137.149 17.8199C139.145 17.5007 141.185 17.5822 143.149 18.0599C143.788 18.2035 144.397 18.4573 144.949 18.8099C145.498 19.1965 145.981 19.6692 146.379 20.2099C146.534 20.4168 146.674 20.6339 146.799 20.8599C148.01 22.9544 148.471 25.3982 148.109 27.7899C148.071 27.986 148.01 28.1772 147.929 28.3599C147.792 28.664 147.565 28.9188 147.279 29.0899C146.033 29.7832 144.682 30.2695 143.279 30.5299C143.279 30.5299 139.949 31.2499 138.459 31.5299C138.459 31.5299 137.059 31.7099 137.149 32.5299C137.419 35.0399 138.239 35.7099 138.239 35.7099C138.566 36.1178 139.009 36.4175 139.509 36.5699C140.069 36.7073 140.653 36.7147 141.217 36.5916C141.78 36.4686 142.308 36.2183 142.759 35.8599C142.759 35.8599 143.639 35.3899 144.069 32.8599C144.069 32.8599 144.459 31.5399 144.769 30.7599C144.806 30.6875 144.862 30.6261 144.93 30.5822C144.999 30.5383 145.078 30.5134 145.159 30.5099ZM138.069 28.5799C139.449 28.6799 141.289 28.4699 141.829 27.1899C142.132 26.3272 142.247 25.4097 142.166 24.499C142.085 23.5884 141.81 22.7056 141.359 21.9099C141.194 21.6201 140.951 21.3814 140.659 21.2199C140.389 21.0834 140.093 21.0033 139.79 20.9844C139.488 20.9655 139.185 21.0082 138.899 21.1099C138.767 21.1438 138.639 21.1942 138.519 21.2599C138.182 21.4963 137.901 21.8028 137.693 22.1584C137.486 22.514 137.359 22.9103 137.319 23.3199C137.116 24.7167 137.049 26.1301 137.119 27.5399C137.114 27.6713 137.134 27.8024 137.18 27.9257C137.225 28.0491 137.294 28.1624 137.384 28.259C137.473 28.3555 137.58 28.4336 137.699 28.4887C137.819 28.5438 137.948 28.5748 138.079 28.5799H138.069Z" fill="#009FE0"/>
</g>
<defs>
<clipPath id="clip0_491_246">
<rect width="264" height="40" fill="white"/>
</clipPath>
</defs>
</svg>
