<svg width="122" height="50" viewBox="0 0 122 50" fill="none" xmlns="http://www.w3.org/2000/svg">
<g clip-path="url(#clip0_491_260)">
<path d="M28.1645 19.7656C28.1645 19.6875 28.1645 19.6875 28.0864 19.6875C28.0473 19.7656 28.1254 19.8438 28.1645 19.7656ZM28.1254 19.4922C28.0864 19.5312 28.0082 19.4141 28.0864 19.5312C28.1254 19.5312 28.1254 19.5312 28.1254 19.4922ZM119.18 21.0938C119.18 21.0547 119.297 21.1719 119.18 21.0938V21.0938ZM34.4536 49.0625C34.4145 49.1016 34.4145 49.1016 34.4926 49.1406C34.5317 49.1016 34.4926 49.0625 34.4536 49.0625ZM119.219 32.5C117.852 33.9453 116.602 35 115.118 36.2891C112.383 38.5938 110.274 40.3906 107.305 42.4609C104.414 44.5312 100.821 46.7578 97.4614 44.9609C95.7817 44.0625 94.3364 42.6172 93.8286 40.8984C93.0864 38.5156 93.1645 35.9375 92.9301 35.7031C92.1098 36.5234 89.102 40.0391 88.5161 40.6641C86.9145 42.2656 86.5629 42.5391 85.8207 43.2422C85.1176 43.9062 83.7504 45.0781 82.8129 45.3906C81.8364 45.7031 80.8598 45.8203 79.8442 45.625C79.2973 45.5469 78.6723 44.9609 78.2817 44.6094C77.5395 43.8672 77.2661 42.8125 77.1489 41.8359C76.9536 39.7656 77.1489 39.1016 76.602 38.7891C76.5239 38.7109 72.1489 43.1641 71.6411 43.5547C69.0239 45.6641 67.3051 46.7578 65.1176 48.2031C63.7895 49.1016 59.727 49.5703 58.4379 49.1016C55.8598 48.1641 55.4301 45.3516 55.4301 43.9062C55.4301 43.0469 55.5082 42.3828 55.7426 41.5625C55.977 40.6641 56.2504 39.8438 56.5629 38.9844C57.227 37.3828 58.2426 35.7031 59.1411 34.2188C60.2348 32.4219 62.9301 27.4219 63.2426 26.8359C63.5942 26.1328 63.9848 25.625 64.1801 24.8438C64.4145 23.9453 64.3754 23.6328 63.3598 23.8281C62.7348 23.9453 62.0707 23.9453 61.4848 24.2188C60.7426 24.5312 60.4692 25.2734 60.0786 25.8984C59.5707 26.6797 58.9457 27.5781 58.3207 28.3203C57.6957 29.1016 53.6723 33.5156 53.1254 34.3359C52.6176 35.0391 47.9692 40.1562 46.602 41.25C45.8989 41.7969 44.5707 43.1641 43.8676 43.7109C43.0082 44.4141 42.3442 44.7656 41.3676 45.3516C40.7426 45.7422 39.1801 46.6797 38.3598 47.1094C30.1567 51.25 28.3207 48.9063 27.8911 48.5547C25.1567 46.2891 25.3129 40.5859 24.7661 40.7031C24.0629 40.8594 21.0551 44.0234 20.3129 44.8438C19.9614 45.2734 17.6176 48.0859 16.9926 48.5547C15.5864 49.5703 13.9067 49.0625 13.1645 47.4219C12.227 45.3516 12.7739 43.0859 12.5004 42.9688C12.1489 43.0469 10.8989 44.375 10.6254 44.6484C10.1957 45.0781 7.53949 48.125 6.48481 48.6719C5.35199 49.2969 4.84418 50.0391 3.12543 49.4531C2.42231 49.2188 1.87543 48.3203 1.40668 47.7734C0.703557 46.9922 -0.077693 43.8672 0.625432 41.3281C1.17231 39.4531 1.68012 36.7578 2.53949 35.1953C3.86762 32.7344 4.72699 31.25 6.44574 29.0234C7.18793 28.0469 11.1332 24.1797 12.0707 23.4766C13.3207 22.5391 14.5317 21.5625 15.8598 20.7422C16.8364 20.1172 17.5004 19.7266 18.6723 19.5312C19.3364 19.4141 20.9379 19.2969 23.2817 20.8594C23.5942 21.0938 23.6723 20.625 23.9848 20.3125C25.0786 19.2969 26.2114 18.9844 27.9301 19.2188C28.6723 19.3359 28.5161 20.9375 28.2426 21.6016C27.6567 24.9609 25.5864 27.6172 23.5551 30.2734C21.0942 33.5156 18.7895 36.9531 17.1098 40.6641C16.5239 41.9922 15.5082 44.6484 15.977 46.0938C16.1723 46.6406 17.7348 44.9609 17.8129 44.8828C18.3598 44.1797 19.2192 43.3594 19.7661 42.6172C20.7426 41.2891 22.3051 39.4531 23.2426 38.3594C24.1801 37.2656 25.977 35.7031 27.0317 34.375C29.6098 31.0938 31.1723 29.0625 33.8286 26.1328C34.4926 25.3906 36.0942 23.7891 37.1879 23.0469C38.1099 22.4107 39.0215 21.7596 39.9223 21.0938C41.4848 19.9609 42.3832 19.375 44.0239 18.3984C51.0161 14.1797 52.8129 16.0937 53.1645 16.7188C53.477 17.2266 53.6332 17.9688 53.7114 18.4766C53.9067 19.7656 53.477 21.7188 52.9692 22.9297C52.3051 24.4922 50.6645 26.2109 49.3754 27.3047C48.2426 28.3203 47.0707 29.1797 45.8598 30.1562C44.1801 31.5234 42.3442 32.5 40.6645 33.5547C39.1411 34.5312 37.9301 35.6641 36.5629 36.875C35.2348 38.0078 34.1411 39.5703 33.0864 40.9375C32.3442 41.875 31.5239 44.5703 33.477 44.4531C35.2739 44.375 37.8129 43.9062 41.3676 41.5625C45.0395 39.1406 47.227 36.9141 48.7895 35.5469C50.1176 34.4141 54.3364 30.1172 55.7036 28.4375C56.8364 27.0703 58.2817 25.625 59.0629 23.9062C59.6098 22.7344 56.7973 21.25 56.8754 19.2578C56.9145 18.5938 57.1489 18.1641 57.4223 17.5781C59.0239 14.1016 62.9301 15.8203 63.1645 17.0312C63.2426 17.4219 63.2817 17.7734 63.2817 18.125C63.3207 18.5156 63.1254 20.1562 63.6723 20.2344C64.4926 20.3516 65.4301 19.9219 66.2504 19.8438C67.2661 19.7656 68.2817 19.8047 69.2973 19.7656C70.5082 19.6875 72.2661 20.0391 72.8911 21.2109C72.852 21.3672 73.9457 22.8516 72.9692 24.4922C72.1489 25.8594 70.2348 28.6719 69.7661 29.2188C68.7504 30.4297 68.477 30.6641 67.5395 31.9141C65.3129 34.9219 63.8286 36.5234 61.9145 40.1172C61.1332 41.6016 60.1176 43.0469 60.1567 44.7656C60.1567 45.4688 60.4301 46.1328 61.0942 46.4453C61.6411 46.7188 62.6567 46.7188 63.6332 46.25C64.2973 45.9375 65.1957 45.4688 66.0161 44.9219C66.7192 44.4531 68.3207 43.0859 68.9457 42.5C70.0786 41.4063 70.4301 41.3281 71.602 40.2344C72.9692 39.0234 74.0239 37.8516 75.2739 36.4844C76.4067 35.2734 77.4614 34.1406 78.3989 32.6953C79.4926 31.0156 80.2348 29.7266 81.2504 28.2813C81.7192 27.6172 82.0707 26.7969 82.4223 26.0547C82.852 25.1953 86.602 19.9219 87.1489 19.2578C88.1645 18.0859 89.102 16.7969 90.352 15.8594C90.8598 15.4687 91.3676 15.4297 91.9145 15.1562C92.5114 14.8338 93.1957 14.7106 93.8676 14.8047C94.9614 14.6484 96.0161 15.5469 95.3129 16.7188C93.7504 19.3359 92.2661 22.1094 90.7036 24.6094C89.6098 26.3281 88.5161 28.0859 87.3832 29.8047C86.3676 31.3672 85.7426 33.125 84.727 34.6875C84.1422 35.5901 83.6699 36.5609 83.3207 37.5781C83.1645 38.0469 82.6957 39.3359 83.0864 39.8047C83.9457 40.7812 85.977 39.5703 86.6801 38.9844C88.0473 37.8516 89.8051 36.2891 90.977 34.9609C91.9145 33.8672 94.6879 30.3906 95.6645 29.0625C98.6332 24.9219 106.016 18.9844 106.641 18.5156C108.907 16.7578 112.188 14.6875 114.024 13.7891C115.196 13.2031 117.305 11.8359 118.75 12.1094C120.391 12.4609 121.211 13.7109 121.368 15C121.602 16.9922 120.938 18.1641 120.664 18.8672C119.454 22.1875 116.172 25 113.438 27.1094C110.43 29.4531 107.344 30.8984 104.141 32.8906C103.282 33.4375 102.227 34.3359 101.524 35.0781C100.899 35.7031 98.9848 37.5781 99.2192 41.3281C99.3364 43.4375 105.391 40.3906 106.329 39.4141C106.641 39.1016 111.172 35.5078 113.711 32.7734C115.118 31.25 116.368 29.5703 117.93 28.2422C118.516 27.7344 120 27.0703 120.938 27.8516C122.344 29.1797 120.235 31.4453 119.219 32.5ZM119.18 21.0938C119.18 21.0547 119.297 21.1719 119.18 21.0938V21.0938ZM107.11 26.5234C108.282 25.7813 109.454 25.0391 110.508 24.1797C111.563 23.2812 112.579 22.3438 113.672 21.4844C115 20.4688 116.016 19.2578 116.172 18.0078C116.368 16.2109 110.586 20.3125 110.079 20.7031C108.243 22.1875 105.508 23.6328 104.961 25.9766C104.766 26.875 106.172 27.1094 107.11 26.5234ZM38.1254 29.375C38.3598 29.9219 40.8207 28.6719 41.5629 28.2031C42.6176 27.5391 43.7114 26.5625 44.6879 25.8203C45.5082 25.1953 46.3676 24.4531 47.1879 23.7109C48.1645 22.8516 49.1411 22.1094 48.9457 20.5078C48.8676 19.7656 46.5629 21.1328 46.2114 21.3672C38.2036 26.4062 37.7739 29.0234 38.1254 29.375ZM15.8598 33.9844C15.8598 33.9844 18.0864 30.5859 18.6332 29.2578C18.9067 28.6328 19.6879 26.5625 19.8051 26.1328C20.2348 24.7266 20.6254 24.0234 19.8832 22.6562C19.4926 21.9531 18.0473 22.5391 17.7348 22.9297C16.9145 23.9844 15.8207 25.0781 15.1176 25.9766C14.1801 27.1094 13.5942 27.8906 12.9301 28.7891C11.8754 30.1562 10.8989 31.5625 9.96137 33.0078C9.60981 33.5938 9.14106 34.2578 8.86762 34.8438C8.63324 35.3125 7.73481 36.7969 7.50043 37.1875C6.67978 38.5112 5.91097 39.8664 5.19574 41.25C4.53168 42.5391 3.78949 43.9844 3.51606 45.3906C3.28168 46.7188 3.59418 48.6328 4.96137 47.7344C5.54731 47.3438 6.36762 46.8359 6.87543 46.3281C7.34418 45.8594 8.63324 44.6875 9.10199 44.1797C10.3911 42.6562 11.1332 41.4844 11.9536 40.1172C13.4379 37.6953 14.2582 36.3672 15.8598 33.9844ZM97.4223 8.39844C97.6176 8.55469 98.8676 8.59375 99.102 8.59375C99.727 8.63281 100.704 7.38281 101.055 6.91406C101.641 6.21094 102.266 5.50781 102.813 4.76562C103.282 3.78906 103.868 3.00781 103.789 1.83594C103.711 0.976562 103.243 0.546875 102.539 0.46875C100.625 1.44531 98.3598 3.51562 97.4614 5.74219C97.1879 6.36719 96.7973 7.92969 97.4223 8.39844Z" fill="black"/>
</g>
<defs>
<clipPath id="clip0_491_260">
<rect width="121.875" height="50" fill="white"/>
</clipPath>
</defs>
</svg>
