<svg width="289" height="50" viewBox="0 0 289 50" fill="none" xmlns="http://www.w3.org/2000/svg">
<path d="M126.885 25.1032C121.055 24.6231 116.94 24.1429 116.94 21.7424C116.94 21.1251 117.214 20.5764 117.626 20.1649C119.135 18.656 122.839 18.1073 125.788 18.1759C130.315 18.1759 133.881 19.4104 136.487 21.6738L136.762 21.9482L140.191 18.2445L139.848 17.9701C136.419 15.0895 131.343 13.4434 125.651 13.4434C117.146 13.4434 111.453 16.8727 111.453 22.0853C111.453 28.2582 119.821 29.6299 126.131 30.1786C132.715 30.7273 135.802 31.4132 135.802 33.8137C135.802 36.3514 132.578 37.7918 126.954 37.7918C121.604 37.7918 117.42 36.3515 113.922 33.1964L113.648 32.9221L110.287 36.763L110.561 37.0373C114.745 40.6724 120.369 42.5243 126.748 42.5243C135.664 42.5243 141.22 39.0263 141.22 33.4708C141.357 27.0922 134.43 25.7204 126.885 25.1032Z" fill="#3D3935"/>
<path d="M170.713 25.3084H151.303V14.1973H145.953V41.7007H151.303V30.1781H170.713V41.7007H176.063V14.1973H170.713V25.3084Z" fill="#3D3935"/>
<path d="M186.83 14.1973H181.412V41.7007H206.515V36.831H186.83V14.1973Z" fill="#3D3935"/>
<path d="M216.117 30.1095H234.362V25.3084H216.117V18.9984H237.791V14.1973H210.768V41.7007H238.134V36.8996H216.117V30.1095Z" fill="#3D3935"/>
<path d="M256.927 27.4346L246.913 14.1973H240.672L254.184 32.1671V41.7007H259.602V32.1671L273.114 14.1973H266.804L256.927 27.4346Z" fill="#3D3935"/>
<path d="M84.4317 7.95703L66.1875 41.7019H72.4289L76.7499 33.54H98.4234L102.744 41.7019H109.054L90.8103 7.95703H84.4317ZM79.3562 28.6018L87.5867 12.9639L95.8171 28.6018H79.3562Z" fill="#3D3935"/>
<path d="M49.519 23.4562L31.6864 5.48633H31.6178L13.7852 23.4562V41.5631C13.7852 41.5631 13.7852 41.6317 13.8537 41.6317H49.519C49.519 41.6317 49.5876 41.6317 49.5876 41.5631L49.519 23.4562C49.519 23.5247 49.519 23.5247 49.519 23.4562ZM44.4436 36.1448C44.4436 36.4877 44.375 36.5563 44.0321 36.5563H19.135C18.792 36.5563 18.792 36.2819 18.792 36.1448V26.131C18.7234 25.7881 18.8606 25.4452 19.135 25.2394C19.4779 24.8965 31.0691 13.2367 31.1377 13.0995C31.2749 12.9623 31.4806 12.8251 31.6178 12.8251C31.755 12.8251 31.8236 12.8937 32.0293 13.0995L44.2378 25.3766C44.375 25.5138 44.5122 25.7195 44.4436 25.9253V36.1448Z" fill="#F88D2A"/>
</svg>
