<svg width="46" height="46" viewBox="0 0 46 46" fill="none" xmlns="http://www.w3.org/2000/svg">
<g clip-path="url(#clip0_491_270)">
<mask id="mask0_491_270" style="mask-type:luminance" maskUnits="userSpaceOnUse" x="0" y="0" width="46" height="46">
<path d="M46 0H0V46H46V0Z" fill="white"/>
</mask>
<g mask="url(#mask0_491_270)">
<path d="M9.0717 40.8884C12.905 43.8273 17.7606 45.6161 22.9995 45.6161C28.7495 45.6161 33.9884 43.444 37.9495 39.9939C36.1606 41.144 31.0495 43.8273 22.9995 43.8273C15.9717 43.8273 11.4995 42.294 9.0717 40.8884ZM24.5328 42.0383C30.155 42.0383 36.2884 40.5051 39.8661 37.4384C40.8884 36.6717 41.7828 35.5218 42.6773 34.1161C43.1884 33.2217 43.6995 32.1994 44.0828 31.305C40.6328 36.2883 30.7939 39.4828 20.5717 39.4828C13.4161 39.4828 5.6217 37.1829 2.55503 32.7106C5.36615 38.844 13.9273 42.0383 24.5328 42.0383ZM18.3995 32.0718C6.7717 32.0718 1.27726 26.7051 0.382812 22.9995C0.382812 24.2773 0.510591 25.8106 0.766147 26.9606C0.893924 27.4718 1.27726 28.2383 1.91615 29.0051C4.72726 31.944 11.755 36.0329 23.8939 36.0329C40.3773 36.0329 44.2106 30.5384 44.9773 28.7495C45.4884 27.4718 45.8717 25.1718 45.8717 23.1273V21.8495C44.7217 26.194 30.6661 32.0718 18.3995 32.0718ZM2.42726 13.2884C1.78837 14.5662 1.0217 16.8662 0.766147 18.0162C0.638369 18.5273 0.766146 18.7829 0.893924 19.1662C2.29948 22.1051 9.32726 26.8329 25.6828 26.8329C35.6495 26.8329 43.4439 24.4051 44.7217 19.9328C44.9773 19.1661 44.9773 18.2717 44.7217 17.1217C44.3384 15.844 43.8273 14.3106 43.1884 13.1606C43.3161 19.0384 26.9606 22.8717 18.655 22.8717C9.71059 22.8717 2.1717 19.294 2.1717 14.8218C2.29948 14.1829 2.42726 13.6718 2.42726 13.2884ZM37.9495 6.00503C38.0773 6.13281 38.0773 6.26059 38.0773 6.51615C38.0773 9.0717 30.4106 13.4162 18.1439 13.4162C9.0717 13.4162 7.41059 10.094 7.41059 7.9217C7.41059 7.15503 7.66615 6.38837 8.30503 5.6217C7.15503 6.7717 6.13281 7.79392 5.11059 9.0717C4.72726 9.58281 4.4717 10.094 4.4717 10.3495C4.4717 14.8218 15.5884 17.8884 25.8106 17.8884C36.7995 17.8884 41.7828 14.3106 41.7828 11.1162C41.7828 9.96615 41.3995 9.32726 40.2495 8.04948C39.4828 7.28281 38.7161 6.64392 37.9495 6.00503ZM34.6273 3.57726C31.1773 1.53281 27.3439 0.382812 22.9995 0.382812C18.655 0.382812 14.6939 1.53281 11.2439 3.70503C10.2217 4.21615 9.58281 4.72726 9.58281 5.36615C9.58281 7.28281 14.055 9.32726 21.9773 9.32726C29.7717 9.32726 35.905 7.02726 35.905 4.85503C36.0328 4.4717 35.5217 4.08837 34.6273 3.57726Z" fill="#009FDB"/>
</g>
</g>
<defs>
<clipPath id="clip0_491_270">
<rect width="46" height="46" fill="white"/>
</clipPath>
</defs>
</svg>
