<svg width="250" height="50" viewBox="0 0 250 50" fill="none" xmlns="http://www.w3.org/2000/svg">
<g clip-path="url(#clip0_491_276)">
<path d="M11.405 32.4511L17.6667 19.9878L23.31 7.77945L34.8333 32.4328L11.405 32.4511ZM22.965 1.18945L13.69 20.5345L0 48.8978H3.905L10.12 35.8211H36.4883L42.72 48.9161H46.625L23.6667 1.18945H22.965Z" fill="#231F20"/>
<path d="M153.766 3.49967C149.506 3.48812 145.338 4.74122 141.79 7.10023C138.243 9.45925 135.475 12.8181 133.837 16.7513C132.2 20.6845 131.767 25.0151 132.593 29.1947C133.418 33.3743 135.466 37.2148 138.476 40.2298C141.486 43.2448 145.323 45.2987 149.502 46.1313C153.68 46.9638 158.011 46.5377 161.947 44.9068C165.883 43.2759 169.246 40.5136 171.611 36.9698C173.976 33.426 175.236 29.2601 175.231 24.9997C175.225 19.3056 172.962 13.8461 168.939 9.81651C164.916 5.78692 159.46 3.51554 153.766 3.49967ZM153.766 49.9997C147.135 49.9461 140.787 47.3009 136.08 42.6294C131.373 37.9578 128.68 31.6305 128.576 24.9997C128.652 18.3721 131.339 12.0419 136.052 7.38229C140.766 2.72265 147.127 0.109375 153.755 0.109375C160.382 0.109375 166.743 2.72265 171.457 7.38229C176.17 12.0419 178.857 18.3721 178.933 24.9997C178.818 31.623 176.125 37.9405 171.425 42.6091C166.725 47.2776 160.39 49.9291 153.766 49.9997Z" fill="#231F20"/>
<path d="M105.873 1.23909L92.266 29.8108L86.6227 42.0191L80.9793 29.8108L67.3727 1.23242H63.4727L81.8727 39.7258L86.2593 48.9108H86.991L109.783 1.24409L105.873 1.23909Z" fill="#231F20"/>
<path d="M206.488 0V48.905H210.072V7.905L249.162 48.9233H249.995V1.02333H246.405V40.815L207.37 0H206.488Z" fill="#231F20"/>
</g>
<defs>
<clipPath id="clip0_491_276">
<rect width="250" height="50" fill="white"/>
</clipPath>
</defs>
</svg>
