<svg width="85" height="50" viewBox="0 0 85 50" fill="none" xmlns="http://www.w3.org/2000/svg">
<path d="M67.7877 35.9766H84.4318V49.3056H67.7824L63.6387 45.4063V39.9078L67.7877 35.9766Z" fill="#FFF200"/>
<path d="M66.9535 42.632C66.9535 43.0889 66.587 43.4555 66.1301 43.4555C65.6732 43.4555 65.3066 43.0889 65.3066 42.632C65.3066 42.1752 65.6732 41.8086 66.1301 41.8086C66.5816 41.8086 66.9535 42.1805 66.9535 42.632Z" fill="#1D252C"/>
<path d="M67.5746 31.2468C67.5746 30.6252 68.074 30.1205 68.7009 30.1205C69.3384 30.1205 69.8271 30.6199 69.8271 31.2415C69.8271 31.8737 69.3331 32.3624 68.7009 32.3624C68.0793 32.3624 67.5746 31.8843 67.5746 31.2468ZM69.6784 31.2415C69.6784 30.673 69.264 30.2587 68.7009 30.2587C68.1431 30.2587 67.7287 30.6784 67.7287 31.2468C67.7287 31.8205 68.159 32.2243 68.7009 32.2243C69.2534 32.2243 69.6784 31.8152 69.6784 31.2415ZM68.3237 30.6412H68.7009C68.9559 30.6412 69.1205 30.7527 69.1205 30.9812V30.9865C69.1205 31.1618 69.009 31.2574 68.8496 31.2893L69.1896 31.8046H69.0037L68.6796 31.3159H68.5043V31.8046H68.329L68.3237 30.6412ZM68.7062 31.1884C68.8709 31.1884 68.9505 31.1246 68.9505 30.9918V30.9865C68.9505 30.8377 68.8655 30.7899 68.7062 30.7899H68.5043V31.1884H68.7062ZM16.0487 11.0859L16.3727 10.969C19.5177 9.27961 20.0543 5.09867 16.989 2.80898C15.6184 1.71461 13.7537 1.16742 11.3843 1.16742H1.11523V22.2102H11.9899C14.779 22.2102 20.5537 21.6896 20.5537 16.1912C20.5484 11.989 16.1496 11.123 16.0487 11.0859ZM7.91523 6.09742H10.4227C11.3471 6.07617 12.1387 6.7243 12.128 7.63805C12.1387 8.55711 11.3418 9.19992 10.4227 9.17867H7.91523V6.09742ZM12.6009 16.7862C12.2077 17.158 11.7137 17.3387 11.124 17.3387H7.91523V13.5615H11.1187C12.8612 13.4659 13.9184 15.5802 12.6009 16.7862ZM21.4568 34.3759L21.7809 34.259C24.9259 32.5696 25.4624 28.3887 22.3971 26.099C21.0265 25.0046 19.1565 24.4574 16.7924 24.4574H6.5393V45.5002H17.3927C20.1818 45.5002 25.9565 44.9796 25.9565 39.4812C25.9565 35.279 21.5577 34.4184 21.4568 34.3759ZM13.3446 29.3874H15.8309C16.7552 29.3662 17.5468 30.0143 17.5415 30.928C17.5468 31.8471 16.7552 32.4899 15.8309 32.4687H13.3446V29.3874ZM18.009 40.0815C17.6159 40.4534 17.1218 40.634 16.5321 40.634H13.3446V36.8568H16.5321C18.2693 36.7612 19.3265 38.8756 18.009 40.0815ZM37.9734 17.0996H27.7999V13.8005H36.1034V8.98742H27.7999V6.28867H37.9946V1.16211H20.9946V22.2049H37.9734V17.0996ZM55.3718 1.16211V6.28336H60.934V22.2049H67.6968V6.28336H73.259V1.16211H55.3718Z" fill="white"/>
<path d="M47.6798 16.7656C46.1923 18.0034 43.3873 16.6328 42.2823 15.5013L38.2661 19.3156L38.5211 19.5706C42.0857 23.0875 49.6029 24.1341 53.3854 20.7447C56.4879 18.2956 56.5889 13.0309 53.3642 10.8688C52.1476 10.0931 50.4954 9.34938 49.1301 8.99875C48.4342 8.83938 47.7276 8.61094 47.2548 8.33469C45.7407 7.52188 47.0264 5.98125 48.3864 6.12469C49.7623 6.12469 50.6017 6.74094 51.0373 7.18719L55.0642 3.36219L54.9898 3.27719C51.7439 0.0365652 44.7686 -0.457497 41.3792 2.56532C39.8386 3.89875 39.0682 5.47125 39.0682 7.26688C38.9832 11.6975 42.8667 13.2328 46.4154 14.2741C47.1698 14.5928 48.1579 14.7894 48.2429 15.5863C48.2376 16.0484 48.0517 16.4416 47.6798 16.7656ZM37.9951 36.9638C37.8942 40.3053 33.0386 40.3053 32.9376 36.9638V24.4634H26.127V36.645C26.1111 41.83 30.4832 45.9631 35.647 45.74C40.6726 45.74 44.742 41.6706 44.742 36.645V24.4688H37.9951V36.9638ZM56.3817 31.6247L51.9192 24.4688H45.0979L52.9764 37.9997V45.5116H59.7817V37.9944L67.6601 24.4688H60.8389L56.3817 31.6247Z" fill="white"/>
</svg>
