<svg width="185" height="50" viewBox="0 0 185 50" fill="none" xmlns="http://www.w3.org/2000/svg">
<g clip-path="url(#clip0_491_130)">
<path d="M184.382 37.7071C184.313 37.5231 184.209 37.3543 184.075 37.2107C183.942 37.0672 183.78 36.9524 183.601 36.8735C183.2 36.7117 182.753 36.7117 182.353 36.8735C182.172 36.9511 182.01 37.066 181.877 37.2107C181.743 37.3535 181.64 37.5225 181.574 37.7071C181.43 38.1033 181.43 38.5374 181.574 38.9335C181.64 39.1181 181.743 39.2872 181.877 39.4299C182.01 39.5736 182.172 39.6871 182.353 39.7629C182.753 39.9247 183.2 39.9247 183.601 39.7629C183.78 39.6858 183.942 39.5724 184.075 39.4299C184.209 39.2863 184.313 39.1176 184.382 38.9335C184.52 38.5364 184.52 38.1042 184.382 37.7071ZM184.161 38.8425C184.104 38.9999 184.018 39.1451 183.907 39.2706C183.794 39.3919 183.657 39.4888 183.505 39.5555C183.34 39.6296 183.16 39.6664 182.979 39.6634C182.805 39.6646 182.633 39.6303 182.474 39.5628C182.314 39.4952 182.17 39.3958 182.05 39.2706C181.936 39.1467 181.848 39.0011 181.791 38.8425C181.729 38.6755 181.698 38.4987 181.7 38.3207C181.699 38.1411 181.729 37.9627 181.791 37.7939C181.848 37.6345 181.936 37.4879 182.05 37.3624C182.168 37.2348 182.312 37.1338 182.472 37.0659C182.632 36.9981 182.805 36.965 182.979 36.9688C183.159 36.9665 183.339 37.0018 183.505 37.0725C183.657 37.1422 183.793 37.2407 183.907 37.3624C184.018 37.4894 184.104 37.6357 184.161 37.7939C184.223 37.9627 184.253 38.1411 184.252 38.3207C184.254 38.4987 184.223 38.6755 184.161 38.8425ZM183.591 38.1994C183.657 38.1105 183.692 38.0029 183.691 37.8926C183.693 37.8216 183.681 37.7509 183.655 37.6849C183.629 37.6188 183.59 37.5587 183.54 37.5082C183.418 37.4021 183.26 37.3479 183.099 37.3573H182.361V39.1973H182.675V38.4505H183.017L183.445 39.1973H183.808L183.333 38.3932C183.437 38.3574 183.528 38.2896 183.591 38.1994ZM183.025 38.2036H182.675V37.6212H183.043C183.119 37.6212 183.192 37.6435 183.255 37.6852C183.289 37.7102 183.316 37.7436 183.334 37.7821C183.351 37.8207 183.358 37.8631 183.354 37.9052C183.358 37.9485 183.35 37.9919 183.332 38.0313C183.314 38.0707 183.286 38.1048 183.251 38.1302C183.185 38.1778 183.106 38.2035 183.025 38.2036ZM31.9572 3.937C31.9572 2.62214 31.3773 1.73124 29.8264 1.73124C24.7827 1.73124 18.3635 10.8898 16.0482 14.6894C12.9119 19.8325 9.32719 27.6644 9.32719 33.9116C9.32719 36.3357 10.3749 38.1428 12.9608 38.1428C18.452 38.1428 22.7447 30.9962 22.7447 26.2087C22.8084 25.1515 22.5434 24.1004 21.9861 23.1997C22.2999 22.7913 22.7043 22.4613 23.1674 22.2358C23.6305 22.0103 24.1396 21.8953 24.6546 21.9C26.514 21.9 27.4706 23.1188 27.4706 25.1998C27.4706 31.9208 20.3493 40.7043 11.8693 40.7043C5.44329 40.7043 1.99346 37.4432 1.99346 31.1454C1.99346 18.3912 15.3949 0 30.0717 0C33.5114 0 37.0202 1.04346 37.0202 4.82369C37.0202 9.80247 31.9344 13.3282 27.6291 14.7332C25.716 15.3424 23.7199 15.6501 21.7122 15.6452C20.5729 15.65 19.4357 15.5456 18.3163 15.3333L18.436 14.8411C23.7283 14.6649 31.9572 9.42234 31.9572 3.937ZM175.599 11.3732L175.363 10.9307C176.826 9.70604 178.321 7.39745 178.321 5.38723C178.356 4.75036 178.176 4.12025 177.809 3.59819C177.443 3.07613 176.911 2.69246 176.3 2.50886C176.637 1.9585 177.114 1.50737 177.682 1.20158C178.25 0.89578 178.889 0.74628 179.534 0.768352C179.981 0.733348 180.43 0.796461 180.85 0.953274C181.27 1.11009 181.651 1.35681 181.966 1.67619C182.281 1.99556 182.522 2.37986 182.673 2.80221C182.823 3.22455 182.88 3.67473 182.839 4.12125C182.839 7.77674 178.471 10.318 175.599 11.3732ZM-0.000828532 4.12867C-0.0265617 3.67118 0.0466422 3.21352 0.213793 2.78688C0.380945 2.36024 0.638114 1.97466 0.967773 1.65641C1.29743 1.33815 1.69183 1.09472 2.12409 0.942688C2.55635 0.790658 3.0163 0.73361 3.4726 0.775432C4.10038 0.753374 4.72219 0.903995 5.27029 1.21089C5.81839 1.51779 6.27177 1.96919 6.58107 2.51594C5.97026 2.69947 5.43896 3.08315 5.07265 3.60525C4.70634 4.12735 4.52633 4.7575 4.56157 5.39431C4.56157 7.40453 6.05597 9.71312 7.51833 10.9378L7.28317 11.3803C4.4107 10.3245 -0.000828532 7.78415 -0.000828532 4.12867ZM164.819 34.2495L165.283 34.5505C163.923 37.4499 161.893 40.5204 158.498 40.5204C155.783 40.5204 154.3 38.8406 154.3 36.087C154.3 33.7337 155.738 30.5494 156.668 28.3993L168.623 1.12598H174.078L161.09 31.4487C160.516 32.6221 160.148 33.8854 160.002 35.1834C159.984 35.3548 160.004 35.5281 160.061 35.6908C160.117 35.8534 160.21 36.0014 160.331 36.1241C160.452 36.2467 160.599 36.3409 160.761 36.3997C160.923 36.4586 161.096 36.4808 161.267 36.4646C162.747 36.4646 163.775 35.4666 164.819 34.2495ZM152.681 34.2563L153.148 34.5538C151.781 37.4499 149.732 40.5204 146.336 40.5204C143.621 40.5204 142.138 38.8406 142.138 36.087C142.138 33.7337 143.576 30.5494 144.506 28.3993L156.461 1.12598H161.916L148.928 31.4487C148.354 32.622 147.986 33.8854 147.84 35.1834C147.822 35.3548 147.842 35.5281 147.899 35.6908C147.956 35.8534 148.048 36.0014 148.169 36.1241C148.29 36.2467 148.437 36.3409 148.599 36.3997C148.761 36.4586 148.934 36.4808 149.105 36.4646C150.59 36.4646 151.717 35.4152 152.681 34.2563ZM75.5414 40.5205C73.1257 40.5205 71.7746 39.0767 71.7746 36.5608C71.7746 32.5521 77.3291 24.2879 77.3291 21.5326C77.3477 21.3531 77.3265 21.1717 77.2669 21.0015C77.2072 20.8312 77.1107 20.6762 76.9842 20.5476C76.8576 20.4189 76.7042 20.3199 76.535 20.2575C76.3657 20.195 76.1847 20.1708 76.005 20.1865C73.7082 20.1865 72.0064 23.8117 71.2251 25.7258L65.4304 39.8665L59.7673 39.8715L66.3112 23.9111C66.6632 23.1543 66.8882 22.3447 66.9771 21.5149C66.9942 21.3365 66.9717 21.1565 66.9112 20.9878C66.8507 20.8191 66.7537 20.6658 66.6271 20.5389C66.5006 20.4121 66.3475 20.3147 66.179 20.2538C66.0105 20.1928 65.8305 20.1699 65.6521 20.1865C63.3856 20.1865 61.587 23.8083 60.825 25.6617L55.0127 39.8715H49.3352L58.4819 17.5677H63.7506L62.5849 20.4672C64.1813 18.6989 66.1882 17.1573 68.753 17.1573C69.236 17.1149 69.7225 17.1728 70.182 17.3275C70.6415 17.4821 71.064 17.7302 71.4231 18.056C71.7822 18.3818 72.0699 18.7783 72.2684 19.2207C72.4668 19.663 72.5716 20.1417 72.5762 20.6265C74.342 18.7225 76.3547 17.1573 79.0039 17.1573C81.2897 17.1573 83.0041 18.5151 83.0041 20.7959C83.0041 25.0599 77.6199 32.4881 77.6199 35.3647C77.5986 35.5078 77.6102 35.6537 77.6537 35.7916C77.6972 35.9295 77.7715 36.0557 77.8709 36.1607C77.9704 36.2656 78.0925 36.3465 78.2279 36.3973C78.3633 36.448 78.5084 36.4673 78.6524 36.4537C79.8922 36.4537 80.9365 35.1936 81.7364 34.2488L82.2042 34.5463C80.8303 37.648 78.9516 40.5205 75.5414 40.5205ZM181.385 17.4486C180.808 18.573 180.522 19.8233 180.55 21.0864C180.55 23.7903 181.237 26.8398 181.237 30.8931C181.237 36.8007 177.422 40.6147 171.721 40.6147C168.279 40.6147 166.402 39.2223 166.402 37.5298C166.41 37.1459 166.53 36.7726 166.747 36.4561C166.965 36.1396 167.27 35.8937 167.626 35.7488C168.107 36.9449 169.049 37.7329 170.954 37.7329C174.601 37.7329 175.81 34.466 175.81 31.3837C175.81 28.7034 175.603 26.404 175.603 23.7575C175.603 23.422 175.663 22.6381 175.663 22.6381C174.278 23.7743 171.408 27.5453 170.364 28.6991L169.896 28.3923C171.532 25.2448 173.379 22.211 175.422 19.3114C175.947 18.6332 176.625 18.0898 177.401 17.7263C178.178 17.3627 179.03 17.1895 179.886 17.2211C180.395 17.2167 180.901 17.2935 181.385 17.4486ZM49.1606 34.2493C48.3329 35.2388 47.2338 36.4525 46.0412 36.4525C45.3256 36.4525 45.0491 36.0016 45.0491 35.3324C45.0491 34.3159 45.6585 32.9277 46.4002 31.2116C47.8516 27.8478 51.2189 20.1221 52.2472 17.5682H46.8175L46.1086 19.2784C45.5422 17.8009 44.1043 17.1637 42.4245 17.1637C37.9084 17.1637 34.4156 20.4323 32.1492 24.0001C30.2156 27.042 27.9273 31.8126 27.9273 35.474C27.9273 38.4535 29.3551 40.4831 32.3203 40.4831C35.6344 40.4831 38.0399 37.6486 39.6734 34.9817C39.5935 35.4742 39.5517 35.9722 39.5486 36.4711C39.5486 38.8825 40.7269 40.5193 43.0912 40.5193C46.5199 40.5193 48.4155 37.3047 49.6284 34.5468L49.1606 34.2493ZM43.3693 25.1102C40.8306 30.4531 38.0028 36.4694 35.3664 36.4694C34.392 36.4694 33.9697 35.8769 33.9579 34.6901C33.9217 30.9866 39.4871 19.1832 43.4148 19.1832C43.6137 19.1617 43.8148 19.1859 44.0029 19.254C44.1909 19.322 44.361 19.4321 44.5001 19.5758C44.6392 19.7195 44.7436 19.8931 44.8054 20.0833C44.8673 20.2735 44.8849 20.4753 44.857 20.6733C44.857 21.9343 44.0916 23.588 43.3693 25.1102ZM122.687 17.162C121.577 17.1965 120.485 17.4529 119.476 17.9161C118.467 18.3793 117.561 19.04 116.811 19.8591C118.155 16.9344 124.496 2.32427 128.043 2.32427C128.192 2.31238 128.341 2.33411 128.48 2.38786C128.619 2.44161 128.745 2.526 128.846 2.63475C128.948 2.7435 129.025 2.87383 129.069 3.01605C129.114 3.15826 129.126 3.30872 129.104 3.45623C129.104 5.9393 125.609 10.414 122.667 12.565L122.947 13.0126C126.905 11.68 133.08 8.21418 133.08 3.48826C133.08 1.65841 131.697 0.469979 129.417 0.469979C125.272 0.469979 121.542 4.14654 118.645 7.78011C112.926 14.9537 105.718 27.5157 105.718 35.254C105.718 38.4147 107.631 40.5505 111.489 40.5505C119.219 40.5505 126.939 29.0564 126.939 21.9882C126.939 19.3352 125.688 17.162 122.687 17.162ZM112.881 37.4024C111.812 37.4024 111.498 36.6902 111.498 35.683C111.596 34.0109 111.927 32.3605 112.479 30.7792C113.92 25.9842 116.721 19.9544 119.376 19.9544C120.562 19.9544 121.024 20.895 121.024 22.1711C121.024 26.248 116.385 37.4024 112.881 37.4024ZM141.954 21.6673C142.342 20.3693 142.04 18.7493 139.873 18.7493C139.384 18.7394 138.899 18.8305 138.446 19.017C137.994 19.2035 137.585 19.4813 137.245 19.8331C136.905 20.1848 136.642 20.603 136.471 21.0613C136.3 21.5196 136.226 22.0083 136.252 22.4967C136.252 24.3282 137.311 25.472 139.664 26.137L139.464 26.8265C135.607 27.3507 131.837 29.6425 131.837 33.5247C131.837 35.4928 132.873 36.6761 135.226 36.6761C137.064 36.6538 138.842 36.0181 140.277 34.8699L140.684 35.1969C139.818 36.7937 138.539 38.1289 136.981 39.0633C135.423 39.9977 133.642 40.4971 131.826 40.5095C128.16 40.5095 125.72 38.538 125.72 35.1818C125.72 31.0467 128.612 28.3875 133.476 26.8012C132.749 26.4838 132.126 25.9665 131.68 25.3095C131.235 24.6525 130.985 23.8826 130.959 23.0892C130.959 18.9516 135.844 17.1083 140.033 17.1083C142.911 17.1083 145.324 17.9705 145.324 19.792C145.324 21.3066 143.391 21.8443 141.954 21.6673ZM101.363 17.1563C100.263 17.1875 99.1807 17.4506 98.1886 17.9285C97.1965 18.4063 96.3163 19.0881 95.6057 19.9293L98.0432 13.982H92.4669L77.6907 50H83.2603L88.5391 37.1346C88.9041 39.267 90.4988 40.5203 92.8622 40.5203C100.256 40.5203 105.498 28.1531 105.498 21.9134C105.498 19.1977 104.246 17.1563 101.363 17.1563ZM96.1535 32.8126C95.1429 34.6492 93.5365 37.2199 91.5077 37.2199C91.2615 37.2392 91.0141 37.2038 90.7832 37.1161C90.5524 37.0283 90.3438 36.8905 90.1726 36.7126C90.0014 36.5346 89.8718 36.3209 89.7931 36.0868C89.7144 35.8527 89.6886 35.6041 89.7175 35.3588C89.8167 34.2511 90.1061 33.1688 90.573 32.1593L93.4286 25.2083C94.2563 23.1239 96.033 20.1545 98.0904 20.1545C99.278 20.1545 99.6716 21.0344 99.6716 22.3181C99.6716 25.0024 97.4777 30.401 96.1535 32.8126Z" fill="#BA0018"/>
</g>
<defs>
<clipPath id="clip0_491_130">
<rect width="184.486" height="50" fill="white"/>
</clipPath>
</defs>
</svg>
