<svg width="248" height="50" viewBox="0 0 248 50" fill="none" xmlns="http://www.w3.org/2000/svg">
<g clip-path="url(#clip0_491_132)">
<path d="M4.47852 39.4534C6.14125 41.8056 8.19277 43.8571 10.5449 45.5199L18.8285 31.1699L4.47852 39.4534Z" fill="black"/>
<path d="M10.5449 4.47852C8.19018 6.13817 6.13817 8.19018 4.47852 10.545L18.8285 18.8265L10.5449 4.47852Z" fill="black"/>
<path d="M35.5432 2.21705C32.9307 1.00338 30.1272 0.25319 27.2578 0V16.5708L35.5432 2.21705Z" fill="black"/>
<path d="M14.4531 47.7796C17.0665 48.9932 19.8704 49.7446 22.7405 50.0005V33.4297L14.4531 47.7796Z" fill="black"/>
<path d="M45.5199 10.545C43.8605 8.19064 41.8092 6.13868 39.4554 4.47852L31.1719 18.8265L45.5199 10.545Z" fill="black"/>
<path d="M39.4554 45.5199C41.8082 43.8591 43.8587 41.8073 45.518 39.4534L31.1719 31.1699L39.4554 45.5199Z" fill="black"/>
<path d="M49.9986 22.7385C49.7417 19.87 48.9923 17.0672 47.7834 14.4531L33.4297 22.7385H50.0005" fill="black"/>
<path d="M0 27.2559C0.25371 30.1238 1.0032 32.9259 2.21514 35.5374L16.5708 27.2559H0Z" fill="black"/>
<path d="M2.21514 14.4531C1.00427 17.0664 0.254834 19.8696 0 22.7385H16.5708L2.21514 14.4531Z" fill="black"/>
<path d="M33.4297 27.2559L47.7834 35.5374C48.9962 32.9262 49.7458 30.1239 49.9986 27.2559H33.4277" fill="black"/>
<path d="M22.7405 -4.9482e-05C19.8705 0.253381 17.0663 1.00355 14.4531 2.217L22.7405 16.5688V-4.9482e-05Z" fill="black"/>
<path d="M27.25 50.0005C30.1194 49.7448 32.9227 48.9934 35.5354 47.7796L27.25 33.4297V50.0005Z" fill="black"/>
<path d="M43.957 3.01517C43.9586 2.41835 44.1368 1.83536 44.4693 1.33975C44.8018 0.844146 45.2737 0.458138 45.8253 0.230443C46.377 0.00274804 46.9838 -0.0564303 47.5691 0.0603722C48.1544 0.177175 48.6919 0.46473 49.1139 0.886742C49.5359 1.30875 49.8235 1.84631 49.9403 2.43158C50.0571 3.01686 49.9979 3.62362 49.7702 4.17529C49.5425 4.72697 49.1565 5.19884 48.6609 5.53135C48.1653 5.86386 47.5823 6.04212 46.9855 6.04362C46.5874 6.04488 46.1931 5.9674 45.8251 5.81565C45.4571 5.6639 45.1227 5.44088 44.8413 5.15941C44.5598 4.87794 44.3368 4.54359 44.185 4.17559C44.0333 3.80759 43.9558 3.41322 43.957 3.01517ZM49.5168 3.01517C49.5157 2.51255 49.3655 2.02157 49.0853 1.60431C48.8051 1.18706 48.4074 0.862287 47.9426 0.671078C47.4778 0.479869 46.9667 0.430819 46.474 0.530122C45.9813 0.629425 45.5291 0.872621 45.1746 1.22895C44.8202 1.58529 44.5793 2.03875 44.4826 2.53197C44.3859 3.02519 44.4376 3.53602 44.6313 3.99983C44.8249 4.46364 45.1517 4.8596 45.5705 5.13762C45.9892 5.41564 46.481 5.56324 46.9836 5.56173C47.6314 5.58541 48.262 5.35096 48.737 4.90988C49.212 4.46881 49.4925 3.85719 49.5168 3.20944C49.5207 3.14468 49.5207 3.07993 49.5168 3.01517ZM46.2941 4.72938H45.8503V1.27238H47.3379C48.2388 1.27238 48.5454 1.6076 48.5454 2.22472C48.5454 2.89136 48.0769 3.14088 47.4769 3.18849L48.5035 4.72367H48.0083L47.0331 3.18849H46.2979L46.2941 4.72938ZM46.9036 2.79232C47.3874 2.79232 48.0616 2.87232 48.0616 2.22091C48.0616 1.73903 47.6617 1.67236 47.2426 1.67236H46.2903V2.79041L46.9036 2.79232Z" fill="black"/>
<path d="M78.7933 19.4167C78.5688 18.3134 77.9481 17.3304 77.0483 16.6535C76.1486 15.9765 75.032 15.6525 73.9097 15.7426C68.2242 15.7426 67.1709 20.9462 67.1709 25.0032C67.1709 29.7649 68.6128 34.2505 73.624 34.2505C74.7724 34.3741 75.9258 34.0681 76.8618 33.3913C77.7978 32.7146 78.4499 31.7151 78.6924 30.5858H82.0427C81.7266 34.4485 77.8314 36.9932 73.3364 36.9932C66.5366 36.9932 63.8301 31.4468 63.8301 25.0032C63.8301 19.3539 66.3062 12.7789 74.0316 13.0037C78.4676 13.1313 81.7894 15.3026 82.138 19.4186L78.7933 19.4167Z" fill="black"/>
<path d="M87.6534 29.0821C87.4324 31.8935 88.5828 34.7962 91.6741 34.7962C92.5573 34.9355 93.4598 34.7184 94.183 34.1927C94.9062 33.6669 95.3911 32.8756 95.5312 31.9925C95.554 31.8437 95.5674 31.6935 95.5712 31.543H98.7596C98.2796 35.1809 95.4759 36.9942 91.6456 36.9942C86.5029 36.9942 84.4668 33.362 84.4668 28.6402C84.4668 23.9509 86.8248 20.0234 91.8951 20.0234C96.6835 20.1168 98.9424 23.1509 98.9424 27.5812V29.084H87.6477M95.7559 26.9889C95.8168 24.3033 94.6017 22.2272 91.6684 22.2272C90.5424 22.2805 89.4836 22.7787 88.7246 23.6122C87.9657 24.4458 87.5687 25.5466 87.621 26.6727C87.621 26.7775 87.6362 26.8841 87.6477 26.9889H95.7559Z" fill="black"/>
<path d="M105.024 22.8614H105.087C105.57 21.9999 106.274 21.2828 107.126 20.784C107.978 20.2851 108.948 20.0226 109.936 20.0234C111.054 20.0234 116.004 20.311 116.004 25.448V36.5123H112.961V26.4327C112.961 23.7852 111.848 22.351 109.289 22.351C108.194 22.3424 107.14 22.7669 106.357 23.5319C105.911 23.9757 105.079 24.6747 105.079 27.8079V36.5123H102.047V20.5015H105.016V22.8614" fill="black"/>
<path d="M120.795 20.4965V17.0891L123.828 16.1367V20.5042H127.53V22.7041H123.818V32.9894C123.818 34.1322 124.711 34.677 125.799 34.677C126.334 34.6747 126.867 34.6108 127.387 34.4865V36.8045C126.69 36.8388 126.014 36.995 125.321 36.995C124.637 37.0062 123.954 36.9552 123.279 36.8426C122.572 36.7261 121.934 36.349 121.491 35.7855C120.948 35.0236 120.786 34.9589 120.786 32.8218V22.6965H118.045V20.4965H120.786" fill="black"/>
<path d="M140.855 20.5019H143.881V36.5127H140.918V34.1585H140.855C140.276 35.078 139.462 35.8258 138.497 36.3242C137.531 36.8226 136.45 37.0535 135.365 36.9927C133.973 37.0049 132.634 36.4637 131.641 35.4883C130.648 34.5128 130.083 33.1829 130.07 31.791C130.07 31.6005 130.07 31.4101 130.097 31.2196V20.5H133.131V29.9758C133.131 32.7548 133.767 34.7947 136.674 34.7947C137.431 34.8101 138.175 34.5997 138.812 34.1902C139.449 33.7807 139.949 33.1908 140.249 32.4957C140.652 31.2827 140.857 30.0123 140.855 28.734V20.5019Z" fill="black"/>
<path d="M150.962 36.5126H147.932V20.5018H150.962V23.5912H151.029C151.29 22.5729 151.905 21.6807 152.764 21.0737C153.623 20.4667 154.669 20.1843 155.716 20.2771C156.097 20.2771 156.423 20.3113 156.769 20.3113V23.1817C156.346 23.0538 155.904 23.001 155.463 23.0255C151.631 23.1493 150.962 25.1911 150.962 28.5758V36.5126Z" fill="black"/>
<path d="M165.737 42.6458H162.634L165.061 36.4537L158.395 20.5H161.768L166.781 33.1338L171.893 20.5H175.142L165.733 42.6458" fill="black"/>
<path d="M177.418 36.5119V13.4766H182.37V32.6892H192.356V36.5119H177.424" fill="black"/>
<path d="M195.188 13.4766H200.294V17.5964H195.188V13.4766ZM195.348 20.5011H200.134V36.5119H195.348V20.5011Z" fill="black"/>
<path d="M209.475 22.3519L209.538 22.449C210.07 21.6472 210.805 21.0005 211.668 20.5746C212.531 20.1487 213.491 19.9589 214.452 20.0243C216.046 20.0243 219.143 21.1995 219.714 23.5328C219.924 24.3682 220.032 25.2257 220.038 26.087V36.5132H215.244V26.885C215.215 25.1575 214.732 23.2166 212.374 23.2166C210.871 23.2166 209.566 24.5499 209.5 26.885V36.5132H204.717V20.5024H209.469V22.3519" fill="black"/>
<path d="M229.455 26.9827L229.515 27.0399L234.237 20.3106H239.57L234.047 27.3275L239.917 36.5119H234.336L229.517 27.7503L229.456 27.8151V36.5195H224.672V13.4766H229.456V26.9827" fill="black"/>
<path d="M241.793 23.3245C241.794 22.5222 242.114 21.7533 242.682 21.1867C243.25 20.62 244.02 20.3021 244.822 20.3027C245.624 20.3034 246.393 20.6225 246.96 21.19C247.528 21.7575 247.846 22.527 247.846 23.3293C247.846 24.1316 247.528 24.901 246.96 25.4685C246.393 26.0361 245.624 26.3552 244.822 26.3558C244.02 26.3565 243.25 26.0385 242.682 25.4719C242.114 24.9053 241.794 24.1363 241.793 23.334V23.3245ZM247.355 23.3245C247.353 22.8219 247.203 22.331 246.922 21.914C246.642 21.497 246.244 21.1725 245.779 20.9816C245.314 20.7908 244.803 20.7421 244.31 20.8418C243.817 20.9414 243.365 21.185 243.011 21.5416C242.657 21.8982 242.416 22.3518 242.32 22.8451C242.224 23.3384 242.276 23.8492 242.47 24.3129C242.664 24.7765 242.991 25.1722 243.41 25.4499C243.829 25.7277 244.321 25.8749 244.823 25.873C245.144 25.885 245.464 25.8337 245.764 25.722C246.065 25.6104 246.341 25.4406 246.576 25.2223C246.811 25.004 247.001 24.7416 247.134 24.4499C247.268 24.1583 247.343 23.8432 247.355 23.5226C247.358 23.4592 247.358 23.3956 247.355 23.3321V23.3245ZM244.132 25.0387H243.688V21.5798H245.18C246.077 21.5798 246.381 21.9189 246.381 22.5322C246.381 23.1988 245.915 23.4502 245.313 23.4959L246.341 25.0311H245.844L244.871 23.4959H244.132V25.0387ZM244.741 23.1017C245.225 23.1017 245.899 23.1836 245.899 22.5303C245.899 22.0484 245.498 21.9836 245.08 21.9836H244.128V23.0902L244.741 23.1017Z" fill="black"/>
</g>
<defs>
<clipPath id="clip0_491_132">
<rect width="247.836" height="50" fill="white"/>
</clipPath>
</defs>
</svg>
