<svg width="273" height="50" viewBox="0 0 273 50" fill="none" xmlns="http://www.w3.org/2000/svg">
<g clip-path="url(#clip0_491_161)">
<mask id="mask0_491_161" style="mask-type:luminance" maskUnits="userSpaceOnUse" x="0" y="0" width="273" height="50">
<path d="M273 0H0V50H273V0Z" fill="white"/>
</mask>
<g mask="url(#mask0_491_161)">
<path d="M41.8606 0C42.1853 0.685528 42.7552 1.05417 43.3341 0.953174C51.1701 4.40606 56.2312 15.1467 55.4739 26.7128C54.9343 37.8833 49.0856 47.0956 41.2959 49.0462C39.4852 49.3833 37.6575 49.4779 35.8357 49.3303H17.9636C9.28236 49.459 3.22182 43.122 0.546337 31.22C0.579786 30.6026 0.370172 30.0092 0 29.6759V19.7831C0.513779 18.9391 0.82062 17.8818 0.874139 16.7696C2.47658 9.84485 6.15019 4.26719 10.9196 1.52003C11.9984 1.29531 13.0363 0.779583 13.9773 0H41.8606ZM31.9953 40.1849H38.0028C44.0339 40.2082 48.9358 33.3074 48.9518 24.7712C48.9661 17.4046 45.3054 11.048 40.205 9.58351C37.5041 9.03874 34.7684 8.94406 32.0515 9.29945V18.5988H34.5811C41.2607 18.5988 40.4414 17.1824 40.5324 27.2797C40.8169 28.8958 40.1221 30.5306 38.9817 30.9333C38.6236 31.0596 38.2489 31.052 37.8935 30.9119H31.9953V40.1849ZM23.2227 30.9119H17.1081C16.069 31.2446 15.0356 30.3223 14.8001 28.8515C14.7323 28.4267 14.7377 27.9849 14.8144 27.5638C14.8978 25.7187 14.8978 23.8691 14.8144 22.0246C14.5067 20.5519 15.0999 19.0041 16.1408 18.5673C16.511 18.4127 16.9035 18.4146 17.2719 18.5736H23.187V9.22118H17.0163C10.9887 9.4964 6.26035 16.6364 6.45525 25.1682C6.60377 31.6674 9.61014 37.3399 13.9773 39.3597C16.9989 40.7251 20.111 40.0813 23.2048 40.0813V30.9119H23.2227ZM257.548 43.7918H251.688V26.7646V19.655C251.762 16.1282 249.801 13.1847 247.31 13.08C247.186 13.0755 247.061 13.0774 246.937 13.0863C244.416 13.2126 242.445 16.2077 242.533 19.7762C242.536 19.9087 242.542 20.0394 242.55 20.1706V43.7659H236.927C236.927 34.7499 236.654 25.7338 237.018 16.8983C237.344 11.0101 240.457 6.18932 244.571 5.20332C248.498 3.7805 252.616 6.207 254.671 11.154C256.73 6.1849 260.869 3.75588 264.808 5.20332C269.099 6.17038 272.307 11.2948 272.47 17.4394C272.816 26.146 272.47 34.8786 272.47 43.7659H266.811V23.0044C266.849 21.6629 266.819 20.3196 266.719 18.9853C266.583 15.6251 264.601 13.0137 262.224 13.0604C259.834 12.9177 257.814 15.545 257.714 18.9278C257.709 19.0414 257.709 19.155 257.709 19.2686C257.527 24.8072 257.601 30.3974 257.565 35.9612C257.546 38.639 257.546 41.215 257.546 43.7912L257.548 43.7918ZM219.42 45.1054C211.602 45.4197 205.085 36.706 204.863 25.6423C204.857 25.3381 204.856 25.0337 204.859 24.7295C204.859 13.3438 211.393 4.84288 219.874 4.97165C227.764 4.75704 234.281 13.6367 234.433 24.802C234.435 24.9851 234.435 25.1663 234.435 25.3481C234.243 36.5413 227.677 45.3951 219.769 45.1237C219.652 45.1199 219.536 45.1136 219.42 45.1054ZM219.62 12.8805C214.947 12.7214 211.068 17.9544 210.956 24.5679C210.953 24.7592 210.953 24.9505 210.956 25.1423C210.854 31.7559 214.559 37.2344 219.232 37.3796C219.373 37.384 219.514 37.3833 219.656 37.3777C224.38 37.5064 228.282 32.1908 228.373 25.5059C228.374 25.3759 228.374 25.2459 228.373 25.1164C228.425 18.4297 224.637 12.9505 219.913 12.8767C219.816 12.8754 219.717 12.8767 219.619 12.8792L219.62 12.8805Z" fill="#7FBD42"/>
<path d="M131.549 24.9356C131.615 35.9887 125.339 45.0267 117.53 45.1228C117.295 45.1252 117.06 45.1196 116.825 45.1057C108.932 45.576 102.263 36.9008 101.931 25.7284C101.926 25.5328 101.923 25.3371 101.92 25.1414C101.945 13.9596 108.371 4.92399 116.271 4.95935C116.425 4.95935 116.581 4.9644 116.734 4.97196C125.162 4.92021 131.513 13.4729 131.55 24.9356H131.549ZM125.417 25.0902C125.538 18.5191 121.874 13.0525 117.231 12.8802C117.085 12.8738 116.937 12.8738 116.789 12.8802C112.077 12.7097 108.158 17.978 108.038 24.6484C108.036 24.762 108.035 24.8744 108.035 24.9874C107.954 31.6596 111.709 37.1602 116.423 37.2744C116.521 37.2764 116.619 37.2764 116.717 37.2744C121.358 37.489 125.245 32.3382 125.396 25.7688C125.402 25.5416 125.402 25.3156 125.399 25.0891L125.417 25.0902ZM176.267 10.3041L173.191 15.8167C171.544 14.2955 169.771 13.0676 167.913 12.1587C166.28 11.5602 164.553 11.742 163 12.6744C161.778 13.2298 160.958 14.8521 160.979 16.667C161.045 18.5039 162.052 19.9937 163.345 20.1703C165.674 20.943 168.041 21.5098 170.389 22.2055C174.72 23.4933 176.959 26.2498 177.304 30.9123C177.634 36.4356 175.351 41.6074 171.699 43.6108C165.619 46.8207 158.78 44.8178 154.099 38.4587L158.03 33.1778C159.885 35.6661 162.191 37.378 164.692 38.1229C166.488 38.7074 168.376 38.2529 169.934 36.8603C170.953 36.1692 171.573 34.6699 171.5 33.0729C171.389 31.4696 170.57 30.1439 169.461 29.7766C167.495 29.0298 165.493 28.5393 163.509 27.8955C162.454 27.5357 161.398 27.1494 160.361 26.6596C157.667 25.3717 155.483 23.2338 155.156 18.9319C154.724 14.6962 156.029 10.4808 158.522 8.0619C161.289 5.27371 164.745 4.2208 168.077 5.1506C171.088 5.77554 173.921 7.5588 176.267 10.3041Z" fill="#57565A"/>
<path d="M153.572 10.303C152.698 12.3464 151.66 14.2394 150.478 15.9444C148.843 14.2022 146.991 12.9081 145.019 12.1317C143.517 11.6331 141.944 11.8224 140.524 12.6727C139.215 13.1663 138.308 14.8517 138.321 16.7683C138.417 18.6102 139.457 20.0708 140.759 20.1939C143.308 21.0443 145.91 21.5593 148.44 22.3844C153.171 23.9038 155.52 28.3344 154.483 34.388C153.837 38.6653 151.717 42.1977 148.84 43.7904C142.86 46.7654 136.207 44.7789 131.586 38.6381L135.336 33.1262C137.193 35.7061 139.526 37.4918 142.07 38.2784C143.79 38.8465 145.598 38.469 147.129 37.2224C148.262 36.5986 148.994 35.0275 148.949 33.3067C148.837 31.5879 147.929 30.1858 146.728 29.881C144.909 29.1853 142.906 28.722 140.995 28.0775C139.86 27.7272 138.743 27.2803 137.646 26.738C135.026 25.218 132.86 23.1829 132.569 18.8816C132.134 14.8018 133.341 10.7197 135.699 8.29442C139.521 4.19892 143.799 4.22418 148.166 6.13053C150.144 7.00795 151.98 8.42509 153.571 10.303H153.572Z" fill="#57565A"/>
<path d="M204.95 14.2444L200.2 18.211C194.631 11.6171 189.771 11.179 186.313 16.9234C183.287 22.0553 183.598 29.6321 187.023 34.2345C190.79 39.0509 195.85 38.1759 199.927 31.9418C201.619 32.9853 203.234 34.2623 204.75 35.7545C202.529 42.3232 196.05 46.3417 190.19 44.8217C182.478 43.2537 177.126 33.1355 178.233 22.2219C178.964 15.0258 182.4 8.9596 187.205 6.38792C193.685 2.62571 201.141 5.9252 204.95 14.2444Z" fill="#7FBD42"/>
<path d="M88.6529 14.2187L83.921 18.2372C78.4611 11.6685 73.711 11.1534 70.1979 16.6401C67.1456 21.6927 67.311 29.2032 70.5806 33.9765C74.2207 38.9741 79.1168 38.2268 83.7939 31.8386C85.4686 33.0291 87.0586 34.4437 88.5437 36.0628C84.99 43.6674 78.3274 47.0622 72.1643 44.4091C64.6493 41.5585 60.1903 30.6254 62.2045 19.9895C63.4407 13.46 66.9297 8.26235 71.473 6.18115C77.822 2.82484 84.9664 6.16726 88.6524 14.2168L88.6529 14.2187ZM104.505 6.28467L102.557 14.013C97.9896 12.5706 96.3335 14.5022 96.3335 21.1485V40.9064C96.4637 41.9542 96.3624 43.0336 96.0424 43.9976H90.473V6.36231C92.177 5.9861 93.9072 5.90781 95.6239 6.13065C96.4067 6.90329 95.7143 8.19165 96.2603 8.96492C99.2814 4.66175 101.084 4.01788 104.505 6.28467Z" fill="#57565A"/>
</g>
</g>
<defs>
<clipPath id="clip0_491_161">
<rect width="273" height="50" fill="white"/>
</clipPath>
</defs>
</svg>
