<svg width="234" height="50" viewBox="0 0 234 50" fill="none" xmlns="http://www.w3.org/2000/svg">
<path d="M22.4317 4.98404V0H0V4.99806H7.7109V26.7288H14.6647V4.99806L22.4317 4.98404ZM109.004 26.7147C108.822 24.9412 108.71 23.5673 108.71 22.642V13.6413C108.71 9.90499 105.969 7.57771 102.345 7.57771C101.119 7.55018 99.9064 7.83807 98.8237 8.41376C97.7411 8.98945 96.8245 9.83363 96.1619 10.8654C95.3838 8.76238 93.0915 7.68286 90.9465 7.68286C88.3528 7.68286 86.1728 8.53806 84.953 10.8654L84.7988 8.06139H78.4408V26.7077H85.0231V15.4919C85.0231 14.9031 84.7638 11.7206 87.8271 11.7206C89.867 11.7206 90.3437 13.5361 90.3437 15.3096V26.7077H96.8909V15.4919C96.8909 14.9031 96.6315 11.7206 99.6949 11.7206C101.735 11.7206 102.218 13.5361 102.218 15.3096V26.7077L109.004 26.7147ZM76.9197 13.5642V7.90717C74.0667 7.90717 71.8866 8.79743 71.0384 11.6435L70.8842 8.08943H64.3019C64.4491 9.61058 64.4491 11.6435 64.4491 12.8702V26.7077H71.0384V18.5622C71.0384 15.4919 71.9216 13.6062 75.5528 13.5361C75.9944 13.5361 76.436 13.5361 76.9197 13.5361M120.381 7.54967C114.311 7.54967 110.35 10.9144 110.35 17.3145C110.35 23.9038 114.353 27.1984 120.381 27.1984C126.41 27.1984 130.412 23.9038 130.412 17.3145C130.412 10.9144 126.452 7.54967 120.381 7.54967ZM120.381 11.4682C123.185 11.4682 123.676 14.3142 123.676 17.2374C123.676 20.6442 123.08 23.3079 120.381 23.3079C117.682 23.3079 117.086 20.6442 117.086 17.2374C117.086 14.2792 117.605 11.4332 120.381 11.4332V11.4682ZM42.7184 26.7077C42.5633 25.3554 42.4767 23.9961 42.459 22.635V13.6413C42.459 9.90499 39.655 7.57771 36.059 7.57771C34.9921 7.5589 33.9328 7.75932 32.9466 8.16654C32.0235 8.60651 31.2131 9.25146 30.5772 10.0522V0H23.9949V26.7077H30.5772V15.4919C30.5772 14.9031 30.3249 11.7206 33.3812 11.7206C35.4841 11.7206 35.8977 13.5361 35.8977 15.3096V26.7077H42.7184ZM62.8508 18.6744C62.8508 11.9799 60.888 7.57771 53.4505 7.57771C47.5692 7.57771 44.0502 11.2018 44.0502 16.8658C44.0502 23.8197 46.5318 27.2265 53.78 27.2265C55.8179 27.2993 57.8306 26.7571 59.5562 25.6703C60.4412 25.1209 61.1863 24.3733 61.7325 23.4863C62.2788 22.5994 62.6112 21.5976 62.7036 20.5601H56.4858C56.4795 20.9583 56.3915 21.3509 56.2272 21.7137C56.0629 22.0765 55.8259 22.4017 55.5308 22.6692C55.2358 22.9366 54.8889 23.1407 54.5118 23.2686C54.1347 23.3966 53.7353 23.4458 53.3384 23.4131C50.8218 23.4131 50.3101 21.0087 50.3451 18.6744H62.8508ZM56.5419 15.0853H50.4363C50.5835 13.1225 51.0251 11.1247 53.4645 11.0196C53.9367 10.9857 54.4086 11.0895 54.8229 11.3184C55.2372 11.5474 55.5763 11.8916 55.7988 12.3094C56.3096 13.1538 56.5675 14.1269 56.5419 15.1134V15.0853Z" fill="#E71316"/>
<path d="M233.444 13.2347V7.57771C230.598 7.53565 228.411 8.46095 227.563 11.314L227.416 8.08943H220.833C220.973 9.61058 220.974 11.6435 220.974 12.8632V26.7007H227.563V18.5622C227.563 15.4919 228.453 13.2768 232.077 13.1997C232.519 13.1997 232.96 13.1997 233.479 13.1997M199.222 26.6657C199.063 25.316 198.977 23.9588 198.962 22.5999V13.6483C198.962 9.905 196.158 7.57771 192.562 7.57771C191.52 7.55729 190.486 7.75798 189.527 8.16654C188.578 8.59974 187.741 9.24483 187.081 10.0522V0H180.498V26.7147H187.081V15.4989C187.081 14.9101 186.821 11.7276 189.885 11.7276C191.952 11.7276 192.401 13.5361 192.401 15.3166V26.7077L199.222 26.6657ZM178.893 21.1208C178.893 18.2328 177.379 16.8308 175.269 16.0527C171.308 14.6507 168.343 14.5736 168.343 13.0875C168.317 12.8553 168.343 12.6202 168.419 12.3993C168.496 12.1784 168.62 11.9774 168.784 11.8108C168.948 11.6443 169.147 11.5164 169.367 11.4365C169.586 11.3566 169.821 11.3267 170.054 11.349C170.373 11.3221 170.695 11.3611 170.999 11.4636C171.303 11.566 171.582 11.7299 171.82 11.9449C172.192 12.4572 172.364 13.088 172.304 13.7184H178.557C178.409 8.81145 174.561 7.54266 170.341 7.54266C166.752 7.54266 162.097 8.79743 162.097 13.2768C162.097 19.789 172.612 18.0856 172.612 21.5625C172.612 22.7892 171.61 23.336 170.313 23.336C169.98 23.338 169.651 23.2586 169.355 23.1047C169.06 22.9507 168.806 22.7269 168.617 22.4527C168.429 22.1936 168.296 21.8989 168.226 21.5868C168.156 21.2746 168.151 20.9515 168.21 20.6372H161.901C161.789 26.189 165.897 27.1914 170.446 27.1914C174.708 27.1914 178.858 25.6352 178.858 21.1208M219.361 18.6393C219.403 11.9449 217.405 7.54266 209.961 7.54266C204.08 7.54266 200.561 11.1668 200.561 16.8308C200.561 23.7846 203.042 27.1914 210.297 27.1914C212.333 27.2598 214.342 26.7179 216.067 25.6352C216.954 25.0884 217.701 24.3413 218.247 23.4539C218.794 22.5665 219.125 21.5634 219.214 20.525H212.982C212.977 20.9229 212.89 21.3154 212.726 21.6782C212.563 22.0409 212.326 22.3662 212.032 22.6338C211.737 22.9014 211.391 23.1055 211.014 23.2335C210.637 23.3616 210.238 23.4107 209.842 23.378C207.325 23.378 206.806 20.9736 206.842 18.6393H219.361ZM213.052 15.0503H206.954C207.101 13.0875 207.543 11.0897 209.989 10.9845C210.462 10.953 210.933 11.0587 211.347 11.2887C211.761 11.5188 212.1 11.8634 212.323 12.2814C212.819 13.1304 213.062 14.103 213.024 15.0853L213.052 15.0503ZM160.205 8.04036H153.622V26.7077H160.205V8.04036ZM151.575 4.90693L153.132 0H135.432V26.7147H142.385V16.1999H147.993L149.543 11.293H142.385V4.90693H151.575ZM160.212 4.90693L161.775 0H155.263L153.706 4.90693H160.212Z" fill="#E71316"/>
<path d="M60.411 34.5308H62.8224V49.6792H60.411V34.5308ZM223.041 49.9526C217.987 49.9526 214.215 47.1486 214.215 42.2417C214.215 37.3347 218.421 34.2364 223.195 34.2364C224.87 34.2487 226.511 34.7086 227.948 35.5682L226.707 37.0333C225.641 36.4138 224.435 36.0738 223.202 36.0449C222.317 35.9986 221.431 36.1395 220.604 36.4584C219.777 36.7773 219.026 37.267 218.4 37.8955C217.332 39.119 216.784 40.7111 216.872 42.3328C216.823 43.1561 216.959 43.9798 217.27 44.7439C217.58 45.5079 218.058 46.193 218.667 46.7491C219.823 47.8917 221.597 48.2071 223.335 48.2071C224.679 48.1535 225.991 47.7811 227.163 47.1206L228.34 48.5226C226.727 49.4655 224.888 49.9502 223.02 49.9245M197.616 34.5027H200.027V49.6511H197.616V34.5027ZM142.995 36.3113H137.352V49.6301H134.996V36.3113H129.388V34.5027H143.247L142.995 36.3113ZM17.181 49.1394C15.8425 49.7485 14.3817 50.0412 12.9119 49.9946C10.8048 49.9995 8.72332 49.5324 6.82031 48.6277L7.82273 46.9103C9.45623 47.7546 11.2694 48.1923 13.1082 48.1861C14.0651 48.2302 15.0164 48.0172 15.8631 47.5692C16.2483 47.4039 16.5782 47.132 16.8142 46.7855C17.0501 46.4391 17.1822 46.0324 17.195 45.6134C17.195 44.3447 16.2206 43.5595 13.8793 43.0128L11.4188 42.438C8.96534 41.8631 7.42316 40.335 7.42316 38.5404C7.42316 35.9608 9.96075 34.1312 13.5779 34.1312C15.6085 34.0905 17.6137 34.5887 19.3891 35.5753L18.2675 37.1525C16.8654 36.3634 15.2849 35.9459 13.676 35.9398C11.524 35.9398 10.0308 36.774 10.0308 38.197C10.0308 39.2905 10.9421 39.9424 13.0521 40.4542L15.3303 41.0009C16.5516 41.2408 17.6993 41.7642 18.6811 42.5291C19.0492 42.8778 19.3432 43.2971 19.5455 43.762C19.7479 44.2269 19.8544 44.7279 19.8587 45.2349C19.8208 46.0707 19.55 46.8792 19.0768 47.5692C18.6037 48.2591 17.947 48.803 17.181 49.1394ZM114.205 49.6792L108.191 41.6038C107.062 40.0896 105.155 37.1315 105.155 37.1315C105.155 37.1315 105.366 39.6901 105.38 41.9332L105.443 49.6792H103.038V34.5308H105.905L111.969 42.7604C113.154 44.3657 114.773 46.9103 114.773 46.9103C114.773 46.9103 114.408 44.1063 114.394 42.1155L114.338 34.5098H116.722V49.6582L114.205 49.6792ZM155.704 34.5308H158.122V49.6792H155.704V34.5308ZM184.444 36.3113H176.152V40.7976H183.161V42.5782H176.152V49.6792H173.733V34.5308H184.781L184.444 36.3113ZM78.4405 49.6792V34.5308H89.6073L89.2848 36.3393H80.8729V40.8537H88.0511V42.6623H80.901V47.7795H89.9157V49.6792H78.4405ZM41.7366 49.9386C36.6895 49.9386 32.9182 47.1346 32.9182 42.2277C32.9182 37.3207 37.1241 34.2223 41.8909 34.2223C43.5655 34.2347 45.2064 34.6945 46.6436 35.5542L45.4098 37.0193C44.3435 36.3998 43.1378 36.0598 41.9049 36.0309C41.0182 35.9836 40.1316 36.124 39.3029 36.4429C38.4743 36.7618 37.7223 37.252 37.0961 37.8815C36.028 39.105 35.4796 40.6971 35.5679 42.3188C35.5202 43.1426 35.6572 43.9667 35.9689 44.7308C36.2806 45.4949 36.7591 46.1796 37.3695 46.735C38.5261 47.8776 40.2926 48.1931 42.0311 48.1931C43.375 48.1395 44.6869 47.7671 45.8585 47.1066L47.0361 48.5085C45.424 49.4531 43.5839 49.938 41.7156 49.9105" fill="#E71316"/>
</svg>
