<svg width="210" height="40" viewBox="0 0 210 40" fill="none" xmlns="http://www.w3.org/2000/svg">
<path d="M136.217 27.4165C135.518 30.9092 133.073 33.0048 129.755 33.0048C127.485 33.1794 125.389 31.957 124.167 30.036C122.944 27.9404 122.944 23.3999 122.944 22.0029C122.944 20.6058 122.944 14.1443 123.119 13.0965C120.15 12.9219 117.182 12.9219 115.261 12.9219C115.086 14.1443 115.086 23.0507 115.086 23.0507C115.086 27.4165 115.435 31.4331 117.88 34.5765C120.674 38.0692 125.04 40.1648 129.581 39.9902C137.788 39.9902 143.027 34.4019 143.901 27.5912H136.217V27.4165Z" fill="#337ACE"/>
<path d="M124.165 9.95415C124.34 9.43025 125.911 6.81073 129.753 6.81073C132.373 6.6361 134.818 8.38244 135.691 10.8273C138.485 11.1766 141.279 11.5259 144.073 12.0498C143.025 5.41366 137.961 0 129.753 0C126.959 0 124.34 0.698535 121.895 2.09561C118.577 4.19122 116.83 6.6361 115.957 9.77952C117.878 9.77952 120.672 9.77951 124.165 9.95415ZM24.4488 4.01659C22.0039 1.39707 18.162 0.349266 13.6215 0.349266H0V29.6878C2.44488 28.64 5.06439 27.7668 7.68391 26.8937V7.16H13.4468C15.8917 7.16 17.8127 8.03317 19.0351 9.60488C20.6068 11.5259 20.6068 13.0976 20.6068 22.7024C23.0517 22.0039 28.2907 20.6068 28.2907 20.6068C28.4654 11.3512 28.4654 8.20781 24.4488 4.01659Z" fill="black"/>
<path d="M71.5992 22.5266C74.9173 21.4788 77.3621 18.6847 78.4099 15.192C69.1543 16.5891 59.8987 18.3354 50.8177 20.7803V39.4662H58.5016V23.9237H63.9153L71.5992 39.4662H80.3309L71.5992 22.5266ZM111.067 32.6554H92.9046V23.2252H108.272V16.4144H92.9046V13.7949C90.4597 13.9696 87.8402 14.3188 85.2207 14.6681V39.8154H110.892L111.067 32.6554ZM14.1445 39.4662C18.1611 39.4662 21.8284 38.2437 24.448 35.7988C26.7182 33.5286 27.766 30.9091 28.1153 27.9403C19.5582 31.0837 11.1758 34.9257 3.14258 39.4662H14.1445ZM35.4499 39.4662H43.1338V23.0505C40.5143 23.7491 38.0694 24.6222 35.4499 25.4954V39.4662Z" fill="#337ACE"/>
<path d="M35.4512 19.0335C37.8961 18.5096 40.5156 17.9857 43.1351 17.4618V0.522291H35.4512V19.0335ZM111.068 0.347656H85.3966V11.175C88.0161 11.0003 90.461 10.6511 93.0805 10.4764V7.15839H111.242L111.068 0.347656Z" fill="black"/>
<path d="M196.637 39.4657H190.874L177.951 0.347656H185.81L193.668 25.8443L201.527 0.347656H209.386L196.637 39.4657ZM163.981 7.15839V39.4657H156.297V7.15839H146.168V0.347656H174.284V7.15839H163.981Z" fill="#337ACE"/>
<path d="M58.5003 7.15839H65.6603C68.9784 7.15839 71.2486 9.07937 71.2486 12.7467L78.9325 11.8735C78.7579 5.58668 74.0428 0.347656 66.1842 0.347656H50.8164V15.8901C53.2613 15.3662 55.8808 15.0169 58.5003 14.6677V7.15839Z" fill="black"/>
</svg>
