<svg width="161" height="50" viewBox="0 0 161 50" fill="none" xmlns="http://www.w3.org/2000/svg">
<g clip-path="url(#clip0_491_186)">
<path d="M157.286 2.83984C155.634 2.84146 154.233 4.15113 154.23 5.91242C154.233 7.68259 155.634 8.99468 157.286 8.9971C158.925 8.99468 160.324 7.68259 160.326 5.91242C160.324 4.15113 158.925 2.84146 157.286 2.83984Z" fill="white"/>
<path d="M155.506 1.85881L138.897 3.61849V2.23784H126.726C126.726 2.23784 126.726 3.36445 126.715 3.34671L126.196 2.26365L116.293 2.22494V3.39913L96.2056 0.439453L95.1879 7.33945L95.1895 6.608C95.1895 2.233 91.7718 2.11042 91.7718 2.11042H76.9774C75.7919 2.11042 74.7105 2.5709 73.9081 3.31929C73.9081 3.31929 61.3282 2.12736 61.3266 2.12736C59.6621 1.9701 57.9686 2.69026 56.9621 4.03461C56.6911 4.39671 56.4581 4.81849 56.2919 5.23865L56.1556 1.92574L40.3677 2.57655C38.8895 2.63381 37.4927 3.21284 36.4097 4.20155L36.4726 2.35397L23.1758 1.90236L23.0774 4.82816C22.0508 3.88623 20.7524 3.30397 19.3589 3.1709L2.52984 1.52978L0 27.4653L16.8363 29.1072C17.054 29.1274 17.2661 29.1338 17.4806 29.1338C18.9597 29.1354 20.3895 28.6153 21.5347 27.6782C21.8202 27.4427 22.0831 27.1854 22.321 26.9104L22.2847 27.9427L34.2387 28.3507L34.2597 28.9088L39.7758 28.6822C36.9605 30.4564 35.0855 33.5903 35.0855 37.1636V39.9669C35.0855 45.5024 39.5831 49.9967 45.1161 49.9975L111.506 49.9991C117.044 49.9959 121.537 45.5024 121.538 39.9669L121.541 37.1636C121.536 33.3846 119.444 30.0967 116.357 28.3878H138.897V15.7483C138.897 15.7483 140.321 15.5991 140.941 15.533C141.13 17.3241 142.407 29.4483 142.407 29.4483L155.17 28.0999C155.17 28.0999 154.118 18.1709 153.698 14.1798C154.337 14.112 156.783 13.8467 156.783 13.8467L155.506 1.85881Z" fill="white"/>
<path d="M111.509 28.5L45.1168 28.5008C40.3394 28.5008 36.4531 32.3839 36.4531 37.1653V39.9685C36.4531 44.7508 40.3394 48.6339 45.1168 48.6339H111.509C116.289 48.6339 120.172 44.7508 120.173 39.9685V37.1653C120.172 32.3839 116.289 28.5008 111.509 28.5Z" fill="white"/>
<path d="M111.509 28.5L45.1168 28.5008C40.3394 28.5008 36.4531 32.3839 36.4531 37.1653V39.9685C36.4531 44.7508 40.3394 48.6339 45.1168 48.6339H111.509C116.289 48.6339 120.172 44.7508 120.173 39.9685V37.1653C120.172 32.3839 116.289 28.5008 111.509 28.5Z" stroke="white" stroke-width="0.695"/>
<path d="M111.509 28.5L45.1168 28.5008C40.3394 28.5008 36.4531 32.3839 36.4531 37.1653V39.9685C36.4531 44.7508 40.3394 48.6339 45.1168 48.6339H111.509C116.289 48.6339 120.172 44.7508 120.173 39.9685V37.1653C120.172 32.3839 116.289 28.5008 111.509 28.5Z" fill="white"/>
<path d="M45.1177 29.0605C40.6508 29.0605 37.0137 32.6952 37.0137 37.1646V39.9702C37.0137 44.4396 40.6508 48.0743 45.1177 48.0743H111.51C115.98 48.0743 119.615 44.4396 119.615 39.9702V37.1646C119.615 32.6952 115.98 29.0605 111.51 29.0605H45.1177Z" fill="black"/>
<path d="M37.6367 39.9718V37.1662C37.6367 33.042 40.9932 29.6855 45.1174 29.6855H111.509C115.634 29.6855 118.992 33.042 118.992 37.1662V39.9718C118.992 44.0944 115.634 47.4517 111.509 47.4517H45.1174C40.9932 47.4525 37.6367 44.0952 37.6367 39.9718Z" fill="white"/>
<path d="M109.707 31.7656V35.0019H102.118V36.8826H108.548V40.0027H102.118V42.1358H109.966V45.4503H97.1953V31.7656H109.707Z" fill="black"/>
<path d="M91.1137 43.7108C91.1306 41.6455 91.2193 39.4955 88.2677 39.0737C90.1693 38.6866 91.1314 37.289 91.1314 35.6237C91.1314 32.8511 88.4443 31.7656 85.6846 31.7656H76.8516V45.4511H81.7298V40.7027H84.4403C86.9354 40.7027 86.1475 44.0551 86.4749 45.4511H91.0951V43.718L91.1137 43.7108ZM84.2435 37.6785L81.7516 37.6987V35.0237H84.5048C85.6185 35.0237 86.4104 35.3326 86.4104 36.4374C86.4104 37.543 85.2072 37.6785 84.2435 37.6785Z" fill="black"/>
<path d="M59.3511 31.7656V35.2164H54.697V45.4503H49.6833L49.6866 35.2358H45.0293V31.7656H59.3511Z" fill="black"/>
<path d="M70.2181 31.7656H65.1875V45.4519H70.2181V31.7656Z" fill="black"/>
<path d="M40.4481 4.50605C39.2917 4.55282 38.2223 5.0496 37.4368 5.90121C36.6925 6.70766 36.29 7.74315 36.29 8.83427C36.29 8.89395 36.4933 13.9165 36.4933 13.9165C36.5505 15.2827 37.5602 16.131 38.4755 16.3415C38.4231 16.3286 44.2255 17.9665 44.2344 17.969C44.6917 18.098 45.4828 19.0891 44.5771 19.1246L35.8086 19.4859L36.1126 26.9052L50.5957 26.3101C51.7538 26.2633 52.8247 25.7673 53.6118 24.9141C54.3957 24.0641 54.8021 22.9585 54.7546 21.8004L54.5634 17.144C54.5062 15.7738 53.4239 14.9254 52.4384 14.719C52.5207 14.7391 47.1094 13.2117 47.1094 13.2117C46.2884 12.9802 45.2804 11.3988 46.7505 11.3383C46.7521 11.3383 54.6021 11.0165 54.6021 11.0165L54.311 3.9375L40.4481 4.50605Z" fill="black"/>
<path d="M24.997 5.11745L24.2793 26.0868L33.7228 26.4078L34.4825 4.21907L25.0374 3.89648L24.997 5.11745Z" fill="black"/>
<path d="M22.211 6.71045C21.4489 5.78303 20.3707 5.20883 19.1763 5.0927L4.26179 3.63867L2.10938 25.7371L17.0223 27.1903C18.2174 27.3064 19.3876 26.9508 20.3142 26.1879C21.2392 25.4258 21.815 24.3483 21.9295 23.1556L23.2118 9.99754C23.3295 8.80561 22.9731 7.63706 22.211 6.71045ZM14.39 19.1346C14.365 19.3903 14.2416 19.6201 14.0457 19.7822C13.8473 19.9443 13.5973 20.0209 13.34 19.9959C13.34 19.9959 11.7852 19.8451 10.6255 19.7322C10.7908 18.0483 11.2957 12.8596 11.4594 11.175C12.6199 11.2887 14.1771 11.4403 14.1771 11.4403C14.6707 11.4879 15.0432 11.908 15.0432 12.3943C15.0432 12.425 14.39 19.1346 14.39 19.1346Z" fill="black"/>
<path d="M57.8843 6.80136L56.44 22.0086C56.2803 23.6788 57.4867 25.1667 59.1238 25.3231C59.1271 25.3231 70.3884 26.3917 70.3884 26.3917L71.0287 19.6457L66.073 19.1764C65.823 19.153 65.5932 19.0304 65.4279 18.8296C65.2456 18.6078 65.1609 18.3256 65.1884 18.0312C65.1884 18.0296 65.7367 12.278 65.7367 12.278C65.7642 11.9812 65.9005 11.7199 66.1198 11.5393C66.3198 11.3723 66.5682 11.2949 66.819 11.3183C66.8206 11.3183 71.7755 11.7893 71.7755 11.7893L72.4085 5.11749L61.1456 4.04814C59.5061 3.8941 58.0424 5.12878 57.8843 6.80136Z" fill="black"/>
<path d="M76.981 4.04297C75.5577 4.04297 74.4004 5.19377 74.4004 6.61071V22.5962C74.4004 24.0123 75.5577 25.1623 76.981 25.1623H90.6867C92.1076 25.1623 93.2649 24.0123 93.2649 22.5962V6.61071C93.2649 5.19377 92.1068 4.04297 90.6867 4.04297H76.981ZM82.1939 17.8543V11.3535C82.1939 10.7914 82.6585 10.3333 83.2318 10.3333H84.4351C85.0068 10.3333 85.473 10.7914 85.473 11.3535V17.8543C85.473 18.4147 85.0068 18.8728 84.4351 18.8728H83.2318C82.6585 18.8728 82.1939 18.4147 82.1939 17.8543Z" fill="black"/>
<path d="M95.0662 21.4192C94.9637 22.1055 95.1339 22.7934 95.55 23.3515C95.9661 23.9128 96.575 24.2773 97.2637 24.3773L111.117 26.4225C112.538 26.6337 113.865 25.6475 114.075 24.2265C114.075 24.2249 116.85 5.43374 116.85 5.43374L109.027 4.28133L107.019 17.8926C106.931 18.487 106.377 18.8983 105.786 18.8096L104.568 18.6313C104.28 18.5886 104.026 18.4362 103.852 18.2031C103.68 17.9708 103.608 17.6854 103.651 17.3983L105.662 3.78294L97.8379 2.62891L95.0662 21.4192Z" fill="black"/>
<path d="M118.225 26.4605H126.271C126.271 26.4605 126.271 22.8976 126.271 20.579C127.523 23.171 129.112 26.4605 129.112 26.4605H136.973V4.16856H128.655C128.655 4.16856 128.655 8.70404 128.655 11.9605C127.039 8.53792 124.988 4.19114 124.988 4.19114L118.225 4.16211V26.4605Z" fill="black"/>
<path d="M138.711 5.58242L139.574 13.7405C139.574 13.7405 141.767 13.509 142.659 13.4139C142.874 15.4381 144.135 27.3332 144.135 27.3332L153.054 26.3889C153.054 26.3889 151.794 14.4929 151.579 12.4679C152.471 12.3752 154.662 12.1421 154.662 12.1421L153.796 3.98242L138.711 5.58242Z" fill="black"/>
<path d="M37.7211 13.8444L37.5187 8.94522C37.4485 7.22829 38.7864 5.77587 40.5033 5.7049L53.1469 5.18555L53.338 9.82587L46.7066 10.096C45.5969 10.142 44.7211 11.0001 44.7646 11.9968C44.805 12.9993 45.7138 14.063 46.7832 14.3646L52.192 15.8936C52.192 15.8936 53.305 16.1275 53.3493 17.1734L53.5388 21.8299C53.6106 23.5468 52.2727 24.9984 50.5517 25.0694L37.2872 25.6138L37.084 20.6339L44.6324 20.3234C45.5598 20.2864 46.2848 19.5759 46.2485 18.742C46.2162 17.9089 45.4606 17.0218 44.5719 16.7718L38.755 15.1307C38.755 15.1307 37.763 14.9017 37.7211 13.8444Z" fill="#ED1C24"/>
<path d="M32.5501 25.125L25.5469 24.8871L26.2235 5.13867L33.2259 5.37819L32.5501 25.125Z" fill="#ED1C24"/>
<path d="M19.0645 6.28619L5.36454 4.95312L3.44922 24.6184L17.1468 25.9539C18.9452 26.1297 20.546 24.8128 20.7194 23.0168L22.0016 9.85877C22.1766 8.06119 20.8621 6.4628 19.0645 6.28619ZM15.6105 19.2322C15.4952 20.4289 14.4291 21.308 13.2283 21.191L9.2968 20.808L10.3662 9.82087L14.3008 10.2031C15.4984 10.3201 16.3774 11.3878 16.2597 12.5862L15.6105 19.2322Z" fill="#ED1C24"/>
<path d="M69.7005 20.7252L65.9634 20.3719C64.7481 20.2558 63.8578 19.1453 63.9779 17.8921L64.5255 12.1405C64.6433 10.8864 65.7239 9.96467 66.94 10.08L70.6788 10.4356L71.082 6.19693L61.0352 5.24209C60.0642 5.15016 59.2005 5.89048 59.1046 6.8937L57.661 22.101C57.565 23.1058 58.2771 23.9913 59.2465 24.084L69.2933 25.0381L69.7005 20.7252Z" fill="#ED1C24"/>
<path d="M90.6915 5.24219H76.985C76.2326 5.24219 75.627 5.84461 75.627 6.58816V22.5753C75.627 23.318 76.2326 23.9188 76.985 23.9188H90.6915C91.4399 23.9188 92.0479 23.318 92.0479 22.5753V6.58816C92.0479 5.84461 91.4399 5.24219 90.6915 5.24219ZM86.6987 17.8317C86.6987 19.0696 85.6874 20.072 84.4399 20.072H83.235C81.9874 20.072 80.9761 19.0696 80.9761 17.8317V11.3317C80.9761 10.0938 81.9874 9.09138 83.235 9.09138H84.4399C85.6874 9.09138 86.6987 10.0938 86.6987 11.3317V17.8317Z" fill="#ED1C24"/>
<path d="M110.063 5.64575L108.233 18.0522C108.046 19.3143 106.873 20.1837 105.61 19.9974L104.393 19.8183C103.131 19.6329 102.261 18.4611 102.446 17.1974L104.277 4.79253L98.8731 3.99414L96.2788 21.578C96.1667 22.3337 96.6901 23.0369 97.4457 23.149L111.297 25.1925C112.058 25.3062 112.759 24.7812 112.871 24.0264L115.467 6.44333L110.063 5.64575Z" fill="#ED1C24"/>
<path d="M129.882 5.36914V17.3901L124.219 5.3885L119.453 5.36914V25.2175H125.052V15.2159L129.882 25.2175H135.756V5.36914H129.882Z" fill="#ED1C24"/>
<path d="M152.716 5.30469L140.059 6.64582L140.668 12.3765L143.751 12.0507L145.228 25.9692L151.717 25.2813L150.242 11.3611L153.322 11.0353L152.716 5.30469Z" fill="#ED1C24"/>
<path d="M155.772 5.91287C155.772 5.01206 156.433 4.33303 157.286 4.33303C158.125 4.33303 158.788 5.01206 158.788 5.91287C158.788 6.8298 158.125 7.50399 157.286 7.50399C156.434 7.50399 155.772 6.8298 155.772 5.91287ZM157.286 7.82174C158.298 7.82174 159.163 7.01609 159.163 5.91287C159.163 4.82012 158.298 4.01367 157.286 4.01367C156.263 4.01367 155.398 4.82012 155.398 5.91287C155.398 7.01609 156.264 7.82174 157.286 7.82174ZM156.894 6.06367H157.265L157.829 7.01609H158.196L157.585 6.04835C157.902 6.00803 158.14 5.83787 158.14 5.44432C158.14 5.01206 157.892 4.82012 157.383 4.82012H156.567V7.01609H156.893L156.894 6.06367ZM156.894 5.78061V5.10238H157.335C157.561 5.10238 157.802 5.15238 157.802 5.42496C157.802 5.76206 157.555 5.78061 157.282 5.78061H156.894Z" fill="black"/>
</g>
<defs>
<clipPath id="clip0_491_186">
<rect width="160.484" height="50" fill="white"/>
</clipPath>
</defs>
</svg>
