<svg width="157" height="50" viewBox="0 0 157 50" fill="none" xmlns="http://www.w3.org/2000/svg">
<g clip-path="url(#clip0_491_215)">
<path d="M82.282 44.5775C82.2768 43.8582 82.4076 43.1444 82.6677 42.4737C82.9234 41.8436 83.2917 41.2654 83.7547 40.7673C84.2202 40.2766 84.7757 39.8798 85.3909 39.5986C86.0494 39.3208 86.7568 39.1777 87.4714 39.1777C88.186 39.1777 88.8933 39.3208 89.5518 39.5986C90.167 39.8798 90.7225 40.2766 91.1881 40.7673C91.6758 41.2574 92.0647 41.8367 92.3334 42.4737C92.8529 43.8241 92.8529 45.3192 92.3334 46.6696C92.0577 47.3086 91.6608 47.888 91.1647 48.376C90.6837 48.8766 90.1066 49.2749 89.4679 49.5469C88.8292 49.819 88.1422 49.9592 87.448 49.9592C86.7538 49.9592 86.0667 49.819 85.4281 49.5469C84.7894 49.2749 84.2123 48.8766 83.7313 48.376C83.2684 47.8779 82.9 47.2997 82.6443 46.6696C82.3931 46.0012 82.2702 45.2915 82.282 44.5775ZM83.93 44.5775C83.9147 45.0663 83.9899 45.5537 84.1521 46.0151C84.3168 46.4474 84.5628 46.8441 84.8767 47.1839C85.188 47.5226 85.566 47.7932 85.987 47.9786C86.441 48.174 86.9304 48.2735 87.4246 48.2708C87.9225 48.2721 88.4154 48.1727 88.8739 47.9786C89.3169 47.8023 89.7159 47.5311 90.0427 47.1839C90.3566 46.8441 90.6026 46.4474 90.7673 46.0151C91.1098 45.0833 91.1098 44.0601 90.7673 43.1282C90.6026 42.696 90.3566 42.2992 90.0427 41.9595C89.7159 41.6123 89.3169 41.341 88.8739 41.1647C88.424 40.9869 87.9434 40.8995 87.4597 40.9076C86.9663 40.9012 86.4769 40.9967 86.0221 41.1881C85.6011 41.3735 85.223 41.6441 84.9118 41.9828C84.5978 42.3226 84.3518 42.7193 84.1871 43.1516C84.015 43.6072 83.9279 44.0905 83.93 44.5775Z" fill="#7C878E"/>
<path d="M93.6662 44.5778C93.6609 43.8585 93.7918 43.1447 94.0519 42.474C94.3075 41.8439 94.6759 41.2657 95.1388 40.7676C95.611 40.2793 96.1698 39.883 96.7868 39.5989C97.4352 39.3153 98.1362 39.172 98.8438 39.1781C99.563 39.1695 100.276 39.3129 100.936 39.5989C101.551 39.8801 102.107 40.2769 102.572 40.7676C103.043 41.2596 103.412 41.8394 103.659 42.474C104.189 43.8225 104.189 45.3214 103.659 46.6699C103.412 47.3045 103.043 47.8843 102.572 48.3763C102.092 48.8802 101.513 49.2795 100.872 49.549C100.23 49.8185 99.5397 49.9525 98.8438 49.9425C98.1362 49.9486 97.4352 49.8052 96.7868 49.5217C96.1674 49.2418 95.6078 48.8449 95.1388 48.3529C94.6759 47.8549 94.3075 47.2766 94.0519 46.6465C93.7956 45.987 93.6648 45.2854 93.6662 44.5778ZM95.3141 44.5778C95.3159 45.0683 95.4029 45.5547 95.5713 46.0154C95.7404 46.4455 95.9859 46.8415 96.2959 47.1842C96.6275 47.5257 97.0252 47.7961 97.4647 47.9789C97.9149 48.1731 98.4003 48.2725 98.8906 48.2711C99.3884 48.2724 99.8814 48.173 100.34 47.9789C100.783 47.8027 101.182 47.5314 101.509 47.1842C101.826 46.8474 102.073 46.4498 102.233 46.0154C102.576 45.0836 102.576 44.0604 102.233 43.1285C102.073 42.6941 101.826 42.2966 101.509 41.9598C101.182 41.6126 100.783 41.3413 100.34 41.165C99.8644 40.9763 99.3549 40.8887 98.8438 40.9079C98.3543 40.9025 97.8689 40.998 97.4179 41.1884C96.9784 41.3712 96.5808 41.6416 96.2491 41.9831C95.9391 42.3259 95.6936 42.7218 95.5245 43.1519C95.3736 43.6117 95.3024 44.094 95.3141 44.5778Z" fill="#7C878E"/>
<path d="M106.183 41.0583H104.324V39.4104H106.183V35.4248L107.842 35.0742V39.4104H111.734V41.0583H107.842V46.0139C107.837 46.2869 107.887 46.5581 107.99 46.8112C108.092 47.0643 108.245 47.2941 108.438 47.4866C108.629 47.6799 108.856 47.8324 109.107 47.9349C109.359 48.0374 109.628 48.0876 109.899 48.0826V49.7306C109.406 49.7325 108.918 49.6371 108.462 49.4501C108.025 49.2564 107.629 48.9829 107.293 48.6436C106.954 48.31 106.684 47.9129 106.498 47.4749C106.306 47.0158 106.207 46.5232 106.206 46.0256L106.183 41.0583Z" fill="#7C878E"/>
<path d="M122.043 49.7304H120.383L118.151 42.2736L115.895 49.7304H114.142L111.033 39.4102H112.74L114.995 46.8786L117.228 39.4102H118.934L121.19 46.8786L123.422 39.4102H125.129L122.043 49.7304Z" fill="#7C878E"/>
<path d="M134.467 47.9204C133.998 48.5526 133.39 49.0685 132.691 49.4282C131.967 49.797 131.165 49.9817 130.353 49.9658C129.698 49.9711 129.051 49.8272 128.46 49.545C127.881 49.2599 127.364 48.8626 126.94 48.3763C126.043 47.3144 125.554 45.9677 125.561 44.5778C125.552 43.8592 125.679 43.1453 125.935 42.474C126.166 41.8502 126.507 41.2724 126.94 40.7676C127.368 40.2847 127.883 39.888 128.46 39.5988C129.05 39.3215 129.695 39.1777 130.347 39.1777C131 39.1777 131.644 39.3215 132.235 39.5988C132.813 39.885 133.329 40.2821 133.754 40.7676C134.191 41.2695 134.532 41.8481 134.759 42.474C135.006 43.1476 135.129 43.8604 135.122 44.5778V45.279H127.279C127.34 45.6862 127.466 46.0808 127.653 46.4478C127.83 46.8025 128.062 47.1262 128.343 47.4062C128.603 47.6733 128.913 47.8876 129.254 48.0373C129.6 48.1907 129.974 48.2704 130.353 48.2711C130.865 48.2696 131.372 48.158 131.837 47.9438C132.328 47.7128 132.754 47.3634 133.076 46.927L134.467 47.9204ZM130.4 40.9078C129.997 40.8965 129.598 40.9764 129.231 41.1416C128.885 41.2953 128.572 41.5135 128.308 41.7844C128.031 42.0623 127.806 42.3867 127.641 42.7428C127.457 43.1089 127.338 43.5045 127.291 43.9116H133.415C133.349 43.5057 133.223 43.1118 133.041 42.7428C132.878 42.3892 132.657 42.0653 132.387 41.7844C132.129 41.5113 131.819 41.2927 131.475 41.1416C131.138 40.9855 130.771 40.9057 130.4 40.9078Z" fill="#7C878E"/>
<path d="M137.05 40.0881C137.213 39.9924 137.38 39.9065 137.553 39.831C137.815 39.7172 138.085 39.6197 138.359 39.5388C138.675 39.457 139.002 39.3752 139.364 39.3051C139.726 39.2348 140.094 39.1996 140.463 39.1999C141.064 39.1902 141.662 39.2892 142.228 39.4921C142.736 39.665 143.207 39.9305 143.619 40.2751C143.997 40.5977 144.304 40.9958 144.519 41.4439C144.731 41.9097 144.839 42.4164 144.834 42.9282V49.7188H143.186V48.4098C142.826 48.879 142.362 49.2589 141.831 49.5201C141.257 49.8046 140.624 49.9488 139.984 49.9409C139.466 49.9458 138.952 49.8587 138.465 49.6837C138.014 49.5235 137.595 49.2862 137.226 48.9825C136.883 48.6944 136.6 48.3408 136.396 47.9423C136.2 47.5421 136.1 47.102 136.104 46.6566C136.101 46.2124 136.21 45.7745 136.419 45.3827C136.636 44.9925 136.926 44.6474 137.272 44.3658C137.652 44.0612 138.084 43.8276 138.546 43.6763C139.054 43.5006 139.587 43.4136 140.124 43.4191H143.186V42.9399C143.191 42.65 143.127 42.363 142.999 42.1028C142.871 41.8426 142.683 41.6167 142.45 41.4439C141.875 41.0251 141.173 40.8186 140.463 40.8595C139.861 40.8487 139.261 40.9355 138.687 41.1167C138.3 41.2256 137.931 41.3868 137.588 41.5958L137.05 40.0881ZM137.752 46.5514C137.75 46.7937 137.823 47.0306 137.962 47.2293C138.105 47.4484 138.292 47.6355 138.511 47.7786C138.763 47.9448 139.039 48.071 139.329 48.1526C139.656 48.2479 139.994 48.2951 140.335 48.2929C140.705 48.2946 141.075 48.2475 141.433 48.1526C141.755 48.0774 142.063 47.9512 142.345 47.7786C142.583 47.6397 142.79 47.4527 142.953 47.2293C143.1 47.0334 143.181 46.7963 143.186 46.5514V44.7983H140.475C140.12 44.7985 139.767 44.8417 139.423 44.9268C139.119 45.012 138.828 45.1378 138.558 45.3008C138.328 45.4475 138.13 45.6382 137.974 45.8619C137.828 46.0624 137.751 46.3039 137.752 46.5514Z" fill="#7C878E"/>
<path d="M152.22 40.9061C151.71 40.8632 151.196 40.9262 150.712 41.0911C150.227 41.2561 149.782 41.5193 149.403 41.8645C149.075 42.2407 148.825 42.6781 148.666 43.1514C148.508 43.6248 148.445 44.1249 148.48 44.6228V49.7771H146.832V39.4101H148.433V41.1165C148.801 40.4854 149.351 39.9802 150.011 39.6672C150.687 39.3493 151.426 39.1894 152.173 39.1997L152.22 40.9061Z" fill="#7C878E"/>
<path d="M79.7926 36.2325C79.9617 36.0532 80.1668 35.9116 80.3944 35.817C80.6219 35.7223 80.8669 35.6767 81.1133 35.6831C81.5767 35.6736 82.0255 35.8456 82.3639 36.1623V34.2806C81.9671 34.1176 81.5422 34.0342 81.1133 34.0352C80.643 34.0335 80.1775 34.129 79.7458 34.3157C79.3114 34.4922 78.9147 34.75 78.5771 35.0754C78.2587 35.394 78.0048 35.771 77.829 36.1857C77.6423 36.6173 77.5468 37.0829 77.5485 37.5532V39.4115H75.9707V41.0595H77.607V49.7318H79.2549V41.0595H82.1418V39.4115H79.2549V37.5532C79.2485 37.3078 79.2929 37.0638 79.3854 36.8365C79.478 36.6092 79.6166 36.4035 79.7926 36.2325Z" fill="#7C878E"/>
<path d="M68.5475 2.00955L59.022 19.5411C58.8531 19.9502 58.7543 20.3848 58.7298 20.8268H58.6597C58.6538 20.3701 58.5789 19.917 58.4376 19.4827L48.9238 1.95111C48.6789 1.3844 48.2545 0.913872 47.716 0.611896C47.1775 0.30992 46.5548 0.193227 45.9435 0.279766H43.0449V30.1068H47.1707V7.65471C47.1653 7.2562 47.0942 6.86131 46.9603 6.48594L56.8013 25.0226C56.9736 25.3783 57.2426 25.6783 57.5775 25.8882C57.9123 26.0981 58.2995 26.2094 58.6948 26.2094C59.09 26.2094 59.4772 26.0981 59.8121 25.8882C60.1469 25.6783 60.4159 25.3783 60.5882 25.0226L70.3941 6.50931C70.2739 6.88819 70.2032 7.28105 70.1838 7.67808V30.1185H74.3212V0.291454H71.4811C70.8715 0.217195 70.2543 0.345064 69.7244 0.655432C69.1944 0.9658 68.781 1.44151 68.5475 2.00955Z" fill="#D50032"/>
<path d="M91.8773 -0.069299C89.8614 -0.0925834 87.861 0.28556 85.9927 1.0431C84.1243 1.80063 82.4254 2.92242 80.995 4.34308C79.5645 5.76375 78.4311 7.45489 77.6608 9.31797C76.8904 11.181 76.4985 13.1788 76.508 15.1948C76.508 19.2679 78.126 23.1742 81.0061 26.0543C83.8862 28.9345 87.7925 30.5525 91.8656 30.5525C95.9387 30.5525 99.845 28.9345 102.725 26.0543C105.605 23.1742 107.223 19.2679 107.223 15.1948C107.233 13.1808 106.842 11.185 106.073 9.32345C105.304 7.46192 104.172 5.77184 102.744 4.35149C101.316 2.93113 99.6204 1.80886 97.7548 1.04992C95.8892 0.290987 93.8913 -0.0894617 91.8773 -0.069299ZM91.8773 26.3917C90.3804 26.4401 88.889 26.1871 87.4917 25.6477C86.0945 25.1082 84.82 24.2934 83.744 23.2516C82.6679 22.2098 81.8123 20.9623 81.228 19.5833C80.6436 18.2042 80.3425 16.7218 80.3425 15.2241C80.3425 13.7263 80.6436 12.2439 81.228 10.8648C81.8123 9.4858 82.6679 8.2383 83.744 7.19651C84.82 6.15472 86.0945 5.33989 87.4917 4.80047C88.889 4.26104 90.3804 4.00803 91.8773 4.05646C93.349 4.03781 94.8097 4.31257 96.1741 4.8647C97.5385 5.41683 98.7792 6.23526 99.8237 7.2722C100.868 8.30913 101.696 9.5438 102.258 10.9041C102.82 12.2644 103.105 13.723 103.098 15.1948C103.115 16.671 102.837 18.1357 102.279 19.5027C101.722 20.8698 100.897 22.1115 99.8524 23.1548C98.8079 24.1982 97.5654 25.022 96.1977 25.5779C94.8301 26.1338 93.3651 26.4105 91.889 26.3917H91.8773Z" fill="#D50032"/>
<path d="M129.359 2.52538V18.5375C129.4 19.5937 129.227 20.6472 128.851 21.6349C128.475 22.6227 127.904 23.5244 127.171 24.286C126.438 25.0477 125.559 25.6535 124.587 26.0674C123.614 26.4813 122.568 26.6946 121.511 26.6946C120.454 26.6946 119.408 26.4813 118.436 26.0674C117.463 25.6535 116.584 25.0477 115.851 24.286C115.119 23.5244 114.547 22.6227 114.171 21.6349C113.795 20.6472 113.622 19.5937 113.663 18.5375V2.53707C113.663 1.94811 113.429 1.38328 113.012 0.966824C112.596 0.550368 112.031 0.316406 111.442 0.316406H109.537V18.5259C109.537 25.6437 114.329 30.5057 121.494 30.5174C128.658 30.5291 133.474 25.7138 133.485 18.5375V0.316406H131.568C130.983 0.316406 130.421 0.549137 130.006 0.9634C129.592 1.37766 129.359 1.93953 129.359 2.52538Z" fill="#D50032"/>
<path d="M144.997 12.3072C141.421 10.9865 139.784 9.71253 139.784 7.87756C139.784 5.54002 141.771 4.05568 144.541 4.05568C146.009 4.10571 147.433 4.563 148.655 5.37639L148.889 5.48158C149.267 5.65816 149.695 5.69877 150.099 5.59655C150.504 5.49433 150.861 5.25555 151.11 4.92057C151.279 4.75178 151.428 4.56346 151.554 4.35956L152.267 3.09729C150.191 1.10221 147.421 -0.0083171 144.541 4.69048e-05C139.305 4.69048e-05 135.647 3.2726 135.647 7.94769C135.647 11.5709 138.195 14.224 143.828 16.3161C147.825 17.9173 149.672 19.4484 149.672 21.634C149.672 24.8247 147.183 26.5194 143.7 26.461C141.686 26.2519 139.77 25.4826 138.171 24.2403C137.955 24.0725 137.706 23.9518 137.44 23.8859C137.175 23.8201 136.898 23.8105 136.628 23.8578C136.359 23.9051 136.102 24.0083 135.875 24.1607C135.647 24.3132 135.454 24.5115 135.308 24.7429L134.314 26.1104C135.493 27.4433 136.929 28.5246 138.536 29.2898C140.142 30.0549 141.887 30.4881 143.665 30.5634C149.614 30.5634 153.763 26.8935 153.763 21.6223C153.798 17.3329 150.981 14.2824 144.997 12.3072Z" fill="#D50032"/>
<path d="M14.7139 15.4986L15.7074 13.5H4.51056V4.40701H19.7046L21.598 0.28125H0.396484V30.0849H4.49887V17.5907H11.3596C12.0586 17.5915 12.7437 17.3958 13.3369 17.0259C13.93 16.656 14.4071 16.1267 14.7139 15.4986Z" fill="#D50032"/>
<path d="M28.5768 0.28125H24.9419L11.9102 30.0966H14.5866C15.1269 30.1131 15.6597 29.9671 16.116 29.6775C16.5723 29.3878 16.9312 28.9679 17.1462 28.472L19.2383 23.645H34.3038L36.3842 28.4603C36.6008 28.9584 36.9613 29.3803 37.4195 29.6718C37.8777 29.9634 38.4126 30.1113 38.9555 30.0966H41.632L28.6119 0.28125H28.5768ZM32.5506 19.6244H21.0383L21.8798 17.6842L26.7769 5.72772L31.7091 17.6842L32.5506 19.6244Z" fill="#D50032"/>
<path d="M154.547 39.2012C154.805 39.1989 155.057 39.2733 155.273 39.415C155.488 39.5566 155.656 39.7591 155.755 39.9967C155.855 40.2342 155.882 40.496 155.832 40.7487C155.782 41.0015 155.659 41.2337 155.476 41.4159C155.294 41.598 155.062 41.7218 154.809 41.7715C154.557 41.8212 154.295 41.7945 154.057 41.6948C153.82 41.5952 153.617 41.4271 153.476 41.212C153.334 40.9969 153.259 40.7444 153.262 40.4869C153.262 40.1459 153.397 39.8189 153.638 39.5778C153.879 39.3367 154.206 39.2012 154.547 39.2012ZM154.547 41.5388C154.751 41.5388 154.95 41.4784 155.119 41.3654C155.288 41.2524 155.42 41.0918 155.498 40.9038C155.575 40.7159 155.596 40.5091 155.556 40.3096C155.516 40.1101 155.419 39.9268 155.275 39.783C155.131 39.6391 154.948 39.5412 154.748 39.5015C154.549 39.4618 154.342 39.4822 154.154 39.56C153.966 39.6379 153.805 39.7697 153.692 39.9388C153.579 40.108 153.519 40.3068 153.519 40.5102C153.525 40.779 153.636 41.0346 153.828 41.2225C154.021 41.4103 154.279 41.5155 154.547 41.5154V41.5388ZM154.045 39.7389H154.723C154.842 39.7419 154.955 39.7913 155.038 39.8764C155.12 39.9616 155.167 40.0758 155.167 40.1947C155.165 40.2843 155.138 40.3717 155.088 40.4463C155.039 40.5209 154.969 40.5796 154.886 40.6154L155.12 41.1648H154.851L154.618 40.6505H154.279V41.1648H154.021L154.045 39.7389ZM154.302 40.3817H154.723C154.772 40.3817 154.82 40.362 154.855 40.3269C154.89 40.2918 154.91 40.2443 154.91 40.1947C154.91 40.1451 154.89 40.0975 154.855 40.0624C154.82 40.0274 154.772 40.0077 154.723 40.0077H154.279L154.302 40.3817Z" fill="#7C878E"/>
</g>
<defs>
<clipPath id="clip0_491_215">
<rect width="156.031" height="50" fill="white"/>
</clipPath>
</defs>
</svg>
