<svg width="235" height="50" viewBox="0 0 235 50" fill="none" xmlns="http://www.w3.org/2000/svg">
<path d="M0 0.4H16.461V7H5.53925V21.9333H15.05V28.5333H5.53925V49.5333H0V0.4ZM24.195 12C24.195 4 28.9504 0 33.4445 0C37.9386 0 42.694 4 42.694 12V38C42.694 46 37.9386 50 33.4445 50C28.9504 50 24.195 46 24.195 38V12ZM29.7343 38C29.7343 41.4 31.4588 43 33.4445 43C35.4303 43 37.207 41.4 37.207 38V12C37.207 8.6 35.4825 7 33.4445 7C31.4588 7 29.7343 8.6 29.7343 12V38ZM51.5777 0.4H60.4614C66.9936 0.4 70.1812 5.33333 70.1812 14.8667C70.1812 20.5333 68.9271 24.6667 65.4258 27.1333L71.3831 49.6H65.5304L60.4092 28.6H57.117V49.6H51.5777V0.4ZM57.117 22.4H60.2524C64.1194 22.4 64.6942 19.6667 64.6942 14.7333C64.6942 9.73333 64.0672 7.06667 59.9911 7.06667H57.117V22.4ZM79.1172 0.4H95.5782V7H84.6564V21.4667H94.1672V28.0667H84.6564V42.5333H95.5782V49.6H79.1172V0.4ZM115.384 49.6H110.524L102.685 0.4H108.538L112.928 34.7333H113.032L117.474 0.4H123.327L115.384 49.6ZM131.531 0.4H147.992V7H137.07V21.4667H146.581V28.0667H137.07V42.5333H147.992V49.6H131.531V0.4ZM156.51 0.4H165.394C171.926 0.4 175.113 5.33333 175.113 14.8667C175.113 20.5333 173.859 24.6667 170.358 27.1333L176.315 49.6H170.463L165.341 28.6H162.049V49.6H156.51V0.4ZM162.049 22.4H165.185C169.052 22.4 169.626 19.6667 169.626 14.7333C169.626 9.73333 168.999 7.06667 164.923 7.06667H162.049V22.4ZM200.667 42.9333L210.648 19C211.641 16.6 211.641 15.2 211.641 12.5333C211.641 10.0667 211.641 7.06667 208.924 7.06667C207.304 7.06667 206.206 8.33333 206.206 10.6V14.6H200.667V10.7333C200.667 4.86667 204.325 0 208.976 0C214.724 0 217.128 5.8 217.128 12.3333C217.128 17.1333 217.024 18.3333 215.299 22.5333L207.199 42.4667H217.18V49.5333H200.719V42.9333H200.667ZM229.461 7.86667H223.922V0.4H235V49.6H229.461V7.86667Z" fill="black"/>
</svg>
