<svg width="209" height="50" viewBox="0 0 209 50" fill="none" xmlns="http://www.w3.org/2000/svg">
<path d="M89.4457 39.2188H79.6394V20.6804C79.6394 18.1889 79.3651 16.383 78.0165 16.383C76.6677 16.383 76.3934 18.1889 76.3934 20.6804V39.2188H66.5871V20.6804C66.5871 18.1889 66.3128 16.383 64.9642 16.383C63.6155 16.383 63.3411 18.1889 63.3411 20.6804V39.2188H53.5349V10.9198H63.3411V13.8457C64.5755 11.7427 66.77 10.3712 69.5816 10.3712C72.256 10.3712 74.5876 11.3312 76.0506 14.12C77.3306 11.5598 79.7536 10.3712 82.4053 10.3712C86.2227 10.3712 89.4915 12.7942 89.4915 18.9203V39.2188H89.4457ZM40.2997 25.0921C38.9968 26.1665 37.0309 27.3094 37.0309 30.761C37.0309 33.0698 37.6253 34.007 38.6768 34.007C39.7282 34.007 40.3226 33.0698 40.3226 30.761V25.0921H40.2997ZM38.9282 10.3712C45.4429 10.3712 50.129 12.6342 50.129 19.7203V39.2188H40.3226V36.7729C39.271 38.4416 37.3739 39.7445 34.3107 39.7445C32.2078 39.7445 27.2931 39.013 27.2931 31.6754C27.2931 21.6176 40.3226 25.0693 40.3226 18.9431C40.3226 16.4516 39.7282 15.4229 38.6768 15.4229C37.6253 15.4229 37.0309 16.4516 37.0309 18.9431V20.4975H27.7046V19.7432C27.7275 12.6342 32.4135 10.3712 38.9282 10.3712ZM105.973 27.8351H115.299C115.161 36.0871 110.43 39.7217 103.869 39.7217C97.2176 39.7217 92.4173 35.9957 92.4173 27.4923V22.6005C92.4173 14.12 97.2176 10.3712 103.869 10.3712C110.522 10.3712 115.322 14.0971 115.322 22.6005V25.5722H102.247V30.4182C102.247 32.9098 102.567 34.7156 104.121 34.7156C105.675 34.7156 105.996 32.9098 105.996 30.4182V27.8351H105.973ZM105.493 19.6975C105.493 17.2059 105.218 15.4001 103.869 15.4001C102.521 15.4001 102.247 17.2059 102.247 19.6975V21.1833H105.516V19.6975H105.493ZM24.4587 17.0002V15.5829C24.4587 5.7766 18.6526 3.125 12.2294 3.125C5.80608 3.125 0 6.59951 0 16.4058V26.4636C0 33.0469 2.78875 39.7445 10.2635 39.7445C13.6923 39.7445 15.8868 38.0986 16.8468 36.5215L17.624 39.2416H24.4587V20.4747H12.5951V26.5094H15.2467V27.7895C15.2467 30.8525 14.8124 33.687 12.8923 33.687C10.9493 33.687 10.5378 30.8753 10.5378 27.7895V14.8972C10.5378 11.9027 10.7435 9.15968 12.2294 9.15968C13.7152 9.15968 13.9209 11.9027 13.9209 14.8972V17.0002H24.4587ZM157.61 38.6244V34.6927C157.153 34.9671 156.742 35.0814 156.307 35.0814C154.73 35.0814 154.409 33.4812 154.409 31.6525V14.6915H157.633V10.9426H154.409V7.1024H144.603V10.9426H142.637V14.6915H144.603V32.0869C144.603 37.1157 147.347 39.7217 151.986 39.7217C154.342 39.7217 156.284 39.1958 157.61 38.6244ZM131.026 14.6686H140.764V13.1599C140.764 6.21092 136.123 3.125 129.243 3.125C122.659 3.125 117.722 6.80524 117.722 13.2514C117.722 25.3207 131.392 22.6691 131.392 30.8525C131.392 33.0012 130.546 33.7098 129.517 33.7098C128.489 33.7098 127.643 33.0012 127.643 30.8525V27.8808H117.791V29.2981C117.791 36.5672 122.545 39.7674 129.631 39.7674C136.42 39.7674 141.472 35.9957 141.472 29.2296C141.472 15.7658 127.414 19.4918 127.414 12.0399C127.414 9.89115 128.282 9.18253 129.22 9.18253C130.134 9.18253 131.026 9.89115 131.026 12.0399V14.6686ZM172.011 19.6975C172.011 17.2059 171.736 15.4001 170.389 15.4001C169.04 15.4001 168.743 17.2059 168.743 19.6975V30.3953C168.743 32.8869 169.017 34.6927 170.389 34.6927C171.736 34.6927 172.011 32.8869 172.011 30.3953V19.6975ZM170.389 10.394C177.04 10.394 181.841 14.12 181.841 22.6234V27.5151C181.841 35.9957 177.04 39.7445 170.389 39.7445C163.736 39.7445 158.935 36.0185 158.935 27.5151V22.6234C158.935 14.12 163.736 10.394 170.389 10.394ZM197.886 20.6804C197.886 18.1889 197.612 16.383 196.264 16.383C194.916 16.383 194.641 18.1889 194.641 20.6804V29.4124C194.641 31.904 194.916 33.7098 196.264 33.7098C197.612 33.7098 197.886 31.904 197.886 29.4124V20.6804ZM200.378 10.3712C205.019 10.3712 207.694 14.12 207.694 22.6005V27.4923C207.694 35.9728 205.019 39.7217 200.378 39.7217C198.161 39.7217 195.875 38.6244 194.618 36.7043V46.2821H184.811V10.9198H194.618V13.3885C195.875 11.4912 198.161 10.3712 200.378 10.3712Z" fill="#212322"/>
</svg>
