<svg width="267" height="50" viewBox="0 0 267 50" fill="none" xmlns="http://www.w3.org/2000/svg">
<path d="M71.5835 4.69531H66.4707C65.8643 4.69531 65.375 5.18797 65.375 5.79837V44.8704C65.375 45.4808 65.8643 45.9734 66.4707 45.9734H71.5835C72.1897 45.9734 72.6791 45.4808 72.6791 44.8704V5.79837C72.6791 5.18797 72.1897 4.69531 71.5835 4.69531Z" fill="#1C1B28"/>
<path d="M92.7051 15.0234C90.4333 15.0234 88.5197 15.5089 86.9785 16.4797C85.4374 17.4504 84.2759 18.7594 83.4945 20.3994H83.3265V16.759C83.3265 16.1486 82.837 15.656 82.2308 15.656H77.3808C76.7746 15.656 76.2852 16.1486 76.2852 16.759V44.8735C76.2852 45.4839 76.7746 45.9766 77.3808 45.9766H82.2308C82.837 45.9766 83.3265 45.4839 83.3265 44.8735V28.3858C83.3265 26.915 83.6041 25.6353 84.1518 24.5397C84.6995 23.4438 85.4811 22.5834 86.4818 21.9658C87.4825 21.348 88.6584 21.0392 90.0025 21.0392C92.0111 21.0392 93.5158 21.6274 94.5165 22.7967C95.5172 23.966 96.021 25.6353 96.021 27.7902V44.8809C96.021 45.4913 96.5105 45.984 97.1167 45.984H101.996C102.602 45.984 103.091 45.4913 103.091 44.8809V26.3635C103.091 22.8556 102.186 20.0905 100.374 18.068C98.5629 16.0457 95.9991 15.0382 92.6903 15.0382L92.7051 15.0234Z" fill="#1C1B28"/>
<path d="M119.447 15.6571H116.043C115.437 15.6571 114.948 15.1644 114.948 14.554V9.0679C114.948 8.45751 114.458 7.96484 113.852 7.96484H108.856C108.25 7.96484 107.76 8.45751 107.76 9.0679V14.554C107.76 15.1644 107.271 15.6571 106.665 15.6571H104.598C103.991 15.6571 103.502 16.1498 103.502 16.7601V20.0402C103.502 20.6506 103.991 21.1432 104.598 21.1432H106.665C107.271 21.1432 107.76 21.6359 107.76 22.2463V37.7633C107.76 40.8889 108.52 43.1391 110.046 44.5143C111.573 45.8895 113.896 46.5735 117.022 46.5735C117.76 46.5735 118.432 46.544 119.023 46.4851L119.549 46.4337C120.112 46.3822 120.542 45.9043 120.542 45.3306V40.9623C120.294 40.9844 120.039 41.0064 119.761 41.0359C119.483 41.0652 119.169 41.08 118.811 41.08C117.541 41.08 116.584 40.8005 115.926 40.2344C115.276 39.6755 114.948 38.6532 114.948 37.1898V22.2463C114.948 21.6359 115.437 21.1432 116.043 21.1432H119.447C120.053 21.1432 120.542 20.6506 120.542 20.0402V16.7601C120.542 16.1498 120.053 15.6571 119.447 15.6571Z" fill="#1C1B28"/>
<path d="M142.199 16.9282C140.103 15.6634 137.627 15.0234 134.771 15.0234C131.915 15.0234 129.395 15.6781 127.284 17.0017C125.174 18.3182 123.53 20.164 122.369 22.5393C121.2 24.9148 120.623 27.6946 120.623 30.8788V30.9082C120.623 34.1146 121.2 36.8872 122.354 39.233C123.508 41.5789 125.174 43.388 127.343 44.6676C129.512 45.9473 132.105 46.587 135.114 46.587C137.065 46.587 138.81 46.3224 140.344 45.8002C141.878 45.278 143.208 44.5647 144.325 43.6675C145.443 42.7704 146.334 41.7627 146.998 40.6523C147.663 39.5345 148.116 38.3947 148.364 37.2328L148.423 36.9165H141.827L141.769 37.115C141.542 37.7991 141.14 38.4388 140.563 39.0344C139.986 39.6229 139.249 40.1081 138.358 40.4833C137.466 40.8582 136.437 41.0422 135.261 41.0422C133.69 41.0422 132.332 40.6964 131.199 39.9978C130.06 39.2992 129.183 38.2991 128.57 36.9973C127.993 35.7694 127.694 34.2912 127.657 32.5775H147.634C148.24 32.5775 148.729 32.0849 148.729 31.4745V30.2906C148.729 27.2386 148.167 24.569 147.035 22.2819C145.903 19.9948 144.296 18.2153 142.207 16.943L142.199 16.9282ZM127.642 29.3051C127.664 27.4887 127.964 25.9295 128.555 24.6426C129.169 23.3041 130.024 22.304 131.112 21.6274C132.2 20.951 133.449 20.6125 134.852 20.6125C136.254 20.6125 137.452 20.9436 138.518 21.5981C139.577 22.2526 140.41 23.2453 141.016 24.5616C141.601 25.8339 141.9 27.4224 141.915 29.3125H127.635L127.642 29.3051Z" fill="#1C1B28"/>
<path d="M182.429 15.6527H176.373V13.5348C176.373 12.2919 176.389 11.13 177.038 10.505C177.688 9.87249 179.025 9.79167 180.406 9.79167C180.574 9.79167 180.961 9.81362 181.362 9.84315C181.998 9.88725 182.539 9.37982 182.539 8.7399V5.34972C182.539 4.79081 182.13 4.31292 181.575 4.25405C181.348 4.2319 181.106 4.20995 180.851 4.1878C180.157 4.12894 179.464 4.09961 178.762 4.09961C175.483 4.09961 173.109 4.80558 171.641 6.21752C170.173 7.62946 169.442 9.81362 169.442 12.77V15.6601H165.323C165.038 15.6601 163.431 15.6527 163.022 15.6601C162.62 15.6749 160.874 15.7264 159.735 16.822C158.588 17.9251 158.004 19.0577 157.551 20.8889H157.383V16.7558C157.383 16.1454 156.894 15.6527 156.287 15.6527H151.437C150.831 15.6527 150.342 16.1454 150.342 16.7558V44.8703C150.342 45.4807 150.831 45.9734 151.437 45.9734H156.287C156.894 45.9734 157.383 45.4807 157.383 44.8703V28.3826C157.383 26.875 157.639 25.6028 158.15 24.5512C158.661 23.4994 159.399 22.7053 160.363 22.1611C161.327 21.617 162.284 21.4111 163.102 21.2933C163.679 21.2125 164.526 21.1463 165.323 21.1463H169.442V44.8703C169.442 45.4807 169.932 45.9734 170.538 45.9734H175.418C176.024 45.9734 176.513 45.4807 176.513 44.8703V21.1463H182.421V15.6527H182.429Z" fill="#1C1B28"/>
<path d="M201.954 16.6581C200.107 15.8196 197.63 15.6504 195.11 15.6504H184.499V21.1439H195.14C196.938 21.1439 198.171 21.4602 199.275 22.5044C200.224 23.4017 200.655 24.1077 200.655 25.6373V27.7257L192.782 28.2186C189.144 28.4245 186.324 29.3216 184.331 30.8954C182.33 32.4692 181.336 34.6019 181.336 37.2934V37.3523C181.336 39.1466 181.759 40.7351 182.599 42.1177C183.439 43.5001 184.622 44.5812 186.149 45.3534C187.675 46.1257 189.429 46.5154 191.423 46.5154C192.744 46.5154 193.993 46.302 195.154 45.8828C196.323 45.4638 197.361 44.8608 198.267 44.0812C199.173 43.3016 199.917 42.3823 200.48 41.3381H200.647V44.8975C200.647 45.5079 201.136 46.0005 201.743 46.0005H206.594C207.2 46.0005 207.689 45.5079 207.689 44.8975V25.1445C207.689 23.1074 207.184 21.3279 206.169 19.8202C205.155 18.3126 203.788 17.5111 201.94 16.6726L201.954 16.6581ZM200.661 34.7415C200.661 35.9402 200.348 37.0213 199.727 37.9773C199.099 38.9333 198.251 39.6835 197.185 40.2351C196.112 40.7866 194.899 41.0659 193.534 41.0659C191.977 41.0659 190.736 40.7058 189.8 39.9924C188.867 39.2791 188.392 38.3009 188.392 37.058V37.0286C188.392 35.8226 188.859 34.8666 189.786 34.1385C190.714 33.4104 192.051 32.9914 193.797 32.881L200.669 32.4544V34.7415H200.661Z" fill="#1C1B28"/>
<path d="M235.766 35.4609L231.237 35.4976C230.748 35.4976 230.295 35.7991 230.149 36.2698C229.77 37.5052 229.12 38.5348 228.2 39.3511C227.088 40.3366 225.636 40.8219 223.838 40.8219C222.363 40.8219 221.07 40.4248 219.961 39.6379C218.849 38.8511 217.987 37.7111 217.375 36.2183C216.76 34.7328 216.453 32.9383 216.453 30.8426V30.813C216.453 28.7318 216.754 26.9521 217.359 25.4668C217.966 23.9812 218.82 22.834 219.931 22.0177C221.04 21.2088 222.333 20.8043 223.81 20.8043C225.686 20.8043 227.168 21.3263 228.258 22.3633C229.164 23.2311 229.792 24.2386 230.141 25.4005C230.273 25.8417 230.712 26.1286 231.171 26.136L235.766 26.158C236.461 26.158 236.986 25.5182 236.854 24.8268C236.569 23.3193 236.008 21.9148 235.152 20.6058C234.056 18.9291 232.538 17.5758 230.61 16.5609C228.673 15.5387 226.388 15.0312 223.736 15.0312C220.821 15.0312 218.273 15.6712 216.104 16.9508C213.935 18.2303 212.255 20.0469 211.055 22.4C209.866 24.7534 209.268 27.548 209.268 30.7689V30.7985C209.268 34.0416 209.858 36.8433 211.041 39.2114C212.225 41.5794 213.905 43.3958 216.088 44.6754C218.265 45.9551 220.843 46.5948 223.816 46.5948C226.35 46.5948 228.579 46.1021 230.493 45.124C232.406 44.1387 233.933 42.8149 235.064 41.1308C235.948 39.8218 236.549 38.3877 236.862 36.8214C237 36.1302 236.475 35.4755 235.772 35.4828L235.766 35.4609Z" fill="#1C1B28"/>
<path d="M266.019 31.4499V30.2659C266.019 27.2139 265.456 24.5445 264.323 22.2574C263.2 19.9702 261.585 18.1905 259.496 16.9183C257.399 15.6534 254.923 15.0137 252.067 15.0137C249.212 15.0137 246.692 15.6682 244.581 16.9919C242.469 18.3083 240.827 20.1542 239.666 22.5295C238.497 24.9048 237.92 27.6846 237.92 30.8689V30.8984C237.92 34.1048 238.497 36.8772 239.65 39.2232C240.805 41.569 242.469 43.3782 244.638 44.6578C246.807 45.9373 249.401 46.5772 252.41 46.5772C254.36 46.5772 256.106 46.3124 257.64 45.7902C259.175 45.268 260.504 44.5549 261.621 43.6576C262.739 42.7604 263.631 41.753 264.295 40.6425C264.96 39.5247 265.412 38.3847 265.66 37.2228L265.72 36.9065H259.123L259.065 37.1051C258.838 37.7891 258.437 38.4288 257.86 39.0247C257.283 39.6129 256.545 40.0982 255.653 40.4733C254.763 40.8484 253.733 41.0322 252.556 41.0322C250.986 41.0322 249.627 40.6866 248.496 39.988C247.356 39.2892 246.48 38.2892 245.866 36.9876C245.289 35.7594 244.99 34.2812 244.954 32.5678H264.93C265.536 32.5678 266.025 32.0751 266.025 31.4647L266.019 31.4499ZM244.932 29.4643C244.932 27.5743 245.237 25.9638 245.852 24.6327C246.464 23.2944 247.32 22.2941 248.408 21.6176C249.497 20.941 250.744 20.6028 252.147 20.6028C253.55 20.6028 254.747 20.9336 255.815 21.5881C256.874 22.2426 257.706 23.2355 258.313 24.5519C258.911 25.8608 259.219 27.5009 259.219 29.4717H244.924L244.932 29.4643Z" fill="#1C1B28"/>
<path d="M47.6596 0H8.57501C3.83475 0 0 3.86827 0 8.63367V41.3665C0 46.1391 3.84193 50 8.57501 50H47.6596C52.4001 50 56.2346 46.1319 56.2346 41.3665V8.63367C56.2346 3.86089 52.3927 0 47.6596 0ZM10.5838 40.9692H9.12294V9.34703H10.5838V40.9692ZM20.8096 40.9692H17.8879V9.34703H20.8096V40.9692ZM32.4962 40.9692H28.1137V9.34703H32.4962V40.9692ZM47.1045 40.9692H39.8003V9.34703H47.1045V40.9692Z" fill="#FE5F55"/>
</svg>
