<svg xmlns="http://www.w3.org/2000/svg" xmlns:xlink="http://www.w3.org/1999/xlink" width="189px" height="65px" viewBox="0 0 189 65" version="1.1">
    <!-- Generator: Sketch 53.2 (72643) - https://sketchapp.com -->
    <title>logo-jared</title>
    <desc>Created with Sketch.</desc>
    <g id="Symbols" stroke="none" stroke-width="1" fill="none" fill-rule="evenodd">
        <g id="Logo" fill="#000000">
            <path d="M105.795492,53.9393443 L98.922541,53.9393443 C98.0114754,53.9393443 96.2213115,52.2290984 91.4635246,46.1340164 C89.0233607,43.0012295 86.9987705,40.5290984 83.3172131,35.4782787 L77.4565574,35.4782787 L77.4565574,42.820082 C77.4565574,49.4692623 77.5684426,52.1971311 79.2467213,52.1971311 L83.8659836,52.1971311 L83.8659836,53.9233607 L68.0901639,53.9233607 L68.0901639,53.95 L54.1684426,53.95 L54.1684426,52.2131148 L57.6528689,52.2131148 C58.1057377,52.2131148 58.5586066,52.0213115 58.5586066,51.5684426 C58.5586066,51.1155738 56.9602459,46.1606557 54.2963115,38.35 L37.3110656,38.3606557 C35.8938525,41.9729508 33.0487705,48.7233607 33.0487705,50.5295082 C33.0487705,51.8827869 33.6934426,52.202459 34.6471311,52.202459 L39.245082,52.202459 L39.245082,53.9286885 L25.4512295,53.9286885 L25.4512295,52.2131148 L27.5184426,52.1438525 C28.4881148,52.1438525 29.4577869,52.0213115 29.8413934,51.1848361 L47.2315574,12.4565574 C48.410997,12.1476424 49.6061561,11.902208 50.8118852,11.7213115 C50.9902578,11.6987346 51.1698926,11.7523072 51.3067608,11.8688987 C51.4436291,11.9854902 51.5250792,12.1543232 51.5311475,12.3340164 C51.5311475,13.1758197 49.6877049,13.1385246 50.0606557,14.3053279 C52.7831967,22.7713115 57.0934426,33.4856557 62.2188525,47.1889344 C63.7319672,51.2434426 64.4778689,52.2237705 66.1508197,52.2237705 L67.4668033,52.2237705 L67.4668033,52.2131148 L72.070082,52.2131148 C72.7840164,52.2131148 73.045082,51.5471311 73.045082,50.9663934 L73.0663934,23.9168033 C73.0663934,17.2729508 72.922541,15.1151639 71.2442623,15.1151639 L67.1471311,15.0245902 L67.1471311,13.3196721 L83.3704918,13.2131148 C89.9983607,13.0053279 99.0131148,15.7918033 99.0131148,23.9807377 C99.0131148,29.7881148 93.6852459,33.677459 87.995082,34.7110656 C90.3340164,38.0995902 94.7401639,43.6405738 98.027459,47.4979508 C101.906148,52.0692623 102.971721,52.2131148 105.262705,52.2131148 L105.795492,52.2131148 L109.445082,52.2131148 C110.153689,52.2131148 110.414754,51.4459016 110.414754,50.8651639 L110.430738,23.8848361 C110.430738,17.2409836 110.297541,15.0245902 108.62459,15.0245902 L104.665984,15.0245902 L104.665984,13.3196721 L137.165984,13.3196721 C137.054098,14.422541 136.771721,15.397541 136.681148,16.0954918 C136.313525,18.9831967 136.270902,18.7594262 135.807377,18.8553279 C135.27459,18.8553279 135.162705,18.5303279 135.029508,17.6938525 C134.896311,16.857377 133.740164,15.1790984 123.547951,15.1790984 L117.186475,15.1790984 C116.184836,15.1471311 114.618443,15.0192623 114.746311,17.1131148 L114.746311,30.3368852 L123.382787,30.3368852 C130.026639,30.3368852 131.491803,30.0811475 131.491803,28.1471311 L131.491803,25.8028689 L133.234016,25.8028689 L133.234016,36.0909836 L131.491803,36.0909836 L131.491803,33.8905738 C131.491803,32.1483607 131.379918,32.0844262 124.032787,32.0844262 L114.746311,32.0844262 L114.746311,43.5020492 C114.746311,51.4938525 116.605738,52.202459 118.539754,52.202459 L122.865984,52.202459 C133.830738,52.202459 136.35082,50.2098361 137.443033,48.4036885 C137.640164,48.0786885 137.789344,47.5831967 138.242213,47.5831967 C138.375412,47.5770628 138.505037,47.6272936 138.599323,47.7215789 C138.693608,47.8158643 138.743839,47.94549 138.737705,48.0786885 C138.737705,48.6594262 137.895902,51.3446721 137.139344,53.9393443 L105.795492,53.9393443 Z M183.768852,19.7930328 L183.768852,20.0807377 L181.168852,20.0807377 L181.168852,19.782377 C181.399838,19.7944796 181.631357,19.7729429 181.856148,19.7184426 C181.973361,19.6758197 182.037295,19.5586066 182.037295,19.3614754 L182.037295,15.6319672 C182.053225,15.4917343 181.978301,15.3568715 181.85082,15.2963115 C181.629991,15.2296549 181.399109,15.2025985 181.168852,15.2163934 L181.168852,14.9180328 L183.688934,14.9180328 C184.227311,14.8938589 184.762423,15.0133858 185.239344,15.2643443 C185.606664,15.4468166 185.836651,15.823913 185.830738,16.2340164 C185.827059,16.5800876 185.648645,16.9008317 185.356557,17.0864754 C184.974943,17.3330711 184.536599,17.4779632 184.083197,17.507377 L184.083197,17.55 C184.684611,17.7201389 185.145909,18.2038895 185.287295,18.8127049 C185.463115,19.4520492 185.612295,19.7717213 185.729508,19.7717213 C185.881142,19.7756217 186.016548,19.677343 186.059836,19.5319672 C186.123681,19.3184576 186.164756,19.0987924 186.182377,18.8766393 L186.496721,18.8766393 C186.490298,19.1581715 186.426862,19.4354788 186.310246,19.6918033 C186.129926,20.0141923 185.777982,20.2016181 185.409836,20.1713115 C185.087042,20.2112951 184.770588,20.0593139 184.6,19.782377 C184.484501,19.4702486 184.424982,19.1401887 184.42418,18.807377 C184.449478,18.4467437 184.32408,18.0917692 184.077869,17.8270492 C183.712714,17.6486775 183.304172,17.5784303 182.90041,17.6245902 L182.90041,19.3721311 C182.878046,19.5371853 182.980103,19.6936731 183.140164,19.7397541 C183.346277,19.7863563 183.557836,19.804285 183.768852,19.7930328 Z M182.889754,15.642623 L182.895082,17.3262295 C183.347152,17.3522098 183.800462,17.3054397 184.237705,17.1877049 C184.607765,17.0180971 184.823885,16.6269206 184.770492,16.2233607 C184.786331,15.9459438 184.683698,15.6748376 184.488115,15.477459 C184.230014,15.2787655 183.906952,15.1837474 183.582377,15.2110656 C183.409525,15.2032694 183.236992,15.2323276 183.07623,15.2963115 C182.947047,15.3606544 182.872362,15.4993554 182.889754,15.642623 Z M183.651639,21.9561475 L183.651639,21.977459 C182.48691,21.9788915 181.369706,21.5157432 180.547618,20.6906555 C179.725531,19.8655678 179.266456,18.746684 179.272131,17.5819672 C179.269301,16.4171912 179.730023,15.2991516 180.552646,14.4745292 C181.37527,13.6499069 182.492188,13.186472 183.656967,13.1864754 C184.82267,13.1850556 185.940958,13.6478654 186.764735,14.4726417 C187.588512,15.2974181 188.049965,16.4162674 188.047131,17.5819672 C188.032496,19.9999865 186.069701,21.9532644 183.651639,21.9561475 Z M180.886475,14.7795082 L180.886475,14.8008197 C179.63071,16.0545137 179.373339,17.9952562 180.258927,19.5329258 C181.144516,21.0705954 182.952335,21.8219344 184.666928,21.3649132 C186.38152,20.907892 187.57553,19.3564213 187.578279,17.5819672 C187.589423,15.9915473 186.638809,14.5519183 185.171801,13.9375504 C183.704793,13.3231825 182.01199,13.6557753 180.886475,14.7795082 Z M1.04959016,64.3393443 C0.570081967,61.9418033 0.282377049,60.1090164 0.0586065574,59.4217213 C-0.122540984,58.8889344 0.154508197,58.4627049 0.634016393,58.4840164 C1.625,58.5372951 1.5557377,59.8692623 3.15409836,61.0680328 C4.51270492,62.1069672 6.94221311,62.5172131 8.06106557,62.5172131 C15.8930328,62.5172131 19.782377,56.3422131 19.782377,49.1495902 L19.782377,13.6659836 C19.782377,5.43442623 20.3151639,1.84877049 16.4790984,1.8647541 L12.0196721,1.8647541 L12.0196721,-7.10542736e-15 L30.8110656,-7.10542736e-15 L30.8110656,1.8647541 L26.6819672,1.8647541 C25.8028689,1.8647541 25.147541,2.95696721 25.147541,3.67622951 L25.0143443,48.2704918 C25.0143443,57.9086066 17.4913934,64.8348361 7.40040984,64.8348361 C5.40245902,64.8348361 2.88770492,64.8188525 1.04959016,64.3393443 Z M46.4590164,18.9831967 L38.5045082,36.032377 L53.2040984,36.032377 L46.4590164,18.9831967 Z M81.777459,33.3364754 C87.3237705,33.3364754 94.0688525,31.3385246 94.0688525,25.0143443 C94.0688525,18.9512295 88.4213115,14.8913934 83.322541,14.8913934 L79.4651639,14.8913934 C78.8844262,14.8913934 77.4512295,14.9553279 77.4512295,15.7918033 L77.4512295,33.3364754 L81.777459,33.3364754 Z M138.966803,13.3196721 L159.841393,13.0053279 C178.036066,13.0053279 181.152869,26.692623 181.152869,32.5639344 C181.152869,44.1147541 173.347541,53.9286885 159.990574,53.9286885 L140.437295,53.9286885 L140.437295,52.2131148 L143.468852,52.2131148 C144.165986,52.1888996 144.740951,51.6592071 144.822131,50.9663934 L144.822131,23.9168033 C144.822131,17.2729508 145.440164,15.1631148 142.648361,15.0991803 L138.977459,15.0245902 L138.966803,13.3196721 Z M149.409426,43.5340164 C149.409426,51.5258197 150.118033,52.202459 152.073361,52.202459 L159.905328,52.202459 C171.322951,52.202459 176.746721,42.004918 176.746721,34.7110656 C176.746721,19.6758197 166.485246,15.029918 157.129508,14.9340164 C155.914754,14.9340164 149.430738,14.7209016 149.430738,15.2377049 L149.409426,43.5340164 Z" id="logo-jared"/>
        </g>
    </g>
</svg>