<svg width="129" height="50" viewBox="0 0 129 50" fill="none" xmlns="http://www.w3.org/2000/svg">
<g clip-path="url(#clip0_491_523)">
<mask id="mask0_491_523" style="mask-type:luminance" maskUnits="userSpaceOnUse" x="0" y="42" width="5" height="8">
<path d="M0 42.0332H4.45828V49.9998H0V42.0332Z" fill="#231F20"/>
</mask>
<g mask="url(#mask0_491_523)">
<path fill-rule="evenodd" clip-rule="evenodd" d="M3.72295 42.0332V47.5323C3.72295 48.6255 3.38733 49.3217 2.27212 49.3217C1.23363 49.3217 0.73548 48.6903 0.73548 47.8176V47.5323L0 47.6643V47.8606C0 49.2796 0.843836 50 2.27212 50C3.87397 50 4.45842 48.9968 4.45842 47.4777V42.0332" fill="#231F20"/>
</g>
<mask id="mask1_491_523" style="mask-type:luminance" maskUnits="userSpaceOnUse" x="0" y="42" width="5" height="8">
<path d="M0 42.0332H4.45828V49.9998H0V42.0332Z" fill="#231F20"/>
</mask>
<g mask="url(#mask1_491_523)">
<path fill-rule="evenodd" clip-rule="evenodd" d="M3.72295 42.0332V47.5323C3.72295 48.6255 3.38733 49.3217 2.27212 49.3217C1.23363 49.3217 0.73548 48.6903 0.73548 47.8176V47.5323L0 47.6643V47.8606C0 49.2796 0.843836 50 2.27212 50C3.87397 50 4.45842 48.9968 4.45842 47.4777V42.0332" fill="#231F20"/>
</g>
<path fill-rule="evenodd" clip-rule="evenodd" d="M15.0684 50.0004H20.5478V49.2854H15.8326V46.1213H19.8719V45.4052H15.8326V42.4968H20.311V41.7812H15.0684" fill="#231F20"/>
<path fill-rule="evenodd" clip-rule="evenodd" d="M15.0684 50.0004H20.5478V49.2854H15.8326V46.1213H19.8719V45.4052H15.8326V42.4968H20.311V41.7812H15.0684" fill="#231F20"/>
<path fill-rule="evenodd" clip-rule="evenodd" d="M33.8715 50.0004H34.4601L36.2918 43.373H36.3139L38.2345 50.0004H38.8448L41.0969 41.7812H40.3209L38.5778 48.5693H38.5556L36.602 41.7812H36.0479L34.1498 48.6158H34.1267L32.2951 41.7812H31.5078" fill="#231F20"/>
<path fill-rule="evenodd" clip-rule="evenodd" d="M33.8715 50.0004H34.4601L36.2918 43.373H36.3139L38.2345 50.0004H38.8448L41.0969 41.7812H40.3209L38.5778 48.5693H38.5556L36.602 41.7812H36.0479L34.1498 48.6158H34.1267L32.2951 41.7812H31.5078" fill="#231F20"/>
<path fill-rule="evenodd" clip-rule="evenodd" d="M51.3691 50.0004H56.8486V49.2854H52.1342V46.1213H56.1738V45.4052H52.1342V42.4968H56.6119V41.7812H51.3691" fill="#231F20"/>
<path fill-rule="evenodd" clip-rule="evenodd" d="M51.3691 50.0004H56.8486V49.2854H52.1342V46.1213H56.1738V45.4052H52.1342V42.4968H56.6119V41.7812H51.3691" fill="#231F20"/>
<path fill-rule="evenodd" clip-rule="evenodd" d="M67.123 50.0004H72.6025V49.2854H67.9332V41.7812H67.123" fill="#231F20"/>
<path fill-rule="evenodd" clip-rule="evenodd" d="M67.123 50.0004H72.6025V49.2854H67.9332V41.7812H67.123" fill="#231F20"/>
<path fill-rule="evenodd" clip-rule="evenodd" d="M83.5625 50.0004H89.042V49.2854H84.3276V46.1213H88.3676V45.4052H84.3276V42.4968H88.8057V41.7812H83.5625" fill="#231F20"/>
<path fill-rule="evenodd" clip-rule="evenodd" d="M83.5625 50.0004H89.042V49.2854H84.3276V46.1213H88.3676V45.4052H84.3276V42.4968H88.8057V41.7812H83.5625" fill="#231F20"/>
<path fill-rule="evenodd" clip-rule="evenodd" d="M100.088 42.4968H102.614C103.989 42.4968 104.49 43.1086 104.49 44.0661C104.49 44.7934 104.127 45.6374 102.489 45.6374H100.088V42.4968ZM99.3145 50.0004H100.088V46.3514H101.93L104.5 50.0004H105.479L102.888 46.3187C104.353 46.2154 105.262 45.4752 105.262 44.0661C105.262 42.9127 104.57 41.7812 102.897 41.7812H99.3145V50.0004Z" fill="#231F20"/>
<path fill-rule="evenodd" clip-rule="evenodd" d="M100.088 42.4968H102.614C103.989 42.4968 104.49 43.1086 104.49 44.0661C104.49 44.7934 104.127 45.6374 102.489 45.6374H100.088V42.4968ZM99.3145 50.0004H100.088V46.3514H101.93L104.5 50.0004H105.479L102.888 46.3187C104.353 46.2154 105.262 45.4752 105.262 44.0661C105.262 42.9127 104.57 41.7812 102.897 41.7812H99.3145V50.0004Z" fill="#231F20"/>
<path fill-rule="evenodd" clip-rule="evenodd" d="M116.438 47.8366C116.738 49.4192 117.888 50.0004 119.548 50.0004C121.463 50.0004 122.602 49.1437 122.602 47.6054C122.602 44.5935 117.667 46.0895 117.667 43.7698C117.667 42.9121 118.666 42.4623 119.514 42.4623C120.546 42.4623 121.393 42.88 121.73 43.9018L122.463 43.5279C121.985 42.2203 120.918 41.7812 119.514 41.7812C118.353 41.7812 116.879 42.3406 116.879 43.7698C116.879 46.826 121.812 45.331 121.812 47.7256C121.812 48.6817 120.849 49.3179 119.548 49.3179C118.178 49.3179 117.296 48.7688 117.226 47.4525" fill="#231F20"/>
<path fill-rule="evenodd" clip-rule="evenodd" d="M116.438 47.8366C116.738 49.4192 117.888 50.0004 119.548 50.0004C121.463 50.0004 122.602 49.1437 122.602 47.6054C122.602 44.5935 117.667 46.0895 117.667 43.7698C117.667 42.9121 118.666 42.4623 119.514 42.4623C120.546 42.4623 121.393 42.88 121.73 43.9018L122.463 43.5279C121.985 42.2203 120.918 41.7812 119.514 41.7812C118.353 41.7812 116.879 42.3406 116.879 43.7698C116.879 46.826 121.812 45.331 121.812 47.7256C121.812 48.6817 120.849 49.3179 119.548 49.3179C118.178 49.3179 117.296 48.7688 117.226 47.4525" fill="#231F20"/>
<path fill-rule="evenodd" clip-rule="evenodd" d="M109.827 36.3006V21.5042L122.603 1.36914H117.668L111.461 11.6365C110.094 13.9254 108.929 15.9901 107.967 17.8296C106.968 15.8445 105.882 13.8703 104.708 11.9079L98.404 1.36914H93.2507L105.589 21.5042V36.3006H109.827ZM59.6318 11.7176C60.3689 9.50744 60.9419 7.282 61.3493 5.03887C61.8385 6.92855 62.5929 9.34325 63.6115 12.2835L66.9596 21.9565H56.1048L59.6318 11.7176ZM51.3579 36.3006L54.8775 25.7211H68.2914L72.0183 36.3006H76.846L63.7359 1.36914H59.1947L46.8707 36.3006H51.3579ZM4.92191 36.3006V24.1967L10.1902 18.6422L21.5655 36.3006H27.156L13.1394 15.5309L26.5662 1.36914H20.8225L4.92191 18.7007V1.36914H0.685547V36.3006H4.92191Z" fill="#231F20"/>
<path fill-rule="evenodd" clip-rule="evenodd" d="M126.234 1.92108V1.10848H126.891C127.176 1.10848 127.488 1.15118 127.488 1.50644C127.488 1.97407 126.987 1.92108 126.665 1.92108H126.234ZM127.047 2.14091C127.455 2.13012 127.773 1.96377 127.773 1.51135C127.773 1.31801 127.686 1.11339 127.514 1.01623C127.342 0.91466 127.149 0.903864 126.955 0.903864H125.955V3.20082H126.234V2.14091H126.751L127.407 3.20082H127.74L127.047 2.14091ZM126.718 3.86277C125.718 3.86277 124.912 3.05557 124.912 2.04964C124.912 1.05402 125.718 0.247311 126.718 0.247311C127.713 0.247311 128.521 1.05402 128.521 2.04964C128.521 3.05557 127.713 3.86277 126.718 3.86277ZM126.718 4.10959C127.853 4.10959 128.768 3.19002 128.768 2.04964C128.768 0.920548 127.853 0 126.718 0C125.578 0 124.658 0.920548 124.658 2.04964C124.658 3.19002 125.578 4.10959 126.718 4.10959Z" fill="#231F20"/>
</g>
<defs>
<clipPath id="clip0_491_523">
<rect width="128.767" height="50" fill="white"/>
</clipPath>
</defs>
</svg>
