<svg width="339" height="50" viewBox="0 0 339 50" fill="none" xmlns="http://www.w3.org/2000/svg">
<g clip-path="url(#clip0_491_286)">
<path d="M0 1.25H23.2148V16.785H23.3924L41.1514 1.25H67.2304L45.8039 20.2666L70.5344 46.4282H41.1597L23.4007 27.9464H23.2231V46.4282H0V1.25Z" fill="black"/>
<path d="M104.195 0C130.627 0 137.766 5.44542 137.766 23.9293C137.766 42.4132 130.627 47.8565 104.195 47.8565C77.7627 47.8565 70.5352 42.4999 70.5352 23.9293C70.5352 5.35869 77.7627 0 104.195 0ZM104.195 38.5702C114.551 38.5702 113.838 27.2312 113.838 23.4812C113.838 19.7311 113.927 9.37513 104.195 9.37513C94.4624 9.37513 94.5512 19.7311 94.5512 23.4812C94.5512 27.2312 93.8388 38.5702 104.195 38.5702Z" fill="black"/>
<path d="M187.855 29.4633V46.6958H211.694V1.51758H187.855V17.0526H170.802V1.51758H146.873V46.6958H170.711V29.4633H187.855Z" fill="black"/>
<path d="M223.033 1.51758H247.497V35.9805H269.552C270.366 35.9262 271.159 35.6894 271.87 35.2876C272.581 34.8859 273.192 34.3294 273.659 33.6594V46.6958H223.033V1.51758Z" fill="black"/>
<path d="M330.623 16.5154C326.728 13.1331 321.763 11.2358 316.606 11.1587C311.964 11.0699 307.856 12.6765 307.856 15.3548C307.856 18.0331 310.981 18.3904 321.873 20.6227C330.803 22.4977 336.785 26.9622 336.785 35.2656C336.785 43.569 320.804 49.9974 306.518 49.9974C298.082 50.1751 289.707 48.5304 281.965 45.1756V32.579C286.25 36.9548 295.714 39.2759 303.028 39.2759C307.047 39.2759 309.099 38.6564 309.099 35.5258C309.099 32.3953 306.599 31.7758 298.921 30.4356C284.466 27.846 279.545 23.7388 279.545 16.7756C279.545 6.77472 292.224 0.875 307.759 0.875C316.151 0.875 323.831 1.14345 330.617 4.26781L330.623 16.5154Z" fill="black"/>
<path d="M260.087 19.9998L261.783 17.1418C256.783 14.7319 255.265 8.48116 257.859 4.91077C258.741 3.82331 259.862 2.9543 261.135 2.37153C262.407 1.78877 263.798 1.50802 265.197 1.5512C266.596 1.59438 267.967 1.96031 269.201 2.62045C270.436 3.28058 271.501 4.21706 272.314 5.35681C273.49 6.94693 274.007 8.92957 273.758 10.8915C273.508 12.8535 272.511 14.6435 270.974 15.8883C267.442 17.5036 263.805 18.8773 260.087 19.9998Z" fill="black"/>
<path d="M338.394 5.80654C338.394 6.39793 338.219 6.97604 337.89 7.46776C337.562 7.95949 337.095 8.34274 336.548 8.56906C336.002 8.79537 335.401 8.85459 334.821 8.73921C334.241 8.62384 333.708 8.33905 333.29 7.92088C332.872 7.5027 332.587 6.96991 332.472 6.38988C332.356 5.80985 332.415 5.20864 332.642 4.66226C332.868 4.11589 333.251 3.64889 333.743 3.32033C334.235 2.99177 334.813 2.81641 335.404 2.81641C336.197 2.81641 336.958 3.13144 337.519 3.6922C338.079 4.25295 338.394 5.0135 338.394 5.80654ZM332.858 5.80654C332.858 6.30971 333.007 6.80158 333.287 7.21996C333.566 7.63833 333.964 7.96441 334.429 8.15697C334.893 8.34952 335.405 8.3999 335.898 8.30174C336.392 8.20358 336.845 7.96127 337.201 7.60548C337.557 7.24968 337.799 6.79637 337.897 6.30286C337.995 5.80936 337.945 5.29783 337.753 4.83296C337.56 4.36808 337.234 3.97075 336.816 3.6912C336.397 3.41166 335.905 3.26245 335.402 3.26245C335.068 3.26163 334.736 3.32684 334.427 3.45432C334.117 3.58181 333.836 3.76908 333.599 4.0054C333.362 4.24172 333.174 4.52245 333.046 4.83152C332.918 5.14059 332.852 5.47192 332.852 5.80654H332.858ZM334.733 7.50397H334.287V4.10704H335.627C336.43 4.10704 336.788 4.46428 336.788 5.08998C336.801 5.21453 336.787 5.34038 336.748 5.45933C336.709 5.57827 336.645 5.68766 336.561 5.78038C336.477 5.87309 336.374 5.94706 336.259 5.99746C336.145 6.04786 336.021 6.07357 335.896 6.07292L336.967 7.5907H336.433L335.45 6.07292H334.735L334.733 7.50397ZM335.268 5.62895C335.805 5.62895 336.34 5.62895 336.34 5.00944C336.34 4.38994 335.982 4.38994 335.536 4.38994H334.733V5.63927L335.268 5.62895Z" fill="black"/>
</g>
<defs>
<clipPath id="clip0_491_286">
<rect width="338.388" height="50" fill="white"/>
</clipPath>
</defs>
</svg>
