<svg width="47" height="50" viewBox="0 0 47 50" fill="none" xmlns="http://www.w3.org/2000/svg">
<mask id="mask0_512_1278" style="mask-type:luminance" maskUnits="userSpaceOnUse" x="0" y="0" width="47" height="50">
<path d="M23.1019 0.134766V15.8531C23.1696 15.8531 23.3051 15.8531 23.3729 15.8531L24.9989 12.872L23.1019 0.134766ZM15.0395 1.55754L20.3918 16.3273C20.4596 16.3273 20.5951 16.2596 20.6628 16.2596L21.1371 12.9398L15.0395 1.55754ZM16.3945 19.7149C16.4622 19.6472 16.4622 19.5794 16.53 19.5117L14.7685 16.6661L2.77646 11.9235L16.3945 19.7149ZM15.5137 22.2217C15.5137 22.154 15.5815 22.0185 15.5815 21.9507L12.9392 19.8504L0.0664062 19.5117L15.5137 22.2217ZM18.3593 17.4791L17.6818 14.1593L7.99332 5.62263L18.0883 17.6146C18.2238 17.6146 18.2915 17.5469 18.3593 17.4791ZM30.6223 25.135L33.4001 27.3031L33.2646 27.2353L46.1374 27.5741L30.69 24.864C30.69 24.9995 30.6223 25.0673 30.6223 25.135ZM25.9474 16.3951L28.4542 14.1593L31.0288 1.55754L25.6764 16.3273C25.8119 16.3273 25.8797 16.3951 25.9474 16.3951ZM33.9421 23.5767L46.1374 19.5117L30.69 22.2217C30.69 22.2895 30.69 22.425 30.7578 22.4927L33.9421 23.5767ZM28.251 17.8179L31.3676 16.5984L38.1427 5.62263L28.0477 17.6146C28.1155 17.6824 28.1832 17.7501 28.251 17.8179ZM29.877 19.9182L33.2646 19.8504L43.3595 11.8558L29.7415 19.7149C29.8093 19.7827 29.877 19.8504 29.877 19.9182ZM23.1019 31.2327C23.0341 31.2327 22.8986 31.2327 22.8309 31.2327L21.2048 34.2137L23.1019 46.951V31.2327ZM29.7415 27.4386C29.6738 27.5063 29.6738 27.5741 29.606 27.7096L31.3676 30.5551L43.3595 35.2977L29.7415 27.4386ZM28.0477 29.4711C27.98 29.5389 27.9122 29.6066 27.8445 29.6744L28.522 32.9942L45.2566 49.9998L28.0477 29.4711ZM25.7442 30.8261C25.6764 30.8261 25.5409 30.8939 25.4732 30.8939L24.9989 34.2137L31.1643 45.5282L25.7442 30.8261ZM15.5137 24.864C15.5137 24.7963 15.5137 24.6608 15.446 24.593L12.2617 23.509L0.0664062 27.5741L15.5137 24.864ZM16.3945 27.4386C16.3267 27.3708 16.3267 27.3031 16.259 27.1676L12.8714 27.2353L2.77646 35.23L16.3945 27.4386ZM17.6818 32.9264L15.1072 45.5282L20.4596 30.7584C20.3918 30.6906 20.2563 30.6906 20.1886 30.6229L17.6818 32.9264ZM18.156 29.4711C18.0883 29.4034 18.0205 29.3356 17.9528 29.2679L14.8362 30.4874L8.06107 41.4631L18.156 29.4711Z" fill="white"/>
</mask>
<g mask="url(#mask0_512_1278)">
<path d="M49.1875 -2.91406H-3.04883V52.9808H49.1875V-2.91406Z" fill="#F9CF6D"/>
</g>
<mask id="mask1_512_1278" style="mask-type:luminance" maskUnits="userSpaceOnUse" x="0" y="0" width="47" height="50">
<path d="M20.6642 16.0571C21.4094 15.7861 22.2225 15.7183 23.0355 15.7183V0L20.6642 16.0571ZM18.0219 17.4799L7.92692 5.48786L16.4636 19.3091C16.8701 18.6316 17.4121 18.0219 18.0219 17.4799ZM23.3065 15.7183C24.1195 15.7183 24.9325 15.9216 25.6778 16.1926L31.0301 1.42278L23.3065 15.7183ZM20.3932 16.1926L14.9731 1.42278L18.2251 17.3444C18.9026 16.8701 19.5802 16.4636 20.3932 16.1926ZM46.0709 27.5071L30.6236 22.358C30.6914 22.6967 30.6914 23.0355 30.6914 23.442C30.6914 23.9162 30.6236 24.3227 30.5559 24.797L46.0709 27.5071ZM16.3281 19.5802L2.71006 11.721L15.4473 21.8159C15.6506 21.0029 15.9216 20.2577 16.3281 19.5802ZM30.6236 22.087L46.0709 19.3769L29.8106 19.8512C30.2171 20.5287 30.4881 21.2739 30.6236 22.087ZM27.9813 17.4799L38.0763 5.42011L25.9488 16.1926C26.694 16.5991 27.3716 17.0056 27.9813 17.4799ZM29.6751 19.5802L43.2931 11.721L28.1846 17.6831C28.7943 18.2251 29.2686 18.8349 29.6751 19.5802ZM23.0355 46.8162L25.4068 30.7591C24.6615 31.0301 23.8485 31.1656 23.0355 31.1656V46.8162ZM25.6778 30.6914L31.0301 45.4612L27.7781 29.5396C27.1006 30.0139 26.423 30.3526 25.6778 30.6914ZM27.9813 29.3364L45.1902 49.865L29.6074 27.5748C29.1331 28.1846 28.5911 28.7943 27.9813 29.3364ZM29.6751 27.3038L43.2931 35.0952L30.5559 25.0003C30.4204 25.8133 30.0816 26.5585 29.6751 27.3038ZM15.0408 45.3934L22.7645 31.0979C21.9514 31.0979 21.1384 30.8946 20.3932 30.6236L15.0408 45.3934ZM16.3281 27.3038L2.71006 35.0952L17.8186 29.1331C17.2766 28.5911 16.7346 27.9813 16.3281 27.3038ZM15.4473 24.7293L0 27.4393L16.2603 26.9651C15.8538 26.3553 15.5828 25.5423 15.4473 24.7293ZM18.0896 29.3364L7.99467 41.3283L20.1222 30.5559C19.3769 30.2849 18.6994 29.8106 18.0896 29.3364ZM15.3118 23.442C15.3118 22.9677 15.3796 22.5612 15.4473 22.087L0 19.3769L15.4473 24.526C15.3118 24.1195 15.3118 23.7807 15.3118 23.442Z" fill="white"/>
</mask>
<g mask="url(#mask1_512_1278)">
<path d="M49.1191 -3.04883H-3.11719V52.8461H49.1191V-3.04883Z" fill="#EA882C"/>
</g>
</svg>
