<svg width="60" height="51" viewBox="0 0 60 51" fill="none" xmlns="http://www.w3.org/2000/svg">
<path d="M25.6346 38.594L7.97656 49.982C8.10342 49.9882 8.22924 50.0018 8.35817 50.0018H28.1281V39.4799C28.1281 38.1084 27.0062 37.7091 25.6346 38.594Z" fill="#84BD00"/>
<path d="M31.8398 39.4802V50.002H50.7405C51.1294 50.002 51.51 49.9656 51.8853 49.9136L34.3354 38.5942C32.9628 37.7094 31.8398 38.1076 31.8398 39.4802Z" fill="#84BD00"/>
<path d="M31.8398 21.4313V30.1772C31.8398 31.5497 32.9628 33.3964 34.3344 34.2813L55.9073 48.194C57.8466 46.6592 59.1006 44.2926 59.1006 41.6432V36.518L34.3354 20.5454C32.9628 19.6605 31.8398 20.0588 31.8398 21.4313Z" fill="#84BD00"/>
<path d="M45.6403 5.60666L53.3349 10.5447C53.3349 10.5447 53.7664 10.8556 54.174 10.6165C54.5816 10.3773 54.5338 9.80126 54.5338 9.80126V1.36631C54.5338 1.36631 54.5338 0 53.1675 0H46.1196C46.1196 0 44.8011 0.239157 44.8011 1.05437V4.02407C44.8011 4.02407 44.6098 4.76754 45.6403 5.60666Z" fill="#309B42"/>
<path d="M28.13 30.1752V21.4294C28.13 20.0568 27.007 19.6586 25.6355 20.5435L0 37.0765V41.6402C0 44.4706 1.42766 46.9786 3.59463 48.4936L25.6345 34.2794C27.007 33.3935 28.13 31.5468 28.13 30.1752Z" fill="#309B42"/>
<path d="M31.8418 3.49944V12.2453C31.8418 13.6178 32.9648 15.4645 34.3363 16.3494L59.1025 32.322V18.5861L34.3373 2.61352C32.9648 1.72864 31.8418 2.12793 31.8418 3.49944Z" fill="#309B42"/>
<path d="M28.13 12.2456V3.4997C28.13 2.12715 27.007 1.7289 25.6355 2.61378L0 19.1468V32.8816L25.6355 16.3486C27.007 15.4638 28.13 13.6181 28.13 12.2456Z" fill="#046A38"/>
</svg>
