<svg width="187" height="50" viewBox="0 0 187 50" fill="none" xmlns="http://www.w3.org/2000/svg">
<g clip-path="url(#clip0_491_468)">
<path d="M71.5406 7.12695L71.1546 9.26771C120.081 9.26771 180.685 9.26771 182.197 9.26771C181.779 11.5363 176.632 39.1425 176.342 40.7081C175.281 40.7081 114.42 40.7081 65.3001 40.7081L64.9141 42.8489C115.16 42.8489 177.082 42.8489 178.144 42.8489C178.433 41.2513 184.384 9.26771 184.77 7.1589C183.258 7.12695 121.593 7.12695 71.5406 7.12695Z" fill="#EC2127"/>
<path d="M176.343 40.708C176.633 39.1104 182.198 9.26758 182.198 9.26758C182.198 9.26758 120.082 9.26758 71.1553 9.26758L65.3008 40.708C114.421 40.708 175.282 40.708 176.343 40.708Z" fill="#FCEE22"/>
<path d="M72.7308 5.94395L73.7923 0.224609H23.7718L22.7103 5.94395H7.07686L0 43.9984H15.6334L14.5397 49.8136H64.5602L65.6539 43.9984H179.109C179.173 43.7108 179.43 42.273 179.816 40.1003L186.153 5.94395H72.7308ZM16.4054 48.3118C16.4376 48.1521 16.9845 45.1167 17.8208 40.6754C19.4292 31.9845 22.0669 17.8939 23.6753 9.23497C24.5117 4.82565 25.0585 1.82219 25.0907 1.69438C25.5732 1.69438 71.9588 1.69438 71.9588 1.69438C71.9588 1.69438 71.3798 4.8576 70.5434 9.23497C68.935 17.8939 66.2973 31.9845 64.6889 40.6754C63.8525 45.1486 63.2735 48.3118 63.2735 48.3118C63.2735 48.3118 17.081 48.3118 16.4054 48.3118ZM1.41537 42.8161C1.83355 40.5795 7.75237 8.69179 8.04188 7.12616C8.36356 7.12616 14.1215 7.12616 23.418 7.12616L23.032 9.26692L17.1775 40.7073L16.7915 42.8481C7.6237 42.8162 1.86572 42.8161 1.41537 42.8161ZM178.112 42.8161C177.05 42.8161 115.16 42.8161 64.8819 42.8161L65.2679 40.6754L71.1224 9.23497L71.5084 7.09421C121.561 7.09421 184.738 7.09421 184.738 7.09421C184.738 7.09421 178.433 41.2186 178.112 42.8161Z" fill="black"/>
<path d="M77.2667 32.7832L77.8135 29.588H75.2401L77.524 16.7754H73.2136L70.3828 32.7832H77.2667Z" fill="white"/>
<path d="M86.3057 29.588H83.1854L83.7966 26.0733H86.4665L87.0134 23.006H84.3435L84.8903 19.9706H87.7532L88.3001 16.7754H81.1589L78.3281 32.7832H85.7267L86.3057 29.588Z" fill="white"/>
<path d="M89.3609 24.3166C89.6504 24.6361 90.2616 25.1154 91.2266 25.8183C92.1595 26.4893 92.7385 26.9686 92.9637 27.2561C93.1567 27.5437 93.1888 28.1827 93.028 29.1093C92.9637 29.5567 92.835 29.8762 92.642 30.0998C92.449 30.3235 92.2238 30.4193 91.9665 30.4193C91.677 30.4193 91.484 30.3235 91.4196 30.1637C91.3231 30.004 91.3553 29.5886 91.4518 28.9815L91.8056 27.0005H87.8169L87.6239 28.0549C87.3987 29.2691 87.3665 30.1957 87.4952 30.8347C87.6238 31.5057 88.0742 32.0169 88.814 32.4643C89.5539 32.8796 90.4868 33.1033 91.6448 33.1033C92.6742 33.1033 93.6392 32.9116 94.4755 32.5601C95.3441 32.1767 95.9552 31.7294 96.3091 31.1862C96.6951 30.643 96.9846 29.8123 97.1776 28.662C97.4671 27.0964 97.4028 25.9461 97.0489 25.2432C96.6951 24.5402 95.6336 23.6456 93.9287 22.5273C93.3175 22.1439 92.9958 21.8244 92.8993 21.5368C92.8028 21.2812 92.8028 20.8658 92.8993 20.3226C92.9637 19.9073 93.0923 19.5877 93.2532 19.396C93.414 19.2043 93.6392 19.0765 93.8644 19.0765C94.0895 19.0765 94.2504 19.1404 94.3147 19.3002C94.379 19.4599 94.379 19.8114 94.2825 20.3865L94.0574 21.6007H98.0461L98.1426 20.9617C98.3678 19.6836 98.4 18.789 98.2391 18.2458C98.0783 17.7026 97.628 17.2553 96.9203 16.9038C96.1804 16.5523 95.2797 16.3926 94.1539 16.3926C93.1245 16.3926 92.2238 16.5523 91.4518 16.8719C90.6798 17.1914 90.0686 17.6387 89.6504 18.2138C89.2322 18.789 88.9106 19.6836 88.6854 20.8978C88.5245 21.7605 88.5245 22.4634 88.6532 23.0066C88.8462 23.5817 89.0714 24.029 89.3609 24.3166Z" fill="white"/>
<path d="M103.291 32.4955C104.03 32.9109 104.963 33.1345 106.121 33.1345C107.183 33.1345 108.116 32.9428 108.984 32.5914C109.821 32.2079 110.432 31.7606 110.818 31.2174C111.204 30.6743 111.493 29.8435 111.686 28.6933C111.976 27.1276 111.912 25.9774 111.558 25.2744C111.204 24.5715 110.142 23.6769 108.437 22.5585C107.826 22.1751 107.505 21.8556 107.408 21.568C107.312 21.3124 107.312 20.8971 107.408 20.3539C107.472 19.9385 107.601 19.619 107.762 19.4273C107.923 19.2356 108.148 19.1078 108.373 19.1078C108.598 19.1078 108.759 19.1717 108.823 19.3314C108.888 19.4912 108.888 19.8427 108.791 20.4178L108.566 21.6319H112.555L112.651 20.9929C112.877 19.7148 112.909 18.8202 112.748 18.277C112.587 17.7338 112.137 17.2865 111.429 16.9351C110.721 16.5836 109.788 16.4238 108.663 16.4238C107.633 16.4238 106.733 16.5836 105.961 16.9031C105.188 17.2226 104.577 17.6699 104.159 18.2451C103.741 18.8202 103.419 19.7148 103.194 20.929C103.033 21.7917 103.033 22.4946 103.162 23.0378C103.291 23.581 103.484 24.0283 103.805 24.3159C104.095 24.6354 104.706 25.1147 105.671 25.8176C106.604 26.4886 107.215 26.9679 107.408 27.2554C107.601 27.543 107.633 28.182 107.472 29.1086C107.408 29.556 107.279 29.8755 107.086 30.0991C106.893 30.3228 106.668 30.4186 106.411 30.4186C106.121 30.4186 105.928 30.3228 105.864 30.163C105.768 30.0033 105.8 29.5879 105.896 28.9808L106.25 26.9998H102.293L102.1 28.0542C101.875 29.2684 101.843 30.195 101.972 30.834C102.133 31.537 102.551 32.0482 103.291 32.4955Z" fill="white"/>
<path d="M112.941 30.6104C113.07 31.3772 113.488 32.0162 114.228 32.4316C114.968 32.8789 115.965 33.1026 117.22 33.1026C118.442 33.1026 119.503 32.847 120.404 32.3357C121.337 31.8245 121.98 31.2174 122.334 30.5145C122.688 29.8116 123.042 28.6613 123.331 26.9998L123.428 26.3608H119.117L118.764 28.3737C118.603 29.2684 118.442 29.8116 118.313 30.0672C118.185 30.2908 117.927 30.4186 117.638 30.4186C117.316 30.4186 117.123 30.2908 117.059 30.0672C116.994 29.8435 117.059 29.3323 117.187 28.5335L118.506 21.0888C118.667 20.258 118.796 19.7468 118.924 19.4912C119.053 19.2356 119.31 19.1078 119.664 19.1078C119.986 19.1078 120.147 19.2036 120.211 19.3953C120.275 19.587 120.211 20.0983 120.082 20.929L119.6 23.7088H123.91L124.168 22.1751C124.425 20.6734 124.489 19.587 124.361 18.8841C124.232 18.1812 123.782 17.5741 123.042 17.1268C122.302 16.6475 121.305 16.4238 120.05 16.4238C119.117 16.4238 118.281 16.5836 117.477 16.8712C116.705 17.1907 116.062 17.606 115.579 18.1173C115.097 18.6604 114.743 19.2036 114.55 19.7788C114.357 20.3539 114.164 21.2166 113.971 22.3668L113.134 27.0318C112.877 28.6613 112.813 29.8435 112.941 30.6104Z" fill="white"/>
<path d="M128.187 32.7832L129.378 26.0733H130.632L129.442 32.7832H133.72L136.583 16.7754H132.273L131.275 22.4947H130.021L131.018 16.7754H126.708L123.877 32.7832H128.187Z" fill="white"/>
<path d="M141.826 32.7832C143.177 28.5336 144.11 25.7218 144.528 24.3479C144.367 27.5111 144.303 30.3229 144.335 32.7832H149.675L154.436 16.7754H150.254C149.064 20.4818 147.97 24.284 147.037 28.1821L147.616 22.0794C147.906 19.012 148.067 17.2547 148.099 16.7754H143.66C142.244 21.3125 141.183 24.987 140.507 27.7987L141.022 22.3669L141.569 16.7754H137.387L136.486 32.7832H141.826Z" fill="white"/>
<path d="M155.756 32.7832L156.495 29.9075H158.072L157.782 32.7832H162.157L162.511 16.7754H156.335L151.316 32.7832H155.756ZM158.972 20.322C158.715 23.006 158.522 25.2745 158.425 27.0638H157.01C157.364 25.6579 158.039 23.3894 158.972 20.322Z" fill="white"/>
<path d="M171.325 32.4963C171.904 32.3046 172.387 31.9531 172.741 31.4419C173.095 30.9307 173.352 30.1319 173.545 29.0455L173.802 27.5438C173.995 26.4894 173.963 25.7226 173.674 25.2113C173.416 24.7001 172.805 24.3486 171.84 24.125C172.773 23.9333 173.416 23.6457 173.77 23.2623C174.156 22.8789 174.413 22.2398 174.574 21.3132C174.832 19.9393 174.799 18.9169 174.478 18.3098C174.156 17.6707 173.674 17.2873 172.998 17.0637C172.355 16.8719 171.325 16.7441 169.974 16.7441H165.696L162.865 32.7519H167.819C169.588 32.7839 170.746 32.688 171.325 32.4963ZM169.588 19.492C170.006 19.492 170.296 19.5239 170.457 19.5878C170.585 19.6517 170.682 19.7795 170.746 19.9713C170.811 20.163 170.778 20.5144 170.682 21.0257C170.521 21.9842 170.36 22.5274 170.199 22.751C170.039 22.9428 169.781 23.0386 169.363 23.0386C169.267 23.0386 169.138 23.0386 168.945 23.0386L169.588 19.492ZM168.495 25.5628C169.106 25.5947 169.492 25.6586 169.588 25.8184C169.717 25.9782 169.717 26.3935 169.588 27.0645L169.331 28.5662C169.202 29.2053 169.074 29.6207 168.881 29.7804C168.688 29.9402 168.302 30.036 167.69 30.068L168.495 25.5628Z" fill="white"/>
<path d="M3.98942 40.7081C4.4076 38.5354 9.5544 10.8014 9.84391 9.26771C10.1334 9.26771 15.055 9.26771 23.0326 9.26771L23.4186 7.12695C14.1222 7.12695 8.3642 7.12695 8.04253 7.12695C7.75302 8.69258 1.83419 40.6123 1.41602 42.8169C1.86636 42.8169 7.62435 42.8169 16.7921 42.8169L17.1781 40.6762C9.29706 40.7081 4.4076 40.7081 3.98942 40.7081Z" fill="#EC2127"/>
<path d="M9.84277 9.23438C9.55326 10.7681 4.40646 38.5021 3.98828 40.6748C4.40646 40.6748 9.29592 40.6748 17.177 40.6748L23.0315 9.23438C15.0539 9.23438 10.1323 9.23438 9.84277 9.23438Z" fill="#FCEE22"/>
<path d="M25.0593 1.69531C25.0593 1.69531 16.4384 48.121 16.4062 48.3128C17.1139 48.3128 62.7918 48.3128 63.2743 48.3128C63.3065 48.185 71.8952 1.88702 71.9274 1.69531C71.2519 1.69531 25.0593 1.69531 25.0593 1.69531ZM62.3415 47.0986C60.6688 47.0986 20.2985 47.0986 17.886 47.0986C17.9825 46.5874 25.9278 3.29289 25.9922 2.94143C27.6649 2.94143 68.0351 2.94143 70.4477 2.94143C70.3512 3.45265 69.9009 5.84903 69.2897 9.26785C67.7456 17.6392 62.4058 46.7152 62.3415 47.0986Z" fill="white"/>
<path d="M25.991 2.9089C25.991 2.9089 25.4763 5.6887 24.833 9.23533C23.2889 17.6067 20.619 32.2405 19.075 40.6757C18.4316 44.1265 17.9813 46.5548 17.8848 47.0661C20.2973 47.0661 62.3403 47.0661 62.3403 47.0661C62.3403 47.0661 67.7444 17.6067 69.2885 9.20338C69.8997 5.78455 70.35 3.42013 70.4465 2.87695C68.0339 2.9089 25.991 2.9089 25.991 2.9089Z" fill="#EC2127"/>
<path d="M77.2667 32.7832L77.8135 29.588H75.2401L77.524 16.7754H73.2136L70.3828 32.7832H77.2667Z" fill="black"/>
<path d="M86.3057 29.588H83.1854L83.7966 26.0733H86.4665L87.0134 23.006H84.3435L84.8903 19.9706H87.7532L88.3001 16.7754H81.1589L78.3281 32.7832H85.7267L86.3057 29.588Z" fill="black"/>
<path d="M89.3609 24.3166C89.6504 24.6361 90.2616 25.1154 91.2266 25.8183C92.1595 26.4893 92.7385 26.9686 92.9637 27.2561C93.1567 27.5437 93.1888 28.1827 93.028 29.1093C92.9637 29.5567 92.835 29.8762 92.642 30.0998C92.449 30.3235 92.2238 30.4193 91.9665 30.4193C91.677 30.4193 91.484 30.3235 91.4196 30.1637C91.3231 30.004 91.3553 29.5886 91.4518 28.9815L91.8056 27.0005H87.8169L87.6239 28.0549C87.3987 29.2691 87.3665 30.1957 87.4952 30.8347C87.6238 31.5057 88.0742 32.0169 88.814 32.4643C89.5539 32.8796 90.4868 33.1033 91.6448 33.1033C92.6742 33.1033 93.6392 32.9116 94.4755 32.5601C95.3441 32.1767 95.9552 31.7294 96.3091 31.1862C96.6951 30.643 96.9846 29.8123 97.1776 28.662C97.4671 27.0964 97.4028 25.9461 97.0489 25.2432C96.6951 24.5402 95.6336 23.6456 93.9287 22.5273C93.3175 22.1439 92.9958 21.8244 92.8993 21.5368C92.8028 21.2812 92.8028 20.8658 92.8993 20.3226C92.9637 19.9073 93.0923 19.5877 93.2532 19.396C93.414 19.2043 93.6392 19.0765 93.8644 19.0765C94.0895 19.0765 94.2504 19.1404 94.3147 19.3002C94.379 19.4599 94.379 19.8114 94.2825 20.3865L94.0574 21.6007H98.0461L98.1426 20.9617C98.3678 19.6836 98.4 18.789 98.2391 18.2458C98.0783 17.7026 97.628 17.2553 96.9203 16.9038C96.1804 16.5523 95.2797 16.3926 94.1539 16.3926C93.1245 16.3926 92.2238 16.5523 91.4518 16.8719C90.6798 17.1914 90.0686 17.6387 89.6504 18.2138C89.2322 18.789 88.9106 19.6836 88.6854 20.8978C88.5245 21.7605 88.5245 22.4634 88.6532 23.0066C88.8462 23.5817 89.0714 24.029 89.3609 24.3166Z" fill="black"/>
<path d="M103.291 32.4955C104.03 32.9109 104.963 33.1345 106.121 33.1345C107.183 33.1345 108.116 32.9428 108.984 32.5914C109.821 32.2079 110.432 31.7606 110.818 31.2174C111.204 30.6743 111.493 29.8435 111.686 28.6933C111.976 27.1276 111.912 25.9774 111.558 25.2744C111.204 24.5715 110.142 23.6769 108.437 22.5585C107.826 22.1751 107.505 21.8556 107.408 21.568C107.312 21.3124 107.312 20.8971 107.408 20.3539C107.472 19.9385 107.601 19.619 107.762 19.4273C107.923 19.2356 108.148 19.1078 108.373 19.1078C108.598 19.1078 108.759 19.1717 108.823 19.3314C108.888 19.4912 108.888 19.8427 108.791 20.4178L108.566 21.6319H112.555L112.651 20.9929C112.877 19.7148 112.909 18.8202 112.748 18.277C112.587 17.7338 112.137 17.2865 111.429 16.9351C110.721 16.5836 109.788 16.4238 108.663 16.4238C107.633 16.4238 106.733 16.5836 105.961 16.9031C105.188 17.2226 104.577 17.6699 104.159 18.2451C103.741 18.8202 103.419 19.7148 103.194 20.929C103.033 21.7917 103.033 22.4946 103.162 23.0378C103.291 23.581 103.484 24.0283 103.805 24.3159C104.095 24.6354 104.706 25.1147 105.671 25.8176C106.604 26.4886 107.215 26.9679 107.408 27.2554C107.601 27.543 107.633 28.182 107.472 29.1086C107.408 29.556 107.279 29.8755 107.086 30.0991C106.893 30.3228 106.668 30.4186 106.411 30.4186C106.121 30.4186 105.928 30.3228 105.864 30.163C105.768 30.0033 105.8 29.5879 105.896 28.9808L106.25 26.9998H102.293L102.1 28.0542C101.875 29.2684 101.843 30.195 101.972 30.834C102.133 31.537 102.551 32.0482 103.291 32.4955Z" fill="black"/>
<path d="M112.941 30.6104C113.07 31.3772 113.488 32.0162 114.228 32.4316C114.968 32.8789 115.965 33.1026 117.22 33.1026C118.442 33.1026 119.503 32.847 120.404 32.3357C121.337 31.8245 121.98 31.2174 122.334 30.5145C122.688 29.8116 123.042 28.6613 123.331 26.9998L123.428 26.3608H119.117L118.764 28.3737C118.603 29.2684 118.442 29.8116 118.313 30.0672C118.185 30.2908 117.927 30.4186 117.638 30.4186C117.316 30.4186 117.123 30.2908 117.059 30.0672C116.994 29.8435 117.059 29.3323 117.187 28.5335L118.506 21.0888C118.667 20.258 118.796 19.7468 118.924 19.4912C119.053 19.2356 119.31 19.1078 119.664 19.1078C119.986 19.1078 120.147 19.2036 120.211 19.3953C120.275 19.587 120.211 20.0983 120.082 20.929L119.6 23.7088H123.91L124.168 22.1751C124.425 20.6734 124.489 19.587 124.361 18.8841C124.232 18.1812 123.782 17.5741 123.042 17.1268C122.302 16.6475 121.305 16.4238 120.05 16.4238C119.117 16.4238 118.281 16.5836 117.477 16.8712C116.705 17.1907 116.062 17.606 115.579 18.1173C115.097 18.6604 114.743 19.2036 114.55 19.7788C114.357 20.3539 114.164 21.2166 113.971 22.3668L113.134 27.0318C112.877 28.6613 112.813 29.8435 112.941 30.6104Z" fill="black"/>
<path d="M128.187 32.7832L129.378 26.0733H130.632L129.442 32.7832H133.72L136.583 16.7754H132.273L131.275 22.4947H130.021L131.018 16.7754H126.708L123.877 32.7832H128.187Z" fill="black"/>
<path d="M141.826 32.7832C143.177 28.5336 144.11 25.7218 144.528 24.3479C144.367 27.5111 144.303 30.3229 144.335 32.7832H149.675L154.436 16.7754H150.254C149.064 20.4818 147.97 24.284 147.037 28.1821L147.616 22.0794C147.906 19.012 148.067 17.2547 148.099 16.7754H143.66C142.244 21.3125 141.183 24.987 140.507 27.7987L141.022 22.3669L141.569 16.7754H137.387L136.486 32.7832H141.826Z" fill="black"/>
<path d="M155.756 32.7832L156.495 29.9075H158.072L157.782 32.7832H162.157L162.511 16.7754H156.335L151.316 32.7832H155.756ZM158.972 20.322C158.715 23.006 158.522 25.2745 158.425 27.0638H157.01C157.364 25.6579 158.039 23.3894 158.972 20.322Z" fill="black"/>
<path d="M171.325 32.4963C171.904 32.3046 172.387 31.9531 172.741 31.4419C173.095 30.9307 173.352 30.1319 173.545 29.0455L173.802 27.5438C173.995 26.4894 173.963 25.7226 173.674 25.2113C173.416 24.7001 172.805 24.3486 171.84 24.125C172.773 23.9333 173.416 23.6457 173.77 23.2623C174.156 22.8789 174.413 22.2398 174.574 21.3132C174.832 19.9393 174.799 18.9169 174.478 18.3098C174.156 17.6707 173.674 17.2873 172.998 17.0637C172.355 16.8719 171.325 16.7441 169.974 16.7441H165.696L162.865 32.7519H167.819C169.588 32.7839 170.746 32.688 171.325 32.4963ZM169.588 19.492C170.006 19.492 170.296 19.5239 170.457 19.5878C170.585 19.6517 170.682 19.7795 170.746 19.9713C170.811 20.163 170.778 20.5144 170.682 21.0257C170.521 21.9842 170.36 22.5274 170.199 22.751C170.039 22.9428 169.781 23.0386 169.363 23.0386C169.267 23.0386 169.138 23.0386 168.945 23.0386L169.588 19.492ZM168.495 25.5628C169.106 25.5947 169.492 25.6586 169.588 25.8184C169.717 25.9782 169.717 26.3935 169.588 27.0645L169.331 28.5662C169.202 29.2053 169.074 29.6207 168.881 29.7804C168.688 29.9402 168.302 30.036 167.69 30.068L168.495 25.5628Z" fill="black"/>
<path d="M25.573 13.0372H28.629L24.9297 35.2436L28.9828 35.3394L32.7786 13.0691H36.2848L36.7673 9.29883C32.8429 9.29883 29.2401 9.29883 26.0556 9.29883L25.573 13.0372Z" fill="white"/>
<path d="M38.2785 17.7656H34.0967L32.0059 31.2492H36.1876L38.2785 17.7656Z" fill="white"/>
<path d="M41.6888 31.2497L42.5251 25.9137C42.7182 24.6037 42.9112 23.773 43.0398 23.4215C43.1685 23.0701 43.4258 22.7825 43.8118 22.5588C44.1979 22.3671 44.7447 22.2393 45.4846 22.2393L46.2244 17.4785C45.0986 17.5424 44.1335 18.2454 43.3293 19.5234L43.7475 17.7341H39.6944L37.6035 31.2177H41.6888V31.2497Z" fill="white"/>
<path d="M45.4843 28.6616C45.5487 29.2048 45.7095 29.684 46.0312 30.0994C46.3207 30.5467 46.771 30.8982 47.4144 31.1219C48.0256 31.3775 48.7654 31.5053 49.634 31.5053C50.5347 31.5053 51.2745 31.3775 51.8857 31.1219C52.4969 30.8663 53.0437 30.4828 53.4941 29.9716C53.9444 29.4604 54.2661 28.9811 54.4591 28.5338C54.6199 28.0865 54.7808 27.4474 54.9094 26.6167L55.0703 25.6262H51.2423L50.985 27.4155C50.8885 28.0865 50.7598 28.5338 50.6312 28.7574C50.5025 28.9811 50.2773 29.1089 49.9556 29.1089C49.6983 29.1089 49.5375 29.0131 49.4731 28.8533C49.4088 28.6616 49.441 28.2782 49.5375 27.6711L49.9878 24.7635H55.2311L55.5206 22.9742C55.7136 21.6642 55.7458 20.6417 55.5528 19.9068C55.3598 19.172 54.9416 18.5968 54.2661 18.1495C53.5906 17.7022 52.6899 17.4785 51.5318 17.4785C50.599 17.4785 49.7626 17.6702 48.9906 18.0217C48.2186 18.3732 47.6074 18.9163 47.1892 19.5873C46.771 20.2583 46.4815 21.2169 46.2885 22.3991L45.6774 26.3291C45.4522 27.3516 45.42 28.1184 45.4843 28.6616ZM50.4381 21.5683C50.5668 20.8015 50.6633 20.3222 50.7598 20.1625C50.8563 20.0027 51.0493 19.9068 51.3388 19.9068C51.564 19.9068 51.6927 20.0027 51.757 20.2264C51.7892 20.4181 51.757 20.8973 51.6605 21.6003L51.4997 22.5908H50.3095L50.4381 21.5683Z" fill="white"/>
<path d="M57.2589 31.026C57.9345 31.3455 58.803 31.5053 59.8323 31.5053C60.7652 31.5053 61.5694 31.3455 62.2771 31.058C62.9848 30.7704 63.5316 30.3231 63.8854 29.7799C64.2393 29.2048 64.5288 28.374 64.6896 27.2877C64.8505 26.2972 64.7861 25.5623 64.4645 25.0511C64.175 24.5398 63.4673 23.9967 62.3736 23.3896C61.5694 22.9422 61.0225 22.6227 60.7652 22.3671C60.5079 22.1435 60.3792 21.9198 60.347 21.7281C60.3148 21.5364 60.347 21.2169 60.4114 20.8015C60.4435 20.482 60.54 20.2583 60.7009 20.0986C60.8295 19.9388 61.0225 19.8749 61.2477 19.8749C61.5372 19.8749 61.6981 19.9707 61.7302 20.1305C61.7946 20.2903 61.7624 20.6737 61.6659 21.3127L61.5694 22.0476H65.1721L65.3008 21.2488C65.3973 20.5778 65.4617 20.0666 65.4295 19.7471C65.3973 19.4276 65.2686 19.0761 64.9791 18.7246C64.6896 18.3412 64.2715 18.0536 63.6924 17.83C63.1134 17.6063 62.3736 17.4785 61.4729 17.4785C60.5722 17.4785 59.768 17.6063 59.0603 17.8939C58.3526 18.1815 57.8058 18.5649 57.4519 19.0761C57.0981 19.5873 56.8408 20.3861 56.6478 21.4725C56.5191 22.2393 56.5512 22.8783 56.7443 23.4535C56.9051 23.9967 57.5484 24.6357 58.6421 25.3067C59.9288 26.1055 60.6687 26.5847 60.7974 26.7445C60.926 26.9042 60.926 27.3196 60.8295 27.9587C60.7652 28.4379 60.6365 28.7255 60.5079 28.8853C60.3792 29.045 60.154 29.1089 59.8645 29.1089C59.6072 29.1089 59.4463 29.0131 59.382 28.7894C59.3177 28.5657 59.3498 28.1184 59.4785 27.3835L59.6072 26.5208H56.0044L55.9079 27.1599C55.7471 28.2782 55.7471 29.1409 55.9401 29.684C56.1331 30.2592 56.5512 30.7065 57.2589 31.026Z" fill="white"/>
<path d="M36.7668 17.287C37.8283 17.287 38.6325 16.4563 38.6004 15.4658C38.536 14.4433 37.6675 13.6445 36.606 13.6445C35.5444 13.6445 34.7402 14.4753 34.7724 15.4658C34.8046 16.4563 35.7053 17.287 36.7668 17.287Z" fill="white"/>
</g>
<defs>
<clipPath id="clip0_491_468">
<rect width="186.25" height="50" fill="white"/>
</clipPath>
</defs>
</svg>
