<svg width="41" height="50" viewBox="0 0 41 50" fill="none" xmlns="http://www.w3.org/2000/svg">
<g clip-path="url(#clip0_491_893)">
<path d="M40.8485 0H-0.0429688V50H40.8485V0Z" fill="white"/>
<path d="M39.3295 40.8488H1.51938C0.678295 40.8488 0 40.1667 0 39.3295V1.51938C0 0.682171 0.682171 0 1.51938 0H39.3295C40.1705 0 40.8488 0.682171 40.8488 1.51938V39.3295C40.8488 40.1705 40.1705 40.8488 39.3295 40.8488Z" fill="white"/>
<path d="M38.3762 39.8181H2.47702C1.67857 39.8181 1.03516 39.1708 1.03516 38.3762V2.47702C1.03516 1.67857 1.68244 1.03516 2.47702 1.03516H38.3762C39.1747 1.03516 39.8181 1.68244 39.8181 2.47702V38.3762C39.8181 39.1747 39.1747 39.8181 38.3762 39.8181Z" fill="#0079C1"/>
<path d="M6.92166 46.7795V45.2911C6.92166 44.7872 6.70848 44.5043 6.29376 44.5043C5.8519 44.5043 5.6581 44.7485 5.6581 45.2833V46.7833H5.1581V45.2368C5.1581 44.7136 4.91391 44.5081 4.55345 44.5081C4.11159 44.5081 3.89453 44.7678 3.89453 45.2911V46.7872H3.39453V44.1244H3.85577V44.4112H3.86352C4.08058 44.1554 4.28213 44.0508 4.62709 44.0508C4.97205 44.0508 5.32089 44.2174 5.45267 44.4965C5.64647 44.1942 5.91004 44.0508 6.33252 44.0508C7.02631 44.0508 7.41779 44.4849 7.41779 45.1709V46.7872H6.92166V46.7795Z" fill="#0079C1"/>
<path d="M9.45962 46.8453C8.71156 46.8453 8.04102 46.2058 8.04102 45.4577C8.04102 44.6437 8.68055 44.043 9.49838 44.043C10.2348 44.043 10.9247 44.6205 10.917 45.4655C10.9054 46.1786 10.3085 46.8453 9.45962 46.8453ZM9.47512 44.5003C8.97512 44.5003 8.54102 44.9228 8.54102 45.4422C8.54102 45.9461 8.95962 46.3879 9.4635 46.3879C9.98675 46.3879 10.417 45.9732 10.417 45.4383C10.417 44.9189 9.99838 44.5003 9.47512 44.5003Z" fill="#0079C1"/>
<path d="M11.7003 46.7788V44.5734H11.3398V44.1161H11.7003V43.2207H12.2003V44.1161H12.6383V44.5734H12.2003V46.7788H11.7003Z" fill="#0079C1"/>
<path d="M13.5527 45.6631C13.669 46.105 14.0179 46.3879 14.4287 46.3879C14.7427 46.3879 15.0334 46.2251 15.1884 45.9422H15.6884C15.483 46.4887 14.983 46.8453 14.4093 46.8453C13.6613 46.8453 13.0527 46.1825 13.0527 45.4693C13.0527 44.6282 13.6884 44.043 14.3938 44.043C15.1768 44.043 15.7737 44.6476 15.7737 45.4112C15.7737 45.4926 15.7737 45.5701 15.7582 45.6593H13.5527V45.6631ZM15.2737 45.2794C15.2349 44.8259 14.8357 44.5003 14.4093 44.5003C14.0023 44.5003 13.5915 44.822 13.5527 45.2794H15.2737Z" fill="#0079C1"/>
<path d="M16.3945 46.7788V43.2207H16.8945V46.7788H16.3945Z" fill="#0079C1"/>
<path d="M20.0687 46.3326V45.3675H19.1074V44.8675H20.0687V43.9023H20.5687V44.8675H21.5299V45.3675H20.5687V46.3326H20.0687Z" fill="#0079C1"/>
<path d="M24.7869 44.822C24.7637 44.6282 24.6513 44.5003 24.4458 44.5003C24.252 44.5003 24.1319 44.6282 24.1319 44.7833C24.1319 45.0081 24.3606 45.0779 24.628 45.1592C25.004 45.2755 25.3489 45.5003 25.3489 45.9965C25.3489 46.512 24.973 46.8453 24.4536 46.8453C23.973 46.8453 23.5117 46.5197 23.5117 45.9034H24.0117C24.035 46.2251 24.1978 46.3879 24.4652 46.3879C24.6978 46.3879 24.8489 46.2406 24.8489 46.0236C24.8489 45.8414 24.7094 45.7213 24.3954 45.6205C23.7404 45.4151 23.6319 45.1321 23.6319 44.8259C23.6319 44.3569 24.0311 44.043 24.4691 44.043C24.9109 44.043 25.2714 44.3492 25.2869 44.822H24.7869Z" fill="#0079C1"/>
<path d="M26.2198 46.7788V44.5734H25.8594V44.1161H26.2198V43.2207H26.7198V44.1161H27.1578V44.5734H26.7198V46.7788H26.2198Z" fill="#0079C1"/>
<path d="M29.6082 46.778V46.4912H29.6005C29.4726 46.716 29.1663 46.8478 28.8175 46.8478C28.2439 46.8478 27.709 46.5416 27.709 45.6036V44.1191H28.209V45.5648C28.209 46.123 28.4144 46.3904 28.8718 46.3904C29.333 46.3904 29.5695 46.0687 29.5695 45.5532V44.1152H30.0695V46.778H29.6082Z" fill="#0079C1"/>
<path d="M33.0267 46.7788V46.399H33.0189C32.8135 46.6858 32.4647 46.8447 32.0771 46.8447C31.3019 46.8447 30.6934 46.2595 30.6934 45.4765C30.6934 44.6626 31.2709 44.0424 32.0616 44.0424C32.422 44.0424 32.7631 44.1703 32.9802 44.4416H32.9879V43.2207H33.4879V46.7788H33.0267ZM32.0965 44.4998C31.5887 44.4998 31.1895 44.9261 31.1895 45.4494C31.1895 45.9494 31.5965 46.3874 32.0965 46.3874C32.6003 46.3874 33.0228 45.9726 33.0228 45.4688C33.0267 44.93 32.6585 44.4998 32.0965 44.4998Z" fill="#0079C1"/>
<path d="M34.252 43.8099V43.2246H34.752V43.8099H34.252ZM34.252 46.7789V44.1161H34.752V46.7789H34.252Z" fill="#0079C1"/>
<path d="M36.7936 46.8453C36.0455 46.8453 35.375 46.2058 35.375 45.4577C35.375 44.6437 36.0145 44.043 36.8324 44.043C37.5688 44.043 38.2587 44.6205 38.251 45.4655C38.2393 46.1786 37.6424 46.8453 36.7936 46.8453ZM36.8052 44.5003C36.3052 44.5003 35.8711 44.9228 35.8711 45.4422C35.8711 45.9461 36.2897 46.3879 36.7936 46.3879C37.3169 46.3879 37.7471 45.9732 37.7471 45.4383C37.751 44.9189 37.3324 44.5003 36.8052 44.5003Z" fill="#0079C1"/>
<path d="M23.0075 38.1828C18.5501 38.1828 16.585 34.5936 16.585 27.2448C16.585 20.1828 18.7245 16.5936 23.0075 16.5936C27.3486 16.5936 29.4338 20.1828 29.4338 27.4192C29.4338 34.5936 27.4067 38.1828 23.0075 38.1828ZM30.5346 39.8301C34.0966 37.2487 36.3176 32.7448 36.3176 27.1246C36.3176 18.6789 30.9377 12.8339 24.5152 12.8339C23.1238 12.8339 21.9067 13.175 20.5772 13.8766C24.8602 5.47735 30.8214 3.51223 30.8214 1.8882C30.8214 1.36495 30.4183 1.07812 29.7245 1.07812C28.1586 1.07812 22.3137 3.45022 17.2168 8.95022C12.1276 14.4463 9.46484 20.8146 9.46484 26.9541C9.46484 32.7138 11.7788 37.2487 15.3718 39.8301H30.5346Z" fill="#ED1C2E"/>
<path d="M23.0065 38.1829C27.4057 38.1829 29.4328 34.5937 29.4328 27.4154C29.4328 20.1829 27.3476 16.5898 23.0065 16.5898C18.7235 16.5898 16.584 20.179 16.584 27.241C16.5801 34.5937 18.5491 38.1829 23.0065 38.1829ZM23.0065 17.6364C27.8282 17.6364 28.3863 23.2178 28.3863 27.4154C28.3863 36.1286 25.3165 37.1364 23.0065 37.1364C20.5026 37.1364 17.6266 36.0123 17.6266 27.2449C17.6266 20.7798 19.3863 17.6364 23.0065 17.6364Z" fill="white"/>
<path d="M37.3676 27.1243C37.3676 18.3762 31.8404 11.7832 24.5148 11.7832C23.9606 11.7832 23.4257 11.8297 22.8947 11.9305C25.197 8.34911 27.7125 6.32585 29.4761 4.90725C30.9179 3.74833 31.8676 2.98089 31.8676 1.89175C31.8676 0.965389 31.2048 0.0351562 29.7241 0.0351562C27.8094 0.0351562 21.759 2.51578 16.4528 8.24446C11.2707 13.8336 8.41406 20.477 8.41406 26.9538C8.41406 32.26 10.3288 36.8569 13.7086 39.8297H15.3637C11.7745 37.2406 9.46057 32.7135 9.46057 26.9538C9.46057 20.8181 12.1234 14.4499 17.2164 8.95376C22.3133 3.44988 28.1583 1.07779 29.7241 1.07779C30.4179 1.07779 30.8249 1.36849 30.8249 1.88787C30.8249 3.50802 24.8598 5.47702 20.5807 13.8685C21.9102 13.1747 23.1272 12.8259 24.5187 12.8259C30.9451 12.8259 36.3288 18.6708 36.3288 27.1204C36.3288 32.7406 34.0962 37.2406 30.5381 39.8259H32.1931C35.4916 36.8879 37.3676 32.3569 37.3676 27.1243Z" fill="white"/>
<path d="M35.8914 37.5586C36.2441 37.5586 36.5271 37.8493 36.5271 38.2098C36.5271 38.5741 36.2441 38.8609 35.8836 38.8609C35.5271 38.8609 35.2402 38.5741 35.2402 38.2098C35.2402 37.8493 35.5271 37.5586 35.8836 37.5586H35.8914ZM35.8875 37.6594C35.6007 37.6594 35.3681 37.9036 35.3681 38.2059C35.3681 38.516 35.6007 38.7563 35.8914 38.7563C36.1782 38.7601 36.4108 38.5121 36.4108 38.2059C36.4108 37.8997 36.1782 37.6555 35.8914 37.6555H35.8875V37.6594ZM35.7674 38.5857H35.6511V37.8609C35.7131 37.8532 35.7674 37.8454 35.8565 37.8454C35.965 37.8454 36.0387 37.8687 36.0813 37.8997C36.124 37.9307 36.1472 37.9811 36.1472 38.0508C36.1472 38.1439 36.0852 38.202 36.0077 38.2253V38.2291C36.0697 38.2408 36.1123 38.2989 36.1278 38.4074C36.1433 38.5198 36.1627 38.5625 36.1743 38.5857H36.0542C36.0348 38.5625 36.0193 38.4966 36.0038 38.3997C35.9844 38.3067 35.9379 38.2718 35.8488 38.2718H35.7674V38.5857ZM35.7674 38.1826H35.8488C35.9457 38.1826 36.0271 38.1477 36.0271 38.0586C36.0271 37.9966 35.9805 37.9346 35.8488 37.9346C35.8139 37.9346 35.7867 37.9384 35.7674 37.9384V38.1826Z" fill="white"/>
</g>
<defs>
<clipPath id="clip0_491_893">
<rect width="40.8488" height="50" fill="white"/>
</clipPath>
</defs>
</svg>
