<svg width="167" height="50" viewBox="0 0 167 50" fill="none" xmlns="http://www.w3.org/2000/svg">
<g clip-path="url(#clip0_491_933)">
<mask id="mask0_491_933" style="mask-type:luminance" maskUnits="userSpaceOnUse" x="4" y="4" width="172" height="46">
<path d="M175.815 4.4707H4.48828V49.183H175.815V4.4707Z" fill="white"/>
</mask>
<g mask="url(#mask0_491_933)">
<mask id="mask1_491_933" style="mask-type:luminance" maskUnits="userSpaceOnUse" x="3" y="3" width="173" height="47">
<path d="M175.946 3.94727H3.49609V49.7391H175.946V3.94727Z" fill="white"/>
</mask>
<g mask="url(#mask1_491_933)">
<mask id="mask2_491_933" style="mask-type:luminance" maskUnits="userSpaceOnUse" x="82" y="45" width="57" height="5">
<path d="M135.165 45.829H135.839L137.396 47.8721V45.829H138.117V49.1464H137.495L135.887 47.0371V49.1464H135.165V45.829ZM131.032 45.829H133.538V46.4779H131.758V47.1511H133.324V47.8H131.758V48.4976H133.562V49.1464H131.032V45.829ZM126.473 45.829H127.204V47.1423H128.551V45.829H129.283V49.1464H128.551V47.8146H127.204V49.1464H126.473V45.829ZM121.87 47.497V47.4882C121.87 46.5441 122.581 45.7715 123.603 45.7715C124.229 45.7715 124.603 45.98 124.912 46.283L124.448 46.8189C124.19 46.587 123.93 46.4447 123.597 46.4447C123.037 46.4447 122.633 46.9085 122.633 47.4775V47.4882C122.633 48.0552 123.027 48.5297 123.597 48.5297C123.978 48.5297 124.21 48.3787 124.471 48.1419L124.936 48.6106C124.594 48.9759 124.215 49.2029 123.574 49.2029C122.595 49.2039 121.87 48.4498 121.87 47.497ZM118.905 46.5012H117.894V45.829H120.647V46.5012H119.635V49.1464H118.905V46.5012ZM115.618 49.1464H116.349V45.829H115.618V49.1464ZM111.168 45.829H111.899V47.2787L113.248 45.829H114.13L112.776 47.2359L114.192 49.1464H113.313L112.283 47.7337L111.898 48.1322V49.1464H111.167V45.829H111.168ZM104.132 45.829H104.807L106.364 47.8721V45.829H107.086V49.1464H106.464L104.853 47.0371V49.1464H104.132V45.829ZM101.339 47.7571L100.898 46.6815L100.456 47.7571H101.339ZM100.57 45.8046H101.244L102.668 49.1464H101.904L101.6 48.4021H100.195L99.8914 49.1464H99.1451L100.57 45.8046ZM96.9178 49.1464H97.6486V45.829H96.9178V49.1464ZM92.9944 45.829H93.726V48.4839H95.3824V49.1474H92.9944V45.829ZM90.2001 47.7571L89.7587 46.6815L89.3164 47.7571H90.2001ZM89.4314 45.8046H90.1056L91.529 49.1464H90.7642L90.4612 48.4021H89.0563L88.7523 49.1464H88.0079L89.4314 45.8046ZM85.465 46.5012H84.4537V45.829H87.207V46.5012H86.1957V49.1464H85.464V46.5012H85.465ZM82.1797 49.1474H82.9104V45.829H82.1797V49.1474Z" fill="white"/>
</mask>
<g mask="url(#mask2_491_933)">
<mask id="mask3_491_933" style="mask-type:luminance" maskUnits="userSpaceOnUse" x="4" y="3" width="172" height="47">
<path d="M175.945 3.94727H4.46875V49.7391H175.945V3.94727Z" fill="white"/>
</mask>
<g mask="url(#mask3_491_933)">
<path d="M142.989 40.9023H77.3086V54.0768H142.989V40.9023Z" fill="#9FA73A"/>
</g>
</g>
</g>
<mask id="mask4_491_933" style="mask-type:luminance" maskUnits="userSpaceOnUse" x="3" y="3" width="173" height="47">
<path d="M175.946 3.94727H3.49609V49.7391H175.946V3.94727Z" fill="white"/>
</mask>
<g mask="url(#mask4_491_933)">
<mask id="mask5_491_933" style="mask-type:luminance" maskUnits="userSpaceOnUse" x="4" y="18" width="139" height="26">
<path d="M111.857 31.4404C111.857 29.4295 110.882 27.401 108.7 27.401C105.835 27.401 105.612 30.4934 105.612 31.4404C105.612 32.3874 105.835 35.4798 108.7 35.4798C110.882 35.4808 111.857 33.4523 111.857 31.4404ZM119.196 29.8318C120.186 30.2625 121.138 30.4914 121.962 30.4914C122.589 30.4914 123.116 30.3609 123.524 30.1056C123.999 29.8075 124.239 29.3642 124.239 28.7864C124.239 28.1181 123.663 27.4019 122.398 27.4019C120.846 27.401 119.689 28.2827 119.196 29.8318ZM142.768 36.1774C142.09 36.8282 141.076 37.7246 139.45 37.7246C137.211 37.7246 135.874 36.1531 135.874 33.5234V30.0257C135.874 27.9729 135.122 27.5695 133.825 27.5695C132.103 27.5695 130.535 29.6769 130.535 31.9918V37.2316C130.535 37.3612 130.43 37.4674 130.299 37.4674H128.524C128.394 37.4674 128.289 37.3612 128.289 37.2316V34.8183C127.264 36.0878 125.571 37.7236 122.696 37.7236C120.948 37.7236 119.562 37.139 118.543 36.1472C117.83 36.9793 116.757 37.6203 115.563 37.6203C114.351 37.6203 113.354 36.8799 112.715 35.6484C111.758 36.8458 110.453 37.7246 108.699 37.7246C105.459 37.7246 103.363 35.2587 103.363 31.4414C103.363 27.6241 105.458 25.1572 108.699 25.1572C110.069 25.1572 111.095 25.6609 111.982 26.3965V19.6914C111.982 19.5608 112.086 19.4546 112.218 19.4546H113.991C114.122 19.4546 114.228 19.5608 114.228 19.6914V32.4186C114.228 34.3 114.729 35.3736 115.655 35.3736C116.374 35.3736 116.865 34.8115 117.277 34.3477C116.957 33.5332 116.707 32.6173 116.707 31.4414C116.707 27.8004 119.1 25.1572 122.398 25.1572C125.053 25.1572 126.485 27.0268 126.485 28.7864C126.485 30.13 125.842 31.303 124.717 32.0074C123.944 32.4907 123.016 32.7362 121.959 32.7362C121.027 32.7362 120.031 32.5462 118.996 32.1682C119.157 33.5507 119.871 35.4818 122.607 35.4818C126.054 35.4818 127.795 32.5355 128.288 31.1647V25.7057C128.288 25.5761 128.393 25.4699 128.523 25.4699H130.298C130.429 25.4699 130.534 25.5761 130.534 25.7057V26.7121C131.469 25.8499 132.615 25.3267 133.824 25.3267C135.428 25.3267 138.119 25.9366 138.119 30.0257V33.5234C138.119 35.4818 139.017 35.4818 139.448 35.4818C140.323 35.4818 140.908 34.8845 141.692 34.0759C141.749 34.0155 141.827 33.9814 141.91 33.995C141.992 34.0077 142.061 34.0612 142.092 34.1382L142.818 35.9231C142.856 36.0098 142.838 36.1121 142.768 36.1774ZM88.4312 31.4404C88.4312 29.4938 87.4433 27.401 85.2745 27.401C82.4081 27.401 82.186 30.4934 82.186 31.4404C82.186 32.3874 82.4081 35.4798 85.2745 35.4798C87.4443 35.4808 88.4312 33.3851 88.4312 31.4404ZM110.584 41.3987C110.55 41.46 110.49 41.5039 110.421 41.5185C109.554 41.6948 108.714 41.7835 107.924 41.7835C105.955 41.7835 104.264 41.2486 102.901 40.1935C100.77 38.5459 99.6424 35.7896 99.6424 32.2247V28.651C99.6424 28.3421 99.583 28.1229 99.47 28.0177C99.2917 27.8491 99.0773 27.8287 98.6448 27.8511C97.6315 27.9105 96.7264 27.7761 95.9625 27.5549C96.0814 28.5253 96.1408 29.6457 96.1408 30.8548C96.1408 35.4136 94.8431 37.7246 92.2826 37.7246C91.4369 37.7246 90.1129 37.3047 89.2506 35.6493C88.287 36.839 87.037 37.7236 85.2745 37.7236C82.033 37.7236 79.9393 35.2577 79.9393 31.4404C79.9393 27.6231 82.033 25.1562 85.2745 25.1562C86.5265 25.1562 87.6421 25.58 88.5296 26.3215V25.6882C88.5296 25.5576 88.6349 25.4524 88.7644 25.4524H90.5396C90.6702 25.4524 90.7764 25.5576 90.7764 25.6882V32.1429C90.7764 33.389 90.9712 35.4818 92.2816 35.4818C93.6836 35.4818 93.8922 32.5832 93.8922 30.8558C93.8922 27.9573 93.556 26.5621 93.1507 25.1601C93.1147 25.0373 93.1838 24.9068 93.3076 24.8688L95.0633 24.329C95.1802 24.2949 95.3049 24.3524 95.3516 24.4654C95.6683 25.2371 96.5588 25.6278 97.9998 25.6278C98.1615 25.6278 98.333 25.6229 98.5132 25.6122C99.5431 25.5518 100.411 25.8207 101.009 26.3858C101.41 26.7618 101.886 27.4614 101.886 28.652V32.2257C101.886 35.0716 102.712 37.2131 104.274 38.4202C105.233 39.1627 106.462 39.5378 107.928 39.5378C108.472 39.5378 109.051 39.4842 109.65 39.3809C109.76 39.3604 109.869 39.4208 109.911 39.5231L110.593 41.197C110.621 41.2623 110.616 41.3363 110.584 41.3987ZM78.4554 28.122H76.6812C76.5517 28.122 76.4445 28.2272 76.4445 28.3587C76.4445 32.0221 74.2669 35.7292 70.1038 35.7292C66.647 35.7292 64.4129 33.1795 64.4129 29.2317C64.4129 25.6375 66.4385 21.7686 70.8852 21.7686C72.559 21.7686 74.5134 22.5149 74.5134 24.6194C74.5134 25.6394 73.9279 26.5572 72.9468 27.0726C72.8406 27.1291 72.7928 27.2558 72.8376 27.3688L73.4914 29.03C73.5167 29.0904 73.5645 29.1372 73.6249 29.1625C73.6853 29.1859 73.7535 29.1839 73.8129 29.1567C75.6592 28.2827 76.7602 26.5865 76.7602 24.6194C76.7602 21.6195 74.3439 19.5248 70.8842 19.5248C64.8932 19.5248 62.1643 24.557 62.1643 29.2317C62.1643 34.4597 65.3551 37.973 70.1018 37.973C73.1329 37.973 75.2159 36.3694 76.4425 34.5533V36.8029C76.4425 41.4912 74.4131 41.5078 73.546 41.5078C72.8659 41.5078 72.2579 41.272 71.7386 40.8092C71.6821 40.7576 71.6022 40.7391 71.5272 40.7537C71.4522 40.7722 71.3898 40.8238 71.3616 40.8959L70.6698 42.5951C70.6289 42.6974 70.662 42.8153 70.7527 42.8786C71.5828 43.4573 72.521 43.7516 73.546 43.7516C75.8921 43.7516 78.6893 42.5493 78.6893 36.8205V28.461C78.6893 28.4571 78.6873 28.4552 78.6873 28.4513C78.6883 28.4201 78.6893 28.3889 78.6893 28.3587C78.6922 28.2272 78.586 28.122 78.4554 28.122ZM51.6721 29.2151C52.5626 29.6682 53.4424 29.8854 54.2851 29.8854C55.1951 29.8854 56.7355 29.5512 56.7355 28.2993C56.7355 26.9353 55.2253 26.83 54.7616 26.83C53.3956 26.83 52.2761 27.703 51.6721 29.2151ZM60.1884 35.4409C59.216 36.3674 57.6055 37.5989 54.8492 37.5989C51.4071 37.5989 49.0035 35.1008 49.0035 31.4492C49.0035 31.0429 49.0376 30.5918 49.097 30.1865C48.5806 29.8231 47.8752 29.2054 47.4417 28.7543C47.1669 31.7268 45.5779 34.6137 43.412 37.3709C43.3652 37.4294 43.297 37.4664 43.222 37.4664H41.3689C41.2656 37.4664 41.1731 37.3982 41.1429 37.2988C39.3044 31.3108 36.9485 27.0473 36.2704 25.884C36.2276 25.8109 36.2276 25.7213 36.2695 25.6482C36.3113 25.5742 36.3903 25.5284 36.475 25.5284H38.5123C38.599 25.5284 38.6789 25.5761 38.7198 25.6521C39.5596 27.1886 41.175 30.5528 42.6433 34.8202C45.0547 31.4696 45.7659 28.424 44.8179 25.8781C44.7955 25.8177 44.7984 25.7495 44.8277 25.6921C44.8569 25.6336 44.9085 25.5898 44.9699 25.5703L46.7343 25.0286C46.8376 24.9984 46.9438 25.0422 47.0052 25.1299C47.7281 26.1519 48.8184 27.2841 49.7478 27.9924C50.7621 25.8704 52.5548 24.5872 54.7635 24.5872C57.2489 24.5872 58.9842 26.1149 58.9842 28.3012C58.9842 30.5557 57.0541 32.1312 54.2881 32.1312C53.2894 32.1312 52.2693 31.8769 51.2522 31.4433C51.2638 33.4036 52.3775 35.3561 54.8522 35.3561C57.0473 35.3561 58.1677 34.3516 59.1274 33.3227C59.1829 33.2643 59.2638 33.237 59.3437 33.2526C59.4226 33.2672 59.4888 33.3208 59.52 33.3948L60.2478 35.1827C60.28 35.2713 60.2576 35.3727 60.1884 35.4409ZM12.8688 37.9243C12.9692 37.9243 13.0696 37.9224 13.1709 37.9195C15.6573 37.8396 17.751 36.8302 19.2242 34.9975C20.6885 33.1756 21.4154 30.696 21.3228 27.8258C21.1406 22.1096 18.2518 18.4151 13.964 18.4151C13.8792 18.4151 13.7925 18.417 13.7067 18.4199C12.4499 18.4599 11.3675 18.8808 10.5754 19.6378C9.75987 20.4163 9.33216 21.5006 9.37113 22.6903C9.41302 24.026 10.1126 25.2098 11.2389 25.8567C11.6656 26.1032 12.3827 26.3955 13.3706 26.3955C14.2475 26.3955 15.1877 26.1656 16.1659 25.7135C16.2799 25.6599 16.3325 25.5274 16.2857 25.4105L15.6154 23.7669C15.592 23.7064 15.5423 23.6587 15.4819 23.6353C15.4215 23.6119 15.3543 23.6139 15.2948 23.6431C14.0965 24.2131 13.053 24.3115 12.3603 23.913C11.9053 23.6519 11.6344 23.1803 11.6159 22.6182C11.5984 22.0657 11.7767 21.5952 12.1284 21.258C12.5132 20.8898 13.0832 20.6842 13.7779 20.6618C13.8344 20.6598 13.8889 20.6589 13.9445 20.6589C16.9219 20.6589 18.9368 23.5009 19.0761 27.8988C19.1491 30.1719 18.6211 32.1049 17.5503 33.4893C16.4893 34.8611 14.9509 35.6182 13.0988 35.6766C13.0228 35.6786 12.938 35.6864 12.8737 35.6805C8.79727 35.6805 6.82725 32.1399 6.723 28.8536C6.62752 25.8801 7.80446 23.9111 8.51278 23.003C8.56539 22.9358 8.57708 22.8461 8.5459 22.7692L7.80154 20.9395C7.77134 20.8664 7.70703 20.8138 7.62909 20.7972C7.5531 20.7816 7.4732 20.804 7.41572 20.8596C6.89837 21.3662 4.32428 24.1371 4.47725 28.9248C4.64677 34.221 8.09675 37.9234 12.8688 37.9243ZM24.9715 31.2183C25.9673 29.2502 26.9873 25.8177 26.9873 22.8763C26.9873 21.1246 26.3862 20.2458 26.0481 20.2458C25.5269 20.2458 24.9667 21.2688 24.9667 23.5165V30.8013C24.9667 30.9416 24.9686 31.0809 24.9715 31.2183ZM39.3921 36.2544C38.4265 37.1478 37.3344 37.5999 36.1418 37.5999C35.2747 37.5999 33.6525 37.3242 32.6149 35.6211C31.6289 36.5866 30.0953 37.5999 27.8876 37.5999C25.5298 37.5999 22.7199 36.2992 22.7199 30.1007V23.5165C22.7199 18.5407 25.0475 18.002 26.0481 18.002C27.6353 18.002 29.235 19.5092 29.235 22.8763C29.235 28.0917 26.5538 32.5034 25.6048 33.8976C26.3034 35.3561 27.3693 35.3561 27.8876 35.3561C30.0856 35.3561 31.3444 33.8255 31.7877 33.16C31.699 32.592 31.6493 31.9539 31.6493 31.2348V25.7642C31.6493 25.6346 31.7546 25.5284 31.8861 25.5284H33.6593C33.7908 25.5284 33.897 25.6346 33.897 25.7642V31.2348C33.897 33.9687 34.6511 35.3551 36.1418 35.3551C37.1492 35.3551 37.9024 34.6604 38.3554 34.0768C38.4071 34.0106 38.4908 33.9755 38.5746 33.9882C38.6584 34.0008 38.7305 34.0554 38.7617 34.1343C39.0384 34.8232 39.2713 35.4535 39.4544 36.0059C39.4846 36.0936 39.4603 36.1911 39.3921 36.2544ZM31.4944 22.3726C31.4944 21.6614 32.0722 21.0836 32.7854 21.0836C33.4986 21.0836 34.0763 21.6614 34.0763 22.3726C34.0763 23.0848 33.4995 23.6616 32.7854 23.6616C32.0722 23.6616 31.4944 23.0858 31.4944 22.3726Z" fill="white"/>
</mask>
<g mask="url(#mask5_491_933)">
<mask id="mask6_491_933" style="mask-type:luminance" maskUnits="userSpaceOnUse" x="4" y="3" width="172" height="47">
<path d="M175.947 3.94922H4.4707V49.7411H175.947V3.94922Z" fill="white"/>
</mask>
<g mask="url(#mask6_491_933)">
<path d="M147.711 13.1289H-0.400391V48.6225H147.711V13.1289Z" fill="#452D20"/>
</g>
</g>
</g>
<mask id="mask7_491_933" style="mask-type:luminance" maskUnits="userSpaceOnUse" x="3" y="3" width="173" height="47">
<path d="M175.946 3.94727H3.49609V49.7391H175.946V3.94727Z" fill="white"/>
</mask>
<g mask="url(#mask7_491_933)">
<mask id="mask8_491_933" style="mask-type:luminance" maskUnits="userSpaceOnUse" x="123" y="4" width="53" height="36">
<path d="M154.03 33.9735C154.014 33.9569 153.988 33.9365 153.964 33.9219C153.781 33.8001 153.55 33.7212 153.305 33.7065C152.708 33.6724 152.113 34.0134 151.79 34.5707C151.776 34.5941 151.782 34.6282 151.803 34.6399C151.976 34.7471 152.023 34.7968 152.161 34.9361C152.169 34.9429 152.182 34.9468 152.193 34.9478C152.196 34.9488 152.199 34.9488 152.202 34.9478C152.217 34.9458 152.23 34.938 152.24 34.9273C152.561 34.523 153.204 34.1196 153.84 34.1265C153.84 34.1265 153.875 34.1265 153.878 34.1274C154.05 34.1401 154.106 34.0553 154.03 33.9735ZM150.986 27.8871C150.429 26.7394 149.862 25.7524 149.31 24.7976C148.444 23.2991 147.551 21.749 146.676 19.5354C146.663 19.5091 146.635 19.4945 146.609 19.5033C146.582 19.512 146.566 19.5393 146.571 19.5666C146.582 19.6221 147.662 24.9671 150.762 27.9972C150.922 28.1501 151.075 28.0829 150.986 27.8871ZM134.383 19.4029C134.382 19.3747 134.361 19.3523 134.333 19.3503C133.441 19.2597 132.625 19.1944 131.839 19.1516C129.793 19.0415 128.316 19.1019 126.606 19.172C126.231 19.1876 125.847 19.2032 125.447 19.2168C125.42 19.2178 125.395 19.2402 125.394 19.2685C125.392 19.2967 125.413 19.3221 125.441 19.326C126.49 19.4867 127.573 19.5968 128.656 19.6553C131.987 19.8355 134.314 19.4624 134.337 19.4585C134.364 19.4546 134.383 19.4312 134.383 19.4029ZM133.359 13.5747C132.711 12.9774 129.929 10.5778 125.839 9.45732C125.811 9.4505 125.784 9.46414 125.774 9.49045C125.764 9.51578 125.772 9.54501 125.797 9.55865C126.463 9.9396 127.149 10.3537 127.874 10.7911C129.667 11.8726 131.52 12.9882 133.319 13.7462C133.47 13.7988 133.466 13.675 133.359 13.5747ZM140.471 16.3651C140.264 14.5694 139.917 12.9336 139.55 11.1994C139.29 9.9776 139.023 8.71199 138.798 7.34992C138.793 7.32264 138.766 7.30316 138.741 7.3051C138.714 7.30608 138.692 7.32849 138.691 7.35674C138.462 12.7943 140.353 16.3612 140.372 16.3962C140.382 16.4148 140.398 16.4245 140.417 16.4245C140.424 16.4245 140.431 16.4245 140.435 16.4235C140.46 16.4148 140.475 16.3894 140.471 16.3651ZM153.237 17.5635C153.237 17.5518 153.234 17.5401 153.228 17.5303C153.154 17.2819 152.199 14.2879 148.162 11.5511C148.139 11.5345 148.106 11.5394 148.089 11.5618C148.07 11.5842 148.073 11.6173 148.095 11.6368C149.367 12.7923 150.376 14.0881 151.544 15.5876C152.042 16.2248 152.556 16.8844 153.136 17.5956C153.147 17.6083 153.161 17.6151 153.176 17.6161H153.179C153.209 17.6161 153.235 17.5927 153.237 17.5635ZM155.998 9.56449C155.745 9.31995 155.44 9.1816 155.11 9.16406C154.582 9.1358 154.096 9.42127 153.845 9.90939C153.833 9.9318 153.839 9.96493 153.857 9.97662C154.044 10.1013 154.06 10.1189 154.206 10.2806C154.214 10.2903 154.227 10.2942 154.239 10.2942C154.242 10.2942 154.246 10.2942 154.249 10.2942C154.265 10.2923 154.277 10.2835 154.286 10.2718C154.545 9.91816 155.099 9.57521 155.656 9.60639C155.754 9.61126 155.852 9.6288 155.943 9.65803C155.966 9.66387 155.995 9.6551 156.007 9.63367C156.02 9.60931 156.016 9.58203 155.998 9.56449ZM161.917 10.9782C163.126 10.3537 164.122 9.81586 165.169 9.2498C166.464 8.55025 167.803 7.82733 169.668 6.87447C169.693 6.86083 169.704 6.83355 169.693 6.80724C169.685 6.78191 169.657 6.76632 169.632 6.77119C169.592 6.77996 165.728 7.6159 161.81 10.7892C161.618 10.947 161.729 11.0756 161.917 10.9782ZM160.594 17.2263C161.84 17.0812 164.619 16.5775 167.615 14.8481C167.638 14.8335 167.647 14.8062 167.636 14.7818C167.626 14.7585 167.599 14.7448 167.572 14.7526C166.75 15.0108 165.928 15.2933 165.054 15.5915C163.58 16.0952 162.065 16.6135 160.549 17.014H160.55C160.209 17.1016 160.213 17.2751 160.594 17.2263ZM161.736 26.2736C161.656 25.1971 161.571 24.0844 161.553 22.5538C161.553 22.5255 161.532 22.5012 161.503 22.5002C161.474 22.4992 161.45 22.5197 161.445 22.547C160.775 27.3804 161.377 30.2877 161.628 31.2153C161.674 31.3741 161.839 31.4014 161.85 31.1714C161.949 29.0708 161.847 27.7088 161.736 26.2736ZM175.554 39.6838C175.299 39.715 175.045 39.7384 174.792 39.7559C172.688 39.906 170.578 39.8085 168.505 39.4549C166.434 39.0993 164.401 38.4874 162.498 37.5657C160.837 36.759 159.271 35.7068 157.95 34.3866C156.618 34.1713 155.695 34.3359 155.275 34.448C155.423 34.9848 155.376 35.5012 155.136 35.9474C154.88 36.4219 154.428 36.7775 153.831 36.9734C153.514 37.0757 153.199 37.1195 152.889 37.1039C152.009 37.0562 151.32 36.533 151.046 35.7029C150.871 35.168 150.904 34.6331 151.146 34.1576C151.41 33.6344 151.902 33.234 152.533 33.0275C152.848 32.9242 153.16 32.8803 153.457 32.895C154.289 32.9378 154.742 33.4678 154.868 33.6305C154.876 33.6413 154.884 33.651 154.89 33.6617C154.961 33.765 155.039 33.8264 155.23 33.7806C155.824 33.6374 156.568 33.6042 156.921 33.6218C157.162 33.6344 157.211 33.6003 157.032 33.3763C156.676 32.9602 156.051 32.0191 156.005 31.9382C155.897 31.7667 155.557 31.4627 155.234 31.3195H155.236C154.135 30.8217 152.907 30.1523 152.09 29.5882C150.379 29.3631 148.903 28.536 147.718 26.9751C146.794 25.7592 146.144 24.2013 145.799 22.4593C144.612 22.2712 143.426 22.0364 142.259 21.6779C141.873 21.559 141.431 21.3993 141.082 21.2628C140.575 21.066 139.646 20.6831 139.226 20.5594C138.178 20.2847 137.145 20.0615 136.142 19.8862C133.389 20.9813 131.11 21.4421 129.024 21.3291C127.016 21.221 125.162 20.5838 123.37 19.3844C123.011 19.136 123.202 18.9119 123.486 18.8028C126.333 17.7495 128.781 17.2936 130.953 17.4105C133.026 17.5216 134.888 18.1451 136.635 19.3084C137.158 19.4049 137.689 19.515 138.226 19.6368C137.975 19.4419 137.73 19.2412 137.498 19.0259C136.352 17.9668 135.463 16.6885 134.754 15.3362C134.545 14.9494 134.331 14.8286 134.056 14.8042H134.057C128.986 14.3054 127.214 12.6891 123.286 8.5181C123.271 8.50349 123.266 8.47913 123.275 8.46062C123.284 8.44016 123.301 8.42749 123.324 8.42554C123.795 8.40411 124.277 8.40703 124.753 8.43334C129.618 8.6964 133.889 11.2841 135.018 14.6191C135.794 16.0708 136.764 17.4193 137.993 18.4744C138.846 19.2149 139.825 19.7878 140.864 20.2184C141.114 20.309 141.314 20.2165 141.189 19.9446C140.965 19.4458 140.757 18.8934 140.562 18.2981C137.342 13.488 136.092 9.82073 138.554 4.50498C138.566 4.4855 138.585 4.47283 138.607 4.47283C138.627 4.47088 138.648 4.4855 138.656 4.50596C140.881 9.3784 142.875 14.739 141.163 18.0097C141.513 19.097 141.907 20.0421 142.345 20.7299C142.404 20.7474 142.462 20.766 142.522 20.7815C143.534 21.0524 144.574 21.2307 145.628 21.3671C145.46 19.9661 145.475 18.4754 145.694 16.9643C145.698 16.9428 145.713 16.9253 145.734 16.9194C145.754 16.9136 145.776 16.9204 145.79 16.937C149.708 21.4957 151.812 25.3257 152.362 28.915C153.01 29.3924 153.752 29.8513 154.604 30.2848C154.874 30.4241 155.151 30.2926 154.996 29.9068C154.951 29.7947 154.603 28.836 154.471 28.1969C154.355 27.624 154.267 27.1281 154.214 26.6312C154.155 26.0954 154.127 25.0265 154.134 24.7723C154.145 24.3816 154.146 24.0162 154.159 23.6937C153.863 23.6343 152.947 23.4687 152.789 23.4423C152.196 23.341 151.631 23.2533 151.033 23.1695C150.838 22.813 150.547 22.3092 150.244 21.8299C151.167 21.9186 152.061 22.014 152.985 22.1378C153.409 22.1933 153.832 22.2586 154.257 22.3278C154.269 22.2108 154.277 22.0959 154.293 21.979C154.328 21.6779 154.374 21.3768 154.426 21.0768C154.285 20.3412 153.928 19.515 153.435 18.6576C150.79 18.4393 149.072 15.1803 147.255 11.7284C146.954 11.1604 146.646 10.5739 146.332 9.99903C146.321 9.97954 146.323 9.95713 146.337 9.9396C146.349 9.92206 146.372 9.91427 146.393 9.91914C148.716 10.4579 150.784 11.6719 152.219 13.336C153.562 14.8958 154.187 16.6535 153.995 18.3195C154.138 18.5689 154.379 19.0366 154.379 19.0366C154.552 19.398 154.78 19.4419 154.896 19.0648C155.084 18.4471 155.477 17.3511 155.939 16.4888C156.211 14.8247 155.758 13.2532 155.588 12.7407C155.388 12.7884 155.188 12.8099 154.993 12.7992C154.182 12.7543 153.528 12.2321 153.198 11.3621C152.964 10.7473 152.969 10.114 153.208 9.58106C153.428 9.09586 153.82 8.73537 154.343 8.53856C154.628 8.43042 154.914 8.38365 155.198 8.39924C156.024 8.44308 156.743 9.01694 157.076 9.89575C157.479 10.9548 157.152 11.9476 156.298 12.4533C156.224 12.4971 156.229 12.5731 156.241 12.615C156.354 12.9706 156.59 13.7004 156.676 14.9621C156.684 15.0771 156.753 15.1365 156.835 15.0137C157.112 14.5958 158.452 12.8644 160.267 11.6388C161.167 9.97175 162.601 8.46257 164.335 7.35967C166.751 5.82515 169.588 5.20647 172.457 5.59132C172.478 5.59327 172.496 5.60886 172.502 5.63029C172.509 5.65075 172.502 5.67219 172.486 5.68778C168.93 8.84644 164.9 12.4279 161.359 12.238C161.093 12.2233 160.83 12.1844 160.575 12.1269C159.031 13.297 157.742 14.7711 156.865 16.4674C156.659 16.862 156.479 17.2682 156.317 17.6794C156.856 17.5868 157.403 17.4787 157.951 17.3598C158.23 17.2955 158.557 17.1737 158.905 16.86C161.661 14.2966 163.747 14.1028 169.889 13.5562L169.978 13.5494C170.066 13.5416 170.135 13.563 170.169 13.6029C170.203 13.6439 170.2 13.7052 170.142 13.7754C168.512 15.7454 164.306 18.4101 160.004 18.1782C159.447 18.148 158.9 18.0662 158.374 17.9405C157.792 18.0711 157.213 18.1899 156.64 18.2903C156.351 18.34 156.052 18.3955 155.94 18.7735C155.618 19.8491 155.42 20.9647 155.329 22.0881C155.248 23.0653 155.242 24.0513 155.293 25.0353C155.337 26.0252 155.455 26.9673 155.71 27.892C156.204 29.7382 157.188 31.4199 158.512 32.7829C159.461 33.765 160.573 34.5844 161.775 35.2547C161.993 35.357 162.196 35.2781 162.097 34.9653C162.018 34.7198 161.713 33.6958 161.575 32.8336C160.281 30.9249 159.467 28.2719 159.705 25.4728C159.091 25.1815 158.46 24.9213 157.815 24.6933C157.125 24.4449 156.419 24.2364 155.706 24.0532C155.701 23.6031 155.705 23.0994 155.731 22.5996C156.593 22.7818 157.452 23 158.295 23.2709C158.854 23.4472 159.411 23.6499 159.957 23.8749C160.26 22.5645 160.812 21.2473 161.668 19.9807C161.742 19.891 161.834 19.8589 161.881 20.0274V20.0284C163.175 24.7888 164.593 30.1182 162.271 32.9349C162.51 34.1927 162.815 35.1183 163.132 35.8013C163.185 35.9075 163.248 35.9805 163.377 36.0419C165.1 36.7765 166.936 37.252 168.801 37.4975C170.607 37.7333 172.525 37.7577 174.331 37.5764C175.056 37.5053 175.182 37.6057 175.363 38.0821C175.479 38.3861 175.712 38.9239 175.788 39.1782C175.869 39.4481 175.774 39.6575 175.554 39.6838ZM163.877 26.0203C164.06 27.0862 164.095 27.8013 164.114 28.4863C164.753 29.1244 165.285 29.8181 165.788 30.5693C166.283 31.3039 166.692 32.0902 167.066 32.8969C167.205 33.197 167.359 33.3051 167.677 33.2223C167.993 33.1385 168.971 32.8803 168.971 32.8803C169.099 32.8307 169.141 32.7537 169.079 32.5978C168.543 31.2942 168.147 30.6658 167.31 29.5073C166.349 28.1696 165.199 26.9898 163.877 26.0203Z" fill="white"/>
</mask>
<g mask="url(#mask8_491_933)">
<mask id="mask9_491_933" style="mask-type:luminance" maskUnits="userSpaceOnUse" x="4" y="3" width="172" height="47">
<path d="M175.947 3.94922H4.4707V49.7411H175.947V3.94922Z" fill="white"/>
</mask>
<g mask="url(#mask9_491_933)">
<path d="M180.688 -0.398438H118.305V44.6958H180.688V-0.398438Z" fill="#9FA73A"/>
</g>
</g>
</g>
</g>
<mask id="mask10_491_933" style="mask-type:luminance" maskUnits="userSpaceOnUse" x="129" y="34" width="3" height="3">
<path d="M129.666 35.6902C129.666 34.4991 131.455 34.4991 131.455 35.6902C131.455 36.884 129.666 36.884 129.666 35.6902ZM131.244 35.6902C131.244 34.7405 129.876 34.7405 129.876 35.6902C129.876 36.6399 131.244 36.6337 131.244 35.6902ZM130.96 36.0819V36.1105H130.779L130.584 35.8253H130.435V36.1105H130.262V35.2628H130.626C130.805 35.2628 130.938 35.3638 130.938 35.5516C130.938 35.6688 130.874 35.7698 130.756 35.8011L130.96 36.0819ZM130.435 35.6822H130.61C130.698 35.6822 130.763 35.6294 130.763 35.5498C130.763 35.4747 130.702 35.4175 130.61 35.4175H130.435V35.6822Z" fill="white"/>
</mask>
<g mask="url(#mask10_491_933)">
<path d="M135.926 30.3262H125.195V41.0571H135.926V30.3262Z" fill="#9FA73A"/>
</g>
</g>
<defs>
<clipPath id="clip0_491_933">
<rect width="166.211" height="50" fill="white"/>
</clipPath>
</defs>
</svg>
