<svg width="50" height="50" viewBox="0 0 50 50" fill="none" xmlns="http://www.w3.org/2000/svg">
<g clip-path="url(#clip0_491_982)">
<mask id="mask0_491_982" style="mask-type:luminance" maskUnits="userSpaceOnUse" x="0" y="0" width="50" height="50">
<path d="M0.0566406 0.185547H49.853V49.9823H0.0566406V0.185547Z" fill="white"/>
</mask>
<g mask="url(#mask0_491_982)">
<path fill-rule="evenodd" clip-rule="evenodd" d="M49.853 25.0846C49.853 38.8351 38.7053 49.9823 24.9553 49.9823C11.2043 49.9823 0.0566406 38.8355 0.0566406 25.0846C0.0566406 11.3333 11.2043 0.185547 24.9557 0.185547C38.7057 0.185547 49.853 11.3333 49.853 25.0846Z" fill="white"/>
</g>
<path fill-rule="evenodd" clip-rule="evenodd" d="M48.3258 25.0859C48.3258 37.9924 37.8625 48.4552 24.9561 48.4552C12.0492 48.4552 1.58594 37.9919 1.58594 25.0859C1.58594 12.1786 12.0492 1.71484 24.9561 1.71484C37.8625 1.71484 48.3258 12.1781 48.3258 25.0859Z" fill="white"/>
<path fill-rule="evenodd" clip-rule="evenodd" d="M40.8654 25.0858C40.8654 33.8729 33.7416 40.9963 24.9544 40.9963C16.1668 40.9963 9.04297 33.8725 9.04297 25.0858C9.04297 16.2977 16.1668 9.17383 24.9544 9.17383C33.7416 9.17383 40.8654 16.2977 40.8654 25.0858Z" fill="#D02C2F"/>
<path fill-rule="evenodd" clip-rule="evenodd" d="M33.5824 21.6177C34.2866 23.3742 34.6031 25.4109 34.6173 27.2976C34.6173 27.2976 34.609 27.6554 35.2934 27.6659C35.5944 27.6595 35.8577 27.5044 35.9586 27.4366C36.4893 27.0645 36.9769 26.2962 36.9829 25.0187V25.0159L36.9824 24.9985C36.9824 24.9425 36.981 24.8879 36.9801 24.8329C36.937 23.0687 36.2599 21.6494 35.8806 20.9884C35.8178 20.878 35.7513 20.7699 35.681 20.6641C35.6572 20.6278 35.6329 20.5934 35.6077 20.5572C34.7156 19.3244 33.64 18.2355 32.4182 17.3283C32.2517 17.7223 32.0008 18.1274 31.6485 18.5366C32.4512 19.454 33.104 20.426 33.5824 21.6177ZM31.7196 22.0563C31.6384 17.6957 28.0788 14.1856 23.6989 14.1856H23.6824C22.6321 14.1808 21.591 14.3815 20.6177 14.7765C20.6104 14.7797 20.6021 14.7815 20.5948 14.7852C19.5238 15.2239 18.5597 15.8879 17.7677 16.732L17.7632 16.7375C17.2887 17.242 16.8817 17.8059 16.5521 18.415C16.5416 18.4343 16.5301 18.4535 16.5196 18.4746C16.5157 18.4814 16.5123 18.4884 16.5095 18.4957C16.3531 18.8122 15.5792 20.4742 15.5866 22.6517C15.5866 22.6517 15.5315 24.0888 16.4632 25.7274C16.7045 26.1681 16.9975 26.5785 17.3361 26.9499L17.3572 26.9737C17.3902 27.0095 17.4246 27.0443 17.4586 27.0792C18.1214 27.7902 18.9732 28.2297 19.8531 29.0636C19.954 29.1613 20.0572 29.2632 20.1544 29.3503C20.3636 29.5223 20.4677 29.6063 20.7159 29.7402C20.7176 29.7423 20.7198 29.7439 20.7223 29.7448L20.7232 29.7453V29.7466L20.765 29.7682C20.8959 29.8363 21.0307 29.8967 21.1687 29.9489C21.6008 30.1141 22.0953 30.2132 22.6228 30.2274C22.6751 30.2288 22.7274 30.2288 22.7788 30.2288C24.1333 30.2288 25.2572 29.5774 26.3797 28.9554C26.7602 28.7469 27.145 28.5464 27.5338 28.354C27.786 28.2336 28.0357 28.1081 28.2829 27.9778L28.7714 27.6875C32.0136 25.72 31.7196 22.0563 31.7196 22.0563Z" fill="white"/>
<path fill-rule="evenodd" clip-rule="evenodd" d="M16.5537 18.415C16.8831 17.8058 17.2902 17.2419 17.7647 16.7375C17.7661 16.7356 17.7674 16.7333 17.7693 16.732C18.5611 15.888 19.525 15.224 20.5959 14.7852C20.6032 14.7815 20.6115 14.7797 20.6188 14.776L20.6202 14.7746C20.2807 14.0205 19.5894 13.204 18.5124 13.0416C16.3101 12.7113 13.3509 15.3581 16.5073 18.4976L16.5105 18.4957C16.5134 18.4883 16.5168 18.4811 16.5206 18.4742C16.5312 18.4535 16.5427 18.4347 16.5537 18.415ZM37.7642 26.9297V26.9251L37.7651 26.9242C37.7632 26.7565 37.7576 26.5888 37.7482 26.4214C37.7338 26.1487 37.7094 25.8767 37.6748 25.6058L37.6734 25.5994C37.6615 25.5058 37.6477 25.4113 37.6321 25.3187C37.6083 25.1641 37.5816 25.0118 37.5523 24.8645C37.4614 24.4302 37.3428 24.0021 37.1972 23.5829C36.844 22.5627 36.355 21.6521 35.8193 20.8581C35.7635 20.7775 35.7073 20.6972 35.6505 20.6173L35.6853 20.6687C35.7307 20.7361 35.7986 20.8439 35.8817 20.9884C36.261 21.6494 36.9381 23.0682 36.9812 24.8324C36.9821 24.8875 36.9835 24.9425 36.9835 24.9985L36.9839 25.0159V25.0187C36.9775 26.2962 36.4904 27.0645 35.9592 27.4361C35.8587 27.5044 35.5954 27.6595 35.2945 27.6654C34.6101 27.6549 34.6183 27.2976 34.6183 27.2976C34.6041 25.4109 34.2876 23.3742 33.5835 21.6177C33.105 20.426 32.4523 19.454 31.6495 18.5365C32.0018 18.1274 32.2528 17.7223 32.4193 17.3283C33.4592 14.8659 31.1647 12.9544 29.2725 13.1742C28.4349 13.2719 27.5211 14.0017 26.9317 14.8636C29.7092 16.087 31.6606 18.8407 31.7206 22.0563C31.7206 22.0563 32.0142 25.72 28.7725 27.6875C28.7413 27.7064 28.7104 27.7259 28.6798 27.7457L28.6431 27.7687L28.5303 27.8361L28.5165 27.8443L28.3991 27.9132L28.3945 27.915C28.3578 27.937 28.3202 27.9576 28.2839 27.9783C28.2787 27.9813 28.2734 27.9841 28.2679 27.9865L28.2619 27.9902C28.2578 27.9916 28.2539 27.9936 28.2505 27.9962L28.2445 27.9994L28.233 28.0054L28.2266 28.0086C28.2227 28.0107 28.2187 28.0127 28.2147 28.0145L28.2083 28.0182C28.2041 28.0206 28.1998 28.0227 28.1954 28.0246C28.1931 28.026 28.1917 28.0274 28.1899 28.0278L28.1514 28.048C28.1495 28.0491 28.1475 28.0499 28.1454 28.0503C28.1407 28.0532 28.1358 28.0558 28.1307 28.0581L28.1243 28.0618C28.1171 28.0651 28.11 28.0688 28.1032 28.0728L28.0885 28.0801L28.0821 28.0829L28.0651 28.0921C28.0637 28.0925 28.0623 28.0931 28.061 28.0939C28.0472 28.1017 28.0321 28.109 28.0165 28.1168L28.0119 28.1191C28.006 28.1219 28.0002 28.1248 27.9945 28.1278L27.9876 28.1306C27.9802 28.1349 27.9725 28.1389 27.9647 28.1425C27.9592 28.1453 27.9532 28.148 27.9472 28.1517L27.9417 28.1544L27.9206 28.1645L27.9188 28.1659L27.8697 28.1898L27.867 28.1916C27.8601 28.1943 27.8532 28.1985 27.8459 28.2017L27.8408 28.204C27.8346 28.2072 27.8284 28.2103 27.822 28.2132L27.8156 28.2164L27.7968 28.2255L27.7913 28.2283L27.7693 28.2398L27.767 28.2402L27.7165 28.265L27.7138 28.2664L27.6922 28.2769C27.6899 28.2774 27.6876 28.2792 27.6862 28.2801C27.6801 28.2835 27.6739 28.2866 27.6674 28.2893C27.6652 28.2904 27.6631 28.2916 27.661 28.293L27.6422 28.3012C27.6323 28.3069 27.622 28.312 27.6115 28.3164C27.6032 28.3205 27.5945 28.3242 27.5867 28.3287L27.5624 28.3402C27.5596 28.3416 27.5567 28.3429 27.5537 28.3439C27.5491 28.3471 27.544 28.3489 27.539 28.3517C27.5372 28.3517 27.5367 28.3531 27.5349 28.354C27.146 28.5464 26.7612 28.7469 26.3807 28.9554C25.2578 29.5769 24.1344 30.2288 22.7798 30.2288H22.6679L22.6243 30.2274C22.1272 30.217 21.6355 30.1229 21.1697 29.9489C21.1046 29.9244 21.0402 29.8981 20.9766 29.87C20.9052 29.8387 20.8349 29.8047 20.7661 29.7682L20.7248 29.7466V29.7453L20.7234 29.7448C20.7207 29.744 20.7183 29.7424 20.7165 29.7402C20.4688 29.6063 20.3642 29.5223 20.1555 29.3503C20.0583 29.2632 19.9546 29.1613 19.8546 29.0636C18.9743 28.2292 18.122 27.7902 17.4601 27.0792C17.4256 27.0446 17.3916 27.0094 17.3583 26.9737L17.3372 26.9498C17.2977 26.9058 17.2585 26.8615 17.2197 26.8168C17.1816 26.7738 17.1442 26.7301 17.1078 26.6856L17.1064 26.6829C17.068 26.6364 17.0307 26.589 16.9945 26.5407L16.9615 26.498L16.9514 26.4852C16.9431 26.4751 16.9362 26.4641 16.928 26.4531L16.9183 26.4393C16.9089 26.427 16.8997 26.4144 16.8908 26.4017L16.8858 26.3953L16.8537 26.3508L16.8459 26.3393C16.8377 26.3279 16.8296 26.3164 16.8216 26.3049L16.8124 26.2911C16.8037 26.279 16.7951 26.2668 16.7867 26.2544L16.7807 26.2453L16.75 26.1994C16.7477 26.1971 16.7472 26.1948 16.7454 26.1925C16.7363 26.1793 16.7275 26.1659 16.7193 26.1521C16.7164 26.1483 16.7136 26.1443 16.711 26.1402C16.7028 26.1278 16.695 26.115 16.6862 26.1026C16.6841 26.0994 16.6822 26.096 16.6807 26.0925C16.6601 26.0613 16.6399 26.0283 16.6197 25.9962L16.6142 25.9865L16.5899 25.9457L16.5839 25.937L16.5257 25.837L16.5211 25.8297L16.4968 25.7861L16.4922 25.7769C16.3953 25.6096 16.3053 25.4383 16.2225 25.2636C15.8977 25.7787 15.7179 26.2122 15.4899 26.9122C15.0105 28.3728 14.7789 30.1104 15.0807 31.6448C15.4436 33.509 16.1702 35.2265 17.5605 36.4806C18.4651 37.2957 19.5183 37.7943 20.745 37.965C21.8482 38.1223 22.8628 37.471 22.8628 36.287C22.8628 35.4365 22.1578 34.6196 22.089 33.7838C21.9862 32.5719 22.7266 31.4856 23.978 31.6086C24.5917 31.6682 25.3083 32.1017 25.411 32.9989C25.4931 33.726 25.3789 34.1434 24.9858 34.8622C24.5408 35.6755 24.0376 36.3242 24.0592 37.0696L24.0569 37.0691C24.0569 37.0691 24.0569 37.093 24.0605 37.1333C24.0605 37.1425 24.0624 37.1517 24.0628 37.1613C24.0656 37.1843 24.0683 37.2118 24.0729 37.2416C24.0757 37.2609 24.0761 37.2801 24.0803 37.2994C24.0839 37.3214 24.0913 37.343 24.0959 37.3654C24.1005 37.3879 24.105 37.4109 24.1119 37.4352C24.1174 37.4549 24.1211 37.4746 24.1275 37.493C24.2555 37.9402 24.6124 38.6214 25.6252 38.8278C25.9032 38.8843 26.3766 38.9095 26.7477 38.8824C28.1349 38.7824 31.0748 38.1379 33.2372 34.0521C33.2372 34.0521 37.7651 34.3962 37.7651 26.9242L37.7642 26.9297Z" fill="#0C1A22"/>
<path fill-rule="evenodd" clip-rule="evenodd" d="M23.8205 28.0164C23.4127 28.3732 22.7315 28.2632 22.5874 28.7627C22.5845 28.7767 22.5797 28.7903 22.5732 28.8031C22.5533 28.8477 22.5211 28.8858 22.4804 28.9129C22.4398 28.94 22.3922 28.955 22.3434 28.9562C22.2945 28.9574 22.2463 28.9447 22.2043 28.9196C22.1624 28.8946 22.1284 28.8581 22.1063 28.8145C22.0939 28.7909 22.0851 28.7655 22.0801 28.7393C21.9654 28.2035 21.3608 28.3026 20.9861 27.8641C20.9465 27.8167 20.9246 27.757 20.9241 27.6953C20.9242 27.6609 20.931 27.6269 20.9442 27.5952C20.9574 27.5635 20.9767 27.5347 21.0011 27.5105C21.0254 27.4863 21.0542 27.4671 21.086 27.454C21.1177 27.4409 21.1517 27.4342 21.1861 27.4343H21.2063C21.4916 27.4471 21.5232 27.543 22.4232 27.5824C23.3246 27.6228 23.398 27.5384 23.6801 27.5521C23.7329 27.5552 23.7835 27.5744 23.8251 27.6071C23.8666 27.6399 23.8971 27.6846 23.9124 27.7352C23.9277 27.7859 23.9271 27.84 23.9107 27.8903C23.8942 27.9405 23.8628 27.9846 23.8205 28.0164ZM27.2852 23.632C26.9833 21.9081 25.7641 21.2503 24.853 21.6127C24.215 21.8659 23.6411 22.8109 24.3402 24.0457C24.7549 24.7792 24.9503 25.159 25.0535 25.5705C25.0962 25.7443 25.1567 25.8925 25.2448 26.0132L25.2572 26.0292C25.2957 26.0797 25.3397 26.1255 25.3902 26.1632C25.4874 26.243 25.6301 26.3246 25.8081 26.3292H25.8246C26.3278 26.3242 27.5764 25.2847 27.2852 23.632ZM20.4796 21.4104C19.6306 21.0058 18.4241 21.5581 18.0251 23.1865C17.6352 24.7783 18.8141 25.8618 19.2783 25.8595C19.6723 25.8595 19.853 25.5576 19.853 25.5576C19.9306 25.4535 19.9897 25.3274 20.0365 25.1815C20.1604 24.7943 20.3714 24.4439 20.8154 23.7687C21.5613 22.6329 21.0732 21.6934 20.4796 21.4109" fill="#0C1A22"/>
<path fill-rule="evenodd" clip-rule="evenodd" d="M19.4017 23.9649C19.5182 23.9724 19.6328 23.9333 19.7205 23.8564C19.8082 23.7794 19.8619 23.6708 19.8696 23.5544C19.8775 23.4373 19.839 23.3217 19.7625 23.2327C19.6859 23.1438 19.5774 23.0884 19.4605 23.0787C19.3432 23.0728 19.2283 23.1132 19.1405 23.1912C19.0527 23.2692 18.9991 23.3785 18.9912 23.4957C18.9835 23.6123 19.0224 23.7272 19.0994 23.8152C19.1764 23.9032 19.2851 23.957 19.4017 23.9649ZM25.6316 24.3287C25.7481 24.3361 25.8628 24.297 25.9505 24.22C26.0382 24.1429 26.0918 24.0342 26.0994 23.9177C26.1074 23.8006 26.069 23.685 25.9924 23.5961C25.9158 23.5072 25.8073 23.452 25.6903 23.4425C25.5729 23.4363 25.4578 23.4766 25.3699 23.5546C25.282 23.6326 25.2283 23.7421 25.2205 23.8594C25.2132 23.9761 25.2524 24.0909 25.3293 24.1788C25.4063 24.2667 25.515 24.3206 25.6316 24.3287Z" fill="white"/>
<path fill-rule="evenodd" clip-rule="evenodd" d="M41.1503 41.749C36.693 46.0733 30.8187 48.4027 24.609 48.3086C18.3989 48.2146 12.5971 45.7077 8.27279 41.2499C3.94894 36.7926 1.61912 30.9183 1.71316 24.7082C1.80766 18.4981 4.31454 12.6967 8.77188 8.37332C13.2297 4.04855 19.104 1.71919 25.3141 1.81369C31.5237 1.90772 37.3251 4.4146 41.6489 8.87194C45.9742 13.3293 48.3035 19.2036 48.2086 25.4132C48.115 31.6233 45.6077 37.4247 41.1503 41.749ZM42.2549 8.28387C37.7737 3.66506 31.7618 1.06736 25.3265 0.969651C18.8907 0.871944 12.8026 3.28616 8.18426 7.76736C3.565 12.2485 0.967289 18.26 0.870041 24.6949C0.772335 31.1311 3.18656 37.2197 7.66775 41.838C12.1485 46.4573 18.16 49.0545 24.5957 49.1522C31.0306 49.2504 37.1187 46.8357 41.7379 42.355C46.3572 37.8729 48.9549 31.8605 49.0522 25.4261C49.1503 18.9917 46.7361 12.9031 42.2549 8.28387Z" fill="#D02C2F"/>
<path fill-rule="evenodd" clip-rule="evenodd" d="M44.5115 26.4262C44.3342 26.4262 44.1641 26.4965 44.0386 26.6217C43.9131 26.7469 43.8423 26.9168 43.8418 27.0941C43.8418 27.2263 43.881 27.3554 43.9543 27.4653C44.0277 27.5752 44.132 27.6608 44.2541 27.7115C44.3761 27.7621 44.5104 27.7754 44.64 27.7497C44.7696 27.7241 44.8887 27.6605 44.9823 27.5672C45.0758 27.4739 45.1395 27.3549 45.1655 27.2254C45.1914 27.0958 45.1784 26.9615 45.128 26.8393C45.0776 26.7172 44.9922 26.6127 44.8825 26.5391C44.7727 26.4655 44.6436 26.4265 44.5115 26.4262Z" fill="#D02C2F"/>
<path fill-rule="evenodd" clip-rule="evenodd" d="M6.74204 34.0237C6.71091 34.0083 6.68017 33.9921 6.64984 33.9751L6.62782 33.9613C6.6065 33.9494 6.58569 33.9365 6.56544 33.9228L6.54938 33.9113L6.53562 33.9017C6.5088 33.8829 6.48321 33.8623 6.45901 33.8402C6.44479 33.8274 6.43011 33.8146 6.41727 33.8003C6.39381 33.7779 6.37233 33.7535 6.35305 33.7274L6.34296 33.7155L6.33699 33.7077L6.32736 33.6958C6.31471 33.6772 6.30262 33.6582 6.29112 33.6389L6.28195 33.6251L6.27277 33.61C6.25447 33.5774 6.23793 33.5439 6.22323 33.5095C6.17595 33.403 6.15175 33.2877 6.15223 33.1711C6.1527 33.0546 6.17784 32.9395 6.22599 32.8334C6.32323 32.6178 6.50672 32.4421 6.74296 32.3389C6.87828 32.2797 7.01819 32.2499 7.1581 32.2499C7.5136 32.2499 7.80855 32.4398 7.94709 32.7577C7.96039 32.7875 7.97232 32.8196 7.98378 32.8554L7.98837 32.8719L7.99204 32.8857C7.99846 32.9095 8.00397 32.9297 8.00764 32.9499C8.00928 32.9586 8.01081 32.9673 8.01222 32.976L8.0136 32.9861C8.01681 33.0072 8.02002 33.0274 8.02186 33.0467L8.02415 33.0829C8.02553 33.1035 8.02553 33.1233 8.02553 33.1503V33.1618L8.02461 33.1783C8.02369 33.1994 8.02186 33.2196 8.01956 33.2402L8.01498 33.2765C8.01153 33.3026 8.00709 33.3286 8.00167 33.3545L7.99846 33.3728C7.99202 33.4033 7.98453 33.4336 7.97599 33.4636C7.95854 33.5229 7.96494 33.5866 7.99382 33.6412C8.0227 33.6958 8.07178 33.7369 8.13057 33.7558L8.36544 33.8292C8.42608 33.8471 8.49131 33.8406 8.5472 33.811C8.60308 33.7814 8.64518 33.7312 8.66452 33.671C8.67599 33.6326 8.68624 33.5939 8.69525 33.5549L8.69984 33.5347C8.70884 33.4956 8.71603 33.4561 8.7214 33.4164L8.72415 33.3971C8.72966 33.3549 8.73333 33.3146 8.73562 33.2728L8.73654 33.2609C8.73848 33.2178 8.73848 33.1746 8.73654 33.1315L8.73562 33.1205C8.73337 33.0759 8.72924 33.0313 8.72323 32.987L8.72002 32.9655C8.713 32.9198 8.70397 32.8745 8.69296 32.8297L8.68745 32.8054C8.67599 32.7595 8.66222 32.7136 8.64617 32.6636L8.63745 32.6416C8.61948 32.5892 8.59944 32.5374 8.57736 32.4866C8.31406 31.8834 7.75351 31.5081 7.11406 31.5081C6.88009 31.5087 6.64877 31.5577 6.4347 31.6522C5.587 32.0224 5.22323 32.932 5.58745 33.7682C5.60122 33.7999 5.61544 33.8302 5.62966 33.86L5.64525 33.8884C5.65443 33.9077 5.66452 33.9279 5.67553 33.9467L5.69388 33.9779C5.7003 33.9902 5.70764 34.0026 5.71498 34.015L5.72186 34.026L5.74296 34.0586C5.75988 34.0841 5.77716 34.1093 5.79479 34.1343L5.82507 34.1746L5.848 34.2026L5.88011 34.2407L5.90351 34.2668C5.91727 34.282 5.9292 34.2939 5.94021 34.3049L5.96085 34.326C5.97461 34.3398 5.98791 34.3517 6.00121 34.3636L6.02094 34.382C6.0636 34.4187 6.10672 34.4522 6.14938 34.4815L6.16956 34.4953L6.21544 34.5256L6.2347 34.537L6.28837 34.5691L6.31268 34.5815L6.32966 34.5907L6.35672 34.6045L6.38562 34.6182C6.39636 34.6241 6.40738 34.6295 6.41865 34.6343L6.42828 34.6389L6.48011 34.6618C6.50761 34.6731 6.53707 34.6789 6.56681 34.6788C6.66177 34.6788 6.74984 34.6191 6.78516 34.5297L6.8636 34.3334C6.88592 34.2759 6.8858 34.2122 6.86328 34.1548C6.84076 34.0974 6.79748 34.0506 6.74204 34.0237ZM10.7586 36.3774C10.7645 36.3469 10.7643 36.3156 10.758 36.2852C10.7517 36.2548 10.7394 36.2259 10.7219 36.2003L10.5769 35.9893C10.5413 35.9378 10.4869 35.9024 10.4253 35.8909C10.3638 35.8794 10.3002 35.8927 10.2485 35.9279L9.4347 36.4861L8.76039 35.5026L9.57415 34.9444C9.62546 34.9088 9.66065 34.8543 9.67207 34.7929C9.6835 34.7315 9.67023 34.6681 9.63516 34.6164L9.49021 34.4054C9.46804 34.3739 9.43855 34.3482 9.40427 34.3306C9.36999 34.3131 9.33194 34.3041 9.29342 34.3045C9.2467 34.3041 9.20097 34.3178 9.16222 34.3439L6.95122 35.86C6.89975 35.8956 6.86448 35.9501 6.85314 36.0117C6.84179 36.0732 6.85528 36.1368 6.89066 36.1884L7.03516 36.3994C7.07095 36.4506 7.1254 36.4858 7.18682 36.4973C7.24824 36.5088 7.31171 36.4957 7.3636 36.4609L8.19112 35.893L8.86543 36.8765L8.03745 37.4439C7.98591 37.4795 7.95056 37.534 7.93912 37.5955C7.92769 37.6571 7.94111 37.7207 7.97644 37.7724L8.1214 37.9834C8.13888 38.009 8.16124 38.0309 8.18721 38.0478C8.21318 38.0647 8.24223 38.0764 8.27271 38.082C8.30319 38.0877 8.33448 38.0873 8.3648 38.0808C8.39512 38.0744 8.42386 38.062 8.44938 38.0444L10.6604 36.5279C10.6859 36.5105 10.7077 36.4883 10.7246 36.4625C10.7414 36.4367 10.753 36.4077 10.7586 36.3774ZM11.9026 37.6288C11.9039 37.5979 11.899 37.567 11.8882 37.538C11.8774 37.5091 11.8609 37.4825 11.8397 37.46L11.6659 37.2719C11.6436 37.2484 11.6167 37.2298 11.5868 37.2172C11.557 37.2046 11.5249 37.1982 11.4925 37.1985C11.4333 37.1978 11.376 37.2194 11.3319 37.259L9.36498 39.0792C9.31916 39.1218 9.29204 39.1808 9.28955 39.2432C9.28705 39.3057 9.30939 39.3666 9.35167 39.4127L9.52599 39.6003C9.54685 39.6233 9.57208 39.6418 9.60018 39.655C9.62829 39.6681 9.65873 39.6754 9.68972 39.6767C9.72071 39.6779 9.75163 39.673 9.78069 39.6622C9.80976 39.6513 9.83638 39.6348 9.85901 39.6136L11.8269 37.7935C11.8728 37.7503 11.9003 37.6925 11.9026 37.6288ZM14.7072 40.0815C14.7038 40.0507 14.6944 40.0208 14.6795 39.9937C14.6645 39.9665 14.6443 39.9426 14.62 39.9233L14.4274 39.7682C14.3859 39.7352 14.3345 39.7174 14.2815 39.7178C14.2081 39.7178 14.1393 39.7503 14.0962 39.8049L13.0975 41.048L13.1342 38.915C13.1329 38.8586 13.1198 38.8031 13.0959 38.752C13.072 38.7009 13.0377 38.6554 12.9953 38.6182L12.8255 38.482C12.7764 38.4436 12.7142 38.426 12.6522 38.4329C12.5903 38.4397 12.5335 38.4705 12.4939 38.5187L10.8154 40.6086C10.7764 40.6575 10.7583 40.72 10.7652 40.7822C10.7721 40.8445 10.8033 40.9015 10.8521 40.9407L11.0448 41.0948C11.094 41.1333 11.1562 41.151 11.2182 41.1442C11.2802 41.1374 11.3372 41.1067 11.3769 41.0586L12.4118 39.7696L12.3742 41.9774C12.3756 42.0338 12.3887 42.0893 12.4126 42.1403C12.4365 42.1914 12.4708 42.237 12.5131 42.2742L12.6471 42.3815C12.6961 42.4203 12.7584 42.4382 12.8205 42.4314C12.8826 42.4245 12.9394 42.3934 12.9787 42.3448L14.6567 40.2545C14.6762 40.2304 14.6907 40.2028 14.6993 40.1731C14.708 40.1434 14.7107 40.1123 14.7072 40.0815ZM17.5544 41.8659C17.5692 41.8385 17.5783 41.8085 17.5813 41.7776C17.5843 41.7466 17.5812 41.7154 17.572 41.6856C17.5628 41.6559 17.5478 41.6283 17.5279 41.6045C17.5079 41.5806 17.4834 41.561 17.4558 41.5467L15.7613 40.6458C15.7058 40.6175 15.6415 40.6119 15.5819 40.6301C15.5224 40.6483 15.4722 40.689 15.442 40.7435L14.1838 43.1104C14.1545 43.1657 14.1483 43.2303 14.1666 43.2901C14.1848 43.3499 14.2259 43.4001 14.281 43.4297L15.9953 44.3402C16.0226 44.3551 16.0526 44.3643 16.0836 44.3674C16.1145 44.3704 16.1458 44.3673 16.1755 44.3582C16.2052 44.349 16.2328 44.3341 16.2567 44.3141C16.2806 44.2942 16.3002 44.2697 16.3145 44.2421L16.409 44.0655C16.4382 44.0102 16.4444 43.9455 16.426 43.8857C16.4077 43.8258 16.3665 43.7757 16.3113 43.7462L15.0315 43.0659L15.3035 42.5545L16.3975 43.1361C16.4531 43.1641 16.5172 43.1695 16.5767 43.1514C16.6361 43.1333 16.6863 43.093 16.7168 43.0389L16.8113 42.8609C16.8259 42.8335 16.8349 42.8035 16.8378 42.7727C16.8408 42.7418 16.8375 42.7107 16.8283 42.6811C16.8193 42.6515 16.8045 42.624 16.7849 42.6001C16.7652 42.5762 16.741 42.5565 16.7136 42.5421L15.6196 41.9604L15.8792 41.471L17.1407 42.1412C17.168 42.1557 17.1979 42.1648 17.2288 42.1678C17.2596 42.1707 17.2907 42.1676 17.3204 42.1585C17.35 42.1494 17.3775 42.1346 17.4014 42.1149C17.4253 42.0951 17.445 42.0708 17.4595 42.0435L17.5544 41.8659ZM20.2503 42.8361L20.231 42.8132L20.2232 42.8031C20.2026 42.7774 20.1815 42.7522 20.1599 42.7274C20.151 42.7172 20.1418 42.7073 20.1324 42.6976L20.1232 42.6884C20.1032 42.6673 20.0827 42.6467 20.0618 42.6265C20.0517 42.6164 20.0411 42.6072 20.0297 42.5967L20.0191 42.5875C19.9981 42.569 19.9767 42.5509 19.9549 42.5334L19.9443 42.5256L19.9095 42.498L19.9081 42.4971L19.9017 42.4925C19.8403 42.4486 19.7764 42.4081 19.7104 42.3714L19.7012 42.3659L19.6608 42.3444C19.6305 42.3289 19.5996 42.3146 19.5682 42.3013L19.554 42.2944L19.5411 42.2889L19.5251 42.2815C19.4764 42.2614 19.4269 42.243 19.3769 42.2265C19.2381 42.1805 19.0929 42.1565 18.9466 42.1554C18.4994 42.1554 18.154 42.3953 18.0228 42.7976C17.8338 43.3742 18.1512 43.7095 18.7246 44.0636C19.2017 44.3503 19.2108 44.4535 19.1696 44.5783C19.1255 44.7132 19.0003 44.7416 18.9035 44.7416C18.8384 44.7416 18.7668 44.7288 18.6916 44.704C18.6475 44.6895 18.6044 44.6725 18.5622 44.6531L18.5494 44.6471C18.5144 44.6305 18.4802 44.6121 18.4471 44.5921C18.4282 44.5808 18.4096 44.5689 18.3916 44.5563C18.382 44.5499 18.3727 44.5432 18.3636 44.5361L18.3553 44.5302C18.3387 44.5173 18.3223 44.5042 18.3063 44.4907L18.276 44.465C18.2571 44.4473 18.2388 44.4291 18.2209 44.4104C18.212 44.4024 18.2035 44.3939 18.1953 44.3852C18.1797 44.3678 18.1641 44.3485 18.1485 44.3302L18.1384 44.3178C18.1141 44.2875 18.0907 44.2566 18.0682 44.2251L18.0508 44.2013C18.028 44.1691 17.9978 44.1429 17.9627 44.1249C17.9277 44.1068 17.8888 44.0975 17.8494 44.0976C17.8065 44.0973 17.7644 44.109 17.7278 44.1315L17.5393 44.249C17.4892 44.2795 17.4525 44.3279 17.4365 44.3844C17.4205 44.4408 17.4264 44.5012 17.453 44.5535L17.4654 44.5742L17.4797 44.5967L17.5053 44.6311L17.5136 44.6421L17.5223 44.6549C17.5521 44.694 17.583 44.7322 17.615 44.7696L17.6324 44.7898C17.692 44.8574 17.7567 44.9203 17.826 44.9779L17.8801 45.0224C17.9067 45.0425 17.9333 45.0618 17.9595 45.0802L17.9686 45.0861L17.9751 45.0912C17.9888 45.1008 18.003 45.1109 18.0173 45.1201C18.0457 45.1384 18.0755 45.1558 18.1049 45.1724L18.1191 45.1806L18.1604 45.204C18.1943 45.2214 18.2278 45.2375 18.2613 45.2526L18.2797 45.2618L18.2971 45.2696L18.3122 45.2765C18.37 45.3008 18.4219 45.3205 18.4714 45.3361C18.6241 45.3878 18.784 45.415 18.9453 45.4169C19.4008 45.4169 19.7402 45.176 19.8774 44.7563C20.0333 44.2774 19.8315 43.9068 19.2026 43.5173C18.6879 43.2013 18.6875 43.1072 18.7292 42.9797C18.7613 42.882 18.8494 42.8283 18.9787 42.8283C19.0352 42.8283 19.0966 42.8389 19.1608 42.8604C19.1884 42.8696 19.2145 42.8797 19.2411 42.8907C19.2443 42.8925 19.248 42.8939 19.2512 42.8962L19.2659 42.9026C19.2838 42.9104 19.3012 42.9196 19.3182 42.9283L19.3466 42.9448C19.3622 42.954 19.3778 42.9632 19.3925 42.9733L19.4063 42.9824L19.4246 42.9948C19.4365 43.004 19.4521 43.015 19.4677 43.0279C19.493 43.0467 19.517 43.067 19.5397 43.0889L19.5673 43.1141C19.5838 43.1297 19.6017 43.148 19.6191 43.1669L19.6361 43.1843C19.6563 43.2068 19.6774 43.232 19.698 43.2577C19.7207 43.286 19.7494 43.309 19.7821 43.3248C19.8148 43.3406 19.8507 43.3488 19.887 43.349C19.9375 43.3491 19.9866 43.3327 20.0269 43.3022L20.2017 43.1724C20.2508 43.1359 20.2841 43.082 20.2947 43.0218C20.3052 42.9615 20.2923 42.8995 20.2586 42.8485L20.2503 42.8361ZM23.4168 43.1306L21.5168 42.8545C21.455 42.8458 21.3923 42.8618 21.3422 42.8991C21.2921 42.9364 21.2588 42.9918 21.2494 43.0535L20.8641 45.7058C20.855 45.7677 20.8709 45.8306 20.9082 45.8808C20.9456 45.9309 21.0013 45.9642 21.0631 45.9733L22.9838 46.2531C23.0457 46.2619 23.1085 46.2458 23.1586 46.2085C23.2087 46.1711 23.242 46.1154 23.2512 46.0536L23.2806 45.8545C23.2852 45.8238 23.2837 45.7924 23.2761 45.7623C23.2686 45.7322 23.2551 45.7039 23.2366 45.679C23.218 45.6541 23.1947 45.6331 23.168 45.6172C23.1413 45.6014 23.1118 45.591 23.081 45.5866L21.6471 45.3783L21.7306 44.8049L22.9563 44.9838C22.9677 44.9847 22.9787 44.9861 22.9897 44.9861C23.0463 44.9857 23.101 44.9652 23.1438 44.9282C23.1867 44.8912 23.215 44.8402 23.2237 44.7843L23.2526 44.5843C23.2613 44.5225 23.2451 44.4597 23.2078 44.4097C23.1704 44.3597 23.1148 44.3265 23.053 44.3173L21.8269 44.1393L21.9067 43.5912L23.3196 43.7962C23.3814 43.805 23.4442 43.789 23.4943 43.7517C23.5444 43.7145 23.5777 43.6589 23.587 43.5971L23.6164 43.3976C23.621 43.3669 23.6194 43.3356 23.6118 43.3055C23.6042 43.2754 23.5907 43.2471 23.5721 43.2223C23.5535 43.1975 23.5302 43.1766 23.5034 43.1608C23.4767 43.1451 23.4476 43.1348 23.4168 43.1306ZM30.3352 42.632C30.3178 42.572 30.2776 42.5213 30.2232 42.4907C30.1688 42.4602 30.1045 42.4523 30.0443 42.4687L29.7975 42.5375C29.7677 42.5458 29.7398 42.56 29.7154 42.5792C29.691 42.5984 29.6707 42.6222 29.6556 42.6493C29.6404 42.6763 29.6308 42.7061 29.6272 42.7369C29.6236 42.7678 29.6262 42.799 29.6347 42.8288L30.3581 45.41C30.375 45.4701 30.415 45.5211 30.4695 45.5518C30.5239 45.5825 30.5882 45.5904 30.6485 45.5737L30.8952 45.5045C30.9554 45.4875 31.0064 45.4473 31.0371 45.3928C31.0678 45.3383 31.0757 45.2739 31.059 45.2136L30.3352 42.632ZM32.742 42.2132L33.3829 41.9389C33.44 41.914 33.485 41.8675 33.5082 41.8097C33.5314 41.7518 33.5308 41.6872 33.5067 41.6297L33.4209 41.4288C33.3954 41.3721 33.3488 41.3275 33.2911 41.3044C33.2334 41.2813 33.1689 41.2815 33.1113 41.3049L31.1563 42.1407C31.1277 42.1529 31.1019 42.1706 31.0802 42.1928C31.0586 42.215 31.0415 42.2412 31.03 42.2701C31.0185 42.2989 31.0128 42.3296 31.0132 42.3607C31.0136 42.3917 31.0201 42.4223 31.0324 42.4508L31.1177 42.6513C31.1434 42.708 31.19 42.7526 31.2478 42.7758C31.3056 42.7989 31.3701 42.7989 31.4278 42.7756L32.0264 42.5201H32.0494L32.0764 42.5191L32.9448 44.5485C32.9568 44.5771 32.9744 44.6031 32.9965 44.6249C33.0186 44.6467 33.0448 44.6639 33.0736 44.6755C33.1024 44.6871 33.1332 44.6929 33.1642 44.6925C33.1953 44.6921 33.2259 44.6856 33.2544 44.6733L33.493 44.5705C33.5216 44.5584 33.5475 44.5408 33.5693 44.5186C33.591 44.4964 33.6081 44.4701 33.6196 44.4412C33.6312 44.4125 33.637 44.3818 33.6367 44.3508C33.6364 44.3199 33.6299 44.2893 33.6177 44.2609L32.742 42.2132ZM37.3182 41.5462L37.1118 41.5003C37.0515 41.4885 36.9891 41.4995 36.9364 41.531C36.8837 41.5625 36.8446 41.6123 36.8264 41.671C36.8167 41.7042 36.806 41.737 36.7943 41.7696L36.7833 41.7948C36.775 41.8178 36.7658 41.8404 36.7558 41.8627L36.7397 41.8953L36.7352 41.9026C36.7277 41.9182 36.7198 41.9335 36.7113 41.9485L36.6948 41.976C36.681 41.998 36.67 42.0141 36.6586 42.0302C36.6494 42.0425 36.643 42.0517 36.6356 42.0604C36.6009 42.103 36.5625 42.1424 36.5209 42.1783L36.5072 42.1912L36.498 42.199C36.4636 42.2265 36.4338 42.248 36.4044 42.2673C36.2677 42.3563 36.1108 42.4035 35.953 42.4035C35.6448 42.4035 35.3498 42.2324 35.1641 41.9453C35.0228 41.7279 34.9673 41.4801 35.0081 41.248C35.0305 41.1168 35.0842 40.9928 35.1645 40.8866C35.2448 40.7803 35.3494 40.6949 35.4696 40.6375L35.4769 40.6338L35.4783 40.6334L35.487 40.6297L35.5008 40.6228C35.52 40.6146 35.5407 40.6049 35.5613 40.5971L35.5691 40.5944L35.5865 40.5884L35.5966 40.5852C35.6145 40.5792 35.6342 40.5733 35.6535 40.5678L35.6737 40.5632L35.6893 40.5595C35.7076 40.5558 35.7264 40.5517 35.7457 40.5494L35.7567 40.5476C35.7856 40.5432 35.8147 40.5402 35.8439 40.5389L35.8608 40.5375L35.8769 40.537C35.904 40.5358 35.9311 40.5359 35.9581 40.5375H35.9787C36.0081 40.5393 36.0397 40.5421 36.0719 40.5448C36.1332 40.5528 36.1953 40.5362 36.2445 40.4987C36.2937 40.4611 36.3261 40.4057 36.3347 40.3444L36.3691 40.1012C36.3781 40.0395 36.3624 39.9767 36.3253 39.9265C36.2883 39.8763 36.233 39.8426 36.1714 39.8329L36.1319 39.8283C36.1168 39.8264 36.1017 39.8249 36.0865 39.8237L35.9861 39.8178C35.9705 39.8168 35.9558 39.8168 35.9416 39.8168H35.9264L35.8375 39.8191L35.8145 39.8214L35.7865 39.8237L35.7618 39.826L35.6856 39.8366C35.6618 39.8402 35.6379 39.8453 35.6141 39.8503L35.5838 39.8572L35.5563 39.8641L35.5315 39.8705L35.5003 39.8797L35.4893 39.8829L35.4535 39.8939L35.437 39.8999L35.4223 39.9045L35.3732 39.9228L35.3498 39.9324L35.3402 39.9366C35.3242 39.9425 35.3081 39.9494 35.2925 39.9568L35.259 39.9719L35.2223 39.9902L35.2095 39.9967L35.1774 40.0132C35.162 40.0211 35.1469 40.0294 35.1319 40.038L35.1219 40.0435L35.0953 40.0586C35.0664 40.0755 35.038 40.0931 35.0099 40.1113C34.6292 40.3581 34.3741 40.7269 34.2911 41.1494C34.2099 41.5623 34.2971 41.993 34.5361 42.3627C34.8434 42.8352 35.348 43.1173 35.8865 43.1173C36.1934 43.1173 36.4966 43.0256 36.7627 42.8522C36.792 42.8338 36.82 42.8146 36.8462 42.7957L36.8732 42.7756L36.9228 42.7379L36.9535 42.7132L36.9732 42.6962L36.9962 42.6769L37.0241 42.6513C37.0379 42.6393 37.0508 42.6269 37.0631 42.6146L37.0902 42.588L37.1035 42.5742L37.1251 42.5513L37.1494 42.5242L37.1769 42.4912L37.2035 42.4591L37.2196 42.438L37.2379 42.4123L37.253 42.3921L37.2774 42.3554L37.2879 42.3393L37.2975 42.3242L37.3095 42.3049L37.315 42.2957L37.3388 42.2526C37.3517 42.2292 37.3641 42.2054 37.3755 42.1806L37.3861 42.1577L37.3911 42.1457C37.3971 42.1334 37.4026 42.1205 37.4081 42.1072L37.4186 42.0797L37.437 42.0338L37.4471 42.0035L37.4526 41.9866L37.4618 41.959L37.4719 41.926L37.4852 41.8797L37.4989 41.8246C37.5118 41.7638 37.5001 41.7002 37.4662 41.648C37.4323 41.5958 37.3791 41.5592 37.3182 41.5462ZM38.6462 37.3994C38.6239 37.3771 38.5974 37.3595 38.5683 37.3475C38.5392 37.3355 38.5079 37.3295 38.4764 37.3297C38.4152 37.3289 38.3561 37.3521 38.3118 37.3944L38.1283 37.5733C38.106 37.5948 38.0882 37.6206 38.076 37.649C38.0637 37.6775 38.0571 37.7081 38.0567 37.7391C38.0563 37.7701 38.062 37.8008 38.0735 37.8296C38.085 37.8584 38.102 37.8846 38.1237 37.9068L38.8118 38.6141L37.9563 39.4458L37.2686 38.7379C37.2464 38.7156 37.22 38.6979 37.1908 38.686C37.1617 38.674 37.1304 38.668 37.0989 38.6682C37.0378 38.6676 36.9788 38.691 36.9347 38.7334L36.7512 38.9123C36.729 38.9338 36.7112 38.9596 36.6989 38.988C36.6866 39.0165 36.6801 39.0471 36.6796 39.078C36.6792 39.109 36.6849 39.1398 36.6964 39.1686C36.7079 39.1974 36.725 39.2236 36.7466 39.2458L38.6154 41.1678C38.6592 41.2123 38.7187 41.2379 38.7811 41.2388C38.8436 41.2398 38.9039 41.216 38.9489 41.1728L39.1324 40.9939C39.1548 40.9724 39.1726 40.9466 39.1849 40.9181C39.1972 40.8896 39.2037 40.8589 39.204 40.8279C39.2046 40.7967 39.1989 40.7658 39.1873 40.7368C39.1758 40.7079 39.1585 40.6816 39.1365 40.6595L38.4379 39.9407L39.293 39.1091L39.9925 39.8288C40.014 39.8511 40.0397 39.869 40.0682 39.8814C40.0966 39.8937 40.1273 39.9003 40.1583 39.9007C40.1893 39.9012 40.2201 39.8954 40.2489 39.8839C40.2777 39.8723 40.3039 39.8551 40.326 39.8334L40.5095 39.6554C40.5319 39.6339 40.5498 39.6082 40.5622 39.5798C40.5746 39.5513 40.5812 39.5207 40.5817 39.4897C40.5821 39.4587 40.5764 39.4279 40.5649 39.3991C40.5534 39.3703 40.5363 39.344 40.5145 39.3219L38.6462 37.3994ZM42.6778 36.1719C42.6269 36.136 42.5639 36.1214 42.5023 36.1313C42.4407 36.1413 42.3855 36.1749 42.3485 36.2251L41.503 37.4022L41.0329 37.0646L41.7553 36.0586C41.7918 36.0078 41.8065 35.9446 41.7964 35.8829C41.7862 35.8213 41.752 35.7661 41.7012 35.7297L41.5375 35.6118C41.498 35.5836 41.4506 35.5687 41.4021 35.5691C41.3645 35.5687 41.3274 35.5773 41.2938 35.594C41.2601 35.6108 41.2309 35.6353 41.2086 35.6655L40.4861 36.6724L40.1003 36.3948L40.0989 36.3444H40.0402L40.8691 35.1893C40.9054 35.1385 40.9202 35.0754 40.9101 35.0138C40.9001 34.9522 40.866 34.897 40.8154 34.8604L40.6517 34.743C40.6121 34.7147 40.5646 34.6996 40.5159 34.6999C40.4783 34.6995 40.4412 34.7081 40.4076 34.725C40.3741 34.7418 40.345 34.7664 40.3228 34.7967L39.203 36.3563C39.1667 36.4072 39.1519 36.4703 39.162 36.532C39.172 36.5938 39.2061 36.649 39.2567 36.6857L41.4338 38.2485C41.4845 38.285 41.5476 38.2999 41.6092 38.2899C41.6709 38.28 41.7261 38.2459 41.7627 38.1953L42.8953 36.6182C42.9135 36.5932 42.9265 36.5647 42.9335 36.5345C42.9405 36.5043 42.9414 36.4731 42.9361 36.4425C42.9312 36.412 42.9204 36.3826 42.9042 36.3563C42.888 36.3299 42.8667 36.307 42.8416 36.2889L42.6778 36.1719ZM44.6673 32.6719L42.2361 31.5416C42.1791 31.5162 42.1145 31.514 42.056 31.5354C41.9974 31.5568 41.9495 31.6002 41.9223 31.6563L41.8177 31.8806C41.8046 31.9087 41.7971 31.9392 41.7959 31.9702C41.7946 32.0013 41.7996 32.0322 41.8104 32.0613C41.8208 32.0906 41.837 32.1175 41.8581 32.1403C41.8791 32.1632 41.9046 32.1816 41.9329 32.1944L43.3792 32.8668L41.2975 33.3416C41.2433 33.3563 41.1927 33.3822 41.149 33.4176C41.1053 33.4529 41.0695 33.4971 41.0439 33.5471L40.9517 33.7444C40.9384 33.7724 40.9308 33.8029 40.9293 33.8339C40.9279 33.8649 40.9327 33.8959 40.9433 33.9251C40.954 33.9542 40.9704 33.981 40.9915 34.0037C41.0126 34.0265 41.0381 34.0448 41.0664 34.0577L43.4975 35.1875C43.5543 35.2138 43.6192 35.2165 43.678 35.1951C43.7368 35.1737 43.7847 35.1299 43.8113 35.0733L43.9154 34.8485C43.9286 34.8205 43.9361 34.7901 43.9373 34.7591C43.9386 34.7281 43.9336 34.6972 43.9228 34.6682C43.9123 34.639 43.8961 34.6121 43.875 34.5893C43.854 34.5664 43.8286 34.5481 43.8003 34.5352L42.3008 33.838L44.4544 33.3471C44.5087 33.3321 44.5593 33.306 44.603 33.2704C44.6468 33.2349 44.6827 33.1908 44.7086 33.1407L44.781 32.9847C44.7944 32.9568 44.802 32.9264 44.8035 32.8955C44.805 32.8645 44.8003 32.8336 44.7897 32.8045C44.7791 32.7754 44.7628 32.7486 44.7418 32.7259C44.7208 32.7031 44.6954 32.6848 44.6673 32.6719ZM27.915 44.3407L28.7407 43.2256C28.7463 43.2183 28.751 43.2103 28.7544 43.2017C28.7753 43.1683 28.7864 43.1297 28.7865 43.0902C28.7863 43.0312 28.7626 42.9746 28.7208 42.9329C28.6789 42.8912 28.6222 42.8678 28.5631 42.8678H28.554L28.5485 42.8682L28.5397 42.8687L28.3099 42.8985C28.2001 42.9176 28.1012 42.9764 28.0319 43.0636L27.07 44.393L26.9287 43.3187C26.9203 43.2566 26.8876 43.2004 26.8379 43.1623C26.7881 43.1242 26.7253 43.1074 26.6631 43.1155L26.4099 43.149C26.3792 43.1529 26.3495 43.1629 26.3227 43.1784C26.2958 43.1938 26.2723 43.2145 26.2534 43.2391C26.2346 43.2637 26.2208 43.2918 26.2129 43.3217C26.2049 43.3517 26.203 43.3829 26.2072 43.4136L26.5572 46.0719C26.5613 46.1027 26.5716 46.1325 26.5873 46.1593C26.603 46.1862 26.6238 46.2097 26.6486 46.2285C26.6734 46.2473 26.7017 46.261 26.7318 46.2689C26.7619 46.2767 26.7933 46.2785 26.8242 46.2742L27.0764 46.2412C27.1072 46.2371 27.1368 46.227 27.1636 46.2115C27.1904 46.1959 27.2139 46.1753 27.2327 46.1506C27.2515 46.126 27.2652 46.0979 27.2731 46.0679C27.281 46.038 27.2829 46.0067 27.2787 45.976L27.1902 45.3022L27.4838 44.9086L28.4741 45.91C28.5154 45.948 28.5641 45.9771 28.6172 45.9954C28.6702 46.0137 28.7265 46.0208 28.7824 46.0164L29.0379 45.9824C29.0514 45.9807 29.0646 45.9768 29.0769 45.971C29.1129 45.9603 29.1455 45.9406 29.1717 45.9138C29.198 45.8869 29.2169 45.8538 29.2267 45.8176C29.2366 45.7814 29.237 45.7433 29.2279 45.7068C29.2189 45.6704 29.2007 45.6369 29.1751 45.6095L27.915 44.3407ZM5.69938 20.2811L5.53654 21.048L4.48791 20.8256L4.65076 20.0595C4.73333 19.6724 4.91773 19.4513 5.17002 19.4357C5.21635 19.4334 5.26544 19.4375 5.31589 19.4485L5.32599 19.4508C5.47828 19.4829 5.59433 19.5765 5.66222 19.7214C5.73241 19.8724 5.74525 20.0655 5.69938 20.2811ZM7.30121 22.3109C7.34748 22.3081 7.39156 22.2902 7.42669 22.26C7.46182 22.2297 7.48606 22.1888 7.49571 22.1435L7.59021 21.6999C7.59601 21.6729 7.5964 21.645 7.59136 21.6178C7.58632 21.5906 7.57595 21.5648 7.56085 21.5416C7.54583 21.5182 7.52629 21.498 7.50337 21.4823C7.48044 21.4665 7.4546 21.4555 7.42736 21.4499L6.37461 21.226L6.53745 20.46C6.62644 20.0398 6.59158 19.6306 6.43883 19.3081C6.26131 18.932 5.93424 18.6843 5.49342 18.5902L5.48333 18.588C5.35804 18.5608 5.22967 18.5506 5.10167 18.5577C4.46314 18.5953 3.98103 19.0898 3.81268 19.8806L3.42002 21.732C3.41039 21.776 3.40351 21.8334 3.43699 21.8852C3.47186 21.9389 3.53883 21.9728 3.66177 21.999C3.70764 22.0091 3.75397 22.0127 3.79984 22.0095C4.03929 21.9958 4.21498 21.8155 4.28929 21.6783L7.24525 22.3068C7.26406 22.3104 7.28195 22.3113 7.30121 22.3109ZM7.8558 16.1081L7.37186 17.093L6.51865 16.0623L7.8558 16.1081ZM9.9792 15.343C9.96073 15.313 9.93488 15.2883 9.90412 15.2712C9.87335 15.2541 9.83871 15.2452 9.80351 15.2453C9.76452 15.2453 5.97323 15.1898 5.7269 15.1884V15.1875C5.67248 15.1887 5.61935 15.2044 5.57299 15.2329C5.52664 15.2614 5.48872 15.3018 5.46314 15.3499L5.31039 15.6613C5.28791 15.711 5.27903 15.7657 5.28467 15.8198C5.29031 15.874 5.31027 15.9257 5.3425 15.9696C5.34938 15.9774 5.51452 16.1861 5.7581 16.4925L7.87736 19.1613C7.89874 19.1896 7.92701 19.2118 7.95946 19.2259C7.99192 19.2401 8.02746 19.2456 8.06268 19.2421C8.09777 19.2381 8.13133 19.2255 8.16044 19.2055C8.18955 19.1855 8.21331 19.1587 8.22966 19.1274L8.44342 18.6925C8.4653 18.6425 8.47369 18.5877 8.46773 18.5334C8.46177 18.4792 8.44168 18.4274 8.40947 18.3834L7.97186 17.8352L8.80993 16.1297L9.51222 16.1416C9.56649 16.1397 9.61935 16.1238 9.66565 16.0954C9.71195 16.0671 9.75012 16.0272 9.77644 15.9797L9.99066 15.5453C10.0057 15.5133 10.0125 15.4782 10.0105 15.4429C10.0085 15.4077 9.99773 15.373 9.9792 15.343ZM10.2801 14.7302C10.3225 14.7669 10.3777 14.7853 10.4336 14.7813C10.4895 14.7774 10.5415 14.7514 10.5783 14.7091L10.8691 14.3742C10.8873 14.3532 10.9013 14.3289 10.9101 14.3026C10.9189 14.2762 10.9224 14.2484 10.9205 14.2207C10.9185 14.193 10.9111 14.166 10.8987 14.1412C10.8862 14.1163 10.869 14.0942 10.848 14.076L9.12874 12.5843L12.2168 12.6311L12.2342 12.6306C12.3081 12.6269 12.409 12.599 12.4686 12.5306L12.665 12.3049C12.7018 12.262 12.7202 12.2062 12.7162 12.1498C12.7122 12.0934 12.686 12.0408 12.6434 12.0035L9.88745 9.61272C9.8465 9.57728 9.79336 9.55918 9.73929 9.56226C9.71081 9.56342 9.68287 9.57037 9.65716 9.58267C9.63145 9.59497 9.60852 9.61238 9.58975 9.63382L9.29938 9.96869C9.281 9.98954 9.26695 10.0138 9.25803 10.0402C9.24911 10.0665 9.24551 10.0943 9.24743 10.1221C9.24935 10.1498 9.25675 10.1769 9.26922 10.2017C9.28168 10.2266 9.29895 10.2487 9.32002 10.2669L11.0196 11.7412L7.97002 11.6953H7.95397C7.85495 11.7026 7.76229 11.7468 7.69433 11.8191L7.50259 12.0393C7.46645 12.0819 7.44842 12.137 7.45236 12.1927C7.45631 12.2484 7.48191 12.3004 7.52369 12.3375L10.2801 14.7302ZM13.7975 7.66089C14.176 7.65401 14.5246 7.83428 14.753 8.15584L14.7586 8.16364C15.1576 8.72465 15.0145 9.41639 14.4108 9.84575L13.8714 10.2288L12.5044 8.30538L13.043 7.92281C13.2778 7.75584 13.5388 7.66547 13.7975 7.66089ZM11.5769 8.83428C11.6462 8.83334 11.7149 8.82174 11.7806 8.79988L13.5315 11.2627C13.5475 11.2854 13.5679 11.3046 13.5914 11.3194C13.6149 11.3342 13.6411 11.3441 13.6684 11.3487C13.6958 11.3533 13.7238 11.3525 13.7509 11.3462C13.7779 11.34 13.8034 11.3284 13.826 11.3123L14.9072 10.5439C15.9196 9.82373 16.1586 8.60355 15.4746 7.64208L15.4686 7.63291C15.076 7.08107 14.4769 6.77052 13.8242 6.78291C13.3842 6.7907 12.943 6.94346 12.5471 7.22511L11.104 8.25034C11.0673 8.27648 11.0232 8.31456 11.0122 8.37557C11.0026 8.43795 11.0287 8.50859 11.1017 8.61089C11.2439 8.81043 11.4604 8.83658 11.5769 8.83428ZM18.8264 6.7696L17.7966 7.14988L17.8884 5.81502L18.8264 6.76914V6.7696ZM20.892 7.67786C20.8996 7.64333 20.8981 7.60742 20.8877 7.57365C20.8772 7.53988 20.8582 7.5094 20.8324 7.4852C20.8049 7.45859 18.0939 4.8063 17.9164 4.63658L17.9173 4.63566C17.8769 4.59929 17.8276 4.57424 17.7745 4.56304C17.7213 4.55185 17.6661 4.5549 17.6145 4.5719L17.2888 4.69208C17.2384 4.71247 17.1944 4.74591 17.1611 4.78895C17.1279 4.832 17.1068 4.88311 17.0998 4.93703L17.0411 5.60263L16.7384 8.99713C16.7344 9.03222 16.7395 9.06776 16.7532 9.1003C16.767 9.13284 16.7889 9.16129 16.8168 9.18291C16.845 9.20423 16.8779 9.21831 16.9128 9.22391C16.9477 9.22951 16.9834 9.22646 17.0168 9.21502L17.4719 9.04713C17.5221 9.02621 17.5659 8.99243 17.5989 8.94918C17.6319 8.90594 17.653 8.85476 17.6599 8.8008L17.7205 8.10125L19.503 7.44254L20.003 7.93474C20.0544 7.9852 20.1407 8.01639 20.2223 8.01502C20.2511 8.01453 20.2796 8.00926 20.3067 7.99942L20.7608 7.83199C20.794 7.81935 20.8233 7.79855 20.8463 7.77153C20.8692 7.7445 20.885 7.71259 20.892 7.67786ZM26.3769 7.16135L26.3728 6.73749C26.3721 6.6803 26.3489 6.62567 26.3083 6.58535C26.2678 6.54504 26.213 6.52225 26.1558 6.5219L24.2237 6.54025L24.2168 5.77602L25.9329 5.76043C25.9904 5.7597 26.0452 5.73622 26.0855 5.69513C26.1257 5.65403 26.148 5.59867 26.1475 5.54116L26.1439 5.11777C26.1435 5.06066 26.1206 5.00601 26.0801 4.96572C26.0397 4.92543 25.9849 4.90275 25.9278 4.90263L24.2081 4.91869L24.2026 4.18291L26.1329 4.16547C26.1613 4.16536 26.1895 4.15959 26.2157 4.14848C26.242 4.13738 26.2657 4.12117 26.2856 4.1008C26.3057 4.08051 26.3216 4.05645 26.3323 4.02999C26.343 4.00353 26.3483 3.97521 26.348 3.94667L26.3439 3.52419C26.3434 3.46708 26.3205 3.41245 26.28 3.37211C26.2396 3.33177 26.1849 3.30895 26.1278 3.30859H26.1251L23.5365 3.33199C23.5078 3.33212 23.4795 3.33799 23.4531 3.34926C23.4267 3.36052 23.4028 3.37696 23.3829 3.39758C23.3629 3.41776 23.3472 3.4417 23.3366 3.46799C23.3259 3.49429 23.3206 3.52243 23.3209 3.5508L23.354 7.18749C23.354 7.24467 23.3767 7.29951 23.4171 7.33994C23.4575 7.38037 23.5124 7.40309 23.5696 7.40309L26.1618 7.38015C26.2193 7.37943 26.2742 7.35604 26.3145 7.31507C26.3549 7.2741 26.3775 7.21886 26.3774 7.16135M27.1677 7.49667L27.6365 7.60492C27.6886 7.61466 27.7421 7.61366 27.7938 7.60199C27.8454 7.59031 27.8942 7.56821 27.937 7.53703L29.2164 6.53291L29.9251 7.99758C29.9504 8.04402 29.9846 8.08497 30.0259 8.11804C30.0672 8.15112 30.1146 8.17566 30.1654 8.19025L30.631 8.29804H30.6333L30.6416 8.29942C30.6813 8.30601 30.7222 8.30144 30.7595 8.28622C30.7968 8.271 30.8292 8.24573 30.853 8.21321C30.8768 8.1807 30.8911 8.14221 30.8944 8.10204C30.8976 8.06187 30.8897 8.02158 30.8714 7.98566L29.9122 6.00125L30.6287 5.44391L31.5783 4.70538C31.6113 4.68032 31.6366 4.64635 31.651 4.60746C31.6655 4.56857 31.6686 4.52637 31.6599 4.48579C31.6512 4.44522 31.6312 4.40795 31.6021 4.37835C31.573 4.34876 31.5361 4.32806 31.4957 4.31869L31.0425 4.21318C31.0205 4.20844 30.998 4.20598 30.9755 4.20584C30.8917 4.20513 30.8098 4.23098 30.7416 4.27969L29.5292 5.22465L28.8512 3.84208C28.8257 3.79575 28.7912 3.755 28.7496 3.72223C28.7081 3.68945 28.6605 3.66532 28.6095 3.65125L28.1462 3.54346C28.09 3.53076 28.0311 3.54068 27.9822 3.57106C27.9332 3.60145 27.8982 3.64986 27.8847 3.70584C27.873 3.75341 27.8784 3.80356 27.8998 3.84758L28.8375 5.7563L27.0824 7.11731C27.0461 7.14746 27.0204 7.18845 27.009 7.23428C26.9969 7.29002 27.0066 7.34829 27.0361 7.3971C27.0656 7.44591 27.1127 7.48154 27.1677 7.49667ZM36.993 9.15905L37.5833 8.44116L38.2618 8.9985C38.793 9.43428 38.7131 9.67098 38.5842 9.82786L38.5783 9.8352C38.5387 9.88645 38.4874 9.92736 38.4286 9.95444C38.3698 9.98152 38.3053 9.99396 38.2407 9.9907C38.081 9.9852 37.8971 9.90034 37.7086 9.74575L36.993 9.15905ZM35.0274 10.5031L35.3778 10.7907C35.3992 10.8085 35.4239 10.8219 35.4504 10.83C35.477 10.8382 35.5049 10.841 35.5326 10.8382C35.5602 10.8355 35.5871 10.8273 35.6116 10.8141C35.636 10.8009 35.6576 10.783 35.6751 10.7613L36.4526 9.81639L37.0512 10.3081L36.9971 11.9471C36.9978 12.0002 37.0096 12.0525 37.0318 12.1007C37.054 12.1489 37.0861 12.1919 37.126 12.2269L37.5035 12.5366C37.541 12.5677 37.5878 12.5856 37.6365 12.5875C37.6694 12.5887 37.7021 12.5822 37.732 12.5686C37.762 12.555 37.7883 12.5346 37.809 12.5091C37.8396 12.4716 37.8572 12.4252 37.859 12.3769C37.859 12.3632 37.8975 11.1999 37.9104 10.7857C37.998 10.8104 38.1232 10.8361 38.2654 10.8407C38.5402 10.8499 38.9342 10.7802 39.2498 10.3958L39.2572 10.3866C39.4902 10.1035 39.5847 9.7719 39.5306 9.42786C39.4714 9.05492 39.2333 8.68795 38.8411 8.36593L37.6141 7.35997C37.5921 7.34195 37.5668 7.32845 37.5396 7.32023C37.5124 7.31202 37.4839 7.30927 37.4556 7.31212C37.4273 7.31498 37.3999 7.32339 37.3749 7.33688C37.3499 7.35036 37.3278 7.36865 37.3099 7.3907L34.998 10.2063C34.9627 10.2496 34.946 10.3051 34.9514 10.3606C34.9568 10.4162 34.9844 10.4674 35.0274 10.5031ZM38.2957 13.3384C38.2922 13.3667 38.2943 13.3954 38.302 13.4229C38.3096 13.4504 38.3226 13.4761 38.3402 13.4985L39.9352 15.538C39.9526 15.5605 39.9744 15.5794 39.9993 15.5934C40.0241 15.6075 40.0514 15.6165 40.0798 15.6199C40.1081 15.6234 40.1368 15.6211 40.1643 15.6133C40.1918 15.6056 40.2174 15.5924 40.2397 15.5746L40.5732 15.3136C40.5958 15.2962 40.6148 15.2744 40.6289 15.2496C40.643 15.2248 40.652 15.1974 40.6554 15.169C40.6588 15.1407 40.6566 15.1119 40.6488 15.0845C40.6409 15.057 40.6277 15.0314 40.6099 15.0091L39.4219 13.4884L40.0237 13.0187L41.0806 14.3701C41.1162 14.4152 41.1682 14.4444 41.2253 14.4513C41.2824 14.4582 41.3399 14.4422 41.3852 14.4068L41.7191 14.1457C41.7643 14.1102 41.7936 14.0583 41.8006 14.0012C41.8077 13.9442 41.7919 13.8866 41.7567 13.8412L40.6985 12.4889L41.2783 12.037L42.4673 13.5572C42.5028 13.6025 42.5549 13.6319 42.612 13.639C42.6692 13.646 42.7268 13.6302 42.7723 13.5948L43.1049 13.3343C43.1508 13.299 43.1801 13.2471 43.1865 13.1898C43.1903 13.1614 43.1884 13.1326 43.1808 13.105C43.1732 13.0775 43.1602 13.0517 43.1425 13.0292L41.5475 10.9902C41.53 10.9677 41.5081 10.9488 41.4833 10.9347C41.4584 10.9206 41.431 10.9116 41.4026 10.9081L41.387 10.9072C41.335 10.9044 41.2837 10.9207 41.243 10.9531L38.3783 13.1935C38.3555 13.2109 38.3365 13.2327 38.3223 13.2576C38.3082 13.2825 38.2991 13.31 38.2957 13.3384ZM43.0342 15.1256C42.4498 15.4008 42.2966 15.9398 42.5053 16.9866C42.6641 17.7815 42.5466 17.8366 42.4508 17.882C42.4064 17.903 42.3575 17.9121 42.3086 17.9086C42.1375 17.8967 41.9586 17.7357 41.842 17.488C41.6659 17.1141 41.6586 16.9054 41.7264 16.4297C41.7343 16.3728 41.7196 16.315 41.6855 16.2688C41.6514 16.2225 41.6006 16.1914 41.5439 16.182L41.1342 16.1159C41.0785 16.1073 41.0215 16.1196 40.9743 16.1505C40.9271 16.1815 40.8931 16.2288 40.8787 16.2834C40.8714 16.3109 40.681 17.021 41.0654 17.837C41.3255 18.3902 41.7764 18.7407 42.27 18.7756C42.465 18.7893 42.6553 18.7526 42.8365 18.6673L42.8462 18.6627C43.4081 18.399 43.57 17.8352 43.3709 16.838C43.2058 16.0132 43.3301 15.9545 43.4297 15.9072C43.4632 15.893 43.4998 15.8875 43.5361 15.8912C43.6723 15.9003 43.8641 16.0095 43.9948 16.2857C44.1636 16.6448 44.1407 16.9967 44.1347 17.0577L44.1333 17.0673C44.1289 17.1235 44.1448 17.1794 44.1782 17.2249C44.2115 17.2703 44.26 17.3023 44.315 17.315L44.726 17.398C44.7815 17.4094 44.8393 17.3984 44.8869 17.3675C44.9344 17.3366 44.9679 17.2883 44.9801 17.2329C44.9847 17.2123 45.1131 16.6641 44.77 15.9357C44.5209 15.4072 44.0622 15.0577 43.5714 15.0228C43.39 15.0093 43.2083 15.0432 43.0439 15.121L43.0342 15.1256ZM46.2186 20.2306C46.0728 19.5448 45.5668 19.0476 44.9893 19.0224C44.9 19.0185 44.8106 19.0261 44.7232 19.0448L44.7141 19.0462C44.0815 19.1815 43.8095 19.6719 43.7751 20.7389C43.7485 21.5485 43.6205 21.576 43.5182 21.598C43.4941 21.6032 43.4694 21.6054 43.4448 21.6045C43.2503 21.5953 43.081 21.388 43.0145 21.0756C42.9283 20.6719 42.9686 20.4673 43.143 20.0191C43.1634 19.9656 43.1622 19.9061 43.1395 19.8534C43.1168 19.8007 43.0744 19.7589 43.0214 19.737L42.6379 19.5788C42.5857 19.5573 42.5273 19.5561 42.4743 19.5754C42.4212 19.5948 42.3773 19.6333 42.3512 19.6834C42.3375 19.7091 41.9902 20.3568 42.1787 21.2393C42.3338 21.9641 42.8209 22.4494 43.4196 22.4756C43.5173 22.4802 43.6168 22.4714 43.715 22.4508L43.7251 22.4485C44.3324 22.3187 44.6177 21.8077 44.6512 20.7912C44.6787 19.9499 44.8127 19.9214 44.9205 19.8985C44.9348 19.8953 44.9495 19.8942 44.9641 19.8953C45.1164 19.9022 45.3127 20.0609 45.3838 20.3953C45.4358 20.6555 45.4226 20.9245 45.3452 21.1783L45.3448 21.1788L45.3416 21.188C45.3253 21.2415 45.3284 21.299 45.3504 21.3504C45.3724 21.4019 45.4118 21.4439 45.4618 21.4691L45.8434 21.6448C45.8962 21.6686 45.9561 21.6707 46.0104 21.6508C46.0625 21.6316 46.1049 21.5925 46.1283 21.5421C46.1535 21.4902 46.3829 20.9985 46.2186 20.2306Z" fill="#0C1A22"/>
<path fill-rule="evenodd" clip-rule="evenodd" d="M5.49199 26.4262C5.31469 26.4262 5.14462 26.4965 5.01907 26.6217C4.89353 26.7469 4.82275 26.9168 4.82227 27.0941C4.82227 27.2263 4.86143 27.3554 4.93481 27.4653C5.00819 27.5752 5.11249 27.6608 5.23453 27.7115C5.35658 27.7621 5.49089 27.7754 5.6205 27.7497C5.75011 27.7241 5.8692 27.6605 5.96272 27.5672C6.05625 27.4739 6.12001 27.3549 6.14595 27.2254C6.1719 27.0958 6.15886 26.9615 6.10848 26.8393C6.05811 26.7172 5.97266 26.6127 5.86293 26.5391C5.7532 26.4655 5.62412 26.4265 5.49199 26.4262Z" fill="#D02C2F"/>
<path fill-rule="evenodd" clip-rule="evenodd" d="M33.9319 7.42769L33.2255 7.08824L33.6892 6.12219L34.3956 6.46118C34.7516 6.63274 34.9232 6.86393 34.8782 7.11255C34.8689 7.1607 34.8533 7.20742 34.8319 7.25154L34.8273 7.26072C34.7956 7.32888 34.7478 7.38837 34.6882 7.43413C34.6285 7.47989 34.5587 7.51057 34.4846 7.52356C34.3218 7.55613 34.1305 7.5231 33.9319 7.42769ZM31.5814 8.5043C31.5733 8.54987 31.5803 8.59685 31.6013 8.63809C31.6223 8.67932 31.6563 8.71256 31.6979 8.73274L32.1062 8.92953C32.1312 8.94185 32.1584 8.94907 32.1862 8.95075C32.214 8.95243 32.2418 8.94854 32.2681 8.93931C32.2944 8.93008 32.3185 8.9157 32.3392 8.897C32.3598 8.87831 32.3765 8.85568 32.3883 8.83044L32.8544 7.86026L33.5603 8.19971C33.9475 8.38549 34.3534 8.44833 34.7025 8.37586C35.1103 8.29237 35.4282 8.0332 35.6236 7.62677L35.6282 7.6176C35.6843 7.50228 35.7246 7.37992 35.7479 7.25384C35.8622 6.62448 35.4956 6.03962 34.7667 5.68916L33.0608 4.86989C33.02 4.85017 32.9658 4.82999 32.9076 4.85017C32.8479 4.87127 32.7989 4.92815 32.7443 5.04191C32.7239 5.08361 32.7094 5.12791 32.7012 5.17356C32.6585 5.40934 32.792 5.6231 32.9076 5.72723L31.5984 8.45109C31.5906 8.46806 31.5849 8.48593 31.5814 8.5043Z" fill="#0C1A22"/>
<path fill-rule="evenodd" clip-rule="evenodd" d="M42.6131 46.7202C42.3345 46.7202 42.0673 46.6095 41.8703 46.4125C41.6733 46.2155 41.5627 45.9484 41.5627 45.6698C41.5627 45.3912 41.6733 45.124 41.8703 44.927C42.0673 44.73 42.3345 44.6193 42.6131 44.6193C42.8917 44.6193 43.1589 44.73 43.3559 44.927C43.5529 45.124 43.6636 45.3912 43.6636 45.6698C43.6636 45.9484 43.5529 46.2155 43.3559 46.4125C43.1589 46.6095 42.8917 46.7202 42.6131 46.7202ZM42.6131 44.3945C42.2749 44.3945 41.9506 44.5289 41.7114 44.768C41.4722 45.0072 41.3379 45.3315 41.3379 45.6698C41.3379 46.008 41.4722 46.3323 41.7114 46.5715C41.9506 46.8106 42.2749 46.945 42.6131 46.945C42.9513 46.945 43.2757 46.8106 43.5148 46.5715C43.754 46.3323 43.8884 46.008 43.8884 45.6698C43.8884 45.3315 43.754 45.0072 43.5148 44.768C43.2757 44.5289 42.9513 44.3945 42.6131 44.3945Z" fill="white"/>
<path fill-rule="evenodd" clip-rule="evenodd" d="M42.365 45.2478C42.3603 45.2478 42.3557 45.2497 42.3524 45.253C42.349 45.2564 42.3471 45.2609 42.3471 45.2657V45.6519C42.3473 45.6567 42.3492 45.6613 42.3527 45.6646C42.3561 45.6679 42.3607 45.6698 42.3655 45.6698H42.6701C42.8283 45.6698 42.9288 45.5872 42.9288 45.4579C42.9288 45.3198 42.832 45.2482 42.6687 45.2482L42.365 45.2478ZM42.9219 46.2886L42.6343 45.8799C42.631 45.8756 42.6267 45.8721 42.6219 45.8695C42.6171 45.867 42.6118 45.8655 42.6063 45.8652H42.365C42.3627 45.8652 42.3604 45.8656 42.3582 45.8664C42.3561 45.8673 42.3541 45.8685 42.3524 45.8702C42.3507 45.8718 42.3494 45.8737 42.3485 45.8759C42.3476 45.878 42.3471 45.8803 42.3471 45.8827V46.2849C42.3471 46.295 42.3398 46.3033 42.3297 46.3033H42.1444C42.142 46.3032 42.1397 46.3027 42.1376 46.3018C42.1354 46.3008 42.1335 46.2994 42.1319 46.2977C42.1303 46.296 42.129 46.294 42.1281 46.2918C42.1273 46.2896 42.1269 46.2873 42.127 46.2849V45.0648C42.127 45.0547 42.1348 45.0469 42.1444 45.0469H42.6866C42.9756 45.0469 43.1531 45.1996 43.1531 45.446C43.1531 45.6464 43.0371 45.7712 42.8705 45.8221C42.8614 45.8253 42.8582 45.834 42.8641 45.8414L43.182 46.2886C43.188 46.2964 43.1848 46.3028 43.1751 46.3028H42.9504C42.9449 46.3026 42.9395 46.3012 42.9346 46.2988C42.9297 46.2963 42.9254 46.2929 42.9219 46.2886Z" fill="white"/>
</g>
<defs>
<clipPath id="clip0_491_982">
<rect width="50" height="50" fill="white"/>
</clipPath>
</defs>
</svg>
