<svg width="202" height="50" viewBox="0 0 202 50" fill="none" xmlns="http://www.w3.org/2000/svg">
<path d="M69.8171 27.6876C70.6884 26.7333 72.2028 26.92 73.5306 26.5466C75.8541 25.9035 79.5054 24.2023 79.4017 21.2356C79.3187 18.6424 76.8084 17.1279 73.8833 16.6715C71.8087 23.7251 68.3441 30.0319 65.0455 36.1727C64.0497 38.0398 63.0539 40.7783 60.4607 40.9857C59.1744 39.8862 59.6101 38.268 59.8175 37.127C60.3984 33.7869 61.9544 30.1771 63.3236 27.2934C65.2322 23.2065 67.8877 19.41 70.5639 16.4848C69.3607 16.5263 68.5931 16.6923 67.701 16.1321C66.9126 12.709 70.5224 11.9829 72.9912 11.817C78.7171 11.4643 84.4844 14.7214 84.3392 20.5925C84.2147 25.3641 79.0905 28.4759 74.2359 28.8701C72.8667 28.9946 70.7714 29.1606 69.8171 27.6876ZM153.776 23.4554C154.647 21.7543 155.228 20.2191 156.162 18.1237C156.576 17.1902 158.879 12.9787 156.68 12.4394C156.639 12.4394 156.556 12.4186 156.514 12.4394C152.801 13.4766 150.124 20.6132 147.822 23.5799C144.979 23.5177 141.515 23.2895 141.66 25.3641C141.785 27.0652 144.274 27.3972 145.706 28.227C145.166 29.8867 141.992 36.5461 144.71 38.2473C147.552 40.0314 149.046 35.8615 149.689 34.0981C150.498 31.899 151.1 29.9282 152.033 28.2685C154.274 28.1025 156.742 27.3349 158.589 27.3142C158.091 29.2643 157.012 31.982 158.195 34.4923C160.269 35.82 161.825 34.3678 162.551 33.0193C163.713 30.8825 163.879 27.0652 164.73 25.3433C166.078 24.5342 168.173 24.4512 168.485 22.6878C167.717 21.941 166.514 22.7086 165.497 22.6671C165.767 21.2564 166.472 19.7834 166.97 18.3312C167.447 16.8997 168.381 15.1363 167.24 13.6426C164.916 14.0368 163.921 16.1529 162.945 17.7918C161.867 19.5967 160.975 21.5468 159.917 23.2895C157.842 23.3517 155.975 23.5799 153.776 23.4554ZM95.9777 12.9995C93.4467 12.1697 89.2767 14.1613 87.9282 16.1114C87.0569 17.3769 86.7665 19.8456 88.4469 20.3021C90.5422 20.8829 92.1397 18.4764 93.0317 17.5014C94.401 16.0077 95.6042 14.9704 95.9777 12.9995ZM193.027 16.5678C190.973 16.0284 190.123 17.6051 188.919 19.0366C187.944 20.1983 187.363 21.3601 186.803 21.5261C185.434 21.941 183.276 20.6547 182.115 20.9867C181.721 21.0904 181.077 21.6298 181.057 22.3144C181.015 24.0986 183.173 24.3683 184.936 25.0114C184.169 26.6918 183.152 28.7456 182.613 31.0069C182.115 33.1023 181.555 36.1727 182.716 38.3717C184.148 38.1435 184.48 36.4424 184.957 35.3843C186.617 31.7123 188.152 27.8743 190.226 24.7209C193.463 24.4927 196.803 23.6007 199.375 22.9575C200.288 22.7293 201.595 22.8123 201.927 21.7958C201.263 21.0074 199.956 21.2771 198.898 21.2771C196.367 21.2356 193.649 21.4223 191.948 21.3808C192.529 20.1361 194.272 18.5801 193.027 16.5678ZM124.98 28.6004C125.603 26.0902 127.864 25.1151 130.457 24.4512C131.163 24.472 130.146 25.1981 130.229 25.613C130.063 26.0694 129.814 26.4636 129.856 27.1067C128.238 27.6254 127.117 28.5797 124.98 28.6004ZM111.89 30.841C113.404 29.4717 114.628 28.144 116.35 26.5258C117.512 25.4263 120.624 23.5384 119.732 21.1941C119.255 19.9286 117.035 19.6589 115.458 19.6589C113.197 19.6589 110.334 20.3643 108.031 20.2813C107.222 20.2606 106.475 19.5967 105.853 20.0946C103.757 24.472 110.375 24.1815 113.632 23.8289C111.288 26.3806 107.139 27.9158 105.085 30.7787C104.546 31.5256 103.861 32.7081 104.359 33.9529C105.23 34.6582 106.226 34.1811 107.201 34.1396C111.558 34.0151 116.558 35.4466 119.794 33.9114C120.458 33.6002 120.873 33.0193 121.516 32.5836C125.478 33.8491 128.3 31.5878 130.623 30.3016C132.034 32.1895 137.739 32.3139 138.216 29.8452C137.304 28.31 134.835 29.1813 134.378 27.4801C133.901 25.7167 136.909 23.1857 135.021 21.2979C134.295 20.8 133.486 21.5676 133.03 21.2771C127.345 20.5718 121.412 23.6629 119.96 27.8743C119.566 28.9946 119.856 30.4053 120.084 31.3804C117.657 32.3969 114.545 31.1937 111.89 30.841ZM88.7581 21.9825C87.9905 21.6298 87.6586 21.858 87.2851 22.3144C84.9616 25.1359 79.6506 29.534 80.1278 34.1396C80.2938 35.7785 81.2481 37.8738 83.3641 37.1685C83.9865 36.6083 83.7376 35.8822 84.028 35.1561C85.7292 31.0069 90.646 28.0818 88.7581 21.9825ZM104.463 23.2687C102.554 22.5841 99.3177 23.0198 96.4756 22.8745C93.9238 22.7293 90.6045 21.8165 90.7704 23.9948C90.9571 26.5881 96.1851 26.3184 98.9028 26.0694C96.9735 27.8536 94.7122 29.5755 92.5338 31.3804C90.646 32.9571 87.1814 34.8242 88.1357 38.3717C90.2725 39.575 92.7828 38.3717 95.6042 38.268C100.894 38.0813 105.417 39.658 110.458 39.2223C112.429 39.0564 115.52 38.3925 115.354 36.2557C114.234 35.5918 113.28 36.2764 112.222 36.4009C107.056 36.9403 102.181 34.0566 96.2888 34.4508C97.8033 32.8741 99.7949 31.2974 101.538 29.6377C103.094 28.0818 105.438 26.1731 104.463 23.2687ZM170.621 32.6044C171.306 30.6335 172.136 26.0902 169.356 25.4055C168.402 25.1773 167.115 25.447 166.431 26.0487C166.431 27.086 167.572 26.8578 167.572 27.8951C166.866 29.9904 163.879 33.9114 166.431 36.2557C168.713 38.351 172.468 35.8407 173.63 34.9694C174.501 34.3263 175.269 33.4342 175.974 33.3097C176.244 35.986 177.281 37.8531 179.708 38.185C180.434 37.3967 179.812 36.5254 179.812 35.5088C179.812 33.9114 180.372 32.065 180.725 30.509C181.098 28.8494 182.032 27.0445 180.808 25.4885C179.376 25.1773 178.754 26.3806 178.131 27.1275C176.119 29.5755 173.92 31.4426 170.621 32.6044Z" fill="black"/>
<path d="M2.88688 32.4184C2.92837 33.2275 2.96986 33.8291 3.09434 34.4308C3.15657 34.7212 2.96986 35.3643 2.18152 35.2191C1.74585 35.1361 1.31019 34.9702 0.978255 34.6797C0.625574 34.3893 0.438861 33.9536 0.314385 33.5387C0.0446886 32.5636 -0.556943 29.597 1.2687 29.6385C1.68362 29.6385 2.0363 29.8252 2.28525 30.1364C2.7624 30.7795 2.84539 31.6716 2.88688 32.4184ZM52.8638 20.0954C52.8638 20.0954 51.1004 5.46948 38.5491 1.50701C31.537 -0.712799 28.0517 -0.0281838 23.7573 0.718669C18.6953 1.61074 12.6582 3.74757 8.30156 7.46109C5.3349 9.99209 2.32674 13.8301 1.18571 18.6431C0.563336 21.2571 0.501099 23.7674 0.978255 26.5058C1.14422 27.5016 2.55494 28.4145 2.57569 26.7963C2.72091 8.80957 17.5335 5.44874 18.0521 5.34501C18.2596 5.30352 18.4463 5.28277 18.6123 5.24128C18.8405 5.17904 19.1102 5.13755 19.3384 5.17904C19.4629 5.19979 19.5873 5.44874 19.3799 5.55247C18.1974 6.11261 13.5918 7.6893 11.0815 9.88836C8.50902 12.0874 5.18967 15.6765 4.13163 21.8795C3.94492 22.9375 3.77895 28.4352 4.2976 32.2939C4.58804 34.5138 6.10249 37.5219 7.11904 38.8082C9.83676 42.2727 14.5253 45.2394 17.0771 46.1522C18.6953 46.7331 20.6869 46.8991 21.6827 47.148C22.0354 47.231 21.9939 47.6667 21.6412 47.7289C20.023 47.9986 16.102 47.0858 12.8449 45.4883C10.4176 44.2851 8.73722 42.6462 7.0983 40.8828C5.2934 38.9326 4.33909 36.8995 3.65448 37.0448C2.55494 37.273 3.48851 39.6173 3.96567 40.5301C5.62534 43.642 8.96543 46.3389 10.6251 47.231C15.8116 50.0732 21.0603 50.1354 23.4461 49.928C33.6531 49.0774 39.9183 44.1606 42.719 40.3226C44.3372 38.0821 47.9885 33.3312 47.9055 26.4021C47.9055 25.3026 47.9885 17.6266 45.4782 13.6226C44.9181 12.7098 43.1962 8.97554 36.7027 5.78067C36.2048 5.53172 33.985 4.41144 32.1801 4.36995C31.4125 4.3492 29.8773 4.28697 30.0225 3.37415C30.1263 2.73102 33.902 3.5816 34.2962 3.68533C37.0139 4.43219 40.4992 6.52752 42.9265 8.37391C50.4365 14.0998 49.6689 26.2361 49.6689 26.2361C49.3577 39.1401 41.8062 44.5963 36.3708 47.8326C36.267 47.8949 35.8729 48.3928 35.9973 48.5795C36.1218 48.7662 36.3915 48.7455 36.6405 48.7247C38.7151 48.5173 40.7482 46.9613 42.4908 45.6128C51.4323 38.6007 51.8887 33.1238 52.3866 31.0492C53.1542 28.0618 53.1957 21.9832 52.8638 20.0954Z" fill="#C8102E"/>
<path d="M39.1926 23.5611C38.9229 23.4573 38.6947 23.3744 38.508 23.2914C37.8234 23.0217 36.143 22.5653 34.7945 22.2126C34.0477 22.0051 33.2801 21.8184 33.1348 21.7562C32.9896 21.528 32.6577 20.1173 32.5125 19.4326C32.4295 19.08 32.3672 18.8103 32.3257 18.6858C32.2013 18.2501 32.056 18.0219 31.6204 18.0634C31.6204 18.0634 31.5996 18.0634 31.5789 18.0634C31.4337 18.0842 29.4213 18.5821 26.1435 19.4326C23.9444 19.9928 21.6623 20.5737 21.5171 20.5944C21.3304 20.6152 21.2267 20.7189 19.7952 22.9594C19.3595 23.6233 18.8409 24.4739 18.7579 24.5569C18.7164 24.5984 18.4052 24.7228 18.0733 24.8681C17.1605 25.283 15.4593 26.0713 14.0071 26.9012C12.4304 27.8555 9.33927 29.8056 9.11107 30.2413C9.02808 30.4072 9.02808 30.5732 9.11107 30.6977C9.2148 30.8636 9.46375 30.9674 9.75419 30.9259C9.81643 30.9259 9.87866 30.9051 9.96165 30.8844C10.2728 30.8014 20.0234 28.8513 25.6248 27.9385C27.0148 27.7103 28.7989 27.4821 30.8735 27.2538C35.9978 26.7145 41.1635 26.424 41.4747 26.4448C41.7859 26.4862 42.0763 26.3618 42.2838 26.1128C42.4497 25.9261 42.5535 25.6772 42.5327 25.4282C42.5327 24.9511 41.4539 24.4532 39.1926 23.5611Z" fill="white"/>
<path d="M189.041 35.0308C188.855 35.2175 188.626 35.3005 188.357 35.3005C188.087 35.3005 187.859 35.2175 187.672 35.0308C187.485 34.8441 187.402 34.6158 187.402 34.3462C187.402 34.0557 187.506 33.8275 187.693 33.6408C187.88 33.4748 188.108 33.3711 188.357 33.3711C188.626 33.3711 188.855 33.4748 189.041 33.6615C189.228 33.8482 189.332 34.0765 189.332 34.3462C189.332 34.6158 189.249 34.8441 189.041 35.0308ZM187.817 33.786C187.672 33.952 187.589 34.1387 187.589 34.3462C187.589 34.5744 187.672 34.7611 187.817 34.9063C187.962 35.0723 188.149 35.1345 188.377 35.1345C188.606 35.1345 188.792 35.0515 188.938 34.9063C189.083 34.7403 189.166 34.5536 189.166 34.3462C189.166 34.1387 189.083 33.952 188.938 33.786C188.772 33.62 188.585 33.5371 188.377 33.5371C188.149 33.5371 187.962 33.62 187.817 33.786ZM187.962 34.8855V33.8275C188.025 33.8275 188.128 33.8275 188.253 33.8275C188.377 33.8275 188.46 33.8275 188.481 33.8275C188.564 33.8275 188.626 33.8482 188.689 33.8897C188.792 33.9312 188.834 34.035 188.834 34.1387C188.834 34.2217 188.813 34.2839 188.751 34.3254C188.709 34.3669 188.647 34.3876 188.564 34.3876C188.626 34.4084 188.689 34.4291 188.709 34.4499C188.772 34.4914 188.813 34.5744 188.813 34.6988V34.8026V34.8233V34.8441V34.8648H188.564C188.564 34.8233 188.543 34.7818 188.543 34.7196C188.543 34.6573 188.543 34.6158 188.523 34.5951C188.502 34.5536 188.481 34.5329 188.44 34.5121C188.419 34.5121 188.377 34.4914 188.336 34.4914H188.274H188.211V34.8648L187.962 34.8855ZM188.46 34.0142C188.419 33.9935 188.377 33.9935 188.294 33.9935H188.232V34.3047H188.336C188.398 34.3047 188.46 34.2839 188.481 34.2632C188.523 34.2424 188.543 34.2009 188.543 34.1387C188.543 34.0765 188.523 34.035 188.46 34.0142Z" fill="white"/>
</svg>
