<svg width="131" height="50" viewBox="0 0 131 50" fill="none" xmlns="http://www.w3.org/2000/svg">
<path fill-rule="evenodd" clip-rule="evenodd" d="M52.6941 31.3239C52.1909 33.2681 50.9005 35.0354 49.9321 36.254C49.4884 36.8121 45.6462 40.9621 46.437 37.8228C47.4962 33.6187 53.6422 27.661 52.6939 31.3239H52.6941ZM32.7105 35.5082C32.3201 32.2228 35.8098 28.4484 37.3387 29.6924C38.5082 30.6436 35.8345 33.3875 35.185 33.9715C34.7424 34.3695 33.2344 35.5299 32.7107 35.5082H32.7105ZM42.011 39.8814C42.0563 39.8411 42.1198 39.7099 42.1711 39.6773C42.2448 39.7786 42.4769 39.2946 42.2168 39.9085C40.8236 45.5872 46.8307 45.0416 50.3933 40.9479L51.4737 39.7495C51.3826 41.4144 51.5063 43.2381 53.0632 43.5027C54.568 43.7588 55.6125 42.2742 55.9226 41.0877L55.4448 40.7347C55.327 38.6582 55.9859 34.5447 56.3671 32.4533C56.8445 29.8364 57.5082 27.4591 58.2435 25.038C58.5438 24.0489 59.2996 22.3911 59.1209 21.3345C58.9192 20.142 57.5754 19.2943 56.2687 20.0015C55.0257 20.6743 54.5551 23.191 54.226 24.901C54.101 25.5513 54.0693 26.3275 53.8929 26.9188C50.9921 26.7803 49.3617 27.9558 47.9577 29.3373L43.7526 33.7196C42.1267 35.3478 38.7017 38.674 36.5795 39.4868C35.3279 39.9663 33.8985 40.0044 33.4764 38.8526C34.6467 37.6743 41.5873 33.7517 41.4744 29.0893C41.3766 25.0447 35.2452 24.3706 30.8739 30.017C29.7081 31.5228 28.4457 33.8043 28.2975 36.262C28.2026 37.837 28.3324 36.9227 27.7314 37.9307C27.4234 38.4471 27.4292 39.1782 27.6962 39.6915C28.0929 40.454 28.3567 40.176 29.0051 40.6201C29.165 40.7296 29.081 40.641 29.2359 40.8578C29.2851 40.9265 29.3818 41.1203 29.449 41.2332C30.8306 43.5577 33.215 44.3921 36.4448 43.2334C38.7489 42.407 40.3916 41.1147 42.0106 39.8814H42.011ZM66.4277 20.0448C66.7834 18.9288 68.0247 18.4407 69.473 18.4721C71.9014 18.5247 82.6905 21.6449 76.5069 25.8877C74.9045 26.9874 69.247 30.5038 67.8553 30.8309C67.9723 28.4559 69.0815 22.6383 68.7309 21.2421C68.4425 20.0942 67.564 20.2127 66.4279 20.0446L66.4277 20.0448ZM67.0013 37.9042C67.6008 38.1454 69.3498 39.4963 70.0001 39.9702L75.9514 44.1378C76.5218 44.5403 78.5298 46.2684 79.3411 44.9575C80.4968 43.0907 76.6048 40.177 75.2525 39.0705C74.2899 38.2829 73.4932 37.5245 72.5233 36.7451C72.0195 36.3404 71.6544 36.0316 71.1213 35.5595C70.7134 35.1981 70.1285 34.7074 69.7161 34.4111C69.9971 34.0501 72.7692 32.6708 73.3978 32.3087C74.6375 31.5952 75.9316 30.8818 77.0823 30.1118C78.3582 29.2578 79.348 28.5736 80.4494 27.7144C83.655 25.2134 83.1822 19.6134 78.0412 16.5209C75.6684 15.0936 72.2322 13.8565 68.8806 13.914C61.4015 14.042 62.4333 20.0396 62.7925 24.8572L63.1535 31.7969C63.1616 32.4889 63.2116 32.5665 62.9046 32.9988C62.0913 34.1443 62.9087 34.4189 63.0711 35.0162C63.2519 35.6806 62.5667 38.6942 62.9028 40.3611C63.2179 41.9234 64.4611 43.4209 66.1402 42.227C66.5328 41.9482 67.2776 41.0539 66.8574 40.3074C66.7427 40.1036 66.5882 40.666 66.8164 39.2672C66.8927 38.799 66.9608 38.3691 67.0017 37.9042H67.0013Z" fill="#D71440"/>
<path fill-rule="evenodd" clip-rule="evenodd" d="M13.9923 19.7066C15.3527 15.8381 25.9472 20.0471 25.9798 22.8524C25.9964 24.2843 24.8676 24.9388 24.047 25.5393C22.3767 26.7616 20.2306 27.9175 18.4177 28.9687C17.6941 29.3883 16.2255 30.2464 15.4471 30.4703C15.3277 27.9992 16.7 22.6929 16.3132 20.9603C16.0473 19.7693 15.2254 19.8031 13.9921 19.7066H13.9923ZM14.6552 37.583C15.1413 37.8582 15.6148 38.2366 16.1132 38.5709L20.6754 41.7733C21.677 42.4818 22.6439 43.1703 23.6307 43.8722C24.2239 44.2941 26.2933 45.9608 26.9801 44.4685C27.9651 42.3284 23.1851 39.0527 21.4771 37.5585L17.2797 34.0132L20.9446 31.9636C23.4148 30.5164 25.824 29.1191 28.0033 27.376C29.0195 26.5631 29.8647 25.2823 29.98 23.4452C30.397 16.8022 21.7169 13.5137 16.5354 13.5571C9.08038 13.6193 9.97209 19.4521 10.3389 24.2615C10.4781 26.0865 10.6255 27.9376 10.6768 29.7927C10.699 30.5873 10.9306 31.8285 10.5231 32.4791C9.60123 33.9502 10.4509 33.8709 10.6397 34.6437C10.8317 35.4292 10.1298 38.2521 10.4645 39.9903C11.2422 44.0306 15.206 41.7716 14.4559 40.0078C14.3134 39.6727 14.1501 40.3327 14.3925 38.8206C14.4602 38.3993 14.4834 37.8451 14.6554 37.583H14.6552ZM90.5792 30.9762C91.3022 32.0472 91.4291 32.7773 91.1511 34.3073C90.7921 36.2827 89.7524 38.17 88.2118 39.357C83.9498 42.64 83.8584 36.7452 85.3503 33.7893C86.1769 32.1513 87.1438 33.4796 87.9009 32.3373C88.4698 31.4783 88.7792 30.7681 90.5794 30.9762H90.5792ZM103.344 30.9183C106.813 30.1636 104.415 39.7709 99.9217 40.261C97.6812 40.5053 98.0575 36.4289 98.7488 34.4862C99.5263 32.3013 100.246 33.0417 101.11 32.7252C102.043 32.3832 101.476 31.3245 103.344 30.9183ZM93.6591 37.8084C93.725 40.7223 93.7237 41.9425 95.4151 43.6093C96.7768 44.951 99.5758 44.7223 101.33 43.8925C106.145 41.614 110.555 34.548 107.651 29.2588C106.554 27.2609 104.263 25.6178 101.39 27.0077C100.986 27.2034 100.491 27.5576 100.17 27.6725C98.7915 28.1666 99.5429 25.8428 96.2689 30.8286C95.7121 31.6766 95.4026 32.5116 94.9113 33.335C94.6941 30.8 94.2303 29.1303 92.8048 27.8684C89.3576 24.8168 87.1751 27.9326 85.9897 27.7479C85.1005 27.6094 85.1143 27.5777 84.5952 28.0947C83.9179 28.7696 83.5276 29.4077 82.9725 30.2397C81.9931 31.7074 81.0409 33.4615 80.4855 35.3928C79.218 39.7987 80.039 45.1675 85.346 44.6088C89.171 44.206 91.8713 40.8488 93.6591 37.8084Z" fill="#D71440"/>
<path fill-rule="evenodd" clip-rule="evenodd" d="M3.22905 10.0304C3.63504 10.9835 4.07486 11.7028 5.47901 11.5791C6.53687 11.4858 7.42642 10.698 8.03476 10.2349C14.7864 5.09428 12.5784 5.72589 23.8838 10.5687C27.4873 12.1125 31.1001 13.7043 34.6777 15.3007C38.1769 16.8621 42.0376 18.5796 45.6956 19.928C46.8382 20.3493 46.5197 20.1165 46.8938 20.6135C47.0698 20.8473 46.9291 20.896 47.4903 20.9509C48.7115 21.0705 50.1182 20.1305 50.6692 19.2214C52.0348 16.9692 49.0284 15.9704 47.4972 15.3L17.5731 2.4045C17.118 2.20926 16.6497 1.98429 16.1813 1.80026C15.7225 1.61989 15.0264 1.52076 14.6258 1.32617H13.5585C13.527 1.34363 13.4863 1.36216 13.4613 1.37293L13.084 1.52615C11.4456 2.10259 9.20079 3.87459 7.71777 4.97619C4.83749 7.11604 3.00623 7.53625 3.22926 10.0304H3.22905ZM114.755 30.1176L119.575 30.015L119.87 30.5593C121.719 30.3137 123.708 27.0132 122.477 25.8417C121.413 24.8296 117.004 26.1335 115.466 26.3893C115.876 23.0192 117.154 18.8091 119.588 16.6247C120.854 15.489 123.098 15.0968 125.241 15.3136C126.496 15.4405 125.548 15.9142 126.382 15.895C126.787 15.8855 127.297 15.4804 127.522 15.2632C128.104 14.701 128.527 13.8383 128.528 12.7367C128.528 10.1959 126.636 9.97176 124.313 10.0664C122.335 10.1467 120.315 10.5652 118.7 11.3783C113.158 14.1681 112.202 20.543 111.361 26.6332C111.243 27.4832 111.387 27.4597 110.841 27.8749C110.448 28.1736 110.238 28.3893 110.144 28.9729C110.051 29.5478 110.174 30.0633 110.456 30.4509C110.881 31.0379 110.83 30.7793 110.67 31.7019C110.581 32.2173 110.506 32.7134 110.426 33.2174C109.982 36.0016 109.385 39.9542 109.291 42.6274C109.224 44.506 109.531 47.3542 111.738 46.8825C112.841 46.6467 113.773 45.5658 113.803 44.7088C113.844 43.5617 113.23 45.1738 113.229 42.6164C113.229 38.2447 114.278 34.2738 114.755 30.1178V30.1176Z" fill="#D71440"/>
<path fill-rule="evenodd" clip-rule="evenodd" d="M42.0117 39.8801L42.2175 39.9073C42.4776 39.2933 42.2455 39.7775 42.1718 39.676C42.1205 39.7088 42.057 39.84 42.0117 39.8801Z" fill="#F1B6C4"/>
<path fill-rule="evenodd" clip-rule="evenodd" d="M117.589 43.5301C117.238 42.4494 117.892 41.3971 118.649 41.1502C119.663 40.8198 120.623 41.4674 120.862 42.2632C121.595 44.7056 118.287 45.6807 117.589 43.5301H117.589ZM118.577 40.7578C117.528 41.098 116.743 41.9324 117.082 43.443C117.708 46.2414 122.107 45.3006 121.334 42.2326C121.09 41.262 119.815 40.3561 118.577 40.7578Z" fill="#D61642"/>
<path fill-rule="evenodd" clip-rule="evenodd" d="M118.886 41.9807C119.978 42.0352 119.878 42.7175 118.821 42.8073L118.886 41.9807ZM118.393 44.1791C118.658 44.1223 118.8 44.1802 118.85 44.1132C118.935 44.0007 118.806 43.7025 118.877 43.1334C120.007 43.2114 119.394 43.8363 119.644 44.107C119.708 44.1761 119.892 44.158 120.101 44.177C120.134 43.6529 119.989 43.262 119.797 42.953C120.772 41.7555 119.362 41.6122 118.444 41.6919L118.393 44.1791H118.393Z" fill="#D61642"/>
</svg>
