<svg width="109" height="50" viewBox="0 0 109 50" fill="none" xmlns="http://www.w3.org/2000/svg">
<mask id="mask0_491_1071" style="mask-type:luminance" maskUnits="userSpaceOnUse" x="0" y="0" width="109" height="50">
<path d="M0 0H108.334V50H0V0Z" fill="white"/>
</mask>
<g mask="url(#mask0_491_1071)">
<path d="M94.4431 20.9859H108.33V18.1163H97.742V13.8261H106.742V11.0217H97.742V2.88043H107.894V0.00869554H94.4431V20.9859ZM81.3246 20.9859H84.5964V2.88152H90.8866V0.00869554H75.0399V2.88043H81.3312L81.3257 20.9848L81.3246 20.9859ZM68.1225 20.9859H71.3953V0.00760866H68.1279L68.1225 20.9859ZM52.4638 12.7685V2.88043H54.3312C58.4779 2.88043 60.217 4.69565 60.217 7.84348C60.217 10.9902 58.5355 12.7674 54.3322 12.7674L52.4638 12.7685ZM59.3333 14.5076C62.1051 13.3054 63.5681 11.0815 63.5681 7.84457C63.5681 3.04239 60.2996 0.00760866 54.4431 0.00760866H49.1616V20.9859H52.4638V15.5935H54.4605C55.0532 15.5827 55.645 15.541 56.2333 15.4685L60.0322 20.9913H63.8333L59.3333 14.5076ZM-0.000368886 29.5652C-0.000368886 21.4489 0.0398486 3.525 0.0485442 0H41.2572C41.2572 3.525 41.3007 21.4489 41.3062 29.5652C41.3183 31.3177 40.9279 33.0495 40.1648 34.6272C37.2714 40.5141 30.3638 46.7489 20.6518 50C10.9388 46.7489 4.03224 40.5141 1.13767 34.6272C0.374656 33.0495 -0.0158162 31.3177 -0.00362952 29.5652" fill="#173D73"/>
<path d="M29.7086 20.3683C31.0054 18.1368 32.2434 15.877 32.6565 15.3878C33.4956 14.3965 37.0336 12.8455 36.8999 11.8824C36.8315 11.3987 35.9304 10.4694 35.0554 9.67915C34.1141 8.96176 33.0358 8.24437 32.5423 8.26611C31.5706 8.30306 30.6347 12.0237 29.7967 13.015C29.038 13.8987 22.8902 18.4868 21.438 20.3683H29.7086ZM12.3336 40.6596C13.5557 41.5693 14.84 42.3923 16.1771 43.1226H25.1282C26.4657 42.3924 27.7503 41.5693 28.9728 40.6596H12.3336ZM36.0565 32.6422C36.5122 31.6822 36.7431 30.6309 36.7315 29.5683V23.3737H4.58256V29.5694C4.56951 30.6302 4.79995 31.6813 5.25864 32.6422C6.18473 34.5291 7.79343 36.7042 10.1065 38.8118H31.2282C33.5217 36.7042 35.1293 34.5205 36.0565 32.6422Z" fill="white"/>
<path d="M9.86571 14.0668C7.89506 12.1157 4.47658 12.9059 4.47658 12.9059C4.47658 12.9059 3.67767 16.2961 5.64832 18.245C7.61897 20.194 11.007 19.3755 11.007 19.3755C11.007 19.3755 11.8624 16.0385 9.86571 14.0668ZM15.4179 8.53091C15.4179 5.73961 12.4385 3.97656 12.4385 3.97656C12.4385 3.97656 9.45267 5.73743 9.45267 8.53091C9.45267 11.3244 12.4353 13.1211 12.4353 13.1211C12.4353 13.1211 15.4179 11.2874 15.4179 8.53091ZM20.394 12.9092C20.394 12.9092 16.9722 12.1179 15.007 14.07C13.0429 16.0222 13.8668 19.3776 13.8668 19.3776C13.8668 19.3776 17.2342 20.2255 19.2255 18.2472C21.2146 16.27 20.394 12.9092 20.394 12.9092ZM79.6766 43.5103V28.2559H81.9809C87.4929 28.2559 90.0766 31.4037 90.0766 35.8831C90.0766 40.3635 87.4929 43.5103 81.9809 43.5103H79.6766ZM76.3744 46.3831H82.1972C89.019 46.3831 93.5016 42.1885 93.5016 35.894C93.5016 29.6005 88.9907 25.4037 82.1972 25.4037H76.3744V46.3831ZM52.4559 40.6744L55.1027 34.1353C55.5056 33.1205 55.8483 32.0828 56.1288 31.0277C56.4288 32.0809 56.782 33.1179 57.1896 34.1353L59.8364 40.6744H52.4559ZM46.944 46.3831H50.1211L51.3494 43.4179H61.0451L62.2342 46.3831H65.6559L56.3766 25.1972H56.0037L46.944 46.3831ZM71.3983 25.4037H68.1277V46.3798H71.3994V25.4016L71.3983 25.4037Z" fill="#4D8730"/>
<path d="M33.4632 44.7746H32.9121V44.5235H34.298V44.7746H33.748V46.3593H33.4632V44.7746ZM34.5806 44.5039H34.6121L35.4958 45.5289L36.3741 44.5039H36.4034V46.3593H36.1175V45.4072V45.1419C36.0675 45.218 36.0121 45.292 35.9523 45.3626L35.4849 45.9278H35.4534L34.986 45.3626C34.9288 45.2912 34.8744 45.2176 34.823 45.1419V46.3593H34.5382L34.5817 44.5039H34.5806Z" fill="#173D73"/>
</g>
</svg>
