<svg width="223" height="50" viewBox="0 0 223 50" fill="none" xmlns="http://www.w3.org/2000/svg">
<mask id="mask0_491_1076" style="mask-type:luminance" maskUnits="userSpaceOnUse" x="214" y="45" width="3" height="4">
<path d="M214.291 45.6562H216.876V48.4877H214.291V45.6562Z" fill="#66FF99"/>
</mask>
<g mask="url(#mask0_491_1076)">
<path fill-rule="evenodd" clip-rule="evenodd" d="M215.302 46.1175H214.291V45.6562H216.876V46.1175H215.867V48.4883H215.302V46.1175Z" fill="#66FF99"/>
</g>
<mask id="mask1_491_1076" style="mask-type:luminance" maskUnits="userSpaceOnUse" x="217" y="45" width="4" height="4">
<path d="M217.305 45.6562H220.088V48.4881H217.305V45.6562Z" fill="#66FF99"/>
</mask>
<g mask="url(#mask1_491_1076)">
<path fill-rule="evenodd" clip-rule="evenodd" d="M217.305 45.6562H217.834L218.696 46.9956L219.557 45.6562H220.088V48.4883H219.59V46.4571L218.696 47.7919H218.68L217.794 46.4651V48.4883H217.305V45.6562Z" fill="#66FF99"/>
</g>
<mask id="mask2_491_1076" style="mask-type:luminance" maskUnits="userSpaceOnUse" x="169" y="0" width="47" height="49">
<path d="M177.834 11.1088C176.431 12.7327 169.436 21.0985 169.436 26.3434C169.436 30.5497 171.479 37.1595 172.106 39.0842C174.778 47.3034 176.399 48.8064 178.627 48.8064C179.134 48.8064 191.062 48.7314 191.062 42.1386V31.0277C191.062 29.8178 191.945 29.564 192.683 29.564C193.424 29.564 194.306 29.8178 194.306 31.0277V42.1386C194.306 48.7314 206.233 48.8064 206.74 48.8064C208.96 48.8064 210.577 47.3034 213.255 39.0868C213.883 37.1578 215.932 30.5421 215.932 26.3434C215.932 19.6748 201.256 0.931641 192.683 0.931641C187.411 0.931641 181.116 7.30801 177.834 11.1088ZM175.563 26.3434C175.563 24.9879 177.964 20.3325 182.47 15.1149C187.539 9.24631 191.425 7.05837 192.683 7.05837C197.085 7.05837 209.805 22.3126 209.805 26.3434C209.805 30.3938 206.901 39.494 205.355 42.6013C203.594 42.4292 201.374 41.9929 200.433 41.4843V31.0277C200.433 26.6995 197.102 23.4364 192.683 23.4364C188.266 23.4364 184.934 26.6995 184.934 31.0277V41.4826C183.991 41.9921 181.768 42.43 180.006 42.6021C178.463 39.5085 175.563 30.4066 175.563 26.3434Z" fill="url(#paint0_linear_491_1076)"/>
</mask>
<g mask="url(#mask2_491_1076)">
<path fill-rule="evenodd" clip-rule="evenodd" d="M177.834 11.1088C176.431 12.7327 169.436 21.0985 169.436 26.3434C169.436 30.5497 171.479 37.1595 172.106 39.0842C174.778 47.3034 176.399 48.8064 178.627 48.8064C179.134 48.8064 191.062 48.7314 191.062 42.1386V31.0277C191.062 29.8178 191.945 29.564 192.683 29.564C193.424 29.564 194.306 29.8178 194.306 31.0277V42.1386C194.306 48.7314 206.233 48.8064 206.74 48.8064C208.96 48.8064 210.577 47.3034 213.255 39.0868C213.883 37.1578 215.932 30.5421 215.932 26.3434C215.932 19.6748 201.256 0.931641 192.683 0.931641C187.411 0.931641 181.116 7.30801 177.834 11.1088ZM175.563 26.3434C175.563 24.9879 177.964 20.3325 182.47 15.1149C187.539 9.24631 191.425 7.05837 192.683 7.05837C197.085 7.05837 209.805 22.3126 209.805 26.3434C209.805 30.3938 206.901 39.494 205.355 42.6013C203.594 42.4292 201.374 41.9929 200.433 41.4843V31.0277C200.433 26.6995 197.102 23.4364 192.683 23.4364C188.266 23.4364 184.934 26.6995 184.934 31.0277V41.4826C183.991 41.9921 181.768 42.43 180.006 42.6021C178.463 39.5085 175.563 30.4066 175.563 26.3434Z" fill="url(#paint1_linear_491_1076)"/>
</g>
<mask id="mask3_491_1076" style="mask-type:luminance" maskUnits="userSpaceOnUse" x="1" y="2" width="176" height="46">
<path d="M1.46289 7.79354C79.3722 1.16257 131.312 1.16257 157.281 7.79354C183.251 14.4245 183.251 27.6865 157.281 47.5794H1.46289V7.79354Z" fill="white"/>
</mask>
<g mask="url(#mask3_491_1076)">
<path fill-rule="evenodd" clip-rule="evenodd" d="M95.4862 26.8769C93.386 27.9964 90.2379 28.2495 86.9398 28.5204C85.7214 28.6176 84.4596 28.7189 83.2404 28.8689C76.6723 29.6757 73.9928 31.8765 73.9928 36.4687C73.9928 40.7867 77.4144 43.5659 82.719 43.5659C95.0909 43.5659 95.4819 32.1159 95.4862 31.9949V26.8769ZM86.2591 7.79297C95.0219 7.79297 99.8476 11.4608 99.8476 18.1209V46.7277H95.482V41.6097C93.1867 44.7357 88.9454 47.5788 82.6449 47.5788C74.2493 47.5788 69.6263 43.6315 69.6263 36.4687C69.6263 29.4397 74.3924 25.5308 83.7934 24.8705C95.5544 23.9699 95.5544 23.5311 95.5544 18.1209C95.5544 16.7884 93.9782 11.8033 86.2591 11.8033C79.9006 11.8033 76.225 14.9668 75.8996 20.7204L75.8783 21.0842H71.5211L71.5365 20.7204C71.9062 12.3563 77.1316 7.79297 86.2591 7.79297ZM38.3835 24.8688H63.2934C62.8401 18.2521 58.5316 11.8033 50.844 11.8033C43.6556 11.8033 39.2269 18.247 38.3835 24.8688ZM63.1417 32.9432H67.5159L67.4137 33.6043C65.9005 42.6517 60.0243 47.5788 50.844 47.5788C40.568 47.5788 33.9284 40.019 33.9284 28.3202C33.9284 18.1064 39.1588 7.79297 50.844 7.79297C55.7847 7.79297 59.8002 9.37513 62.7796 12.4986C66.2507 16.1434 67.9922 21.6755 67.6914 28.0791L67.6522 28.8766H38.2923C38.3835 33.4799 39.8915 37.5891 42.4927 40.2243C44.6397 42.414 47.5322 43.5659 50.844 43.5659C57.2868 43.5659 61.8527 39.7736 63.0608 33.4101L63.1417 32.9432ZM105.105 46.7277H109.462V25.9874C109.462 20.8252 110.658 18.7633 113.324 16.0872C116.269 13.1435 119.634 12.7039 121.373 12.7039C121.819 12.7039 122.267 12.7329 122.789 12.7985L123.63 12.9007V8.46179L122.827 8.43026C122.59 8.42174 122.345 8.41748 122.108 8.41748C116.918 8.41748 111.998 10.8704 109.462 14.4394V8.64412H105.105V46.7277ZM138.573 47.5788C142.104 47.5788 153.642 46.7967 153.642 36.6792C153.642 28.4949 147.501 26.623 140.083 25.167L139.29 25.0051C133.807 23.8958 128.635 22.8478 128.635 17.9812C128.635 13.423 133.619 11.8033 138.286 11.8033C142.779 11.8033 148.143 13.2705 148.22 20.3361L148.231 21.0842H152.58V20.2475C152.58 12.3324 147.37 7.79297 138.286 7.79297C135.003 7.79297 124.275 8.52739 124.275 17.9812C124.275 25.8196 130.526 27.7323 137.486 29.1407L138.454 29.3392C144.267 30.5064 149.284 31.5237 149.284 36.6792C149.284 43.076 141.085 43.5659 138.573 43.5659C132.142 43.5659 127.739 39.708 127.354 33.6512L127.314 32.9432H122.985L122.996 33.7986C123.209 42.3015 129.18 47.5788 138.573 47.5788ZM17.0502 47.5788C7.66034 47.5788 1.69549 42.3015 1.48249 33.7986L1.46289 32.9432H5.79531L5.8345 33.6512C6.21705 39.708 10.621 43.5659 17.0502 43.5659C19.5645 43.5659 27.7684 43.076 27.7684 36.6792C27.7684 31.5237 22.7467 30.5064 16.9361 29.3392L15.9665 29.1407C9.00906 27.7323 2.75878 25.8196 2.75878 17.9812C2.75878 8.52739 13.4846 7.79297 16.7716 7.79297C25.8548 7.79297 31.0605 12.3324 31.0605 20.2475V21.0842H26.7136L26.7051 20.3361C26.6267 13.2705 21.2583 11.8033 16.7716 11.8033C12.1044 11.8033 7.11847 13.423 7.11847 17.9812C7.11847 22.8478 12.2918 23.8958 17.7702 25.0051L18.5676 25.167C25.9817 26.623 32.1272 28.4949 32.1272 36.6792C32.1272 46.7967 20.5911 47.5788 17.0502 47.5788Z" fill="white"/>
</g>
<defs>
<linearGradient id="paint0_linear_491_1076" x1="615.047" y1="4214.78" x2="4324.55" y2="1617.36" gradientUnits="userSpaceOnUse">
<stop stop-color="#66FF99"/>
<stop offset="1" stop-color="#33FFFF"/>
</linearGradient>
<linearGradient id="paint1_linear_491_1076" x1="615.047" y1="4214.78" x2="4324.55" y2="1617.36" gradientUnits="userSpaceOnUse">
<stop stop-color="#66FF99"/>
<stop offset="1" stop-color="#33FFFF"/>
</linearGradient>
</defs>
</svg>
