<svg width="246" height="50" viewBox="0 0 246 50" fill="none" xmlns="http://www.w3.org/2000/svg">
<path fill-rule="evenodd" clip-rule="evenodd" d="M17.5943 4.83786C17.5943 4.83786 17.4959 5.25551 16.1242 10.8143C12.2039 6.14963 5.63475 6.49081 5.63475 13.6673C5.63475 22.082 19.3556 21.0261 18.9286 36.0496C18.5881 48.1173 8.64973 50.8879 0.984375 45.0761C1.65349 42.9496 2.35017 40.8996 2.82642 39.2232C8.62217 44.3437 13.613 41.9967 14.4337 37.8761C16.6752 26.5996 1.04341 30.082 1.04341 14.0967C1.04341 7.37316 6.2527 -3.07978 17.5943 4.83786ZM32.4035 3.91139H50.3595C50.3595 3.91139 50.3063 6.32904 50.3398 9.76728H36.9003V21.7732H46.4333C46.3999 24.1673 46.4176 26.0467 46.4176 27.282H36.9003V42.2467H50.3418C50.3297 44.1623 50.3297 46.0781 50.3418 47.9938H32.4212L32.4035 3.91139ZM75.168 25.5143C74.0856 25.5143 73.2827 25.4967 72.1846 25.4879C72.1846 17.2643 72.1944 9.5761 72.1944 9.5761C72.1944 9.5761 73.5051 9.56728 74.743 9.56728C75.9277 9.56728 82.8236 8.76434 83.0479 16.9879C83.2644 25.0967 77.8366 25.5143 75.168 25.5143ZM75.4357 3.99669C73.8416 3.93786 70.5137 3.91139 67.6719 3.91139L67.6818 47.9938H72.2003C72.2003 47.9938 72.1865 39.579 72.1846 31.282C73.3044 31.2526 75.6286 31.1614 77.508 31.082C80.1117 30.9643 86.9544 29.0202 86.9071 16.932C86.854 3.34375 77.0199 4.04963 75.4357 3.99669ZM191.256 24.3173C190.201 24.3173 189.44 24.2879 188.371 24.2761C188.375 16.5349 188.387 9.39963 188.387 9.39963C188.387 9.39963 189.623 9.37316 190.819 9.37316C191.961 9.37316 198.071 8.85845 198.589 16.0408C199.203 24.5261 192.504 24.3173 191.256 24.3173ZM201.201 47.9938H206.817L197.495 28.2143C200.004 26.8349 202.913 23.6349 202.545 16.3232C201.887 3.22316 193.323 4.19375 191.489 4.06728C189.944 3.95845 186.618 3.89375 183.735 3.91434V47.9938H188.387C188.387 47.9938 188.373 38.129 188.369 29.4114C189.912 29.4202 190.463 29.379 192.789 29.2879L201.201 47.9938ZM120.172 20.5173V3.91139H124.74V46.0761H120.17V26.032L104.942 26.0614V46.0761H100.374V3.91139H104.94V20.5173H120.172ZM155.801 1.99963C146.309 1.99963 140.13 12.2967 140.13 24.9996C140.13 37.7026 146.309 47.9996 155.801 47.9996C165.292 47.9996 171.47 37.7026 171.47 24.9996C171.47 12.2967 165.291 1.99963 155.801 1.99963ZM155.801 8.25845C148.842 8.25845 144.89 15.7526 144.89 24.9967C144.89 34.2437 148.803 41.7379 155.801 41.7379C162.797 41.7379 166.709 34.2437 166.709 24.9967C166.709 15.7526 162.758 8.25845 155.801 8.25845ZM227.06 31.7585L236.772 31.6702L231.838 10.182H231.773L227.06 31.7585ZM229.193 3.26434H234.596L245.292 46.9555L240.509 46.9379C240.509 46.9379 239.453 42.529 238.043 36.6908L225.98 36.8026C225.98 36.8026 225.496 39.0496 224.057 46.9408H219.446L229.193 3.26434Z" fill="black"/>
</svg>
