<svg xmlns="http://www.w3.org/2000/svg" xmlns:xlink="http://www.w3.org/1999/xlink" x="0px" y="0px" viewBox="0 0 300 244" style="enable-background:new 0 0 300 244;" xml:space="preserve"> <style type="text/css"> .st0{display:none;} .st1{display:inline;} .st2{clip-path:url(#SVGID_2_);fill:#DCAA7A;} .st3{fill:#DCAA7A;} .st4{display:inline;fill:#4D1D02;} .st5{clip-path:url(#SVGID_4_);fill:#F8F0E3;} .st6{fill:#F8F0E3;} </style> <g id="Layer_1" class="st0"> <g class="st1"> <g> <defs> <rect id="SVGID_1_" x="12.5" y="8.3" width="275" height="231.3"/> </defs> <clipPath id="SVGID_2_"> <use xlink:href="#SVGID_1_" style="overflow:visible;"/> </clipPath> <path class="st2" d="M24.7,139.1c0-1.4-0.2-2.4-0.9-3.1c0.1,0.9-0.6,0.9-0.9,1.3C23.8,137.7,23.7,138.9,24.7,139.1z M51.1,193.1 c5.6,0.7,11.1,3.8,15.8,4C62.6,195.2,57.1,190.4,51.1,193.1z M73.5,197.5c-1.4,0.8-4.4-1.8-5.3,0.9 C70,198.1,73.1,199.1,73.5,197.5z M72.2,203.2c-0.2-1.5,1.8-0.8,1.8-2.2c-1.4-0.1-1.5,1.2-3.1,0.9c0-0.6,0.6-0.6,0.4-1.3 c-1.3,0.1-2.1,0.5-1.8,2.2C70.6,202.7,71.7,202.7,72.2,203.2L72.2,203.2z M109,217.7c1.5-1.3,6,0.4,7.5-0.9 c-2.1-1.6-7-0.3-9.2-1.8C107.5,216.4,108.1,217.2,109,217.7z M117.4,219.9c-2.3-2,3.9-0.6,4.4-0.9c-2.7-1.7-8.3-1-12.3-0.4 C111.8,219.4,115.6,222.4,117.4,219.9L117.4,219.9z M122.7,220.3c4.7-1,11.3-0.1,16.7-0.4c-1-1.1-4.3,0.2-4.8-1.3 c-2.7,2.2-7.6,0-11.4,0.4c0-0.5-0.6-0.3-0.4,0.4C122.2,219.4,122.1,220.2,122.7,220.3L122.7,220.3z M184.6,15.7 c-1.2,0.1-3-0.4-3.1,0.9C182.9,16.7,184.1,16.6,184.6,15.7z M207.8,208.9c1.5,0,2.3-0.6,3.1-1.3 C209.6,207.7,208.2,207.8,207.8,208.9z M207.8,211.1c2.3-0.8,4.4-1.8,6.1-3.1C211.6,208.8,209.2,209.4,207.8,211.1z M229.8,199.2 c-1,0-1.3,0.7-2.6,0.4c-0.4,0.9-1.3,1.3-1.3,2.6C227.6,201.7,229.3,201.1,229.8,199.2L229.8,199.2z M231.1,198.8 c1.9-0.6,4.2-3.1,3.5-4.8C233.6,195.8,231.4,196.3,231.1,198.8z M260.1,171.6c-1.8-0.3-3.2,3.8-2.6,3.1 C258.2,173.5,259.3,172.8,260.1,171.6z M271.5,155.8c-0.6-0.1-0.4-1.1-0.4-1.8c-1.6-0.5-0.7,1.6-2.2,1.3c1.1,1.8-1.2,2.5-0.4,3.5 C269.2,157.5,270.4,156.8,271.5,155.8z M274.1,155.8c0.6-0.8,0.5-3.4-0.9-3.5C273.9,153.1,273.3,155.2,274.1,155.8z M277.2,114.1 c0.3-5.8-2.2-16.2-4.4-22.4c-1.4-0.3-0.8,1.2-2.2,0.9c-0.4-1-1.1-1.5-0.9-3.1c-2,0.3-1.6,3.1-2.6,4.4c-1.8-2.5,4.1-7.8,0.9-11.9 c0.3,3.7-3.8,5.6-6.1,3.1c1.6-1.2,1.6-2.3,1.3-3.5c3,0.6,0.2,1.8,0.9,3.1h2.2c1.7-4-1-7.2-4-7.9c2.9-2.6-0.5-6.8-1.8-9.2 c-1.8-0.2-2.3,0.9-3.1,1.8c-1-0.9-2.3-1.5-2.6-3.1c1.4,0.1,2.1-0.5,2.2-1.8c0.2-1.4-1.2-1.2-1.3-2.2c-1.6-0.3-1.7,1-3.1,0.9 c0.1-3.1-2.5-0.9-3.1-3.5c-0.3-1.6,1.7-1,1.8-2.2c-1.6-1.9-3.3-3.7-5.3-5.3c1.4,4.5-1.9,7.6-4,10.1c-1.9-3.3,1.8-6.9,1.3-8.8 c-2.7,6.3-15.5-0.5-9.7-4.8c1.4,1,1.9,2.8,3.1,4c1.8,0.1,3.2,0,4-0.9c-0.9-4.8-5-9.6-10.1-7.5c-0.3-1.4-1.6-1.9-2.2-3.1 c0.2-1.1,1.7-0.9,1.3-2.6c-5-1.9-8.4-5.4-15.4-5.3c-0.2-1.6-1.8-1.7-2.6-2.6c-1.8,0.3-2.2,1.9-4.4,1.8c-0.1-2.2-0.2-5.7-3.1-6.1 c-0.1,0.8-0.3,1.5-0.9,1.8c-0.7-1-1.8-3.7-3.1-2.6c0.8,0.4,1.7,1,0.9,1.8c-2.6-1.5-5.3-4-8.8-2.2c-2.3-2.1-5.6-5.5-9.7-4.4 c2,0.9,3.7,2.1,4.8,4c-3.6,1.2-4.4-3.7-7-4.8c-1.4-0.1,1.1,1.3-0.4,1.3c-1.1-1-2.5-1.6-4.4-1.8c0.2,2.5,3.3,2,4.4,3.5 c-2.7,1.6-7.5,6.1-10.5,2.2c1.8,0,3.6,0.1,4.8-0.4c-0.3-8.5-8.4-6.8-14.5-6.6c-1.2,0.6,1.6,1,0.9,2.6c-1.9-0.3-2.5,0.8-4.4,0.4 c-0.9-0.9-3.8-4.6-4.8-1.3c1.2,0.1,3-0.4,3.1,0.9c-2.2,2.9-6.7,7.3-11.4,4.8c11.5-4.6-8.8-11.2-12.7-5.7c-5.5-1.4-9,1.5-12.7,3.1 c0.7,3.5-2.4,2.6-3.5,1.3c-0.1,1.5-0.5,2.8-1.3,3.5c-1.1,0.6-3.6,1.5-4.4,0c0.4-1.4,2.9-0.6,2.6-2.6c-6-4-12.3,1.6-16.2,4 c-0.2,1.6,1.6,1.1,1.3,2.6c-1.6,0.3-4.5-0.7-4.8,0.9c2.1,0.7,3.5,2,5.3,3.1c-1.2,2.2-3.5-0.5-4.8-0.9c-9.2-1.2-13.3,4.8-18,6.6 c1.1-2,3.8-4.7,4-6.1c-2.3,1.6-6.1,1.8-5.3,6.6c-2.2,0.3-4.7,0.2-6.6,0.9c3.6,5.1-1.7,11.4-5.7,11.4c1.9-2.5,4.5-4.3,4-9.2 c-4.1,0.4-6.1,3-8.8,4.8c-0.5,1.4,1.4,0.3,0.9,1.8c-1.5,0.4-1.7,2.1-2.2,3.5C45.5,58,41.7,66,35.7,71.9c0.6,1.6-1.4,2.6-0.4,3.1 c5.2-7.2,9.4-15.5,18.9-18.4c-0.6,3.2-5.9,4.1-6.1,6.1c1.2-1.1,4.3,0.3,4.8,0c0.9,1.8-0.3,4.8-2.6,4.8c-0.6-0.4-1.4-0.7-1.3-1.8 c-0.5-1.3,2.6-2,0.4-2.2c-6,1.5-9,6.8-12.3,11.4c-2.6,3.7-6.3,7.9-5.7,12.3c2.4-2.1,7.7-1.6,7.5,2.6c-1.5-0.4-1.4-2.4-3.5-2.2 c-4,3.8-9.8,8-10.1,14c0.9-2.3,2.3-4.2,4.8-4.8c0.7,0.5,2.3,1.3,1.3,2.2c-0.4,0-0.5,0.3-0.9,0.4c-1.2,0.1-0.3-1.7-1.8-1.3 c-2.3,2.6-5.4,6.9-4,11.9c0.2-2.5,1.1-6.5,2.6-6.1c-1.3,2.8-2.3,5.9-2.2,10.1c1.5,1.4,5.6,0.2,5.7,3.1c-6.1-1.8-9.3,8.1-5.7,13.2 c1.5-1.7,1.8-4.7,2.6-7c0.7,4.8-1.9,6.3-2.6,9.7c3.6-1.4,6.3,0.4,7,3.1c-1.9-0.6-0.5,2.1-2.2,1.8c-1-0.3-0.3-2.3-2.2-1.8 c-0.6,2.8,2.1,2.3,2.6,4c-1.7,4.2-0.7,6.9,1.3,10.1c2.2,0.6,2.2-1.1,4-0.9c-2.8,7.9,2.7,13.6,5.7,18.4c0.9-3.2,1-7.2,4.4-7.9 c0.9,1.6-1,3.5-1.8,4.8c0,8.1,4.1,12,8.3,15.8c-0.4,0-0.5,0.8,0,0.9c0.6-0.3,0.1-1.7,0.9-1.8c4.4,7.6,13.5,12.8,20.6,16.2 c-5.6-2.8-14.2-9.8-9.2-17.6c2.3-0.3,3.5,0.6,4,2.2c-0.6,0.9-0.7,2.2-2.2,2.2c-1.3-0.7-1.4-1.4-0.4-2.6c-5.5,4.3,2,11.9,6.6,13.2 c2.8-0.5,3.1-4.3,6.1-4.8c4.8-0.9,9.3,3.3,5.7,7.9c-0.5-2,0.5-6.6-2.6-5.3c1.6,1-2.5,2.1-3.1,0.9c0.1-1,1.4-1,1.8-1.8 c-6.9,3,0,11.7,5.3,10.1c1.1,1.2,1.2,3.5,3.5,3.5c1.3-0.6,1.2-2.6,3.1-2.6c1,10.4,14.6,8.3,20.6,13.6c1.8-2.7,6.2,3,8.3,0 c-5.7-2.5-9.8-6.6-11.4-13.2c0.8-0.2,0.3-1.7,1.8-1.3c0.2,13,15.8,18.6,29.9,16.2c-0.7-3.1-2.7-1.6-4.8-0.9 c-0.1-0.6-0.7-0.7-0.9-1.3c0.3-1.2,1.3-1.7,1.8-2.6c-1.8-1.3-2.1-4.1-2.6-6.6h3.1c0.4,1.3,1.8,1.8,1.3,4c6,8.9,24.8,6.4,36,6.6 c0.3-1.1,1.8-1.1,2.6-1.8c0.5,0.6,1.7,0.7,2.2,1.3c0.1-1.2,1.3-1.3,2.2-1.8c1.2,0,1,1.4,2.2,1.3c0.8-1.8,3.1,0.5,3.1-1.8 c-0.3-1-3.3-1.4-4-0.4c0.5,0.1,1,0.1,0.9,0.9c-2.4-0.4-4.7-0.9-4.8-3.5h3.5c0.8-0.8,0.5-2.7,2.2-2.6c0.8,1.1-0.4,1.7,0.4,3.1 c8.9,2.6,17.1-2.7,24.1-5.7c-5.9,1.6-8.4-2.6-11-5.7c0.5-1.3,2.1-1.4,4-1.3c-1.2,2.1,2,3.7,0,4c4.1,2.6,9.3-0.1,13.2-1.3 c-0.1-1.6,0.3-2.6,1.3-3.1c1,1,3.4,2.7,5.3,1.3c-1.6-0.4-3.1-1-3.1-3.1c1.8-0.1,2.4,0.8,4.4,0.4c1.7-0.7,1.8-2.9,4-3.1 c1.7,0.5-0.3,2.3,0.9,3.1c5.1-3.8,11.3-6.5,14.9-11.9c-4,1.2-9.2-2-5.3-4.4c2.3-0.1,1.3,2.2,1.8,3.1c1-0.3,3.2,0.5,3.5-0.4 c-1.4,0-2.4-0.6-2.6-1.8c-0.2-2.4,1.3-3.1,3.5-3.1c1.2,1.4,0.1,3.4-0.9,4c5.3,0.2,6.3-5.5,9.7-5.7c-0.3-2.2,1.1-3.1,1.8-5.3 c-1.4-1.8-3.8,0.2-3.5-3.1c5,1.2,10.8,0.3,12.3-3.5c-1.9-1.1-3.7,1.2-6.6,0.4c-1.6-2.6-2.3-11.2,4.4-8.3 c-2.6,0.1-5.1,2.3-3.5,5.3c2.4,0.5,1.6-2.2,3.1-2.6c0.3,1.6,1,2.8,2.6,3.1c3.9-1.1,2.2-7.8,5.7-9.2c-0.2-3,0-5.6,1.8-6.6 c0.3-1.5-1.8-0.6-1.3-2.2c2.3-2.3,3.4-6,5.7-8.3c-1.4-0.9-1-2.3-2.6-0.9c1.6-3,4.5-7.2,3.1-11.9c-0.7,1.4-0.2,2.4,0,4 c-1.5,2.1-4.3,3.1-5.3,5.7c-1.9-6.6,6.9-8.6,5.7-14.5c-1.1,1.8-2.3,3.6-4,4.8c-0.5-0.7-1.7-0.7-2.2-1.3c0.8,0.1,1-0.4,0.9-1.3 c-3,0.7-3.9-4.6-6.1-1.8c1,0.4,2.8,0.1,2.6,1.8c-1.2-0.7-3.4-0.4-3.5-2.2c0.4-1.6,1-3.1,3.1-3.1c1.6,0.5,0.7,3.4,2.6,3.5 c-0.1-2-0.1-3.9,1.3-4.4c1.3,0,2.5,0.2,2.2,1.8c-0.3,2.4-2.4-1.3-2.2,0.9c1.9,0.8,2.9,0.3,4.4-0.4c0-2.2,0.2-4.6-0.9-5.7 c-2.3-0.3-3.8,1.2-4.4-0.9c1.7-1.6-0.1-4.5,0.9-6.1C275.3,104.9,276.7,109,277.2,114.1L277.2,114.1z M44.3,57.3 c-0.7,0.7-2.2,0.8-2-0.8c2.1-0.9,3.5,0,4.8-3.1c-2,0.1-1.2-2,0-2.2c1.4-0.5,0.3,1.4,1.8,0.9c2.9-1.5,5.5-5,6.1-7.5 c1.9,0.1,2.2-1.3,3.5-1.8c0.9-1.4,0.2-2.3,2.6-2.6c0.7-2.9,5-7.7,6.6-9.7c-0.6,2.1-3.3,4.6-3.1,6.1c3-3.8,10-7.3,7.5-14.9 c-1.2-0.4-2.4,1.3-3.1,0c0.6-0.8,1-1.9,2.6-1.8c6,3.6-1.3,11.8-1.3,15.8c4.4-1.3,7.4-4,10.5-6.6c-1.2-0.8-2.2-1.6-2.2-3.5 c2.7-1.2,2.1,3.1,4,1.3c-0.4-0.5-1.6-0.1-1.3-1.3c1.5-0.7,1.9,1.9,2.6,0.4c0.1-1.2,1-5.5,4.4-6.6c-0.1,1.4-1,3.6,0,4.8 c2.9,0.6,1.5-3.2,3.5-3.5c0.7,0.6,0.3,2.3,1.8,2.2c4.7-2.1,10-3.5,10.1-10.1h4.8c1.7-1.1,2.1-3.5,4.4-4c1.2,0.6,1.3,2.2,3.1,2.2 c1.4-0.7,2.1-2,4-2.2c5,3.5,13.4-1.5,18.4,1.8c-5.7-1.2-14.3,2.1-19.3-0.9c-1.2,0.7-2,1.8-3.5,2.2c-1.9,0-1.6-2.2-3.5-2.2 c-1.3,3-4.2,4.3-7.9,4.8c1.1,4.6-5.2,5.6-7.5,8.3c7.3-0.1,13.3-1.7,15.4-7c1.8-0.1,1.2,2,2.6,2.2c1.9-5.7,11.1,1.6,15.8-4 c6.3,1.3,15.7-0.2,22.8-0.4c4.1-0.1,8.3,0.5,12.3,0.4c10.4-0.3,19.8-2.3,29.4-3.5c-2.1,1.1-5.7,0.7-6.6,3.1 c2.6,0.3,6.4-0.6,8.3,0.4c-3.2,1.2-9.4-0.6-11.4,1.8c1.2-0.1,2.2-0.1,1.8,1.3c5.3,2.8,11.9,4.2,19.8,4.4c-0.5,1-2.8,0.2-4,0.4 c4.8,3.7,14.7,4,22.8,3.1c-0.1,1.7-1.8,1.7-2.2,3.1c2,0.9,3.9,3.1,2.2,5.3h3.1c1.3-0.8,0.2-3.9,1.8-4.4c2.6,1.1,2.4,4.5,0.9,6.6 c1.2,2,3.8,1.4,5.7,1.8c0.4,1.7-1.5,2.1-0.4,3.1c3.3,1.7,9.9,4.2,11.9,0c0.2-1.5-2.8-0.7-1.3-2.2c3.4-1.2,1.8,3.3,1.3,4 c-2.5,3.3-9.2,0.4-11.9-0.9c3.2,5.9,18.5,5.3,18.9-2.6c-0.8-1.7-5,0.1-5.3-2.2c4.2-4.5,7.8,2.4,6.6,6.1c7.7-10.7-8-20.5-12.7-9.7 c-0.3,2.2,0.4,3.4,0.4,5.3c-2.4-1.2-1.7-5.6-4-7c1-0.1,1.9-0.5,2.2-1.3c-3.9,0.4-10.5-3.8-8.8-7.5c7.5,6,26.7,0.2,25.9,14.5 c0.4-1.2,1.3-4.2,2.2-3.5c-2.4,3.8-2.2,7.7-4,12.3c-2.7,0.2-7.3,1.7-4.8,4.4c2.4,0.4,1.9-2.2,3.5-2.6c1.4,0.4,1.1,2.4,2.6,2.6 c1.5,0.1,1.7-2.2,3.1-0.9c-0.4,4.3,5.2,6,2.6,9.7c-0.5-3.8-8.2-9.8-9.2-2.6c0.7,1.2,2.4-1,3.1,0.4c-1.2,1.9,0.4,4.2,0.9,5.7 c3.7,0.3,3.5,4.4,7,4.8c1.9-0.1,2.8-1.3,4.4-1.8c-0.5,2.3-4.1,3.2-6.6,2.2c-0.1,4.2,4.3,0.8,5.7,1.8c0,1.6-0.4,2.8-0.9,4 c1.6,0.6,3.8,0.6,4.4,2.2c-1.4,0.1-2-1.6-3.1-0.4c1,3-0.7,3.7-0.9,5.3c1.4,0.5,0.3-1.4,1.8-0.9c0.2,4.2,1.6,9.1,4.4,11.9 c-0.4,6.6,4.4,11.6,4.4,19.3c-1.5-0.1-0.4-2.8-1.8-3.1c0.9,2.3-0.1,6.5,2.2,7.5v8.8c-1,4.1-0.3,9.9-4,11.4 c0.5,4.5-2.1,8.7-2.2,12.7c-0.1,3.6,2.2,6,1.8,9.2c-0.9,0.7-2.9-0.3-4-0.9c-5.8,3-8.2,9.3-11.4,14.9c3.9,0.4,3.8-5.2,6.6-4.4 c-0.3,5.8-5.8,7.1-8.3,11c-1.4,2.1-0.2,4-2.6,5.7c-0.1-1.5-0.7-2.5-0.4-4.4c-6.2,3.9-8.7,12.8-6.1,22c1.5,1.2,3.1,2.2,4.8,3.1 c1.2,0.3,0.9-0.9,1.8-0.9c0.5-2.2-2.4-2.6-1.3-4c0.6-1,3.5,0.3,3.5-1.3c-0.9-1.4-2.9,1-4-0.4c5.1-0.9,8.6-3.4,9.7-8.3 c1.5,5.3-3.9,7.5-5.3,11.4c-0.7,0-1.5,0-2.2,0c0.7,2,0.6,4.3-1.3,4.8c-3.1-0.2-3.7-2.7-6.6-3.1c-0.3-7.1-2.4-12.6,1.3-17.6 c-5.4,3.2-10.7,17.9-3.5,25c-8.8-3.8-2.6-18.7-0.4-22.4c-10.2,7.8-21.6,18.2-34.2,25c3.4-3.9,8.8-5.8,12.3-9.7 c-0.1-0.8-0.3-1.5-0.9-1.8c-5.2,4.9-10.7,9.5-18.9,11.4c1.6-0.8,0.7-1.4,1.3-2.6c-2.2,0.1-4.3,0.3-6.1,1.8 c-0.3-0.1-0.4-0.3-0.3-0.5c0.3-0.1,0.5-0.2,0.8-0.4c-0.4-0.1-0.7,0.1-0.8,0.4c-4.6,2-12.7,3.5-16.8,7.1c0.4,1.5,1.7,2.1,3.5,2.2 c-1.4,1.9-4.2-0.2-5.3-1.3c-0.2-1.7,1.1-1.8,1.3-3.1c-13.7,0.2-24.4,3.4-30.3,11.4c-1.2-1.1,1.6-1.9,1.8-3.1 c-1.1,0.6-2,1.6-3.5,1.8c0.6-0.9,4.5-3.9,4-1.8c1.8-1.1,2.7-3.2,4.8-4c-3.9-3.1-10.8,0.9-17.1-0.4c-0.7,4-8.4,6.7-12.7,7 c-1-3.5,7.2-1.6,7.5-5.3h4c-6.4-3.7-14.6,0.9-22,0.4c0.3-1.3,2-1.2,2.6-2.2c-3.9,1.8-6.2,1.8-10.5,1.8c-1.2-2-3.8-2.7-4.4-5.3 c-2,0-4.1,0-6.1,0c0.9-1,3.6-0.2,5.3-0.4c-1.3-2.2-5.9-1.5-7.9-1.3c-9.2,0.7-18.6,5.2-25,7c6.4-5,16-6.8,26.3-7.9 c-5.9-1.2-11.8-1.3-17.6-0.9c-8.7,0.7-16,6.6-22.8,2.2c-2.5,0.2-4.8,0.1-5.7-1.3c1.7-3-1-4.2,0-7c7.1,15.9,32.8-0.3,46.5,7 c1-0.1,1.6-0.7,3.1-0.4c-3.7-3.2-9.1-5.7-15.8-3.5c-0.7-1.6,1.5-0.3,1.3-1.3c-1.9-0.8-5.8-1.7-8.3-0.4c-1.1-1.1,1.6-2.1,3.1-2.2 c-6.4-3.1-21,0.4-14.5,7.5c-7.6-3.7,3.5-7.5-0.4-13.2c-9.6-1.9-22.4-1.3-22.4,9.2c-0.3,1.2,2.1-0.3,1.8,0.9 c-3.8,3.9-2.6-4.2-2.2-5.3c2.6-7.3,14.8-7,23.7-5.7c-8.9-4-19.8-7.2-32.5-6.1c-1.6,0-2,1.2-3.1,1.8c-1.2,0.1-0.9-1.5-2.6-0.9 c0.7-3.1,2.9-4.7,3.1-8.3c3.5,3.8,8.7,5.9,15.4,6.6c-4.8-9-24.1-8-32.1-13.6c-1.1-0.8-5.7-5-2.6-7c2.6,14.7,35.3,10.6,45.7,19.3 c-0.7-3.5-6.6-5.7-10.1-7.9c-0.3-1.3,0.5-1.6,0.4-2.6c-2.6-2.4-6.8-3.5-11.4-2.6c1-1.6-0.1-2.9,2.2-3.5 c-2.3-6.3-4.7-15.7-14.5-11.9c0-0.6,0-1.2,0-1.8c1.3-0.9,2,1.2,3.5-0.4c-1.1-1.7-0.1-1.6,0-4.8c-0.5-1.2-2.2-1.3-3.1-2.2 c-0.1-1.4,1.1-1.5,2.2-1.8c-4.8-4.8-5.7-13.4-11.4-17.1c0.2-1.4,2.2-1.1,3.5-1.3c0.2-1.6-1.6-1.1-1.3-2.6 c1.1,0.1,2.1,0.1,2.6-0.4c-0.8-2.4-2.7-3.7-3.5-6.1c1.8,0,1.5,2,2.6,2.6c-1.8-3.9-1.8-9.7-6.1-11c0-1.6,1.3-1.9,3.1-1.8 c-0.2-0.4,0.3-3.4-0.4-5.3c-5.5-1.6-6.1,6.9-4.4,11.4c-1.8,0.5-0.8-1.8-1.8-2.2c0-1.9,0-3.8,0-5.7h0.4c0.1-2.9,1.6-4.5,4-5.3 c-0.6-2,0.6-5,1.8-6.6c0.3,3.4-1.7,5,0,7.5c2.1-0.8,1.5,0.3,3.1,0.9c1.2-1.4-0.9-2.3-0.9-4c0.8-1.2,2-2.1,2.2-4 c-1.4-6.9,6.3-13.9,2.2-20.6c-1.7-0.6-3.2,1.2-4,0c1.5-2.4,5.2-0.6,6.6,0.9c-6.1-10.5,4.6-20.9,2.6-32.5 c4.1,10.9-8.3,20.6-2.2,30.7c0.3-10.6,8.3-17.1,8.8-29c-0.8-1.9-3.5-2.1-4-4.4c2-0.7,5-0.9,6.6-0.9c4.9-8.5,2.4-20.4-9.7-18 c-0.9,0.2-1.7,0.5-2.4,0.9c0.3-0.2,0.5-0.5,0.7-0.9c-3.7,0.3-8.6,1.1-11-0.9c1.9,2.1-0.8,4,0.4,6.1c1.6-3,5.6-2.2,8.4-3.4 c-4.7,3.7-6.1,11.8-8.4,16.6c0.4-6,3-9.9,4.8-14.5c-3.6-1-3.4,1.9-5.3,2.6c-1.7-1.1-1.2-3.7-0.4-5.3c-0.3-2.2-3.5-4.6-1.8-6.1 c3.2,8,18.4,1.2,24.1,5.3c-2.3-2-7.2-5.6-5.3-8.8c2.6,8.8,10.9,10.6,10.5,21.1C44,55.2,28.3,67.3,29.6,82 c2.1-6.8,4.3-15.9,8.3-19.3c-0.7,1.6-2.6,4.4-2.2,5.7c0.8-1.3,1.8-4.6,3.1-4c0.1,0.6-1.5,1.6-0.4,1.8 C40.6,63.8,42.9,59.5,44.3,57.3L44.3,57.3z"/> </g> <path class="st3" d="M277.2,59.6c1.2-0.1,1.4,0.6,1.3,1.8C277.4,61.5,277.1,60.8,277.2,59.6z"/> <path class="st3" d="M273.7,49.1c2-0.2,1.2-3.2,4-2.6c-0.9,1.6-0.9,2.4,0,4c-1.3-1.2-2-0.3-4.4-0.4c-1.3-1.5-1.3-3.4-0.9-5.7 c-2.8,1.9-10.1,0.4-8.8-4c0.3-1.1,3.4-3.3,4,0c-0.9,1.4-2,0.1-3.1,0.9c1.8,5.9,10,2,10.1-2.6c-1-6.7-10.4-5.9-12.7-0.9 c-0.1-5.2,11.7-6.7,13.6-0.9C274.9,40.7,271.7,45.4,273.7,49.1L273.7,49.1z"/> <path class="st3" d="M276.8,66.2c1.4,1.8,1.1,8.1-1.3,8.8C276.6,71.5,273.8,68.6,276.8,66.2z"/> <path class="st3" d="M274.6,53.9c1.1,3.6,2.2,7.2,2.2,11.9c-2.2-0.3-2.2,1.6-4.4,2.2c0.4-4.4-2.4-5.5-3.5-8.3 c-1,0.3-1.1,1.5-1.8,2.2c1.2-2.5-1-9.7,4.8-9.2c-4.1,1.2-3.9,5.5-1.3,8.3C272.6,59.3,273.3,56.3,274.6,53.9L274.6,53.9z"/> <path class="st3" d="M275,24.5c0.8,0.3,0.1,0.8,0,1.3c-6.2,0.4-8.7,4.5-12.7,7C264.8,28.3,269.7,26.2,275,24.5z"/> <path class="st3" d="M274.6,71c0.1,2-1,2.8-3.1,2.6c0.7-1,3.7-1.8,0.9-2.6C272.5,70,274.3,70.8,274.6,71z"/> <path class="st3" d="M273.7,76.3c1.7,0,1.6,2.3-0.4,1.8C273.1,77.2,273.6,76.9,273.7,76.3z"/> <path class="st3" d="M273.7,54.4c0.6,2-1.8,2.1-2.6,1.3C271.3,54.6,272.7,54.7,273.7,54.4z"/> <path class="st3" d="M248.2,12.7c6.4,0.4,15.1-1.6,22-0.9c-0.2,3.2-8.9-0.8-11.4,1.8c-3.2-2.3-6.5,0.5-10.1,0.4 c-1.9-0.1-3.7-1.8-5.7-1.8c-2.5,0.1-4.2,2.7-6.6,2.6c-2.7,0-4.3-2.3-6.6-3.5c-6.6,1.8-12.1,4.6-20.6,4.4 c6.9-1.6,14.7-2.3,19.8-5.7c3.2,0.1,3.3,3,6.1,3.5c3.4,0.6,4.8-2,7.9-2.2C244.7,11.2,246.4,12.5,248.2,12.7z"/> <path class="st3" d="M268.4,63.6c0.2-1.4-1.5-1.2-0.4-2.2c0.6,0.2,1.1,0.7,1.3,1.3c-0.1,2.4-2.5,3.8-4.4,3.1 C266,64.9,267.8,64.8,268.4,63.6z"/> <path class="st3" d="M253.1,14.8c0.3,0.2,0.7,0.5,1.3,0.4c-2.7,5.5-12.9,4.8-21.1,5.3c-7.8,0.4-17.8,0.1-25.9-0.9 c6.8-0.6,20,0.6,29.9,0C242.7,19.3,252.3,18.7,253.1,14.8z"/> <path class="st3" d="M232.9,208.9c3.6-3.1,5.5-7.9,8.3-11.9c-2.7,5.1-4.6,14.7-8.3,20.2C232,215.2,234.3,211.7,232.9,208.9z"/> <path class="st3" d="M226.7,212.4c4.7-8.7,12-14.9,18-22.4C240.4,197.5,232.6,205.2,226.7,212.4z"/> <path class="st3" d="M230.7,15.3c-1,3.2-6.7,2.9-10.5,3.1c-4.5,0.2-9.5,0.1-13.2-0.4c-0.6-0.2-2.3,0.5-2.2-0.4h2.6 C215.7,17.3,225.3,18.4,230.7,15.3L230.7,15.3z"/> <path class="st3" d="M211.8,8.3c0.1,1-0.1,1.7-0.4,2.2c-1.4,0.2-1.4-0.9-1.3-2.2H211.8z"/> <path class="st3" d="M190.7,15.7C197,16,202,15,208.3,15.3C204.4,16.8,195,17.5,190.7,15.7z"/> <path class="st3" d="M210.5,10.9c-2.4,3-8,2.9-12.7,3.5C201.4,12.6,206.9,12.8,210.5,10.9z"/> <path class="st3" d="M206.5,19.2c-1.6,1-5.3,0.3-7,0C201,18.3,204.9,18.8,206.5,19.2z"/> <path class="st3" d="M197.7,17.5c0.9-1,3.6-0.2,5.3-0.4C202.5,19.2,199.3,17.2,197.7,17.5z"/> <path class="st3" d="M199.1,215.1c0.1-2.3,3.6-1.3,5.3-2.2C202.9,213.7,200.4,215.5,199.1,215.1z"/> <path class="st3" d="M200.8,211.1c-0.3,0.1-0.5,0.2-0.8,0.4C200.1,211.2,200.4,211,200.8,211.1z"/> <path class="st3" d="M197.7,18.4c0.3,1.7-2.1,0.5-3.1,0.9c0-0.3,0-0.6,0-0.9H197.7z"/> <path class="st3" d="M180.6,217.7c-2,1.1-4.4,1.8-7,2.2C175.1,218.3,177.8,217.9,180.6,217.7z"/> <path class="st3" d="M105.1,218.1c-9.2,1.4-15.5,5.6-21.1,10.5C88.6,222.7,94.7,218.3,105.1,218.1z"/> <path class="st3" d="M84,221.6c3.3-3.1,9.1-3.8,14.5-4.8C93.8,218.5,88.9,220.1,84,221.6z"/> <path class="st3" d="M84.9,18.4c-0.5,1-2.8,0.2-4,0.4C81.7,17.4,83.4,18.2,84.9,18.4z"/> <path class="st3" d="M83.6,221.6c0.4,1.4-1.1,0.9-1.3,1.8c-0.5-0.1-0.3-0.9-0.9-0.9C81.8,221.9,82.5,221.6,83.6,221.6L83.6,221.6z "/> <path class="st3" d="M79.2,19.2c-3,0.1-3.4-3.1-6.6-3.5c-3.9-0.5-7,1.7-8.8,4.8c-0.2-1.9,1.9-4.5,4-5.3 C72.5,13.4,76.9,16.3,79.2,19.2z"/> <path class="st3" d="M66.5,24.9c2.2,2,1,7.2,0.4,1.3c-0.5,0.1-0.8-0.1-0.9-0.4c-2.2-0.9-3.2,1.7-4.4,0.4 C62.3,25.1,63.9,25.1,66.5,24.9z"/> <path class="st3" d="M62.9,21c1.1,0.6-0.6,1.9-0.4,3.1C61.3,23.3,62.7,21.7,62.9,21z"/> <path class="st3" d="M60.3,32.8C60,36.4,55.7,43.5,51.5,46C54.3,41.5,57.9,37.7,60.3,32.8z"/> <path class="st3" d="M53.3,36.4c0.1,4.3-5.2,10.9-7.9,15.4C46.6,47,51.4,41.9,53.3,36.4z"/> <path class="st3" d="M55.9,24.1c-1.4,2.4-5.5,1.9-8.3,1.8C50.3,25.2,53.7,25.2,55.9,24.1z"/> <path class="st3" d="M50.2,46.9c2,0.5,0.9,2.8-0.9,1.8C49,47.4,50.2,47.8,50.2,46.9z"/> <path class="st3" d="M49.3,9.6c-5.5,1.6-8.8,9.3-4.4,14.5C39.6,20.2,42.1,9.6,49.3,9.6z"/> <path class="st3" d="M41,60.9c0.1,1.2-0.2,1.9-1.3,1.8c-0.2-0.3-0.5-0.7-0.4-1.3C39.6,61,40.2,60.9,41,60.9z"/> <path class="st3" d="M26.1,50.4c-4.5-2.5,3.3-7.1,4-2.2C29,47.8,28.4,47,27,46.9c-0.6,0.1-0.7,0.8-1.3,0.9 C25.9,48.7,27,49.5,26.1,50.4z"/> <path class="st3" d="M23.9,160.2c-1.4,16.4,16.4,17.2,25.9,24.1c-11-5.7-27.9-7.8-26.8-24.1c-1.4-1-3.5-1.2-4.4-2.6 c3.5-12.3-3.7-21-6.1-30.3c0-0.3,0-0.6,0-0.9c3.6,8.8,10.1,18.5,7,31.2C20.9,158.5,23,158.7,23.9,160.2z"/> <path class="st3" d="M240.3,198.5v0.7V198.5z"/> <path class="st3" d="M240.3,199.3L239,202C239.4,201,239.8,200.1,240.3,199.3z"/> <path class="st3" d="M235.1,209.1c0.8,0.5-0.4,1-0.5,1.5C233.9,210.2,235.1,209.6,235.1,209.1z"/> <path class="st3" d="M234.5,210.5c0.1-0.4,1.3-0.9,0.5-1.5C235.1,209.6,233.9,210.2,234.5,210.5z M234.1,209.3c0.4,0.5,1-1,1.7-1 c0.1,1.7-2.1,2.7-1,3.9c-0.2,0.1-0.4,0.2-0.5,0.5c-0.4-1.2-0.5-2.6-0.7-3.9c0.3-0.2,0.9-0.2,1-0.7 C235.3,208.5,234.1,208.9,234.1,209.3z"/> <path class="st3" d="M231.2,207.5c3-3,6-6,9.1-8.9v0.7c-1.8,1.7-3.6,3.5-5.3,5.3c-2.3,2.4-4.8,4.7-7.2,7.1c-0.4,0.4-0.7,0.9-1,1.3 c0.7-1.2,1.5-2.3,2.4-3.5C229.9,208.8,230.6,208.1,231.2,207.5L231.2,207.5z"/> <path class="st3" d="M225.7,213.4c1-1.4,2.2-2.7,3.5-4c-0.8,1.1-1.6,2.3-2.4,3.5c-0.4,0.4-0.8,0.8-1.4,0.9 C225.5,213.7,225.6,213.6,225.7,213.4L225.7,213.4z"/> <path class="st3" d="M229.2,209.4c-1.2,1.2-2.5,2.5-3.5,4c3.1-4.4,6.6-8.5,10.2-12.6c0.2,0,0.5-0.1,0.7-0.1 C234,203.5,231.5,206.4,229.2,209.4L229.2,209.4z"/> <path class="st3" d="M224.6,216.6c0-0.9,1.3-0.5,1-1.7C226.3,215.5,225.5,216.7,224.6,216.6z"/> <path class="st3" d="M224.6,214.1c1,0.3-0.1,0.7-0.3,1.2C223.6,215,224.6,214.4,224.6,214.1z"/> <path class="st3" d="M222,228.3c-1.3-0.4-0.7-2.7-1.4-3.7C221.6,224.4,221.5,227.3,222,228.3z"/> <path class="st3" d="M219.6,227.5c-0.8-3,0.7-4.4,0.1-6.6c-0.1-0.5-0.8,0.3-1,0.5c-1.4-1.2,0-1.8,0.5-2.9c2.8,0.7,4-2,4.5-4.4 c0.6-0.1,0.9-0.4,1.7-0.2c0.1-0.2,0.2-0.3,0.3-0.5c-0.1,0.1-0.2,0.3-0.3,0.4c0.6-0.1,1-0.5,1.4-0.9c-0.2,0.2-0.3,0.5-0.5,0.7v2.9 c-1.3,0.8-2.4,1.7-2.3,3.9c-0.6,0-0.5,0.8-1.2,0.7c-0.6,3.2,1,7.9,2.6,10.3c0.8,1.3,2.9,1.8,2.4,3.5c-3.5-0.5-3.4-3.1-5.1-5.2 c-0.3,0-0.2,0.4-0.3,0.7c-1-0.3,0-0.8-0.2-1.7c1.3,0.9,1.6,2.8,2.9,3.7c-0.6-2.3-3-4-2.7-6.4c-1.2-0.2-1-2.4-0.9-4.4 c0.3,0,0.2,0.4,0.2,0.7c0.4,0,0.1-0.7,0.5-0.7c-2.7-2.8-1.9,3.9-2,5.9c-0.7-0.6,0.2-2.6-0.5-3.2 C219.1,225.3,220,226.7,219.6,227.5L219.6,227.5z M225.6,214.9c0.3,1.2-1,0.8-1,1.7C225.5,216.7,226.3,215.5,225.6,214.9z M224.4,215.3c0.2-0.5,1.3-0.9,0.3-1.2C224.6,214.4,223.6,215,224.4,215.3z"/> <path class="st3" d="M215.6,224.8c-0.5-0.5,0.6-1.4,1.2-1.5C216.6,224,215.9,224.2,215.6,224.8z"/> <path class="st3" d="M216.9,223.3c-0.7,0.1-1.8,1-1.2,1.5C215.9,224.2,216.6,224,216.9,223.3z M218.1,222.1 c-0.3,1.3-2.1,3.2-3.7,3.9c-0.1-0.6,1-0.2,0.8-1c-0.3-0.1-1.3,0-1.5,0.5c0.4-1.5,2.1-3.8,4.5-4.1c-0.2,0.8-0.9,1.1-1.3,1.7 C217.7,223.2,217.6,222.3,218.1,222.1L218.1,222.1z"/> <path class="st3" d="M218.1,224.8c0.8,2.1-0.7,3.9-0.3,6.4h1c0.6-0.4,0.1-1.9,0.3-2.7c0.6-0.2,1.2-0.7,1.7-0.2 c-0.3,1-1.4,1.2-1,2.9c-1.6,0.5-2.7,1.6-4.2,2.2c0-2.1,0.2-4.1,0.8-5.6c-2.2,0.1-1.7,2.9-3.5,3.4c0.6-2.1,2.4-3,3.3-4.9 c0.3,0.2,0.5,0.5,0.5,1c0.9-0.8,0.3-3.2,1.3-3.9c0.1,2.1-1.1,5.2-0.8,8.3c-0.8-0.2,0.1-2.2-0.2-3.4c-0.9,0.6-0.4,2.6-0.5,3.9 C218.4,232.2,217.2,226.7,218.1,224.8L218.1,224.8z"/> <path class="st3" d="M209.9,228.2c0.9-0.9,2.2-2.5,3.2-2.4C212.1,226.6,211.4,227.8,209.9,228.2z"/> <path class="st3" d="M213.6,226.5c0.4,0.4-0.9,1.2-1.5,1.5c0.4,0.5,1.7-0.1,1.7-0.7c0.8,0.5-0.4,1-0.5,1.5 c-2.4-0.2-4.1,2.4-7.2,2.4c0.5-0.9,1.6-1.2,2.5-1.7c-0.1,0.2-0.3,0.4-0.3,0.7C210.1,228.9,212.2,228,213.6,226.5z"/> <path class="st3" d="M31.6,191.6c-0.4,0.1-0.8,0.2-1.2,0.3c0.2,0.1,0.3,0.2,0.5,0.3C31.2,192.1,31.5,192,31.6,191.6z"/> <path class="st3" d="M252.1,185.8c-0.4,0.6-0.8,1.2-1.2,1.8l1.1-0.9c0.5-0.5,1-0.9,1.5-1.3l-1.1-1.5c-1.6,2.3-3.3,4.3-5.2,6.3 c0.4-0.4,0.9-0.8,1.3-1.2c-0.2,0.3-0.4,0.6-0.7,1l1.1-0.9C249.9,187.9,250.8,186.7,252.1,185.8L252.1,185.8z"/> <path class="st3" d="M24.2,211.3C24.2,211.3,24.2,211.4,24.2,211.3c-0.1,0.1-0.1,0.1-0.1,0.1C24.2,211.4,24.2,211.4,24.2,211.3z"/> <path class="st3" d="M134,227.1c0,0.1,0,0.1-0.1,0.2C134,227.2,134,227.2,134,227.1z"/> <path class="st3" d="M252.3,183.9l-0.9-1.3v0.1c-0.1,0-0.1,0-0.2,0l-2.8,1.6c-0.1,0.5-0.1,1-0.3,1.5c0.5-0.4,0.9-0.7,1.3-0.9 c-0.4,0.6-0.9,1.1-1.5,1.6c-0.3,0.8-0.7,1.6-1.2,2.4l-0.5,0.9C248.2,187.8,250.2,185.7,252.3,183.9L252.3,183.9z"/> <path class="st3" d="M224.2,229.6c-0.4-0.7-0.9-1.2-1.1-1.9c-0.5-1.4-0.7-2.9-0.7-4.4c0-0.8,0.3-1.8,0.2-2.6 c-0.1-0.9-0.9-1.6-1.8-1.6c-0.3,0-2,0.3-2.3,0.7c0-0.1,0-0.1-0.1-0.2c-0.6,1.2-1.3,1.9-2.2,2.7c-0.6,0.5-1.1,1-1.7,1.6 c-0.5,0.5-0.7,1-1.1,1.4c-0.9,0.8-2,1.5-2.9,2.3c-0.5,0.5-1.1,1-1.6,1.5c-0.4,0.4-1.1,0.6-1.4,1c-0.1,0.1-0.3,0.3-0.4,0.4 c1.4,0.2,3.4-1.3,4.6-1.9c2.2-1,1.6,0.5,1.4,2c0.7-0.7,1.3-1.5,1.9-2.3c0.3-0.4,1.2-1.8,1.4-0.7c0.1,0.5-0.6,2.1-0.7,2.7 c-0.2,0.7-0.5,1.8-0.2,2.6c0.6-0.4,1.4-0.8,2-1.2c0.8-0.5,1.6-0.4,1.9-1.2c0.2-0.6,0-2,1-2c0.8,0,1.3,1.2,1.5,1.7 c0.6-0.7,0.9-0.8,1.4,0c0.4,0.6,0.7,1.4,1,2.1c0.2,0.4,1.1,1.6,1.8,1.2c0.6-0.3-0.8-1.6-1-2C224.9,230.9,224.5,230.3,224.2,229.6 L224.2,229.6z"/> <path class="st3" d="M243.4,194.1l-0.1-0.3c-0.9,0.2-2,1.4-2.6,2c-0.9,0.7-1.4,1.7-2.1,2.4c-0.9,0.8-1.8,1.6-2.6,2.5 c-1.7,1.8-3.2,3.9-4.7,5.8c-0.8,1.1-1.9,2.2-2.2,3.5c0.9-0.7,1.6-1.7,2.5-2.5c1-0.9,2-1.8,2.9-2.8c1-1.1,2-2,3-3 c0.8-0.8,1.6-1.9,2.6-2.4v0.2c0.3-1.1,1.1-2.1,1.7-3.1C242,196,243.3,193.9,243.4,194.1L243.4,194.1z"/> <path class="st3" d="M100.5,215.8c0.3,0,0.5-0.1,0.7-0.2c0.8-0.1,4.1,0.2,2.9-0.2C103,215.6,100.9,214.9,100.5,215.8z"/> <path class="st3" d="M77.9,212.7c-1.8,0.1-6.3,1.4-9.5,1.9c-4.4,0.7-8.3,0.1-11.4-1.4c0.6-0.2,1.3,0.8,1.7,0 c-0.2-0.2-1.5-0.5-1.7,0c-3.1-1.5-5.5-3.8-6.8-6.8c-0.4,2.5,0.8,3.4,1.4,4.9c-0.6,0.2-0.9,0.7-1,1.5c0.5,1.2,2,2.7,3.4,2.2 c-1.4-0.3-2.4-1-2.7-2.5c0-0.5,0.6-0.5,1.2-0.5c0.2-0.6-0.8-1.1-0.2-1.2c0.4,0.5,1.4,0.5,1.2,1.7c1,0.3,4,1.1,2.4,1.7 c0.6,0,1,0.1,1.2,0.5c-0.4,0-2-0.1-1.2,0.2c0.6,0,1,0.2,1.2,0.5c-0.7,0.7-3.4,0.7-3.4,1.2c0.4,0.1,1.3-0.3,1.2,0.3 c-0.3,0.4-1.9-0.5-2.4,0.2c0.3,0,0.6,0.1,0.5,0.5c-0.7,0.6-1.3-0.5-1.7-1c0.4-0.2,1.1-0.6,0.5-1.2c-1.5,0.1-3.1-0.3-4.4,0 c-1.9,0.4-4.8,2.1-5.6,3.6c-2,3.6,0.2,10.4,3.3,12.5c2.6,1.7,7.7,0.5,6.8-2.8c-0.7-0.1-1.2-0.9-1.9-0.3c0.4,1,0.9,1,0.5,2.4 c-5.2,2.2-9.5-3.4-8.4-8.9c0.8-3.9,5.2-7,9.1-5.7c-1.2,0.3-2.2,1-3,2c-0.1,0.1-0.1,0.2-0.2,0.3c-1.1,1.5-1.6,3.5-1,5.5 c0.2-0.4,0.6-0.5,1.2-0.5c-0.3-2.6,5.2-4.4,5.1-0.9c1-0.1,1,0.8,2.2,0.5c0-0.6,0.8-0.5,0.7-1.2c-0.9-0.3-0.3-2.2-1.5-3.1l-0.1-0.1 c0.1-0.7,0.7-0.9,1-1.4c-0.1,1.3,1.4-0.2,1.5,0.5c-1.4,0.3,0.6,0.8,0.5,1.5c0,0.5-1.6,0.7-0.7,1.2c1.4-1.2,3.6,0.1,3.6,1 c1,0.2,1-0.6,1.9-0.5c0.3,0.7,0.4,1.5,1.2,1.7c0.9-0.3,1-1.4,1.5-2.2c-1.8-0.3-2.9-1.1-4.4-1.7c-0.2,0.8,1,0.3,0.7,1.2 c-0.5-0.1-0.5,0.3-0.7,0.5c-0.6-0.6-1.7-0.8-2.2-1.5c1.4-0.5,1.3,1.6,2.4,0.5c-1.6-0.5-2.5-2-2.2-3.2c0.3,0.7,0.4,1.7,1.2,2 c0-0.8-0.6-0.8-0.5-1.7c0.6-0.5,1.9-0.1,2.4,0.3c5.5-0.5,10.6-3.2,16.8-3.7C81.1,212.8,77.9,212.7,77.9,212.7z"/> <path class="st3" d="M30.4,211.7c1.4,0.1,1.9-0.3,2.9,0C33.7,210.7,30.7,211,30.4,211.7z"/> <path class="st3" d="M36.8,212.5c-0.9-0.6-1.7-0.5-2.9-1.2c0.3,1.2,2,1.1,2.9,1.7c4.4,4.3,2.4,14.9-5.3,13.3c-0.2-1,0.6-1.4,0-1.9 c-3.7,1.6,0.4,3.2,2.2,3C38.7,226.5,42.4,216.7,36.8,212.5L36.8,212.5z"/> <path class="st3" d="M31.6,191.6c-0.2,0.4-0.4,0.6-0.8,0.6c-0.1-0.1-0.3-0.2-0.5-0.3C30.8,191.8,31.2,191.6,31.6,191.6z M28.4,192.3h0.2c-0.1,0.9,0.4,2.5,1.3,3.1v0.1c0.7,1.7,4.8,2.6,3.9-0.5c-1.5-0.3-1.1,1.1-2.4,1c-0.2-0.2-0.4-0.5-0.6-0.7 c0-0.4,0-0.7,0-1.1c0-0.3,0.3-0.9,0.4-1.2c1.7-1.1,5.6-1.3,7.5-1.3c7.6,0.1,17,3,21.6,3.9c-9.4-4-23.5-3.3-29.1-11 c-0.6,0.6,0.3,1.4,0,2.4c-1.2,0.7-1.7,2.1-2.1,3.6c-3.8,0.4-7.8,2.1-9.8,4.7c2.6-2.1,6.3-3.1,9.7-4.3 C28.8,191.4,28.6,191.8,28.4,192.3z"/> <path class="st3" d="M28.1,206.3c1.2-2,8-5.3,8-0.6c0,1.1-0.3,1-0.8,1.9c3.1-2.3-1-7.6-4.8-5.4c-0.6-0.3-0.5-1.4-1.4-1.5 c0.3,3-3.1,5-4.6,2.6c-0.8-5,3.1-6.6,4.2-9c-2.6,2.3-4.8,4-4.7,8.2c0.1,3.1,1,6.5,0.2,8.8c0,0,0-0.1,0.1-0.1c0,0,0,0.1-0.1,0.1 c-0.1,0.2-0.3,0.4-0.4,0.6s-0.2,0.4-0.3,0.6c1.6-1,4.1-1.5,5.9-1c0.1-0.3,0-0.6-0.1-0.9C29.4,208.8,28.4,207.8,28.1,206.3 L28.1,206.3z"/> <path class="st3" d="M64.2,192.8c-1.2-0.2-2.4-1.8-3.4-1.5C61.5,192.1,63.3,193.1,64.2,192.8z"/> <path class="st3" d="M138.7,226c-0.2,0.3-1.6,0.9-0.6,1.5c0-0.3,0.1-0.7,0.6-0.6c-0.3,0.3-0.3,1-0.3,1.8c1.1,0.4,0.1-1.3,1.2-0.9 c0.1,1.7-1.7,1.4-2.7,2c-0.8-1.1,1-2.4,0-3.5c-0.3,4.8-3,7-5.5,9.5h0.2c1.8-1.3,4.3-1.9,4.4-5c2.1-0.5,3.8-1.2,4.7-2.9 C139.3,227.9,139.8,226.2,138.7,226L138.7,226z"/> <path class="st3" d="M134,227.1c0,0.1,0,0.1-0.1,0.2C134,227.2,134,227.2,134,227.1z M131.9,233.5c0.1-1.1-0.2-2.6,0.6-2.9 c0,0.5-0.2,2.7,0.3,1.8c0.3-1.1,0.1-2.7,0.6-3.5c0,0.5-0.1,1.1,0.3,1.2c0.4-1.6,0.2-2.5,0.6-3.5c1.1,1.4-1,4.6,0.2,5.3 c0.4-1.9,0.3-4.4,1-5.9c0.2-0.1,0.4-0.1,0.5-0.2c-0.2,1.2-0.9,2.6-0.3,3.5c0.2-1.8,0.6-3,1.2-4c0.1-0.1,0.2-0.1,0.2-0.2 c0.1-0.1,0.2-0.2,0.3-0.4c0.5-0.2,0.9-0.5,1-1c0.5-0.3,1-0.6,1.4-1c0.6-0.5,0.8-0.9,0-1.2c-0.9-0.3-1.4-0.3-2.1,0.3 c-0.1,0.1-0.2,0.2-0.2,0.3c-0.5,0.2-0.9,0.5-1.7,0.9c-0.4,1,1,0.2,0.6,1.2c-2.7-0.1-5.2,2.4-9.1,2c-0.4,2.4,1.2,2.9,2,4.1 c-2.1,2.8-2,6.3-0.8,9.3c0.1-0.1,0.1-0.2,0.2-0.3c0.1-0.2,0.2-0.4,0.3-0.5c0.1-0.2,0.2-0.3,0.3-0.5c0.1-0.1,0.2-0.2,0.2-0.4 c0.2-0.2,0.3-0.4,0.5-0.6c0.1-0.1,0.2-0.2,0.2-0.3c0.4-1.6,0.9-2.7,1.4-4.3C131.7,233,131.6,233.5,131.9,233.5L131.9,233.5z"/> <path class="st3" d="M266.9,215.4c1.7-1.9,4.9-3.4,7.6-3.8l0.2-0.4C271.8,210.8,267.2,213.2,266.9,215.4L266.9,215.4z"/> <path class="st3" d="M248,199.2c0.5,1.3,1.4,3.4,2.4,3.3C249.2,202,248.7,199.5,248,199.2z"/> <path class="st3" d="M261.4,217.4c4.5-2.7,8.4-6.6,9.3-12.2c0.6-0.4,0.9,0.4,1-0.5c-0.2-3.7-1.9-8.9-5.3-9.3 c9.7,7.6-1,21.7-9.8,23.4c-7.2,1.5-14.5-2.5-15.5-9.8c-0.8-6,2.4-10,3.3-13.4c-1.7,3.8-4.1,7-4.1,11.7c0,9.3,9.3,14,18.6,12.2 c-0.1-0.9,2-1,3.6-1c1.1-1.5,5.5-2.4,6,0.5c0.2,1.1-1,1.7-0.5,2.9c0.5-1,1.4-1.4,1.4-2.4C269.8,215.3,263.9,216.5,261.4,217.4 L261.4,217.4z"/> <path class="st3" d="M242.5,197.1c-0.1,0.1-0.2,0.2-0.2,0.3v0.1C242.4,197.4,242.4,197.2,242.5,197.1L242.5,197.1z"/> <path class="st3" d="M248.4,184.4l2.8-1.6C250.3,182.8,249.4,183.5,248.4,184.4z"/> <path class="st3" d="M251.4,182.7l-0.2,0.1C251.3,182.8,251.3,182.8,251.4,182.7z"/> <path class="st3" d="M249.5,184.9c-0.4,0.2-0.8,0.5-1.3,0.9l-0.2,0.7C248.5,186,249,185.5,249.5,184.9L249.5,184.9z"/> <path class="st3" d="M249,189.2l1.9-1.6c0.4-0.6,0.8-1.2,1.2-1.8C250.8,186.7,249.9,187.9,249,189.2L249,189.2z"/> <path class="st3" d="M245.2,193.9c-0.1,0.1-0.6,0.9,0,1c0.1-0.9,0.6-0.9,0.2-1.7c1.5-1,2.5-2.6,3.6-4l-1.1,0.9 c-1.5,1.9-3.7,3.7-4.3,5.5C244,195,244.4,194.2,245.2,193.9z"/> <path class="st3" d="M246.8,197.5c0.3-1,0-3.6,1.2-2.9c0.6-3.2,2-6,4-7.9l-1.1,0.9C248.9,190.5,246.7,193.5,246.8,197.5 L246.8,197.5z"/> <path class="st3" d="M247.2,190.3c1.8-2,3.6-4.1,5.2-6.3l1.1,1.5c-0.5,0.4-1,0.8-1.5,1.3l1.5-1.2l0.5,0.6 c-0.1-0.3-0.2-0.5-0.3-0.8l0.3-0.3c-0.1,0.1-0.2,0.1-0.3,0.2c-0.3-0.9-0.5-1.9-0.4-3c-0.2,0-0.3,0-0.5-0.1 c-0.4,0.1-0.9,0.3-1.3,0.4l0.9,1.3c-2.2,1.8-4.1,3.9-6,5.9l0.5-0.9c0,0,0,0.1-0.1,0.1c-0.5,0.7-0.9,1.4-1.4,2.1 c-0.1,0.4-0.2,0.9-0.4,1.3c-0.2,0.2-0.5,0.4-0.7,0.6l0.7-0.5c0,0.1-0.1,0.2-0.1,0.3v0.1c-0.1,0.2-0.2,0.5-0.3,0.7 s-0.1,0.3-0.2,0.5l0.6-1.3c0.4-0.4,0.8-0.8,1.2-1.3l1.8-1.4c0.3-0.3,0.5-0.6,0.7-1C248.1,189.5,247.6,189.9,247.2,190.3 L247.2,190.3z"/> <path class="st3" d="M255.9,188.7l-1.1-1.3c-0.2,1.4,0,3,0.7,3.7C255.5,190.3,255.7,189.5,255.9,188.7L255.9,188.7z"/> <path class="st3" d="M248.2,185.8c0.1-0.5,0.2-1,0.3-1.5L248.2,185.8z"/> <path class="st3" d="M246.8,188.9c0.5-0.8,0.9-1.6,1.2-2.4L246.8,188.9z"/> <path class="st3" d="M274.2,170.2c2.1,0.9,0.6,3.3,2.1,4.3C277.1,172.3,275.2,170,274.2,170.2z"/> <path class="st3" d="M286.3,166c0,0.1,0,0.1-0.1,0.2c-2.4,2.8-6.7,3.9-11.3,2.3c-1.4-1.4-2.8-2.8-3.5-4.7 c0.9,3.5,5.3,7.6,10.2,6.5c0.5-0.1,4.1-1.7,4.3-1.9c0.7-0.6,1.3-1.9,1.5-3.1C287.1,165.5,286.7,165.8,286.3,166z"/> <path class="st3" d="M268,178.8c0.7,0.3,0.6-0.7,1.2-0.6c0.8-2.4,1.1-5.7,0-7.8c0.4,2.2,1,4.5-0.3,7.3 C268.6,178.1,268.1,178.1,268,178.8L268,178.8z"/> <path class="st3" d="M267.9,165.4c0,1.3,0.1,2.4,0.6,3.4C268.4,167.5,268.1,166.4,267.9,165.4z"/> <path class="st3" d="M19.3,88.8c-0.1-3.8-0.2-8.6,1.2-11.9c-2.2-4.9-1.8-11.1,0.6-14.6c-0.8-0.8-1.7-1.4-2.6-2.1 c0,1.6,1.7,1.2,2,2.5c-1.4,2.3-2.6,4.1-2.6,6.8c0,2.4,1.6,4.4,1.8,6.6C20.2,80.2,16.9,84.6,19.3,88.8z"/> <path class="st3" d="M21.5,39.5c0,0.2-0.1,0.4-0.1,0.6c0.2-0.5,0.3-1,0.4-1.4L21.5,39.5z"/> <path class="st3" d="M23.3,50c-0.2-0.9-1-1.5-1.6-2.1c-0.9-2.7-0.8-5.2-0.4-7.8c-0.9,2.6-2.5,5.7-0.5,7.8c0.9,1.8,2.8,3.3,0.3,5 c0.2-0.1,0.4-0.2,0.5-0.3c-1.8,1.6-3.8,3-4,5.9l4.6-6.2C23.1,51.8,23.5,51.2,23.3,50z"/> <path class="st3" d="M276.8,136.9c0.2,0-0.1,2,0.7,2.7c0-0.3-0.2-2.2,0.6-2.5c0,0,1.6,1.7,2.6-3.6c0-0.1,0.8,4.3,2.7,4.4 c0,0-2.6-3.6-1.7-5.7c0,0.1,0.1,1.1,0.9,1.2c0,0.1,0.2,1.2,1.1,1.8c-0.2-1.2-0.3-2.5-0.3-3.7c-0.1-1.2-0.2-2.4-0.2-3.7 c-0.2-1.7-0.1-3.4,0.3-5c-0.1-1.3,0.1-3.2,1.3-5.7c0-0.1-0.1-0.1-0.1-0.2l-0.1,0.1c-0.3-0.2-0.8-0.5-1.2-0.7 c0.2-0.3,0.3-0.7,0.5-0.9c-0.5,0.6-1.4,1.3-1.4,1.3s0-7.2-0.3-7.3s-0.6,9.4-1.5,11.6l-0.1,0.2c0-0.3-0.9-12.2-1.7-12.9 c-0.4-0.4-2,25.5-3.3,26.8C275.7,135.2,275.2,136.5,276.8,136.9z"/> </g> <path class="st4" d="M256.5,84.1c1.9,8.7,3.6,17.6,5.1,26.7c-2.5,0.6-4.9,1.2-7.8,1.5c-1.7-8.9-3.6-17.5-4.9-26.8 C251.4,84.9,253.8,84.3,256.5,84.1z"/> <path class="st4" d="M100.2,173c-1.8,1.7-6.3,1.5-5.6-2.3c0.4-2.1,4.2-3.3,5.9-4.6h0.2C101.4,168.6,101.8,171.4,100.2,173 L100.2,173z M108.9,166.6c-0.6-3.5-1.1-8.7-2.6-11.1c-1.6-2.5-5.2-3.5-9.1-3.2c-6.4,0.5-13.2,3.1-10.9,11.1c2.3,0.1,4.8-0.8,7-1.2 c0.1-1.1-0.1-1.5,0.2-2.2c0.9-1.9,6.2-2.7,6,0.2c-0.1,1-1.5,1.7-2,1.9c-2.6,1.1-6.3,1.9-8.1,3.3c-4.4,3.3-3.6,11.2,0.1,14 c0.9,0.7,2.7,1.3,4.3,1.4c4.5,0.2,7-1.6,8.9-3.7c0.2,0.8,0.5,1.5,1.1,1.9c2.7-0.3,5.1-0.8,7.5-1.2 C110.2,174.3,109.6,170.5,108.9,166.6z"/> <path class="st4" d="M173.1,158.5c-1.1,1.3-2.8,2.6-5.3,2.1c-5.5-1-7-14.2-0.1-14.7C173.2,145.6,174.9,153.8,173.1,158.5 L173.1,158.5z M180.3,146.1c-1.9-3.7-6.8-7.3-12.7-6.9c-5.2,0.3-8.4,2.4-10.5,5.3c-1.6,2.2-2.7,6.4-2.3,9.8c0.7,8,7,14.1,14.8,13.6 c4.1-0.3,7.9-2.2,10.1-5.1C182.9,158.6,183,151.3,180.3,146.1L180.3,146.1z"/> <path class="st4" d="M83.8,159.4c-0.6,2.7-6,2.4-5.2-1.4c0.1-0.6,0.7-1.5,2-1.7C82.5,155.9,84.3,157.3,83.8,159.4L83.8,159.4z M84.8,157.9c-0.5-2.6-3.9-3.4-6.8-2.4c-0.3-0.5-0.3-1.2-0.2-2c0.8-1.5,3.4-1.2,5.1-1.9c-0.1-1.8-0.8-4-1-6.2 c-0.6-0.1-1.1,0.1-1.4,0.1c-3.1,0.6-7.1,0.7-9,2.1c-2.4,1.8-2.3,5.1-1.4,9c-0.7,0.6-1.6,0.4-2.3,0.7c-3.9,1.7-2.4,8.3,3.7,6.7 c1.3,6.5,2.3,13.2,3.6,19.8c1.3,0,2.6-0.4,3.9-0.6s2.8-0.3,3.8-1c-0.8-6.4-2.6-12.8-3.3-19.6C82.8,162.6,85.4,161,84.8,157.9 L84.8,157.9z"/> <path class="st4" d="M62.3,139.4c-0.1-2.5,3.2-3.3,4.6-1.4C68.1,142.3,62.5,142.7,62.3,139.4z M76.7,125.7c-3-0.1-9.5,1.8-9.4-1.4 c0-1.2,1.8-2,3.1-2.1c2.7-0.3,4.8,1.2,6.7,1.8c1.3-1.6,2.6-3.2,3.5-5.2c-3.6-3.3-10-3.9-14.9-2.1c-4.6,1.7-8.2,7.2-5.3,12.7 c1.3,2.5,3.8,3.8,7.7,4.1c2.7,0.2,7.9-1.2,8.1,1.2c0.2,2.8-5.8,3.3-8.1,2.4c-1-0.4-2.3-1.6-3.2-1.6c-2.2-0.1-3.6,1.5-3.8,3 c-0.2,1.9,1.1,3.5,2,4.2c1.3,1,3.8,1.7,5.9,1.8c6.1,0.4,12.1-2,14.4-5.6C86.9,133.4,83,125.9,76.7,125.7z"/> <path class="st4" d="M195.6,141.3c-1.6-0.6-2.1-4.2,0.6-4.7C200.3,135.8,199.6,142.8,195.6,141.3z M198,135.5c-2.9-1-5,1-6.5,2.6 c-0.4,0.5-0.7,1.7-1.2,1.6c-0.3-1.1-0.2-2.4-0.6-3.3c-2.8,0.2-5.4,0.7-7.9,1.4c1.6,9.1,3.1,18.2,5.1,26.9c2.8-0.4,5.4-0.9,7.9-1.6 c-0.6-4.2-1.6-8.2-2.3-12.3c-0.2-1.4-0.7-3-0.6-4.3c0.1-1.2,1.2-2.1,2-2.6c1.4-0.8,3.4-0.5,4.8-1.4 C201.2,140.8,200.6,136.3,198,135.5L198,135.5z"/> <path class="st4" d="M97.7,132.8c-2.8-0.2-3.8-3-4.4-5.9c-0.8-3.7-0.9-7.7,3.1-8.4c1.5-0.3,2.4,0,3.3,0.7 C102.8,121.6,104.7,133.2,97.7,132.8z M95.3,147.4c-0.6,2.7-6,2.4-5.2-1.4c0.1-0.6,0.7-1.5,2-1.7C94,143.9,95.8,145.3,95.3,147.4 L95.3,147.4z M106.6,114.4c-3.2-3.6-9.6-4.6-13.6-1.7c-0.8,0.6-1.2,1.6-2.1,2.4c-0.2-0.7-0.1-1.5-0.5-2c-2.6,0.4-5.2,0.6-7.3,1.5 c1.3,8.9,3.3,19.9,4.9,28.9c0.3,1.5,0.2,3.1,0.6,4.3c1,3.2,5.9,4,7.5,1c1.6-3.1-1.2-7.9-0.9-10.9c1.8,1.1,3.9,1.9,6.3,1.6 C112.7,138.2,113.3,121.8,106.6,114.4L106.6,114.4z"/> <path class="st4" d="M125.1,128.4c-2.5,1.2-5.3-0.4-4.4-3.5c0.7-2.5,4-2.6,6.3-3.7h0.2C127.9,124.4,127.2,127.3,125.1,128.4z M116.1,117.8c-1.6,0.2-3-0.7-2.7-3.2c0.5-1.1,1.9-2,3.5-1.4C118.8,114,118.3,117.5,116.1,117.8z M135.1,122.6 c-0.5-3.5-0.9-7.3-1.9-10.4c-1.2-3.7-4.5-5.6-9.5-5.3c-5.2,0.3-12.2,2.4-11.8,8.3c0.2,3.3,4.6,4.8,6.7,2.4c1-1.1,0.8-3.1,2.6-4 s4.6-0.6,4.6,1.5c0,1.2-1.5,1.6-2.7,2.1c-4.9,2-10.2,2.8-10.5,8.9c-0.3,6.6,4,10.2,10,9.5c1.3-0.2,3.7-0.8,4.8-1.7 c0.9-0.7,1.1-1.8,2.1-2.7c0.4,0.9,0.4,2,1.2,2.5c2.5-0.3,4.8-0.7,6.9-1.4C136.4,129.3,135.6,126.1,135.1,122.6L135.1,122.6z"/> <path class="st4" d="M151.4,166c0.1-0.6,0.7-1.5,2-1.7c1.9-0.4,3.6,0.9,3.2,3.1C156,170.1,150.5,169.8,151.4,166L151.4,166z M130.3,165.8c0.1-0.6,0.7-1.5,2-1.7c1.9-0.4,3.6,0.9,3.2,3.1C134.9,169.8,129.4,169.6,130.3,165.8L130.3,165.8z M152.9,119.7 c-0.7,2-3,3.1-5.4,2.1c-3.5-1.5-5-11.3,0-12.5c0-0.1,0.1-0.1,0.1,0c1.1,0,2,0.1,2.7,0.5C152.4,111,154,116.5,152.9,119.7 L152.9,119.7z M162.4,122.9c-0.5-2.5-0.8-5-1.2-7.5c-0.6-3.7-1.5-7.1-2.1-11c-0.2-1.5-0.2-3.7-1.4-3.5c-2.1,0.4-5.5,1-7.2,1.5 c-0.1,0.7,0.5,1.3,0.1,1.9c-1.9-1.2-3.2-1.6-5.7-1.4c-6.6,0.6-10,6.9-8.8,14.9c0.4,2.4,1.3,5.3,2.6,7.2c1.2,1.7,3.6,3.6,5.7,4.2 c4.7,1.4,8.5-1,10.4-3.5c0,1.9,0.8,3.5,0.1,5.1c-0.8,1.9-4.6,2.4-7,2.8c-6.6,1.1-12.3,3.6-9.9,11.7c-1.4,0.8-3.8,0.5-5.3,1.2 c-0.1,1.7,0.8,3,0.5,4.6c-1.8-1-1.7-1.3-2.7-1.9c-6-3.3-13.6-1.2-16.9,3c-3.1,3.8-3.7,10.6-1.7,15.3c1.8,4.3,5.7,7.8,10.5,8.1 c5.7,0.5,9.9-2,12.6-4.9c2-2.2,2.4-6.7-0.9-7.7c-4.4-1.3-4.6,3.8-6.9,5.1c-1.2,0.7-3,0.8-4.6,0.1c-2.3-1-3.7-4.3-3.9-6.4 c-0.6-5.9,4.2-9.1,8.3-6.4c0.8,0.5,1.3,1.5,2.1,1.5c0.6,0,1.9-1.3,2.5-1.8c0.8-0.8,1.3-1.8,2.3-2.1c2-0.6,3.2-0.1,5.3-0.7 c0.7,2.6,1,5.3,1.6,8.3c1,5.4,1.5,11.3,7.8,11.1c1.4,0,6-0.7,7.2-1.2c3.4-1.6,2.2-6.8-1.1-7.3c-1.1-0.2-2.2,0.4-3.3,0.3 c-2.1-0.3-2.3-3.8-2.7-6.3c-0.4-2.3-1-4.5-1.1-6.4c2-0.6,3.9-0.5,5.4-1.2c-0.1-1.9-0.6-4.4-1.1-6.2c-1.6-0.3-3.5,0.8-5.3,0.4 c-0.3-0.6-0.3-1.6-0.1-2.3c1.8-1.2,4.2-1.3,6.2-1.7c5.4-1.1,10.6-3,11-9.1C163.6,127.9,162.8,125.3,162.4,122.9L162.4,122.9z"/> <path class="st4" d="M210.6,115.1c-2-0.4-3.1-4.3-0.1-4.9c0.9-0.2,1.8-0.1,2.3,0.2C214.8,111.8,213.8,115.8,210.6,115.1z M204.8,102.8c-2.5,0.7-5.7,1.4-8.3,1.6C195.8,99,204,98.5,204.8,102.8z M209.6,109c-1.4,0.6-1.7,2.3-2.6,3.5 c-2.3,3.2-9.6,2.8-9.9-2c5.6-1.2,11.6-2,17.2-3.2c-0.1-2.4-0.9-4.5-1.9-6.3c-0.9-1.8-2.4-4.1-3.8-5.1c-2.1-1.5-4.8-2.6-8.1-2.5 c-7.5,0.2-12.4,5.7-12.1,13.8c0.3,8.7,5.8,15.1,14.7,14.7c2.6-0.1,5.8-1.1,7.7-2.5c1.5-1.1,3.5-3.3,4.1-5.3 C215.8,111,213,107.6,209.6,109L209.6,109z"/> <path class="st4" d="M71.1,105.1c-2.3-0.5-2.5-5.1,0.7-5.2C75.3,99.8,74.8,105.9,71.1,105.1z M73.4,98.7c-1.8-0.7-3.4,0.2-5.7,0 c-1.2-1.4-1.3-3.6-1.7-5.7s-1.1-4.2-1-6.3c1.4-0.7,3.5-0.7,5.1-1.2c-0.2-2.3-0.7-4.4-1.1-6.5c-2.1-0.1-3.5,0.6-5.4,0.7 c-1-2.7-0.7-6.6-2-8.9c-2.5,0.5-5.3,0.8-7.5,1.6c0.3,3.2,1.1,5.7,1.5,8.8c-1.5,0.6-3.7,0.6-5.2,1.2c0.4,2.3,0.4,5,1.5,6.7 c1.7-0.1,3-0.6,4.8-0.6c1.1,3.2,1.2,6.1,1.9,9.4c0.9,4.6,1.6,9,6.5,9.5c1.9,0.2,6.3-0.3,7.8-0.7C76.5,105.5,76.6,100,73.4,98.7z"/> <path class="st4" d="M161.7,93c0.2-0.8,0.9-1.6,2.2-1.9c2.3-0.4,3.2,0.9,3.3,2.2C167.6,97.2,160.9,97.3,161.7,93z M187.8,115.1 c-0.5-2.9-0.9-5.9-1.4-8.6c-0.8-4.8-3.4-9.4-8.8-9.1c-3.4,0.1-6,2.5-7.7,4.6c-0.8-3.5-0.8-7.9-2.2-10.7c-3.6-3.1-8.1-0.6-7.4,4.3 c0.4,2.5,1,5.3,1.5,8c1.5,7.9,3,16.8,4.6,24.1c2.9-0.3,5.6-0.8,8.1-1.5c-0.4-4.3-1.7-8.7-2.5-12.6c-0.3-1.4-0.7-3.1-0.6-4.4 c0.1-2.2,2-4.1,4.3-3.6c1,0.2,2.1,1.7,2.5,2.7c0.9,2.5,1.1,5.7,1.6,8.5c0.5,2.9,0.8,5.7,1.6,8.3c2.9-0.2,5.5-0.6,7.8-1.5 C189.1,121,188.3,118.1,187.8,115.1L187.8,115.1z"/> <path class="st4" d="M208.6,167.6c-2-0.6-2.4-4.7,0.6-5.1c0.9-0.1,1.6,0.1,2.1,0.5C213.1,164.6,211.5,168.5,208.6,167.6 L208.6,167.6z M224.5,129.8c-2.5,0.7-5.3,1-7.9,1.6c-0.7,5.2-0.6,11.2-1,16.4c-2-3.5-4.1-7.4-5.8-11c-0.6-1.3-1.1-2.6-2-3.7 c-1.3-0.1-2.7,0.3-4.2,0.6s-3.1,0.2-4.2,1c3.4,6,7.1,12.4,10.5,18.5c1.2,2.1,2.7,4.2,3.2,6.7c-0.2,0.4-0.6,0.6-0.9,1 c-3.1,0-5.5,0.2-6.2,2.6c-1.1,3.9,1.9,5.6,5.4,5.4c3-0.1,7.5-1.2,8.8-3.3c1.1-1.9,1.3-5.8,1.6-8.5c0.9-8.5,2.2-16.9,2.8-25.2 C224.8,131.3,225.3,130,224.5,129.8L224.5,129.8z"/> <path class="st4" d="M169.6,86.1c0-1.4,0.7-2.5,2.5-2.7c1.6-0.2,2.8,0.7,3,2.2C175.4,89.1,169.8,89.4,169.6,86.1z M175.9,82.4 c-1.7-7.8-2.5-14.7-3.9-22.3c-0.7-3.9-1.2-8.4-5.6-7.9c-1.2,0.1-2.4,0.7-3.1,1.7c-1.2,1.9-0.1,5.9,0.4,8.4 c1.1,5.6,2.2,11.6,3.2,16.8c0.8,4.3,0.5,11.7,6.3,10.7C176.4,89.2,176.7,85.9,175.9,82.4L175.9,82.4z"/> <path class="st4" d="M251.2,82.4c-2.7-0.2-3.2-4.6-0.1-5.1C255,76.7,254.5,82.6,251.2,82.4z M251.2,75.3c-2.1,0.1-3.2,1.6-4.1,3.2 c-0.5,4.6,3.1,6.6,6,5.3C257.1,82.2,256.3,75.1,251.2,75.3z"/> <path class="st4" d="M243.7,87c3.9-0.6,3.4,5.3,0.1,5.1C241.1,91.9,240.6,87.5,243.7,87z M249.4,105.2c-2-0.1-3.5,1.1-4.9,0.4 c-1.5-0.8-1.5-3.8-1.9-5.8c-0.4-2.6-1.2-4.7-1.1-6.4c2.7-0.6,6.2-0.8,6.7-3.5c0.3-1.8-0.8-4-2.6-4.3c-2.2-0.4-3.2,0.9-5.4,0.7 c-0.9-2.6-1.1-5.9-1.9-8.6c-2.8,0.2-5.4,0.7-7.8,1.4c-0.1,3,1.3,6.1,1.2,9c-2.3,0.6-4.8,1-7.4,1.4c-0.9-2.7-1-6.1-1.9-8.9 c-2.9,0.2-5.4,0.7-7.9,1.2c0.3,2.9,1.3,6,1.7,9.1c-1.8,0.7-3.8,0.7-4.7,2c-1,1.4-0.6,3.7,0.6,4.6c1.5,1,3.4,0.2,5.4,0.2 c0.4,2.4,1,5.3,1.5,8.3s0.7,6,1.9,8c2.3,4.1,9.1,3.2,13.9,1.5c-0.2-2.7-0.8-5.1-1.4-7.4c-1.8,0-4.1,1.2-5.4,0.1 c-0.6-0.5-0.6-1.8-0.9-2.8c-0.7-3-1.5-7-1.5-9.5c2.4-0.3,4.6-0.9,7.3-1c1.8,4.8,1.4,12.2,3.6,16.3c2.4,4.4,9.1,3.1,13.9,1.6 C250.4,110,249.8,107.7,249.4,105.2L249.4,105.2z"/> <path class="st4" d="M155.7,81.5c-0.5,3.7-5.8,5.9-8.4,2.6c-2.8-3.5-3.6-12.5,2.5-13.1C154,70.6,156.4,76.6,155.7,81.5z M163.8,75.6c-0.2-1-0.6-2.7-1.4-4.2c-1.9-3.9-6.9-8.1-13.6-7.3c-1.6,0.2-3.4,0.6-4.6,1.1c-2.2,1-4.7,3-5.9,5.2 c-0.7,1.3-1.8,4.5-1.9,7c-0.1,4.9,2.6,10.3,6.2,12.8c4.5,3.1,11.4,3.2,16.2,0C162.7,87.8,165.2,81.7,163.8,75.6z"/> <path class="st4" d="M73.9,73.1c-2.4-0.7-2.2-4.3,0.4-4.8C78.4,67.4,78.3,74.4,73.9,73.1z M97.3,88.6c-0.8-3.9-1.2-9.1-3.5-11.4 c-2.7-2.7-8.5-2.4-11.7-0.1c-0.9,0.6-1.2,1.5-2.1,1.8c-0.2-2.3-0.8-5.1-1.1-7.2c-0.2-0.9-0.1-1.8-0.4-2.5c-1.2-2.8-5.2-3.4-7.2-1 c-1.3,1.7-0.5,4-0.1,6.5c0.2,1.5,0.6,2.9,0.9,4.2c1.5,8.1,3.1,19.4,4.7,26c2.9-0.2,5.5-0.8,8-1.5c-0.4-2.4-0.8-5.5-1.5-8.8 c-0.6-3-2-6.2-1.5-8.9c0.3-1.9,3.1-3.6,5.2-2.3c1.8,1.1,2.1,6.4,2.6,9c0.6,3.5,1.2,6.6,1.7,9.9c2.5-0.2,5.8-0.7,8.1-1.5 C98.9,97.3,98.2,93,97.3,88.6z"/> <path class="st4" d="M193.2,52.6c-2.4-0.7-2.2-4.3,0.4-4.8C197.8,46.9,197.6,53.9,193.2,52.6z M194.2,76.6 c-0.7,1.9-3.3,3.3-5.7,2.6c-3.3-1-5.4-10.3-2.2-13.1c0.6-0.5,1.4-0.7,2.5-0.9c3.5-0.4,4.4,2.2,5.1,5.6 C194.3,72.9,194.8,74.9,194.2,76.6L194.2,76.6z M201.4,66.1c-0.4-1.9-0.6-3.9-1-5.8c-0.1-0.7-0.5-1.2-0.6-1.9 c-0.8-4.2-0.8-10-3.7-11.6c-2.5-1.4-5.6,0.5-5.9,2.6c-0.3,1.8,0.4,3.8,0.7,5.3c0.4,1.7,0.8,3.3,1.1,5.1c-1.9-1.8-5.9-2-8.8-1 c-3.5,1.2-5.8,4.6-6.5,8.3c-1.6,8.3,2.6,18.5,10.1,19.6c1.9,0.3,4.7,0,6.9-1.2c1.2-0.7,1.4-1.8,2.6-2.8c0.3,0.7,0.2,1.8,0.7,2.2 c2.5-0.4,5.2-0.7,7.4-1.5C203.7,78.3,202.4,71.4,201.4,66.1z"/> <path class="st4" d="M122.1,92.4c-4,1.3-4.7-5.4-0.1-4.8C123.7,88.1,124.1,91.7,122.1,92.4z M107.2,82.1c-0.9-5.4,7.4-6.1,7.9-1.5 C112.6,81.3,110,81.8,107.2,82.1z M126,90.2c-0.2-2.1-3.2-5.1-6.3-3.3c-1.2,0.7-1.5,2.5-2.5,3.6c-2,2.2-5.4,2.1-7.4,0.4 c-0.7-0.6-1.5-1.1-1.5-2.3c1.1-0.7,2.6-0.8,3.9-1.1c4.3-0.8,9-1.3,12.8-2.5c-0.7-5.6-3.3-10-7.3-12.2c-2.2-1.3-5.1-1.8-8.4-1.4 c-3.7,0.4-7.3,3.4-8.6,5.8c-2.2,4-1.9,11,0,15.2c1.3,2.8,4,5.3,6.5,6.3c6,2.4,12.9,0.1,16.2-3.2C124.7,94.1,126.2,92.5,126,90.2z"/> </g> <g id="Layer_2"> <g> <g> <defs> <rect id="SVGID_3_" x="12.5" y="8.3" width="275" height="231.3"/> </defs> <clipPath id="SVGID_4_"> <use xlink:href="#SVGID_3_" style="overflow:visible;"/> </clipPath> <path class="st5" d="M24.7,139.2c0-1.4-0.2-2.4-0.9-3.1c0.1,0.9-0.6,0.9-0.9,1.3C23.8,137.8,23.7,139,24.7,139.2z M51.1,193.2 c5.6,0.7,11.1,3.8,15.8,4C62.6,195.3,57.1,190.5,51.1,193.2z M73.5,197.6c-1.4,0.8-4.4-1.8-5.3,0.9 C70,198.1,73.1,199.1,73.5,197.6z M72.2,203.2c-0.2-1.5,1.8-0.8,1.8-2.2c-1.4-0.1-1.5,1.2-3.1,0.9c0-0.6,0.6-0.6,0.4-1.3 c-1.3,0.1-2.1,0.5-1.8,2.2C70.6,202.7,71.7,202.7,72.2,203.2L72.2,203.2z M109,217.8c1.5-1.3,6,0.4,7.5-0.9 c-2.1-1.6-7-0.3-9.2-1.8C107.5,216.4,108.1,217.2,109,217.8z M117.4,219.9c-2.3-2,3.9-0.6,4.4-0.9c-2.7-1.7-8.3-1-12.3-0.4 C111.8,219.5,115.6,222.5,117.4,219.9L117.4,219.9z M122.7,220.3c4.7-1,11.3-0.1,16.7-0.4c-1-1.1-4.3,0.2-4.8-1.3 c-2.7,2.2-7.6,0-11.4,0.4c0-0.5-0.6-0.3-0.4,0.4C122.2,219.4,122.1,220.2,122.7,220.3L122.7,220.3z M184.6,15.7 c-1.2,0.1-3-0.4-3.1,0.9C182.9,16.7,184.1,16.6,184.6,15.7z M207.8,208.9c1.5,0,2.3-0.6,3.1-1.3 C209.6,207.7,208.2,207.8,207.8,208.9z M207.8,211.1c2.3-0.8,4.4-1.8,6.1-3.1C211.6,208.8,209.2,209.4,207.8,211.1z M229.8,199.2 c-1,0-1.3,0.7-2.6,0.4c-0.4,0.9-1.3,1.3-1.3,2.6C227.6,201.7,229.3,201.1,229.8,199.2L229.8,199.2z M231.1,198.8 c1.9-0.6,4.2-3.1,3.5-4.8C233.6,195.8,231.4,196.3,231.1,198.8z M260.1,171.6c-1.8-0.3-3.2,3.8-2.6,3.1 C258.2,173.6,259.3,172.9,260.1,171.6z M271.5,155.8c-0.6-0.1-0.4-1.1-0.4-1.8c-1.6-0.5-0.7,1.6-2.2,1.3c1.1,1.8-1.2,2.5-0.4,3.5 C269.2,157.5,270.4,156.8,271.5,155.8z M274.1,155.8c0.6-0.8,0.5-3.4-0.9-3.5C273.9,153.1,273.3,155.2,274.1,155.8z M277.2,114.1 c0.3-5.8-2.2-16.2-4.4-22.4c-1.4-0.3-0.8,1.2-2.2,0.9c-0.4-1-1.1-1.5-0.9-3.1c-2,0.3-1.6,3.1-2.6,4.4c-1.8-2.5,4.1-7.8,0.9-11.9 c0.3,3.7-3.8,5.6-6.1,3.1c1.6-1.2,1.6-2.3,1.3-3.5c3,0.6,0.2,1.8,0.9,3.1h2.2c1.7-4-1-7.2-4-7.9c2.9-2.6-0.5-6.8-1.8-9.2 c-1.8-0.2-2.3,0.9-3.1,1.8c-1-0.9-2.3-1.5-2.6-3.1c1.4,0.1,2.1-0.5,2.2-1.8c0.2-1.4-1.2-1.2-1.3-2.2c-1.6-0.3-1.7,1-3.1,0.9 c0.1-3.1-2.5-0.9-3.1-3.5c-0.3-1.6,1.7-1,1.8-2.2c-1.6-1.9-3.3-3.7-5.3-5.3c1.4,4.5-1.9,7.6-4,10.1c-1.9-3.3,1.8-6.9,1.3-8.8 c-2.7,6.3-15.5-0.5-9.7-4.8c1.4,1,1.9,2.8,3.1,4c1.8,0.1,3.2,0,4-0.9c-0.9-4.8-5-9.6-10.1-7.5c-0.3-1.4-1.6-1.9-2.2-3.1 c0.2-1.1,1.7-0.9,1.3-2.6c-5-1.9-8.4-5.4-15.4-5.3c-0.2-1.6-1.8-1.7-2.6-2.6c-1.8,0.3-2.2,1.9-4.4,1.8c-0.1-2.2-0.2-5.7-3.1-6.1 c-0.1,0.8-0.3,1.5-0.9,1.8c-0.7-1-1.8-3.7-3.1-2.6c0.8,0.4,1.7,1,0.9,1.8c-2.6-1.5-5.3-4-8.8-2.2c-2.3-2.1-5.6-5.5-9.7-4.4 c2,0.9,3.7,2.1,4.8,4c-3.6,1.2-4.4-3.7-7-4.8c-1.4-0.1,1.1,1.3-0.4,1.3c-1.1-1-2.5-1.6-4.4-1.8c0.2,2.5,3.3,2,4.4,3.5 c-2.7,1.6-7.5,6.1-10.5,2.2c1.8,0,3.6,0.1,4.8-0.4c-0.3-8.5-8.4-6.8-14.5-6.6c-1.2,0.6,1.6,1,0.9,2.6c-1.9-0.3-2.5,0.8-4.4,0.4 c-0.9-0.9-3.8-4.6-4.8-1.3c1.2,0.1,3-0.4,3.1,0.9c-2.2,2.9-6.7,7.3-11.4,4.8c11.5-4.6-8.8-11.2-12.7-5.7c-5.5-1.4-9,1.5-12.7,3.1 c0.7,3.5-2.4,2.6-3.5,1.3c-0.1,1.5-0.5,2.8-1.3,3.5c-1.1,0.6-3.6,1.5-4.4,0c0.4-1.4,2.9-0.6,2.6-2.6c-6-4-12.3,1.6-16.2,4 c-0.2,1.6,1.6,1.1,1.3,2.6c-1.6,0.3-4.5-0.7-4.8,0.9c2.1,0.7,3.5,2,5.3,3.1c-1.2,2.2-3.5-0.5-4.8-0.9c-9.2-1.2-13.3,4.8-18,6.6 c1.1-2,3.8-4.7,4-6.1c-2.3,1.6-6.1,1.8-5.3,6.6c-2.2,0.3-4.7,0.2-6.6,0.9c3.6,5.1-1.7,11.4-5.7,11.4c1.9-2.5,4.5-4.3,4-9.2 c-4.1,0.4-6.1,3-8.8,4.8c-0.5,1.4,1.4,0.3,0.9,1.8c-1.5,0.4-1.7,2.1-2.2,3.5C45.5,58,41.7,66,35.7,71.9c0.6,1.6-1.4,2.6-0.4,3.1 c5.2-7.2,9.4-15.5,18.9-18.4c-0.6,3.2-5.9,4.1-6.1,6.1c1.2-1.1,4.3,0.3,4.8,0c0.9,1.8-0.3,4.8-2.6,4.8c-0.6-0.4-1.4-0.7-1.3-1.8 c-0.5-1.3,2.6-2,0.4-2.2c-6,1.5-9,6.8-12.3,11.4c-2.6,3.7-6.3,7.9-5.7,12.3c2.4-2.1,7.7-1.6,7.5,2.6c-1.5-0.4-1.4-2.4-3.5-2.2 c-4,3.8-9.8,8-10.1,14c0.9-2.3,2.3-4.2,4.8-4.8c0.7,0.5,2.3,1.3,1.3,2.2c-0.4,0-0.5,0.3-0.9,0.4c-1.2,0.1-0.3-1.7-1.8-1.3 c-2.3,2.6-5.4,6.9-4,11.9c0.2-2.5,1.1-6.5,2.6-6.1c-1.3,2.8-2.3,5.9-2.2,10.1c1.5,1.4,5.6,0.2,5.7,3.1c-6.1-1.8-9.3,8.1-5.7,13.2 c1.5-1.7,1.8-4.7,2.6-7c0.7,4.8-1.9,6.3-2.6,9.7c3.6-1.4,6.3,0.4,7,3.1c-1.9-0.6-0.5,2.1-2.2,1.8c-1-0.3-0.3-2.3-2.2-1.8 c-0.6,2.8,2.1,2.3,2.6,4c-1.7,4.2-0.7,6.9,1.3,10.1c2.2,0.6,2.2-1.1,4-0.9c-2.8,7.9,2.7,13.6,5.7,18.4c0.9-3.2,1-7.2,4.4-7.9 c0.9,1.6-1,3.5-1.8,4.8c0,8.1,4.1,12,8.3,15.8c-0.4,0-0.5,0.8,0,0.9c0.6-0.3,0.1-1.7,0.9-1.8c4.4,7.6,13.5,12.8,20.6,16.2 c-5.6-2.8-14.2-9.8-9.2-17.6c2.3-0.3,3.5,0.6,4,2.2c-0.6,0.9-0.7,2.2-2.2,2.2c-1.3-0.7-1.4-1.4-0.4-2.6c-5.5,4.3,2,11.9,6.6,13.2 c2.8-0.5,3.1-4.3,6.1-4.8c4.8-0.9,9.3,3.3,5.7,7.9c-0.5-2,0.5-6.6-2.6-5.3c1.6,1-2.5,2.1-3.1,0.9c0.1-1,1.4-1,1.8-1.8 c-6.9,3,0,11.7,5.3,10.1c1.1,1.2,1.2,3.5,3.5,3.5c1.3-0.6,1.2-2.6,3.1-2.6c1,10.4,14.6,8.3,20.6,13.6c1.8-2.7,6.2,3,8.3,0 c-5.7-2.5-9.8-6.6-11.4-13.2c0.8-0.2,0.3-1.7,1.8-1.3c0.2,13,15.8,18.6,29.9,16.2c-0.7-3.1-2.7-1.6-4.8-0.9 c-0.1-0.6-0.7-0.7-0.9-1.3c0.3-1.2,1.3-1.7,1.8-2.6c-1.8-1.3-2.1-4.1-2.6-6.6h3.1c0.4,1.3,1.8,1.8,1.3,4c6,8.9,24.8,6.4,36,6.6 c0.3-1.1,1.8-1.1,2.6-1.8c0.5,0.6,1.7,0.7,2.2,1.3c0.1-1.2,1.3-1.3,2.2-1.8c1.2,0,1,1.4,2.2,1.3c0.8-1.8,3.1,0.5,3.1-1.8 c-0.3-1-3.3-1.4-4-0.4c0.5,0.1,1,0.1,0.9,0.9c-2.4-0.4-4.7-0.9-4.8-3.5h3.5c0.8-0.8,0.5-2.7,2.2-2.6c0.8,1.1-0.4,1.7,0.4,3.1 c8.9,2.6,17.1-2.7,24.1-5.7c-5.9,1.6-8.4-2.6-11-5.7c0.5-1.3,2.1-1.4,4-1.3c-1.2,2.1,2,3.7,0,4c4.1,2.6,9.3-0.1,13.2-1.3 c-0.1-1.6,0.3-2.6,1.3-3.1c1,1,3.4,2.7,5.3,1.3c-1.6-0.4-3.1-1-3.1-3.1c1.8-0.1,2.4,0.8,4.4,0.4c1.7-0.7,1.8-2.9,4-3.1 c1.7,0.5-0.3,2.3,0.9,3.1c5.1-3.8,11.3-6.5,14.9-11.9c-4,1.2-9.2-2-5.3-4.4c2.3-0.1,1.3,2.2,1.8,3.1c1-0.3,3.2,0.5,3.5-0.4 c-1.4,0-2.4-0.6-2.6-1.8c-0.2-2.4,1.3-3.1,3.5-3.1c1.2,1.4,0.1,3.4-0.9,4c5.3,0.2,6.3-5.5,9.7-5.7c-0.3-2.2,1.1-3.1,1.8-5.3 c-1.4-1.8-3.8,0.2-3.5-3.1c5,1.2,10.8,0.3,12.3-3.5c-1.9-1.1-3.7,1.2-6.6,0.4c-1.6-2.6-2.3-11.2,4.4-8.3 c-2.6,0.1-5.1,2.3-3.5,5.3c2.4,0.5,1.6-2.2,3.1-2.6c0.3,1.6,1,2.8,2.6,3.1c3.9-1.1,2.2-7.8,5.7-9.2c-0.2-3,0-5.6,1.8-6.6 c0.3-1.5-1.8-0.6-1.3-2.2c2.3-2.3,3.4-6,5.7-8.3c-1.4-0.9-1-2.3-2.6-0.9c1.6-3,4.5-7.2,3.1-11.9c-0.7,1.4-0.2,2.4,0,4 c-1.5,2.1-4.3,3.1-5.3,5.7c-1.9-6.6,6.9-8.6,5.7-14.5c-1.1,1.8-2.3,3.6-4,4.8c-0.5-0.7-1.7-0.7-2.2-1.3c0.8,0.1,1-0.4,0.9-1.3 c-3,0.7-3.9-4.6-6.1-1.8c1,0.4,2.8,0.1,2.6,1.8c-1.2-0.7-3.4-0.4-3.5-2.2c0.4-1.6,1-3.1,3.1-3.1c1.6,0.5,0.7,3.4,2.6,3.5 c-0.1-2-0.1-3.9,1.3-4.4c1.3,0,2.5,0.2,2.2,1.8c-0.3,2.4-2.4-1.3-2.2,0.9c1.9,0.8,2.9,0.3,4.4-0.4c0-2.2,0.2-4.6-0.9-5.7 c-2.3-0.3-3.8,1.2-4.4-0.9c1.7-1.6-0.1-4.5,0.9-6.1C275.3,104.9,276.7,109,277.2,114.1L277.2,114.1z M44.3,57.3 c-0.7,0.7-2.2,0.8-2-0.8c2.1-0.9,3.5,0,4.8-3.1c-2,0.1-1.2-2,0-2.2c1.4-0.5,0.3,1.4,1.8,0.9c2.9-1.5,5.5-5,6.1-7.5 c1.9,0.1,2.2-1.3,3.5-1.8c0.9-1.4,0.2-2.3,2.6-2.6c0.7-2.9,5-7.7,6.6-9.7c-0.6,2.1-3.3,4.6-3.1,6.1c3-3.8,10-7.3,7.5-14.9 c-1.2-0.4-2.4,1.3-3.1,0c0.6-0.8,1-1.9,2.6-1.8c6,3.6-1.3,11.8-1.3,15.8c4.4-1.3,7.4-4,10.5-6.6c-1.2-0.8-2.2-1.6-2.2-3.5 c2.7-1.2,2.1,3.1,4,1.3c-0.4-0.5-1.6-0.1-1.3-1.3c1.5-0.7,1.9,1.9,2.6,0.4c0.1-1.2,1-5.5,4.4-6.6c-0.1,1.4-1,3.6,0,4.8 c2.9,0.6,1.5-3.2,3.5-3.5c0.7,0.6,0.3,2.3,1.8,2.2c4.7-2.1,10-3.5,10.1-10.1h4.8c1.7-1.1,2.1-3.5,4.4-4c1.2,0.6,1.3,2.2,3.1,2.2 c1.4-0.7,2.1-2,4-2.2c5,3.5,13.4-1.5,18.4,1.8c-5.7-1.2-14.3,2.1-19.3-0.9c-1.2,0.7-2,1.8-3.5,2.2c-1.9,0-1.6-2.2-3.5-2.2 c-1.3,3-4.2,4.3-7.9,4.8c1.1,4.6-5.2,5.6-7.5,8.3c7.3-0.1,13.3-1.7,15.4-7c1.8-0.1,1.2,2,2.6,2.2c1.9-5.7,11.1,1.6,15.8-4 c6.3,1.3,15.7-0.2,22.8-0.4c4.1-0.1,8.3,0.5,12.3,0.4c10.4-0.3,19.8-2.3,29.4-3.5c-2.1,1.1-5.7,0.7-6.6,3.1 c2.6,0.3,6.4-0.6,8.3,0.4c-3.2,1.2-9.4-0.6-11.4,1.8c1.2-0.1,2.2-0.1,1.8,1.3c5.3,2.8,11.9,4.2,19.8,4.4c-0.5,1-2.8,0.2-4,0.4 c4.8,3.7,14.7,4,22.8,3.1c-0.1,1.7-1.8,1.7-2.2,3.1c2,0.9,3.9,3.1,2.2,5.3h3.1c1.3-0.8,0.2-3.9,1.8-4.4c2.6,1.1,2.4,4.5,0.9,6.6 c1.2,2,3.8,1.4,5.7,1.8c0.4,1.7-1.5,2.1-0.4,3.1c3.3,1.7,9.9,4.2,11.9,0c0.2-1.5-2.8-0.7-1.3-2.2c3.4-1.2,1.8,3.3,1.3,4 c-2.5,3.3-9.2,0.4-11.9-0.9c3.2,5.9,18.5,5.3,18.9-2.6c-0.8-1.7-5,0.1-5.3-2.2c4.2-4.5,7.8,2.4,6.6,6.1c7.7-10.7-8-20.5-12.7-9.7 c-0.3,2.2,0.4,3.4,0.4,5.3c-2.4-1.2-1.7-5.6-4-7c1-0.1,1.9-0.5,2.2-1.3c-3.9,0.4-10.5-3.8-8.8-7.5c7.5,6,26.7,0.2,25.9,14.5 c0.4-1.2,1.3-4.2,2.2-3.5c-2.4,3.8-2.2,7.7-4,12.3c-2.7,0.2-7.3,1.7-4.8,4.4c2.4,0.4,1.9-2.2,3.5-2.6c1.4,0.4,1.1,2.4,2.6,2.6 c1.5,0.1,1.7-2.2,3.1-0.9c-0.4,4.3,5.2,6,2.6,9.7c-0.5-3.8-8.2-9.8-9.2-2.6c0.7,1.2,2.4-1,3.1,0.4c-1.2,1.9,0.4,4.2,0.9,5.7 c3.7,0.3,3.5,4.4,7,4.8c1.9-0.1,2.8-1.3,4.4-1.8c-0.5,2.3-4.1,3.2-6.6,2.2c-0.1,4.2,4.3,0.8,5.7,1.8c0,1.6-0.4,2.8-0.9,4 c1.6,0.6,3.8,0.6,4.4,2.2c-1.4,0.1-2-1.6-3.1-0.4c1,3-0.7,3.7-0.9,5.3c1.4,0.5,0.3-1.4,1.8-0.9c0.2,4.2,1.6,9.1,4.4,11.9 c-0.4,6.6,4.4,11.6,4.4,19.3c-1.5-0.1-0.4-2.8-1.8-3.1c0.9,2.3-0.1,6.5,2.2,7.5v8.8c-1,4.1-0.3,9.9-4,11.4 c0.5,4.5-2.1,8.7-2.2,12.7c-0.1,3.6,2.2,6,1.8,9.2c-0.9,0.7-2.9-0.3-4-0.9c-5.8,3-8.2,9.3-11.4,14.9c3.9,0.4,3.8-5.2,6.6-4.4 c-0.3,5.8-5.8,7.1-8.3,11c-1.4,2.1-0.2,4-2.6,5.7c-0.1-1.5-0.7-2.5-0.4-4.4c-6.2,3.9-8.7,12.8-6.1,22c1.5,1.2,3.1,2.2,4.8,3.1 c1.2,0.3,0.9-0.9,1.8-0.9c0.5-2.2-2.4-2.6-1.3-4c0.6-1,3.5,0.3,3.5-1.3c-0.9-1.4-2.9,1-4-0.4c5.1-0.9,8.6-3.4,9.7-8.3 c1.5,5.3-3.9,7.5-5.3,11.4c-0.7,0-1.5,0-2.2,0c0.7,2,0.6,4.3-1.3,4.8c-3.1-0.2-3.7-2.7-6.6-3.1c-0.3-7.1-2.4-12.6,1.3-17.6 c-5.4,3.2-10.7,17.9-3.5,25c-8.8-3.8-2.6-18.7-0.4-22.4c-10.2,7.8-21.6,18.2-34.2,25c3.4-3.9,8.8-5.8,12.3-9.7 c-0.1-0.8-0.3-1.5-0.9-1.8c-5.2,4.9-10.7,9.5-18.9,11.4c1.6-0.8,0.7-1.4,1.3-2.6c-2.2,0.1-4.3,0.3-6.1,1.8 c-0.3-0.1-0.4-0.3-0.3-0.5c0.3-0.1,0.5-0.2,0.8-0.4c-0.4-0.1-0.7,0.1-0.8,0.4c-4.6,2-12.7,3.5-16.8,7.1c0.4,1.5,1.7,2.1,3.5,2.2 c-1.4,1.9-4.2-0.2-5.3-1.3c-0.2-1.7,1.1-1.8,1.3-3.1c-13.7,0.2-24.4,3.4-30.3,11.4c-1.2-1.1,1.6-1.9,1.8-3.1 c-1.1,0.6-2,1.6-3.5,1.8c0.6-0.9,4.5-3.9,4-1.8c1.8-1.1,2.7-3.2,4.8-4c-3.9-3.1-10.8,0.9-17.1-0.4c-0.7,4-8.4,6.7-12.7,7 c-1-3.5,7.2-1.6,7.5-5.3h4c-6.4-3.7-14.6,0.9-22,0.4c0.3-1.3,2-1.2,2.6-2.2c-3.9,1.8-6.2,1.8-10.5,1.8c-1.2-2-3.8-2.7-4.4-5.3 c-2,0-4.1,0-6.1,0c0.9-1,3.6-0.2,5.3-0.4c-1.3-2.2-5.9-1.5-7.9-1.3c-9.2,0.7-18.6,5.2-25,7c6.4-5,16-6.8,26.3-7.9 c-5.9-1.2-11.8-1.3-17.6-0.9c-8.7,0.7-16,6.6-22.8,2.2c-2.5,0.2-4.8,0.1-5.7-1.3c1.7-3-1-4.2,0-7c7.1,15.9,32.8-0.3,46.5,7 c1-0.1,1.6-0.7,3.1-0.4c-3.7-3.2-9.1-5.7-15.8-3.5c-0.7-1.6,1.5-0.3,1.3-1.3c-1.9-0.8-5.8-1.7-8.3-0.4c-1.1-1.1,1.6-2.1,3.1-2.2 c-6.4-3.1-21,0.4-14.5,7.5c-7.6-3.7,3.5-7.5-0.4-13.2c-9.6-1.9-22.4-1.3-22.4,9.2c-0.3,1.2,2.1-0.3,1.8,0.9 c-3.8,3.9-2.6-4.2-2.2-5.3c2.6-7.3,14.8-7,23.7-5.7c-8.9-4-19.8-7.2-32.5-6.1c-1.6,0-2,1.2-3.1,1.8c-1.2,0.1-0.9-1.5-2.6-0.9 c0.7-3.1,2.9-4.7,3.1-8.3c3.5,3.8,8.7,5.9,15.4,6.6c-4.8-9-24.1-8-32.1-13.6c-1.1-0.8-5.7-5-2.6-7c2.6,14.7,35.3,10.6,45.7,19.3 c-0.7-3.5-6.6-5.7-10.1-7.9c-0.3-1.3,0.5-1.6,0.4-2.6c-2.6-2.4-6.8-3.5-11.4-2.6c1-1.6-0.1-2.9,2.2-3.5 c-2.3-6.3-4.7-15.7-14.5-11.9c0-0.6,0-1.2,0-1.8c1.3-0.9,2,1.2,3.5-0.4c-1.1-1.7-0.1-1.6,0-4.8c-0.5-1.2-2.2-1.3-3.1-2.2 c-0.1-1.4,1.1-1.5,2.2-1.8c-4.8-4.8-5.7-13.4-11.4-17.1c0.2-1.4,2.2-1.1,3.5-1.3c0.2-1.6-1.6-1.1-1.3-2.6 c1.1,0.1,2.1,0.1,2.6-0.4c-0.8-2.4-2.7-3.7-3.5-6.1c1.8,0,1.5,2,2.6,2.6c-1.8-3.9-1.8-9.7-6.1-11c0-1.6,1.3-1.9,3.1-1.8 c-0.2-0.4,0.3-3.4-0.4-5.3c-5.5-1.6-6.1,6.9-4.4,11.4c-1.8,0.5-0.8-1.8-1.8-2.2c0-1.9,0-3.8,0-5.7h0.4c0.1-2.9,1.6-4.5,4-5.3 c-0.6-2,0.6-5,1.8-6.6c0.3,3.4-1.7,5,0,7.5c2.1-0.8,1.5,0.3,3.1,0.9c1.2-1.4-0.9-2.3-0.9-4c0.8-1.2,2-2.1,2.2-4 c-1.4-6.9,6.3-13.9,2.2-20.6c-1.7-0.6-3.2,1.2-4,0c1.5-2.4,5.2-0.6,6.6,0.9c-6.1-10.5,4.6-20.9,2.6-32.5 c4.1,10.9-8.3,20.6-2.2,30.7c0.3-10.6,8.3-17.1,8.8-29c-0.8-1.9-3.5-2.1-4-4.4c2-0.7,5-0.9,6.6-0.9c4.9-8.5,2.4-20.4-9.7-18 c-0.9,0.2-1.7,0.5-2.4,0.9c0.3-0.2,0.5-0.5,0.7-0.9c-3.7,0.3-8.6,1.1-11-0.9c1.9,2.1-0.8,4,0.4,6.1c1.6-3,5.6-2.2,8.4-3.4 c-4.7,3.7-6.1,11.8-8.4,16.6c0.4-6,3-9.9,4.8-14.5c-3.6-1-3.4,1.9-5.3,2.6c-1.7-1.1-1.2-3.7-0.4-5.3c-0.3-2.2-3.5-4.6-1.8-6.1 c3.2,8,18.4,1.2,24.1,5.3c-2.3-2-7.2-5.6-5.3-8.8c2.6,8.8,10.9,10.6,10.5,21.1C44,55.2,28.3,67.3,29.6,82 c2.1-6.8,4.3-15.9,8.3-19.3c-0.7,1.6-2.6,4.4-2.2,5.7c0.8-1.3,1.8-4.6,3.1-4c0.1,0.6-1.5,1.6-0.4,1.8 C40.6,63.9,42.9,59.6,44.3,57.3L44.3,57.3z"/> </g> <path class="st6" d="M277.2,59.6c1.2-0.1,1.4,0.6,1.3,1.8C277.4,61.5,277.1,60.8,277.2,59.6z"/> <path class="st6" d="M273.7,49.1c2-0.2,1.2-3.2,4-2.6c-0.9,1.6-0.9,2.4,0,4c-1.3-1.2-2-0.3-4.4-0.4c-1.3-1.5-1.3-3.4-0.9-5.7 c-2.8,1.9-10.1,0.4-8.8-4c0.3-1.1,3.4-3.3,4,0c-0.9,1.4-2,0.1-3.1,0.9c1.8,5.9,10,2,10.1-2.6c-1-6.7-10.4-5.9-12.7-0.9 c-0.1-5.2,11.7-6.7,13.6-0.9C274.9,40.7,271.7,45.4,273.7,49.1L273.7,49.1z"/> <path class="st6" d="M276.8,66.2c1.4,1.8,1.1,8.1-1.3,8.8C276.6,71.5,273.8,68.6,276.8,66.2z"/> <path class="st6" d="M274.6,54c1.1,3.6,2.2,7.2,2.2,11.9c-2.2-0.3-2.2,1.6-4.4,2.2c0.4-4.4-2.4-5.5-3.5-8.3 c-1,0.3-1.1,1.5-1.8,2.2c1.2-2.5-1-9.7,4.8-9.2c-4.1,1.2-3.9,5.5-1.3,8.3C272.6,59.3,273.3,56.3,274.6,54L274.6,54z"/> <path class="st6" d="M275,24.5c0.8,0.3,0.1,0.8,0,1.3c-6.2,0.4-8.7,4.5-12.7,7C264.8,28.3,269.7,26.2,275,24.5z"/> <path class="st6" d="M274.6,71c0.1,2-1,2.8-3.1,2.6c0.7-1,3.7-1.8,0.9-2.6C272.5,70,274.3,70.8,274.6,71z"/> <path class="st6" d="M273.7,76.3c1.7,0,1.6,2.3-0.4,1.8C273.1,77.2,273.6,77,273.7,76.3z"/> <path class="st6" d="M273.7,54.5c0.6,2-1.8,2.1-2.6,1.3C271.3,54.7,272.7,54.8,273.7,54.5z"/> <path class="st6" d="M248.2,12.7c6.4,0.4,15.1-1.6,22-0.9c-0.2,3.2-8.9-0.8-11.4,1.8c-3.2-2.3-6.5,0.5-10.1,0.4 c-1.9-0.1-3.7-1.8-5.7-1.8c-2.5,0.1-4.2,2.7-6.6,2.6c-2.7,0-4.3-2.3-6.6-3.5c-6.6,1.8-12.1,4.6-20.6,4.4 c6.9-1.6,14.7-2.3,19.8-5.7c3.2,0.1,3.3,3,6.1,3.5c3.4,0.6,4.8-2,7.9-2.2C244.7,11.2,246.4,12.5,248.2,12.7z"/> <path class="st6" d="M268.4,63.6c0.2-1.4-1.5-1.2-0.4-2.2c0.6,0.2,1.1,0.7,1.3,1.3c-0.1,2.4-2.5,3.8-4.4,3.1 C266,64.9,267.8,64.8,268.4,63.6z"/> <path class="st6" d="M253.1,14.8c0.3,0.2,0.7,0.5,1.3,0.4c-2.7,5.5-12.9,4.8-21.1,5.3c-7.8,0.4-17.8,0.1-25.9-0.9 c6.8-0.6,20,0.6,29.9,0C242.7,19.3,252.3,18.7,253.1,14.8z"/> <path class="st6" d="M232.9,208.9c3.6-3.1,5.5-7.9,8.3-11.9c-2.7,5.1-4.6,14.7-8.3,20.2C232,215.2,234.3,211.8,232.9,208.9z"/> <path class="st6" d="M226.7,212.4c4.7-8.7,12-14.9,18-22.4C240.4,197.6,232.6,205.2,226.7,212.4z"/> <path class="st6" d="M230.7,15.3c-1,3.2-6.7,2.9-10.5,3.1c-4.5,0.2-9.5,0.1-13.2-0.4c-0.6-0.2-2.3,0.5-2.2-0.4h2.6 C215.7,17.3,225.3,18.4,230.7,15.3L230.7,15.3z"/> <path class="st6" d="M211.8,8.3c0.1,1-0.1,1.7-0.4,2.2c-1.4,0.2-1.4-0.9-1.3-2.2H211.8z"/> <path class="st6" d="M190.7,15.7C197,16,202,15,208.3,15.3C204.4,16.8,195,17.5,190.7,15.7z"/> <path class="st6" d="M210.5,10.9c-2.4,3-8,2.9-12.7,3.5C201.4,12.6,206.9,12.8,210.5,10.9z"/> <path class="st6" d="M206.5,19.2c-1.6,1-5.3,0.3-7,0C201,18.3,204.9,18.8,206.5,19.2z"/> <path class="st6" d="M197.7,17.5c0.9-1,3.6-0.2,5.3-0.4C202.5,19.2,199.3,17.2,197.7,17.5z"/> <path class="st6" d="M199.1,215.2c0.1-2.3,3.6-1.3,5.3-2.2C202.9,213.8,200.4,215.6,199.1,215.2z"/> <path class="st6" d="M200.8,211.2c-0.3,0.1-0.5,0.2-0.8,0.4C200.1,211.2,200.4,211.1,200.8,211.2z"/> <path class="st6" d="M197.7,18.4c0.3,1.7-2.1,0.5-3.1,0.9c0-0.3,0-0.6,0-0.9H197.7z"/> <path class="st6" d="M180.6,217.8c-2,1.1-4.4,1.8-7,2.2C175.1,218.3,177.8,217.9,180.6,217.8z"/> <path class="st6" d="M105.1,218.2c-9.2,1.4-15.5,5.6-21.1,10.5C88.6,222.8,94.7,218.4,105.1,218.2z"/> <path class="st6" d="M84,221.7c3.3-3.1,9.1-3.8,14.5-4.8C93.8,218.6,88.9,220.2,84,221.7z"/> <path class="st6" d="M84.9,18.4c-0.5,1-2.8,0.2-4,0.4C81.7,17.4,83.4,18.2,84.9,18.4z"/> <path class="st6" d="M83.6,221.7c0.4,1.4-1.1,0.9-1.3,1.8c-0.5-0.1-0.3-0.9-0.9-0.9C81.8,222,82.5,221.7,83.6,221.7L83.6,221.7z"/> <path class="st6" d="M79.2,19.2c-3,0.1-3.4-3.1-6.6-3.5c-3.9-0.5-7,1.7-8.8,4.8c-0.2-1.9,1.9-4.5,4-5.3 C72.5,13.4,76.9,16.3,79.2,19.2z"/> <path class="st6" d="M66.5,24.9c2.2,2,1,7.2,0.4,1.3c-0.5,0.1-0.8-0.1-0.9-0.4c-2.2-0.9-3.2,1.7-4.4,0.4 C62.3,25.1,63.9,25.1,66.5,24.9z"/> <path class="st6" d="M62.9,21c1.1,0.6-0.6,1.9-0.4,3.1C61.3,23.3,62.7,21.7,62.9,21z"/> <path class="st6" d="M60.3,32.8C60,36.4,55.7,43.5,51.5,46C54.3,41.5,57.9,37.8,60.3,32.8z"/> <path class="st6" d="M53.3,36.5c0.1,4.3-5.2,10.9-7.9,15.4C46.6,47.1,51.4,42,53.3,36.5z"/> <path class="st6" d="M55.9,24.1c-1.4,2.4-5.5,1.9-8.3,1.8C50.3,25.2,53.7,25.2,55.9,24.1z"/> <path class="st6" d="M50.2,47c2,0.5,0.9,2.8-0.9,1.8C49,47.5,50.2,47.8,50.2,47z"/> <path class="st6" d="M49.3,9.6c-5.5,1.6-8.8,9.3-4.4,14.5C39.6,20.2,42.1,9.6,49.3,9.6z"/> <path class="st6" d="M41,61c0.1,1.2-0.2,1.9-1.3,1.8c-0.2-0.3-0.5-0.7-0.4-1.3C39.6,61,40.2,61,41,61z"/> <path class="st6" d="M26.1,50.5c-4.5-2.5,3.3-7.1,4-2.2C29,47.8,28.4,47,27,47c-0.6,0.1-0.7,0.8-1.3,0.9 C25.9,48.8,27,49.6,26.1,50.5z"/> <path class="st6" d="M23.9,160.2c-1.4,16.4,16.4,17.2,25.9,24.1c-11-5.7-27.9-7.8-26.8-24.1c-1.4-1-3.5-1.2-4.4-2.6 c3.5-12.3-3.7-21-6.1-30.3c0-0.3,0-0.6,0-0.9c3.6,8.8,10.1,18.5,7,31.2C20.9,158.5,23,158.8,23.9,160.2z"/> <path class="st6" d="M240.3,198.6v0.7V198.6z"/> <path class="st6" d="M240.3,199.4l-1.3,2.7C239.4,201.1,239.8,200.2,240.3,199.4z"/> <path class="st6" d="M235.1,209.2c0.8,0.5-0.4,1-0.5,1.5C233.9,210.3,235.1,209.7,235.1,209.2z"/> <path class="st6" d="M234.5,210.6c0.1-0.4,1.3-0.9,0.5-1.5C235.1,209.7,233.9,210.2,234.5,210.6z M234.1,209.4c0.4,0.5,1-1,1.7-1 c0.1,1.7-2.1,2.7-1,3.9c-0.2,0.1-0.4,0.2-0.5,0.5c-0.4-1.2-0.5-2.6-0.7-3.9c0.3-0.2,0.9-0.2,1-0.7 C235.3,208.6,234.1,209,234.1,209.4z"/> <path class="st6" d="M231.2,207.6c3-3,6-6,9.1-8.9v0.7c-1.8,1.7-3.6,3.5-5.3,5.3c-2.3,2.4-4.8,4.7-7.2,7.1c-0.4,0.4-0.7,0.9-1,1.3 c0.7-1.2,1.5-2.3,2.4-3.5C229.9,208.9,230.6,208.2,231.2,207.6L231.2,207.6z"/> <path class="st6" d="M225.7,213.4c1-1.4,2.2-2.7,3.5-4c-0.8,1.1-1.6,2.3-2.4,3.5c-0.4,0.4-0.8,0.8-1.4,0.9 C225.5,213.7,225.6,213.6,225.7,213.4L225.7,213.4z"/> <path class="st6" d="M229.2,209.4c-1.2,1.2-2.5,2.5-3.5,4c3.1-4.4,6.6-8.5,10.2-12.6c0.2,0,0.5-0.1,0.7-0.1 C234,203.5,231.5,206.4,229.2,209.4L229.2,209.4z"/> <path class="st6" d="M224.6,216.7c0-0.9,1.3-0.5,1-1.7C226.3,215.6,225.5,216.8,224.6,216.7z"/> <path class="st6" d="M224.6,214.2c1,0.3-0.1,0.7-0.3,1.2C223.6,215.1,224.6,214.5,224.6,214.2z"/> <path class="st6" d="M222,228.4c-1.3-0.4-0.7-2.7-1.4-3.7C221.6,224.5,221.5,227.4,222,228.4z"/> <path class="st6" d="M219.6,227.6c-0.8-3,0.7-4.4,0.1-6.6c-0.1-0.5-0.8,0.3-1,0.5c-1.4-1.2,0-1.8,0.5-2.9c2.8,0.7,4-2,4.5-4.4 c0.6-0.1,0.9-0.4,1.7-0.2c0.1-0.2,0.2-0.3,0.3-0.5c-0.1,0.1-0.2,0.3-0.3,0.4c0.6-0.1,1-0.5,1.4-0.9c-0.2,0.2-0.3,0.5-0.5,0.7v2.9 c-1.3,0.8-2.4,1.7-2.3,3.9c-0.6,0-0.5,0.8-1.2,0.7c-0.6,3.2,1,7.9,2.6,10.3c0.8,1.3,2.9,1.8,2.4,3.5c-3.5-0.5-3.4-3.1-5.1-5.2 c-0.3,0-0.2,0.4-0.3,0.7c-1-0.3,0-0.8-0.2-1.7c1.3,0.9,1.6,2.8,2.9,3.7c-0.6-2.3-3-4-2.7-6.4c-1.2-0.2-1-2.4-0.9-4.4 c0.3,0,0.2,0.4,0.2,0.7c0.4,0,0.1-0.7,0.5-0.7c-2.7-2.8-1.9,3.9-2,5.9c-0.7-0.6,0.2-2.6-0.5-3.2 C219.1,225.4,220,226.8,219.6,227.6L219.6,227.6z M225.6,214.9c0.3,1.2-1,0.8-1,1.7C225.5,216.8,226.3,215.5,225.6,214.9z M224.4,215.3c0.2-0.5,1.3-0.9,0.3-1.2C224.6,214.4,223.6,215,224.4,215.3z"/> <path class="st6" d="M215.6,224.9c-0.5-0.5,0.6-1.4,1.2-1.5C216.6,224.1,215.9,224.2,215.6,224.9z"/> <path class="st6" d="M216.9,223.4c-0.7,0.1-1.8,1-1.2,1.5C215.9,224.2,216.6,224.1,216.9,223.4z M218.1,222.2 c-0.3,1.3-2.1,3.2-3.7,3.9c-0.1-0.6,1-0.2,0.8-1c-0.3-0.1-1.3,0-1.5,0.5c0.4-1.5,2.1-3.8,4.5-4.1c-0.2,0.8-0.9,1.1-1.3,1.7 C217.7,223.2,217.6,222.3,218.1,222.2L218.1,222.2z"/> <path class="st6" d="M218.1,224.9c0.8,2.1-0.7,3.9-0.3,6.4h1c0.6-0.4,0.1-1.9,0.3-2.7c0.6-0.2,1.2-0.7,1.7-0.2 c-0.3,1-1.4,1.2-1,2.9c-1.6,0.5-2.7,1.6-4.2,2.2c0-2.1,0.2-4.1,0.8-5.6c-2.2,0.1-1.7,2.9-3.5,3.4c0.6-2.1,2.4-3,3.3-4.9 c0.3,0.2,0.5,0.5,0.5,1c0.9-0.8,0.3-3.2,1.3-3.9c0.1,2.1-1.1,5.2-0.8,8.3c-0.8-0.2,0.1-2.2-0.2-3.4c-0.9,0.6-0.4,2.6-0.5,3.9 C218.4,232.2,217.2,226.8,218.1,224.9L218.1,224.9z"/> <path class="st6" d="M209.9,228.2c0.9-0.9,2.2-2.5,3.2-2.4C212.1,226.7,211.4,227.9,209.9,228.2z"/> <path class="st6" d="M213.6,226.6c0.4,0.4-0.9,1.2-1.5,1.5c0.4,0.5,1.7-0.1,1.7-0.7c0.8,0.5-0.4,1-0.5,1.5 c-2.4-0.2-4.1,2.4-7.2,2.4c0.5-0.9,1.6-1.2,2.5-1.7c-0.1,0.2-0.3,0.4-0.3,0.7C210.1,228.9,212.2,228.1,213.6,226.6z"/> <path class="st6" d="M31.6,191.7c-0.4,0.1-0.8,0.2-1.2,0.3c0.2,0.1,0.3,0.2,0.5,0.3C31.2,192.2,31.5,192.1,31.6,191.7z"/> <path class="st6" d="M252.1,185.9c-0.4,0.6-0.8,1.2-1.2,1.8l1.1-0.9c0.5-0.5,1-0.9,1.5-1.3l-1.1-1.5c-1.6,2.3-3.3,4.3-5.2,6.3 c0.4-0.4,0.9-0.8,1.3-1.2c-0.2,0.3-0.4,0.6-0.7,1l1.1-0.9C249.9,188,250.8,186.8,252.1,185.9L252.1,185.9z"/> <path class="st6" d="M24.2,211.4C24.2,211.4,24.2,211.5,24.2,211.4c-0.1,0.1-0.1,0.1-0.1,0.1C24.2,211.5,24.2,211.5,24.2,211.4z"/> <path class="st6" d="M134,227.2c0,0.1,0,0.1-0.1,0.2C134,227.2,134,227.2,134,227.2z"/> <path class="st6" d="M252.3,183.9l-0.9-1.3v0.1c-0.1,0-0.1,0-0.2,0l-2.8,1.6c-0.1,0.5-0.1,1-0.3,1.5c0.5-0.4,0.9-0.7,1.3-0.9 c-0.4,0.6-0.9,1.1-1.5,1.6c-0.3,0.8-0.7,1.6-1.2,2.4l-0.5,0.9C248.2,187.9,250.2,185.8,252.3,183.9L252.3,183.9z"/> <path class="st6" d="M224.2,229.7c-0.4-0.7-0.9-1.2-1.1-1.9c-0.5-1.4-0.7-2.9-0.7-4.4c0-0.8,0.3-1.8,0.2-2.6 c-0.1-0.9-0.9-1.6-1.8-1.6c-0.3,0-2,0.3-2.3,0.7c0-0.1,0-0.1-0.1-0.2c-0.6,1.2-1.3,1.9-2.2,2.7c-0.6,0.5-1.1,1-1.7,1.6 c-0.5,0.5-0.7,1-1.1,1.4c-0.9,0.8-2,1.5-2.9,2.3c-0.5,0.5-1.1,1-1.6,1.5c-0.4,0.4-1.1,0.6-1.4,1c-0.1,0.1-0.3,0.3-0.4,0.4 c1.4,0.2,3.4-1.3,4.6-1.9c2.2-1,1.6,0.5,1.4,2c0.7-0.7,1.3-1.5,1.9-2.3c0.3-0.4,1.2-1.8,1.4-0.7c0.1,0.5-0.6,2.1-0.7,2.7 c-0.2,0.7-0.5,1.8-0.2,2.6c0.6-0.4,1.4-0.8,2-1.2c0.8-0.5,1.6-0.4,1.9-1.2c0.2-0.6,0-2,1-2c0.8,0,1.3,1.2,1.5,1.7 c0.6-0.7,0.9-0.8,1.4,0c0.4,0.6,0.7,1.4,1,2.1c0.2,0.4,1.1,1.6,1.8,1.2c0.6-0.3-0.8-1.6-1-2C224.9,231,224.5,230.4,224.2,229.7 L224.2,229.7z"/> <path class="st6" d="M243.4,194.2l-0.1-0.3c-0.9,0.2-2,1.4-2.6,2c-0.9,0.7-1.4,1.7-2.1,2.4c-0.9,0.8-1.8,1.6-2.6,2.5 c-1.7,1.8-3.2,3.9-4.7,5.8c-0.8,1.1-1.9,2.2-2.2,3.5c0.9-0.7,1.6-1.7,2.5-2.5c1-0.9,2-1.8,2.9-2.8c1-1.1,2-2,3-3 c0.8-0.8,1.6-1.9,2.6-2.4v0.2c0.3-1.1,1.1-2.1,1.7-3.1C242,196.1,243.3,193.9,243.4,194.2L243.4,194.2z"/> <path class="st6" d="M100.5,215.9c0.3,0,0.5-0.1,0.7-0.2c0.8-0.1,4.1,0.2,2.9-0.2C103,215.7,100.9,215,100.5,215.9z"/> <path class="st6" d="M77.9,212.8c-1.8,0.1-6.3,1.4-9.5,1.9c-4.4,0.7-8.3,0.1-11.4-1.4c0.6-0.2,1.3,0.8,1.7,0 c-0.2-0.2-1.5-0.5-1.7,0c-3.1-1.5-5.5-3.8-6.8-6.8c-0.4,2.5,0.8,3.4,1.4,4.9c-0.6,0.2-0.9,0.7-1,1.5c0.5,1.2,2,2.7,3.4,2.2 c-1.4-0.3-2.4-1-2.7-2.5c0-0.5,0.6-0.5,1.2-0.5c0.2-0.6-0.8-1.1-0.2-1.2c0.4,0.5,1.4,0.5,1.2,1.7c1,0.3,4,1.1,2.4,1.7 c0.6,0,1,0.1,1.2,0.5c-0.4,0-2-0.1-1.2,0.2c0.6,0,1,0.2,1.2,0.5c-0.7,0.7-3.4,0.7-3.4,1.2c0.4,0.1,1.3-0.3,1.2,0.3 c-0.3,0.4-1.9-0.5-2.4,0.2c0.3,0,0.6,0.1,0.5,0.5c-0.7,0.6-1.3-0.5-1.7-1c0.4-0.2,1.1-0.6,0.5-1.2c-1.5,0.1-3.1-0.3-4.4,0 c-1.9,0.4-4.8,2.1-5.6,3.6c-2,3.6,0.2,10.4,3.3,12.5c2.6,1.7,7.7,0.5,6.8-2.8c-0.7-0.1-1.2-0.9-1.9-0.3c0.4,1,0.9,1,0.5,2.4 c-5.2,2.2-9.5-3.4-8.4-8.9c0.8-3.9,5.2-7,9.1-5.7c-1.2,0.3-2.2,1-3,2c-0.1,0.1-0.1,0.2-0.2,0.3c-1.1,1.5-1.6,3.5-1,5.5 c0.2-0.4,0.6-0.5,1.2-0.5c-0.3-2.6,5.2-4.4,5.1-0.9c1-0.1,1,0.8,2.2,0.5c0-0.6,0.8-0.5,0.7-1.2c-0.9-0.3-0.3-2.2-1.5-3.1l-0.1-0.1 c0.1-0.7,0.7-0.9,1-1.4c-0.1,1.3,1.4-0.2,1.5,0.5c-1.4,0.3,0.6,0.8,0.5,1.5c0,0.5-1.6,0.7-0.7,1.2c1.4-1.2,3.6,0.1,3.6,1 c1,0.2,1-0.6,1.9-0.5c0.3,0.7,0.4,1.5,1.2,1.7c0.9-0.3,1-1.4,1.5-2.2c-1.8-0.3-2.9-1.1-4.4-1.7c-0.2,0.8,1,0.3,0.7,1.2 c-0.5-0.1-0.5,0.3-0.7,0.5c-0.6-0.6-1.7-0.8-2.2-1.5c1.4-0.5,1.3,1.6,2.4,0.5c-1.6-0.5-2.5-2-2.2-3.2c0.3,0.7,0.4,1.7,1.2,2 c0-0.8-0.6-0.8-0.5-1.7c0.6-0.5,1.9-0.1,2.4,0.3c5.5-0.5,10.6-3.2,16.8-3.7C81.1,212.9,77.9,212.8,77.9,212.8z"/> <path class="st6" d="M30.4,211.8c1.4,0.1,1.9-0.3,2.9,0C33.7,210.8,30.7,211.1,30.4,211.8z"/> <path class="st6" d="M36.8,212.6c-0.9-0.6-1.7-0.5-2.9-1.2c0.3,1.2,2,1.1,2.9,1.7c4.4,4.3,2.4,14.9-5.3,13.3c-0.2-1,0.6-1.4,0-1.9 c-3.7,1.6,0.4,3.2,2.2,3C38.7,226.6,42.4,216.8,36.8,212.6L36.8,212.6z"/> <path class="st6" d="M31.6,191.7c-0.2,0.4-0.4,0.6-0.8,0.6c-0.1-0.1-0.3-0.2-0.5-0.3C30.8,191.9,31.2,191.7,31.6,191.7z M28.4,192.4h0.2c-0.1,0.9,0.4,2.5,1.3,3.1v0.1c0.7,1.7,4.8,2.6,3.9-0.5c-1.5-0.3-1.1,1.1-2.4,1c-0.2-0.2-0.4-0.5-0.6-0.7 c0-0.4,0-0.7,0-1.1c0-0.3,0.3-0.9,0.4-1.2c1.7-1.1,5.6-1.3,7.5-1.3c7.6,0.1,17,3,21.6,3.9c-9.4-4-23.5-3.3-29.1-11 c-0.6,0.6,0.3,1.4,0,2.4c-1.2,0.7-1.7,2.1-2.1,3.6c-3.8,0.4-7.8,2.1-9.8,4.7c2.6-2.1,6.3-3.1,9.7-4.3 C28.8,191.4,28.6,191.9,28.4,192.4z"/> <path class="st6" d="M28.1,206.4c1.2-2,8-5.3,8-0.6c0,1.1-0.3,1-0.8,1.9c3.1-2.3-1-7.6-4.8-5.4c-0.6-0.3-0.5-1.4-1.4-1.5 c0.3,3-3.1,5-4.6,2.6c-0.8-5,3.1-6.6,4.2-9c-2.6,2.3-4.8,4-4.7,8.2c0.1,3.1,1,6.5,0.2,8.8c0,0,0-0.1,0.1-0.1c0,0,0,0.1-0.1,0.1 c-0.1,0.2-0.3,0.4-0.4,0.6s-0.2,0.4-0.3,0.6c1.6-1,4.1-1.5,5.9-1c0.1-0.3,0-0.6-0.1-0.9C29.4,208.9,28.4,207.9,28.1,206.4 L28.1,206.4z"/> <path class="st6" d="M64.2,192.9c-1.2-0.2-2.4-1.8-3.4-1.5C61.5,192.2,63.3,193.2,64.2,192.9z"/> <path class="st6" d="M138.7,226.1c-0.2,0.3-1.6,0.9-0.6,1.5c0-0.3,0.1-0.7,0.6-0.6c-0.3,0.3-0.3,1-0.3,1.8 c1.1,0.4,0.1-1.3,1.2-0.9c0.1,1.7-1.7,1.4-2.7,2c-0.8-1.1,1-2.4,0-3.5c-0.3,4.8-3,7-5.5,9.5h0.2c1.8-1.3,4.3-1.9,4.4-5 c2.1-0.5,3.8-1.2,4.7-2.9C139.3,228,139.8,226.3,138.7,226.1L138.7,226.1z"/> <path class="st6" d="M134,227.2c0,0.1,0,0.1-0.1,0.2C134,227.2,134,227.2,134,227.2z M131.9,233.6c0.1-1.1-0.2-2.6,0.6-2.9 c0,0.5-0.2,2.7,0.3,1.8c0.3-1.1,0.1-2.7,0.6-3.5c0,0.5-0.1,1.1,0.3,1.2c0.4-1.6,0.2-2.5,0.6-3.5c1.1,1.4-1,4.6,0.2,5.3 c0.4-1.9,0.3-4.4,1-5.9c0.2-0.1,0.4-0.1,0.5-0.2c-0.2,1.2-0.9,2.6-0.3,3.5c0.2-1.8,0.6-3,1.2-4c0.1-0.1,0.2-0.1,0.2-0.2 c0.1-0.1,0.2-0.2,0.3-0.4c0.5-0.2,0.9-0.5,1-1c0.5-0.3,1-0.6,1.4-1c0.6-0.5,0.8-0.9,0-1.2c-0.9-0.3-1.4-0.3-2.1,0.3 c-0.1,0.1-0.2,0.2-0.2,0.3c-0.5,0.2-0.9,0.5-1.7,0.9c-0.4,1,1,0.2,0.6,1.2c-2.7-0.1-5.2,2.4-9.1,2c-0.4,2.4,1.2,2.9,2,4.1 c-2.1,2.8-2,6.3-0.8,9.3c0.1-0.1,0.1-0.2,0.2-0.3c0.1-0.2,0.2-0.4,0.3-0.5c0.1-0.2,0.2-0.3,0.3-0.5c0.1-0.1,0.2-0.2,0.2-0.4 c0.2-0.2,0.3-0.4,0.5-0.6c0.1-0.1,0.2-0.2,0.2-0.3c0.4-1.6,0.9-2.7,1.4-4.3C131.7,233.1,131.6,233.6,131.9,233.6L131.9,233.6z"/> <path class="st6" d="M266.9,215.4c1.7-1.9,4.9-3.4,7.6-3.8l0.2-0.4C271.8,210.9,267.2,213.2,266.9,215.4L266.9,215.4z"/> <path class="st6" d="M248,199.2c0.5,1.3,1.4,3.4,2.4,3.3C249.2,202.1,248.7,199.6,248,199.2z"/> <path class="st6" d="M261.4,217.4c4.5-2.7,8.4-6.6,9.3-12.2c0.6-0.4,0.9,0.4,1-0.5c-0.2-3.7-1.9-8.9-5.3-9.3 c9.7,7.6-1,21.7-9.8,23.4c-7.2,1.5-14.5-2.5-15.5-9.8c-0.8-6,2.4-10,3.3-13.4c-1.7,3.8-4.1,7-4.1,11.7c0,9.3,9.3,14,18.6,12.2 c-0.1-0.9,2-1,3.6-1c1.1-1.5,5.5-2.4,6,0.5c0.2,1.1-1,1.7-0.5,2.9c0.5-1,1.4-1.4,1.4-2.4C269.8,215.3,263.9,216.5,261.4,217.4 L261.4,217.4z"/> <path class="st6" d="M242.5,197.2c-0.1,0.1-0.2,0.2-0.2,0.3v0.1C242.4,197.5,242.4,197.3,242.5,197.2L242.5,197.2z"/> <path class="st6" d="M248.4,184.4l2.8-1.6C250.3,182.8,249.4,183.5,248.4,184.4z"/> <path class="st6" d="M251.4,182.8l-0.2,0.1C251.3,182.9,251.3,182.9,251.4,182.8z"/> <path class="st6" d="M249.5,184.9c-0.4,0.2-0.8,0.5-1.3,0.9l-0.2,0.7C248.5,186,249,185.5,249.5,184.9L249.5,184.9z"/> <path class="st6" d="M249,189.2l1.9-1.6c0.4-0.6,0.8-1.2,1.2-1.8C250.8,186.7,249.9,187.9,249,189.2L249,189.2z"/> <path class="st6" d="M245.2,193.9c-0.1,0.1-0.6,0.9,0,1c0.1-0.9,0.6-0.9,0.2-1.7c1.5-1,2.5-2.6,3.6-4l-1.1,0.9 c-1.5,1.9-3.7,3.7-4.3,5.5C244,195,244.4,194.2,245.2,193.9z"/> <path class="st6" d="M246.8,197.6c0.3-1,0-3.6,1.2-2.9c0.6-3.2,2-6,4-7.9l-1.1,0.9C248.9,190.6,246.7,193.6,246.8,197.6 L246.8,197.6z"/> <path class="st6" d="M247.2,190.4c1.8-2,3.6-4.1,5.2-6.3l1.1,1.5c-0.5,0.4-1,0.8-1.5,1.3l1.5-1.2l0.5,0.6 c-0.1-0.3-0.2-0.5-0.3-0.8l0.3-0.3c-0.1,0.1-0.2,0.1-0.3,0.2c-0.3-0.9-0.5-1.9-0.4-3c-0.2,0-0.3,0-0.5-0.1 c-0.4,0.1-0.9,0.3-1.3,0.4l0.9,1.3c-2.2,1.8-4.1,3.9-6,5.9l0.5-0.9c0,0,0,0.1-0.1,0.1c-0.5,0.7-0.9,1.4-1.4,2.1 c-0.1,0.4-0.2,0.9-0.4,1.3c-0.2,0.2-0.5,0.4-0.7,0.6l0.7-0.5c0,0.1-0.1,0.2-0.1,0.3v0.1c-0.1,0.2-0.2,0.5-0.3,0.7 s-0.1,0.3-0.2,0.5l0.6-1.3c0.4-0.4,0.8-0.8,1.2-1.3l1.8-1.4c0.3-0.3,0.5-0.6,0.7-1C248.1,189.6,247.6,190,247.2,190.4L247.2,190.4 z"/> <path class="st6" d="M255.9,188.8l-1.1-1.3c-0.2,1.4,0,3,0.7,3.7C255.5,190.3,255.7,189.5,255.9,188.8L255.9,188.8z"/> <path class="st6" d="M248.2,185.9c0.1-0.5,0.2-1,0.3-1.5L248.2,185.9z"/> <path class="st6" d="M246.8,188.9c0.5-0.8,0.9-1.6,1.2-2.4L246.8,188.9z"/> <path class="st6" d="M274.2,170.2c2.1,0.9,0.6,3.3,2.1,4.3C277.1,172.4,275.2,170.1,274.2,170.2z"/> <path class="st6" d="M286.3,166.1c0,0.1,0,0.1-0.1,0.2c-2.4,2.8-6.7,3.9-11.3,2.3c-1.4-1.4-2.8-2.8-3.5-4.7 c0.9,3.5,5.3,7.6,10.2,6.5c0.5-0.1,4.1-1.7,4.3-1.9c0.7-0.6,1.3-1.9,1.5-3.1C287.1,165.6,286.7,165.9,286.3,166.1z"/> <path class="st6" d="M268,178.9c0.7,0.3,0.6-0.7,1.2-0.6c0.8-2.4,1.1-5.7,0-7.8c0.4,2.2,1,4.5-0.3,7.3 C268.6,178.1,268.1,178.1,268,178.9L268,178.9z"/> <path class="st6" d="M267.9,165.4c0,1.3,0.1,2.4,0.6,3.4C268.4,167.5,268.1,166.4,267.9,165.4z"/> <path class="st6" d="M19.3,88.8c-0.1-3.8-0.2-8.6,1.2-11.9c-2.2-4.9-1.8-11.1,0.6-14.6c-0.8-0.8-1.7-1.4-2.6-2.1 c0,1.6,1.7,1.2,2,2.5c-1.4,2.3-2.6,4.1-2.6,6.8c0,2.4,1.6,4.4,1.8,6.6C20.2,80.2,16.9,84.7,19.3,88.8z"/> <path class="st6" d="M21.5,39.5c0,0.2-0.1,0.4-0.1,0.6c0.2-0.5,0.3-1,0.4-1.4L21.5,39.5z"/> <path class="st6" d="M23.3,50c-0.2-0.9-1-1.5-1.6-2.1c-0.9-2.7-0.8-5.2-0.4-7.8c-0.9,2.6-2.5,5.7-0.5,7.8c0.9,1.8,2.8,3.3,0.3,5 c0.2-0.1,0.4-0.2,0.5-0.3c-1.8,1.6-3.8,3-4,5.9l4.6-6.2C23.1,51.9,23.5,51.3,23.3,50z"/> <path class="st6" d="M276.8,136.9c0.2,0-0.1,2,0.7,2.7c0-0.3-0.2-2.2,0.6-2.5c0,0,1.6,1.7,2.6-3.6c0-0.1,0.8,4.3,2.7,4.4 c0,0-2.6-3.6-1.7-5.7c0,0.1,0.1,1.1,0.9,1.2c0,0.1,0.2,1.2,1.1,1.8c-0.2-1.2-0.3-2.5-0.3-3.7c-0.1-1.2-0.2-2.4-0.2-3.7 c-0.2-1.7-0.1-3.4,0.3-5c-0.1-1.3,0.1-3.2,1.3-5.7c0-0.1-0.1-0.1-0.1-0.2l-0.1,0.1c-0.3-0.2-0.8-0.5-1.2-0.7 c0.2-0.3,0.3-0.7,0.5-0.9c-0.5,0.6-1.4,1.3-1.4,1.3s0-7.2-0.3-7.3s-0.6,9.4-1.5,11.6l-0.1,0.2c0-0.3-0.9-12.2-1.7-12.9 c-0.4-0.4-2,25.5-3.3,26.8C275.7,135.2,275.2,136.5,276.8,136.9z"/> <path class="st6" d="M256.5,84.1c1.9,8.7,3.6,17.6,5.1,26.7c-2.5,0.6-4.9,1.2-7.8,1.5c-1.7-8.9-3.6-17.5-4.9-26.8 C251.4,84.9,253.8,84.3,256.5,84.1z"/> <path class="st6" d="M100.2,173.1c-1.8,1.7-6.3,1.5-5.6-2.3c0.4-2.1,4.2-3.3,5.9-4.6h0.2C101.4,168.6,101.8,171.4,100.2,173.1 L100.2,173.1z M108.9,166.7c-0.6-3.5-1.1-8.7-2.6-11.1c-1.6-2.5-5.2-3.5-9.1-3.2c-6.4,0.5-13.2,3.1-10.9,11.1 c2.3,0.1,4.8-0.8,7-1.2c0.1-1.1-0.1-1.5,0.2-2.2c0.9-1.9,6.2-2.7,6,0.2c-0.1,1-1.5,1.7-2,1.9c-2.6,1.1-6.3,1.9-8.1,3.3 c-4.4,3.3-3.6,11.2,0.1,14c0.9,0.7,2.7,1.3,4.3,1.4c4.5,0.2,7-1.6,8.9-3.7c0.2,0.8,0.5,1.5,1.1,1.9c2.7-0.3,5.1-0.8,7.5-1.2 C110.2,174.4,109.6,170.6,108.9,166.7z"/> <path class="st6" d="M173.1,158.6c-1.1,1.3-2.8,2.6-5.3,2.1c-5.5-1-7-14.2-0.1-14.7C173.2,145.7,174.9,153.9,173.1,158.6 L173.1,158.6z M180.3,146.2c-1.9-3.7-6.8-7.3-12.7-6.9c-5.2,0.3-8.4,2.4-10.5,5.3c-1.6,2.2-2.7,6.4-2.3,9.8 c0.7,8,7,14.1,14.8,13.6c4.1-0.3,7.9-2.2,10.1-5.1C182.9,158.7,183,151.4,180.3,146.2L180.3,146.2z"/> <path class="st6" d="M83.8,159.4c-0.6,2.7-6,2.4-5.2-1.4c0.1-0.6,0.7-1.5,2-1.7C82.5,156,84.3,157.4,83.8,159.4L83.8,159.4z M84.8,157.9c-0.5-2.6-3.9-3.4-6.8-2.4c-0.3-0.5-0.3-1.2-0.2-2c0.8-1.5,3.4-1.2,5.1-1.9c-0.1-1.8-0.8-4-1-6.2 c-0.6-0.1-1.1,0.1-1.4,0.1c-3.1,0.6-7.1,0.7-9,2.1c-2.4,1.8-2.3,5.1-1.4,9c-0.7,0.6-1.6,0.4-2.3,0.7c-3.9,1.7-2.4,8.3,3.7,6.7 c1.3,6.5,2.3,13.2,3.6,19.8c1.3,0,2.6-0.4,3.9-0.6s2.8-0.3,3.8-1c-0.8-6.4-2.6-12.8-3.3-19.6C82.8,162.7,85.4,161.1,84.8,157.9 L84.8,157.9z"/> <path class="st6" d="M62.3,139.4c-0.1-2.5,3.2-3.3,4.6-1.4C68.1,142.4,62.5,142.8,62.3,139.4z M76.7,125.7c-3-0.1-9.5,1.8-9.4-1.4 c0-1.2,1.8-2,3.1-2.1c2.7-0.3,4.8,1.2,6.7,1.8c1.3-1.6,2.6-3.2,3.5-5.2c-3.6-3.3-10-3.9-14.9-2.1c-4.6,1.7-8.2,7.2-5.3,12.7 c1.3,2.5,3.8,3.8,7.7,4.1c2.7,0.2,7.9-1.2,8.1,1.2c0.2,2.8-5.8,3.3-8.1,2.4c-1-0.4-2.3-1.6-3.2-1.6c-2.2-0.1-3.6,1.5-3.8,3 c-0.2,1.9,1.1,3.5,2,4.2c1.3,1,3.8,1.7,5.9,1.8c6.1,0.4,12.1-2,14.4-5.6C86.9,133.4,83,125.9,76.7,125.7z"/> <path class="st6" d="M195.6,141.4c-1.6-0.6-2.1-4.2,0.6-4.7C200.3,135.9,199.6,142.9,195.6,141.4z M198,135.6c-2.9-1-5,1-6.5,2.6 c-0.4,0.5-0.7,1.7-1.2,1.6c-0.3-1.1-0.2-2.4-0.6-3.3c-2.8,0.2-5.4,0.7-7.9,1.4c1.6,9.1,3.1,18.2,5.1,26.9c2.8-0.4,5.4-0.9,7.9-1.6 c-0.6-4.2-1.6-8.2-2.3-12.3c-0.2-1.4-0.7-3-0.6-4.3c0.1-1.2,1.2-2.1,2-2.6c1.4-0.8,3.4-0.5,4.8-1.4 C201.2,140.8,200.6,136.3,198,135.6L198,135.6z"/> <path class="st6" d="M97.7,132.9c-2.8-0.2-3.8-3-4.4-5.9c-0.8-3.7-0.9-7.7,3.1-8.4c1.5-0.3,2.4,0,3.3,0.7 C102.8,121.6,104.7,133.2,97.7,132.9z M95.3,147.5c-0.6,2.7-6,2.4-5.2-1.4c0.1-0.6,0.7-1.5,2-1.7C94,144,95.8,145.4,95.3,147.5 L95.3,147.5z M106.6,114.5c-3.2-3.6-9.6-4.6-13.6-1.7c-0.8,0.6-1.2,1.6-2.1,2.4c-0.2-0.7-0.1-1.5-0.5-2c-2.6,0.4-5.2,0.6-7.3,1.5 c1.3,8.9,3.3,19.9,4.9,28.9c0.3,1.5,0.2,3.1,0.6,4.3c1,3.2,5.9,4,7.5,1c1.6-3.1-1.2-7.9-0.9-10.9c1.8,1.1,3.9,1.9,6.3,1.6 C112.7,138.3,113.3,121.9,106.6,114.5L106.6,114.5z"/> <path class="st6" d="M125.1,128.4c-2.5,1.2-5.3-0.4-4.4-3.5c0.7-2.5,4-2.6,6.3-3.7h0.2C127.9,124.4,127.2,127.3,125.1,128.4z M116.1,117.8c-1.6,0.2-3-0.7-2.7-3.2c0.5-1.1,1.9-2,3.5-1.4C118.8,114,118.3,117.5,116.1,117.8z M135.1,122.6 c-0.5-3.5-0.9-7.3-1.9-10.4c-1.2-3.7-4.5-5.6-9.5-5.3c-5.2,0.3-12.2,2.4-11.8,8.3c0.2,3.3,4.6,4.8,6.7,2.4c1-1.1,0.8-3.1,2.6-4 s4.6-0.6,4.6,1.5c0,1.2-1.5,1.6-2.7,2.1c-4.9,2-10.2,2.8-10.5,8.9c-0.3,6.6,4,10.2,10,9.5c1.3-0.2,3.7-0.8,4.8-1.7 c0.9-0.7,1.1-1.8,2.1-2.7c0.4,0.9,0.4,2,1.2,2.5c2.5-0.3,4.8-0.7,6.9-1.4C136.4,129.4,135.6,126.2,135.1,122.6L135.1,122.6z"/> <path class="st6" d="M151.4,166.1c0.1-0.6,0.7-1.5,2-1.7c1.9-0.4,3.6,0.9,3.2,3.1C156,170.2,150.5,169.9,151.4,166.1L151.4,166.1z M130.3,165.9c0.1-0.6,0.7-1.5,2-1.7c1.9-0.4,3.6,0.9,3.2,3.1C134.9,169.9,129.4,169.7,130.3,165.9L130.3,165.9z M152.9,119.8 c-0.7,2-3,3.1-5.4,2.1c-3.5-1.5-5-11.3,0-12.5c0-0.1,0.1-0.1,0.1,0c1.1,0,2,0.1,2.7,0.5C152.4,111,154,116.5,152.9,119.8 L152.9,119.8z M162.4,122.9c-0.5-2.5-0.8-5-1.2-7.5c-0.6-3.7-1.5-7.1-2.1-11c-0.2-1.5-0.2-3.7-1.4-3.5c-2.1,0.4-5.5,1-7.2,1.5 c-0.1,0.7,0.5,1.3,0.1,1.9c-1.9-1.2-3.2-1.6-5.7-1.4c-6.6,0.6-10,6.9-8.8,14.9c0.4,2.4,1.3,5.3,2.6,7.2c1.2,1.7,3.6,3.6,5.7,4.2 c4.7,1.4,8.5-1,10.4-3.5c0,1.9,0.8,3.5,0.1,5.1c-0.8,1.9-4.6,2.4-7,2.8c-6.6,1.1-12.3,3.6-9.9,11.7c-1.4,0.8-3.8,0.5-5.3,1.2 c-0.1,1.7,0.8,3,0.5,4.6c-1.8-1-1.7-1.3-2.7-1.9c-6-3.3-13.6-1.2-16.9,3c-3.1,3.8-3.7,10.6-1.7,15.3c1.8,4.3,5.7,7.8,10.5,8.1 c5.7,0.5,9.9-2,12.6-4.9c2-2.2,2.4-6.7-0.9-7.7c-4.4-1.3-4.6,3.8-6.9,5.1c-1.2,0.7-3,0.8-4.6,0.1c-2.3-1-3.7-4.3-3.9-6.4 c-0.6-5.9,4.2-9.1,8.3-6.4c0.8,0.5,1.3,1.5,2.1,1.5c0.6,0,1.9-1.3,2.5-1.8c0.8-0.8,1.3-1.8,2.3-2.1c2-0.6,3.2-0.1,5.3-0.7 c0.7,2.6,1,5.3,1.6,8.3c1,5.4,1.5,11.3,7.8,11.1c1.4,0,6-0.7,7.2-1.2c3.4-1.6,2.2-6.8-1.1-7.3c-1.1-0.2-2.2,0.4-3.3,0.3 c-2.1-0.3-2.3-3.8-2.7-6.3c-0.4-2.3-1-4.5-1.1-6.4c2-0.6,3.9-0.5,5.4-1.2c-0.1-1.9-0.6-4.4-1.1-6.2c-1.6-0.3-3.5,0.8-5.3,0.4 c-0.3-0.6-0.3-1.6-0.1-2.3c1.8-1.2,4.2-1.3,6.2-1.7c5.4-1.1,10.6-3,11-9.1C163.6,128,162.8,125.4,162.4,122.9L162.4,122.9z"/> <path class="st6" d="M210.6,115.1c-2-0.4-3.1-4.3-0.1-4.9c0.9-0.2,1.8-0.1,2.3,0.2C214.8,111.8,213.8,115.8,210.6,115.1z M204.8,102.8c-2.5,0.7-5.7,1.4-8.3,1.6C195.8,99,204,98.5,204.8,102.8z M209.6,109c-1.4,0.6-1.7,2.3-2.6,3.5 c-2.3,3.2-9.6,2.8-9.9-2c5.6-1.2,11.6-2,17.2-3.2c-0.1-2.4-0.9-4.5-1.9-6.3c-0.9-1.8-2.4-4.1-3.8-5.1c-2.1-1.5-4.8-2.6-8.1-2.5 c-7.5,0.2-12.4,5.7-12.1,13.8c0.3,8.7,5.8,15.1,14.7,14.7c2.6-0.1,5.8-1.1,7.7-2.5c1.5-1.1,3.5-3.3,4.1-5.3 C215.8,111,213,107.6,209.6,109L209.6,109z"/> <path class="st6" d="M71.1,105.1c-2.3-0.5-2.5-5.1,0.7-5.2C75.3,99.8,74.8,105.9,71.1,105.1z M73.4,98.7c-1.8-0.7-3.4,0.2-5.7,0 c-1.2-1.4-1.3-3.6-1.7-5.7s-1.1-4.2-1-6.3c1.4-0.7,3.5-0.7,5.1-1.2c-0.2-2.3-0.7-4.4-1.1-6.5c-2.1-0.1-3.5,0.6-5.4,0.7 c-1-2.7-0.7-6.6-2-8.9c-2.5,0.5-5.3,0.8-7.5,1.6c0.3,3.2,1.1,5.7,1.5,8.8c-1.5,0.6-3.7,0.6-5.2,1.2c0.4,2.3,0.4,5,1.5,6.7 c1.7-0.1,3-0.6,4.8-0.6c1.1,3.2,1.2,6.1,1.9,9.4c0.9,4.6,1.6,9,6.5,9.5c1.9,0.2,6.3-0.3,7.8-0.7C76.5,105.5,76.6,100,73.4,98.7z"/> <path class="st6" d="M161.7,93c0.2-0.8,0.9-1.6,2.2-1.9c2.3-0.4,3.2,0.9,3.3,2.2C167.6,97.2,160.9,97.3,161.7,93z M187.8,115.1 c-0.5-2.9-0.9-5.9-1.4-8.6c-0.8-4.8-3.4-9.4-8.8-9.1c-3.4,0.1-6,2.5-7.7,4.6c-0.8-3.5-0.8-7.9-2.2-10.7c-3.6-3.1-8.1-0.6-7.4,4.3 c0.4,2.5,1,5.3,1.5,8c1.5,7.9,3,16.8,4.6,24.1c2.9-0.3,5.6-0.8,8.1-1.5c-0.4-4.3-1.7-8.7-2.5-12.6c-0.3-1.4-0.7-3.1-0.6-4.4 c0.1-2.2,2-4.1,4.3-3.6c1,0.2,2.1,1.7,2.5,2.7c0.9,2.5,1.1,5.7,1.6,8.5c0.5,2.9,0.8,5.7,1.6,8.3c2.9-0.2,5.5-0.6,7.8-1.5 C189.1,121.1,188.3,118.2,187.8,115.1L187.8,115.1z"/> <path class="st6" d="M208.6,167.7c-2-0.6-2.4-4.7,0.6-5.1c0.9-0.1,1.6,0.1,2.1,0.5C213.1,164.7,211.5,168.6,208.6,167.7 L208.6,167.7z M224.5,129.9c-2.5,0.7-5.3,1-7.9,1.6c-0.7,5.2-0.6,11.2-1,16.4c-2-3.5-4.1-7.4-5.8-11c-0.6-1.3-1.1-2.6-2-3.7 c-1.3-0.1-2.7,0.3-4.2,0.6s-3.1,0.2-4.2,1c3.4,6,7.1,12.4,10.5,18.5c1.2,2.1,2.7,4.2,3.2,6.7c-0.2,0.4-0.6,0.6-0.9,1 c-3.1,0-5.5,0.2-6.2,2.6c-1.1,3.9,1.9,5.6,5.4,5.4c3-0.1,7.5-1.2,8.8-3.3c1.1-1.9,1.3-5.8,1.6-8.5c0.9-8.5,2.2-16.9,2.8-25.2 C224.8,131.4,225.3,130.1,224.5,129.9L224.5,129.9z"/> <path class="st6" d="M169.6,86.1c0-1.4,0.7-2.5,2.5-2.7c1.6-0.2,2.8,0.7,3,2.2C175.4,89.1,169.8,89.4,169.6,86.1z M175.9,82.4 c-1.7-7.8-2.5-14.7-3.9-22.3c-0.7-3.9-1.2-8.4-5.6-7.9c-1.2,0.1-2.4,0.7-3.1,1.7c-1.2,1.9-0.1,5.9,0.4,8.4 c1.1,5.6,2.2,11.6,3.2,16.8c0.8,4.3,0.5,11.7,6.3,10.7C176.4,89.2,176.7,85.9,175.9,82.4L175.9,82.4z"/> <path class="st6" d="M251.2,82.4c-2.7-0.2-3.2-4.6-0.1-5.1C255,76.8,254.5,82.7,251.2,82.4z M251.2,75.3c-2.1,0.1-3.2,1.6-4.1,3.2 c-0.5,4.6,3.1,6.6,6,5.3C257.1,82.2,256.3,75.2,251.2,75.3z"/> <path class="st6" d="M243.7,87c3.9-0.6,3.4,5.3,0.1,5.1C241.1,91.9,240.6,87.5,243.7,87z M249.4,105.2c-2-0.1-3.5,1.1-4.9,0.4 c-1.5-0.8-1.5-3.8-1.9-5.8c-0.4-2.6-1.2-4.7-1.1-6.4c2.7-0.6,6.2-0.8,6.7-3.5c0.3-1.8-0.8-4-2.6-4.3c-2.2-0.4-3.2,0.9-5.4,0.7 c-0.9-2.6-1.1-5.9-1.9-8.6c-2.8,0.2-5.4,0.7-7.8,1.4c-0.1,3,1.3,6.1,1.2,9c-2.3,0.6-4.8,1-7.4,1.4c-0.9-2.7-1-6.1-1.9-8.9 c-2.9,0.2-5.4,0.7-7.9,1.2c0.3,2.9,1.3,6,1.7,9.1c-1.8,0.7-3.8,0.7-4.7,2c-1,1.4-0.6,3.7,0.6,4.6c1.5,1,3.4,0.2,5.4,0.2 c0.4,2.4,1,5.3,1.5,8.3s0.7,6,1.9,8c2.3,4.1,9.1,3.2,13.9,1.5c-0.2-2.7-0.8-5.1-1.4-7.4c-1.8,0-4.1,1.2-5.4,0.1 c-0.6-0.5-0.6-1.8-0.9-2.8c-0.7-3-1.5-7-1.5-9.5c2.4-0.3,4.6-0.9,7.3-1c1.8,4.8,1.4,12.2,3.6,16.3c2.4,4.4,9.1,3.1,13.9,1.6 C250.4,110,249.8,107.7,249.4,105.2L249.4,105.2z"/> <path class="st6" d="M155.7,81.5c-0.5,3.7-5.8,5.9-8.4,2.6c-2.8-3.5-3.6-12.5,2.5-13.1C154,70.6,156.4,76.6,155.7,81.5z M163.8,75.6c-0.2-1-0.6-2.7-1.4-4.2c-1.9-3.9-6.9-8.1-13.6-7.3c-1.6,0.2-3.4,0.6-4.6,1.1c-2.2,1-4.7,3-5.9,5.2 c-0.7,1.3-1.8,4.5-1.9,7c-0.1,4.9,2.6,10.3,6.2,12.8c4.5,3.1,11.4,3.2,16.2,0C162.7,87.8,165.2,81.7,163.8,75.6z"/> <path class="st6" d="M73.9,73.1c-2.4-0.7-2.2-4.3,0.4-4.8C78.4,67.4,78.3,74.4,73.9,73.1z M97.3,88.6c-0.8-3.9-1.2-9.1-3.5-11.4 c-2.7-2.7-8.5-2.4-11.7-0.1c-0.9,0.6-1.2,1.5-2.1,1.8c-0.2-2.3-0.8-5.1-1.1-7.2c-0.2-0.9-0.1-1.8-0.4-2.5c-1.2-2.8-5.2-3.4-7.2-1 c-1.3,1.7-0.5,4-0.1,6.5c0.2,1.5,0.6,2.9,0.9,4.2c1.5,8.1,3.1,19.4,4.7,26c2.9-0.2,5.5-0.8,8-1.5c-0.4-2.4-0.8-5.5-1.5-8.8 c-0.6-3-2-6.2-1.5-8.9c0.3-1.9,3.1-3.6,5.2-2.3c1.8,1.1,2.1,6.4,2.6,9c0.6,3.5,1.2,6.6,1.7,9.9c2.5-0.2,5.8-0.7,8.1-1.5 C98.9,97.3,98.2,93,97.3,88.6z"/> <path class="st6" d="M193.2,52.6c-2.4-0.7-2.2-4.3,0.4-4.8C197.8,46.9,197.6,53.9,193.2,52.6z M194.2,76.6 c-0.7,1.9-3.3,3.3-5.7,2.6c-3.3-1-5.4-10.3-2.2-13.1c0.6-0.5,1.4-0.7,2.5-0.9c3.5-0.4,4.4,2.2,5.1,5.6 C194.3,72.9,194.8,74.9,194.2,76.6L194.2,76.6z M201.4,66.1c-0.4-1.9-0.6-3.9-1-5.8c-0.1-0.7-0.5-1.2-0.6-1.9 c-0.8-4.2-0.8-10-3.7-11.6c-2.5-1.4-5.6,0.5-5.9,2.6c-0.3,1.8,0.4,3.8,0.7,5.3c0.4,1.7,0.8,3.3,1.1,5.1c-1.9-1.8-5.9-2-8.8-1 c-3.5,1.2-5.8,4.6-6.5,8.3c-1.6,8.3,2.6,18.5,10.1,19.6c1.9,0.3,4.7,0,6.9-1.2c1.2-0.7,1.4-1.8,2.6-2.8c0.3,0.7,0.2,1.8,0.7,2.2 c2.5-0.4,5.2-0.7,7.4-1.5C203.7,78.3,202.4,71.4,201.4,66.1z"/> <path class="st6" d="M122.1,92.4c-4,1.3-4.7-5.4-0.1-4.8C123.7,88.1,124.1,91.7,122.1,92.4z M107.2,82.1c-0.9-5.4,7.4-6.1,7.9-1.5 C112.6,81.3,110,81.8,107.2,82.1z M126,90.2c-0.2-2.1-3.2-5.1-6.3-3.3c-1.2,0.7-1.5,2.5-2.5,3.6c-2,2.2-5.4,2.1-7.4,0.4 c-0.7-0.6-1.5-1.1-1.5-2.3c1.1-0.7,2.6-0.8,3.9-1.1c4.3-0.8,9-1.3,12.8-2.5c-0.7-5.6-3.3-10-7.3-12.2c-2.2-1.3-5.1-1.8-8.4-1.4 c-3.7,0.4-7.3,3.4-8.6,5.8c-2.2,4-1.9,11,0,15.2c1.3,2.8,4,5.3,6.5,6.3c6,2.4,12.9,0.1,16.2-3.2C124.7,94.1,126.2,92.5,126,90.2z"/> </g> </g> </svg>