<svg width="240" height="50" viewBox="0 0 240 50" fill="none" xmlns="http://www.w3.org/2000/svg">
<g clip-path="url(#clip0_491_796)">
<path d="M4.38708 36.5264C6.87169 38.6482 10.601 39.708 15.5751 39.7059C20.4016 39.7059 24.1313 38.6827 26.7642 36.6361C28.0846 35.5052 29.1273 34.0857 29.8114 32.4875C30.4955 30.8892 30.8028 29.155 30.7094 27.419C30.7488 25.6608 30.3333 23.9222 29.503 22.3718C28.6458 20.8585 27.3615 19.6315 25.8106 18.8444C24.8913 18.3832 23.9297 18.0117 22.9391 17.7351C21.5927 17.3246 14.9024 15.4998 14.2266 15.3191C10.4976 14.4114 8.13174 13.1694 8.11399 10.9634C8.30723 6.69956 12.2827 6.35694 14.4773 6.35694C16.3746 6.25488 18.2557 6.7542 19.8525 7.78378C20.5198 8.25299 21.0606 8.8801 21.4266 9.60914C21.7926 10.3382 21.9724 11.1465 21.95 11.9619H29.3954C29.3825 10.2885 29.0252 8.63573 28.3457 7.10643C27.6663 5.57714 26.6792 4.20411 25.446 3.0729C23.0317 1.0256 19.5945 0.00195312 15.1343 0.00195312C10.3803 0.00195312 6.7592 0.989066 4.27111 2.96324C3.0383 3.9867 2.05986 5.28231 1.41278 6.7481C0.765704 8.2139 0.467678 9.80986 0.542129 11.4104C0.553619 16.0126 2.73565 18.7222 4.70983 19.9652C7.05394 21.1793 9.56903 22.0299 12.1689 22.4878L15.1343 23.1333C20.2777 24.3867 23.2295 25.9744 23.1365 28.52C23.1591 29.2048 23.0105 29.8844 22.7041 30.4973C22.3977 31.1101 21.9431 31.6368 21.3817 32.0296C19.8138 32.9134 18.0263 33.3319 16.229 33.2361C14.1079 33.3543 12.0017 32.8187 10.1947 31.7016C9.45337 31.174 8.84123 30.4852 8.40432 29.687C7.96741 28.8888 7.71709 28.002 7.67214 27.0931H0C0.22005 31.2608 1.68242 34.4056 4.38708 36.5274" fill="#00203E"/>
<path d="M52.3416 24.646C52.3416 21.7797 51.8194 15.7162 45.9501 15.7162C40.3785 15.7162 39.7769 21.6325 39.7769 24.646C39.7769 32.2711 44.1127 33.2446 46.1705 33.2446C51.4976 33.2446 52.3416 27.5916 52.3416 24.646ZM39.7769 46.2522C39.7808 46.7455 39.6865 47.2346 39.4995 47.6911C39.3126 48.1475 39.0366 48.5622 38.6878 48.911C38.3391 49.2598 37.9244 49.5357 37.4679 49.7227C37.0114 49.9097 36.5223 50.0039 36.0291 50H32.2812V22.5517C32.7158 15.2482 35.372 9.42806 46.464 9.03114C48.4008 8.97458 50.327 9.33606 52.1114 10.0909C53.8959 10.8458 55.4967 11.9764 56.8049 13.4057C59.01 16.2719 59.9542 19.8338 59.9542 24.3159C59.9542 28.9446 58.8519 32.692 56.6472 35.5582C55.668 36.882 54.3868 37.9528 52.9103 38.6815C51.4338 39.4102 49.8046 39.7758 48.1583 39.7479C45.1572 39.8475 42.2083 38.9462 39.7758 37.1857C39.7758 37.4363 39.7758 46.2512 39.7758 46.2512" fill="#00203E"/>
<path d="M75.4076 33.1611C73.5087 33.064 69.8893 32.6921 69.5582 26.3612H88.5688C88.5688 26.169 88.5688 24.0841 88.5741 24.0799C88.4435 19.3105 87.2997 15.7528 85.0644 13.0861C82.6501 10.4539 79.2494 9.13742 74.8624 9.13672C70.6954 9.13672 67.4416 10.4891 65.1012 13.1937C62.8331 15.826 61.6998 19.4818 61.7012 24.1614C61.7012 29.0617 62.8711 32.8283 65.2108 35.4612C67.5492 38.1659 70.8022 39.5182 74.97 39.5182C78.0214 39.6358 81.0272 38.7496 83.5268 36.9956C85.8638 35.2862 87.5039 32.7895 88.1447 29.9659H81.5401C80.5677 32.7224 78.0827 33.2896 75.4107 33.1548M75.0817 15.4938C79.7947 15.4311 80.528 19.4432 80.6752 21.4163H69.4851C69.4851 21.4163 69.39 15.5982 75.0786 15.4938" fill="#00203E"/>
<path d="M109.527 29.9833H116.734C116.734 29.9833 114.775 39.5242 103.886 39.5242C92.9968 39.5242 90.3145 30.7835 90.3145 25.0406C90.3145 19.2977 91.3339 9.48845 103.462 9.14271C114.669 8.97767 116.519 18.6856 116.519 18.6856H108.844C108.844 18.6856 108.099 15.4037 103.529 15.506C98.9591 15.6084 97.7662 19.9015 97.7662 23.9794C97.7662 28.0572 98.7804 33.1629 103.854 33.1629C108.678 33.3092 109.104 30.7009 109.531 29.9833" fill="#00203E"/>
<path d="M126.041 17.5966H130.55V9.90771H126.052V4.97331C126.083 4.48449 126.011 3.99474 125.841 3.53535C125.671 3.07596 125.407 2.65706 125.066 2.30548C124.725 1.95389 124.315 1.67735 123.861 1.49355C123.407 1.30974 122.919 1.22272 122.43 1.23805H118.482V33.4861C118.482 36.8495 119.785 38.8613 122.61 38.8613H126.043L126.041 17.5966Z" fill="#00203E"/>
<path d="M138.586 38.9209V23.8951C138.51 23.0291 138.607 22.1567 138.87 21.3282C139.133 20.4997 139.558 19.7316 140.12 19.0683C140.765 18.5125 141.514 18.0906 142.324 17.8271C143.134 17.5637 143.988 17.464 144.836 17.5339H147.361V9.74478C145.052 9.70209 142.748 9.96051 140.506 10.5135C138.74 11.0001 137.083 11.8187 135.624 12.9254C134.104 14.1687 132.917 15.7703 132.169 17.5862C131.264 19.8705 130.834 22.3154 130.906 24.7715V38.9209H138.586Z" fill="#00203E"/>
<path d="M149.531 9.78711H157.211V28.4342C157.163 29.1091 157.261 29.7863 157.498 30.4201C157.734 31.0539 158.104 31.6294 158.583 32.1079C159.061 32.5864 159.636 32.9567 160.27 33.1936C160.904 33.4306 161.581 33.5287 162.256 33.4814C162.918 33.5309 163.583 33.4424 164.209 33.2213C164.836 33.0003 165.409 32.6515 165.893 32.1973C166.378 31.743 166.762 31.1931 167.023 30.5823C167.284 29.9716 167.415 29.3134 167.408 28.6494V13.4106C167.408 13.4106 167.668 9.79234 170.998 9.79234H174.98C174.98 9.79234 174.975 26.9458 174.98 27.1118C174.927 28.0519 175.987 39.5251 162.258 39.4792C148.656 39.4792 149.619 27.8754 149.533 27.1902L149.531 9.78711Z" fill="#00203E"/>
<path d="M202.704 39.0142H195.098V20.2742C195.098 18.1141 194.207 15.205 189.914 15.205C189.237 15.159 188.557 15.2586 187.921 15.4971C187.286 15.7356 186.708 16.1074 186.228 16.5877C185.748 17.0679 185.376 17.6454 185.138 18.2813C184.899 18.9171 184.8 19.5967 184.846 20.2742V39.0142H177.127V21.817C177.127 16.8209 178.61 13.774 181.042 11.7894C183.451 9.82774 186.535 9.17803 189.694 9.03284C191.363 9.03039 193.027 9.21505 194.655 9.58332C196.28 9.9561 197.792 10.7121 199.065 11.7883C200.197 10.8182 201.535 10.1197 202.977 9.74627C204.502 9.30779 206.077 9.06696 207.663 9.02971C217.074 8.98062 220.852 13.2904 221.166 14.6702V39.008H216.808C216.314 39.0154 215.823 38.9236 215.365 38.7379C214.907 38.5522 214.491 38.2763 214.142 37.9268C213.793 37.5773 213.517 37.1611 213.332 36.703C213.146 36.245 213.054 35.7543 213.062 35.2602V20.2742C213.081 18.1485 212.336 15.205 207.878 15.205C203.469 15.205 202.698 18.5099 202.698 20.2742L202.704 39.0142Z" fill="#00203E"/>
<path d="M223.307 14.6602V38.9791L239.325 26.8228L223.307 14.6602Z" fill="#0099D8"/>
</g>
<defs>
<clipPath id="clip0_491_796">
<rect width="239.329" height="50" fill="white"/>
</clipPath>
</defs>
</svg>
