<svg width="143" height="50" viewBox="0 0 143 50" fill="none" xmlns="http://www.w3.org/2000/svg">
<path d="M5.8423 45.0142V29.0197H0V26.1465H14.941V29.0197H9.09866V45.0142H5.8423Z" fill="#FC273F"/>
<path d="M27.3913 38.8849H16.7603C17.0476 41.0877 18.2927 42.6201 20.6871 42.6201C22.5068 42.6201 23.5603 41.7582 23.9434 40.5131H27.2956C26.9125 43.1948 24.3265 45.3019 20.6871 45.3019C16.2814 45.3019 13.5039 42.1413 13.5039 38.1187C13.5039 34.0004 16.2814 30.9355 20.6871 30.9355C24.7096 30.9355 27.3913 33.8088 27.3913 37.6398C27.3913 38.1187 27.3913 38.5976 27.3913 38.8849ZM16.856 36.5863H24.135C23.6561 34.4792 22.411 33.6173 20.5913 33.6173C19.7293 33.6173 18.8673 33.9046 18.1969 34.3835C17.5265 34.9581 17.0476 35.7243 16.856 36.5863Z" fill="#FC273F"/>
<path d="M29.2109 38.1187C29.2109 34.0961 31.9884 30.9355 36.4899 30.9355C40.1293 30.9355 42.9068 33.1384 43.1942 36.2032H39.842C39.5547 34.6708 38.3096 33.6173 36.3941 33.6173C33.8082 33.6173 32.3715 35.6285 32.3715 38.0229C32.3715 40.5131 33.8082 42.5244 36.3941 42.5244C38.3096 42.5244 39.5547 41.4708 39.842 39.8427H43.1942C42.7153 43.0032 40.1293 45.2061 36.4899 45.2061C31.9884 45.3019 29.2109 42.1413 29.2109 38.1187Z" fill="#FC273F"/>
<path d="M45.1094 45.0142V26.1465H48.27V32.8508C49.4193 31.5099 50.9517 30.9353 52.8672 30.9353C56.0278 30.9353 58.2306 33.0423 58.2306 36.6818V45.11H55.07V37.5438C55.07 35.1494 54.208 33.617 51.9094 33.617C49.4193 33.617 48.1742 35.4367 48.1742 38.0226V45.2058L45.1094 45.0142Z" fill="#FC273F"/>
<path d="M60.9121 45.0145V31.2229H63.9769V32.8511C65.1262 31.5102 66.6586 30.9355 68.6699 30.9355C71.8305 30.9355 74.0333 33.1384 74.0333 36.5863V45.0145H70.8728V37.4483C70.8728 35.0539 70.0108 33.5215 67.8079 33.5215C65.3178 33.5215 64.0727 35.3412 64.0727 37.9272V45.0145H60.9121Z" fill="#FC273F"/>
<path d="M75.8535 38.1187C75.8535 34.0961 78.7268 30.9355 83.0367 30.9355C87.3466 30.9355 90.2198 34.0004 90.2198 38.1187C90.2198 42.237 87.3466 45.3019 83.0367 45.3019C78.7268 45.3019 75.8535 42.1413 75.8535 38.1187ZM87.0592 38.1187C87.0592 35.6285 85.6226 33.713 83.0367 33.713C80.5465 33.713 79.0141 35.7243 79.0141 38.1187C79.0141 40.5131 80.5465 42.6201 83.0367 42.6201C85.6226 42.6201 87.0592 40.6089 87.0592 38.1187Z" fill="#FC273F"/>
<path d="M92.4238 45.0142V26.1465H95.4886V45.0142H92.4238Z" fill="#FC273F"/>
<path d="M97.5938 38.1187C97.5938 34.0961 100.467 30.9355 104.777 30.9355C109.087 30.9355 111.96 34.0004 111.96 38.1187C111.96 42.237 109.087 45.3019 104.777 45.3019C100.467 45.3019 97.5938 42.1413 97.5938 38.1187ZM108.799 38.1187C108.799 35.6285 107.363 33.713 104.777 33.713C102.287 33.713 100.754 35.7243 100.754 38.1187C100.754 40.6089 102.287 42.6201 104.777 42.6201C107.363 42.6201 108.799 40.6089 108.799 38.1187Z" fill="#FC273F"/>
<path d="M113.78 45.3976H116.94C117.323 47.0258 118.76 47.6005 120.675 47.6005C123.166 47.6005 124.506 46.1638 124.506 43.5779V42.237C123.549 43.6737 121.92 44.3441 120.005 44.3441C115.982 44.3441 113.396 41.4708 113.396 37.6398C113.396 33.8088 116.078 30.9355 120.005 30.9355C121.825 30.9355 123.549 31.606 124.506 32.9468V31.1271H127.571V43.6737C127.571 47.6962 125.081 49.9949 120.484 49.9949C116.94 50.0906 114.163 48.654 113.78 45.3976ZM124.506 37.6398C124.506 35.437 123.07 33.5215 120.58 33.5215C118.089 33.5215 116.653 35.437 116.653 37.6398C116.653 39.8427 118.089 41.8539 120.58 41.8539C122.974 41.8539 124.506 39.8427 124.506 37.6398Z" fill="#FC273F"/>
<path d="M139.641 31.2227H142.993L137.055 46.2594C136.002 48.7496 134.948 49.9946 131.596 49.9946H130.063V47.3129H131.5C132.937 47.3129 133.511 47.0256 134.182 45.589L134.278 45.3016L128.818 31.3184H132.075L135.906 41.9495L139.641 31.2227Z" fill="#FC273F"/>
<path d="M0.380859 13.2169H3.63722C3.82877 15.6113 5.74428 16.8564 8.13867 16.8564C10.15 16.8564 11.8739 15.9944 11.8739 14.0789C11.8739 12.8338 11.1077 11.9719 9.00065 11.5888L6.31894 11.0141C3.15835 10.3437 0.763961 9.19437 0.763961 5.74645C0.763961 2.39431 3.82877 0.0957031 7.65979 0.0957031C11.7781 0.0957031 14.7472 2.39431 14.8429 6.03378H11.5866C11.395 4.0225 9.67108 2.87319 7.56402 2.87319C5.64851 2.96897 4.02033 4.0225 4.02033 5.5549C4.02033 6.70421 4.69075 7.47041 6.51049 7.85351L10.0542 8.61972C13.8852 9.38592 15.1303 11.3014 15.1303 13.6958C15.1303 17.4311 11.8739 19.5381 7.94712 19.5381C3.733 19.6339 0.380859 17.1437 0.380859 13.2169Z" fill="#FC273F"/>
<path d="M30.8386 13.2169H20.2075C20.4949 15.324 21.7399 16.9522 24.1343 16.9522C25.9541 16.9522 27.0076 16.0902 27.3907 14.8451H30.7428C30.3597 17.5268 27.7738 19.6339 24.1343 19.6339C19.7287 19.6339 16.9512 16.4733 16.9512 12.4507C16.9512 8.33239 19.7287 5.26758 24.1343 5.26758C28.2527 5.26758 30.9344 8.14084 30.9344 11.9719C30.8386 12.4507 30.8386 12.9296 30.8386 13.2169ZM20.3033 10.9183H27.5822C27.1034 8.81127 25.8583 7.94929 24.0386 7.94929C23.1766 7.94929 22.3146 8.14084 21.6442 8.71549C20.9737 9.19437 20.4949 10.0563 20.3033 10.9183Z" fill="#FC273F"/>
<path d="M32.5645 12.4507C32.5645 8.42817 35.3419 5.26758 39.8434 5.26758C43.4829 5.26758 46.2603 7.47041 46.5477 10.5352H43.2913C43.004 9.00282 41.7589 7.94929 39.8434 7.94929C37.2575 7.94929 35.8208 9.8648 35.8208 12.355C35.8208 14.8451 37.2575 16.8564 39.8434 16.8564C41.7589 16.8564 43.004 15.7071 43.2913 14.1747H46.6434C46.1646 17.3353 43.5786 19.5381 39.9392 19.5381C35.4377 19.6339 32.5645 16.4733 32.5645 12.4507Z" fill="#FC273F"/>
<path d="M48.2695 13.2187V5.46094H51.4301V12.8356C51.4301 15.3258 52.3879 16.8582 54.5907 16.8582C56.9851 16.8582 58.1344 14.9427 58.1344 12.4525V5.46094H61.295V19.3484H58.2302V17.816C57.6555 18.3906 57.0809 18.8695 56.3147 19.2526C55.5485 19.5399 54.7823 19.7315 53.9203 19.6357C49.9935 19.6357 48.2695 17.2413 48.2695 13.2187Z" fill="#FC273F"/>
<path d="M63.7852 19.3484V5.46094H66.9457V7.47222C67.9993 5.74826 69.6275 5.46094 71.3514 5.46094H71.8303V8.3342H71.543C68.8613 8.3342 67.0415 9.19618 67.0415 12.4525V19.2526L63.7852 19.3484Z" fill="#FC273F"/>
<path d="M73.3639 1.91551C73.3639 1.62818 73.4597 1.43663 73.5554 1.1493C73.6512 0.861979 73.747 0.670428 73.9385 0.574653C74.3216 0.191551 74.8005 0 75.2794 0C75.7583 0 76.2372 0.191551 76.6203 0.574653C76.8118 0.766203 76.9076 0.957754 77.0034 1.1493C77.0991 1.34086 77.1949 1.62818 77.1949 1.91551C77.1949 2.20283 77.1949 2.39439 77.0991 2.68171C77.0034 2.87326 76.9076 3.16059 76.716 3.35214C76.5245 3.54369 76.3329 3.63947 76.0456 3.73524C75.854 3.83102 75.5667 3.83102 75.2794 3.83102C74.9921 3.83102 74.8005 3.83102 74.5132 3.73524C74.2259 3.63947 74.0343 3.54369 73.8428 3.35214C73.6512 3.16059 73.5554 2.96904 73.4597 2.68171C73.3639 2.39439 73.2681 2.10706 73.3639 1.91551ZM73.747 19.3466V5.4592H76.8118V19.3466H73.747Z" fill="#FC273F"/>
<path d="M86.0055 19.3474C83.1322 19.3474 81.1209 17.9107 81.1209 14.7501V8.14163H78.7266V5.45992H81.1209V1.62891H84.2815V5.45992H87.8252V8.14163H84.2815V14.4628C84.2815 15.4206 84.7604 16.5699 86.197 16.5699H88.0168V19.2516L86.0055 19.3474Z" fill="#FC273F"/>
<path d="M89.3574 15.5155C89.3574 12.355 91.9434 11.1099 95.3913 11.1099H98.8392V10.4395C98.8392 8.81127 97.5941 7.75774 95.8702 7.75774C94.3377 7.75774 93.1884 8.52394 92.9011 9.67325H89.7405C90.0279 6.70421 92.7096 5.26758 96.0617 5.26758C99.6054 5.26758 101.904 7.27886 101.904 10.7268V15.5155C101.904 15.7071 101.904 15.8029 101.904 15.9944C102 16.186 102 16.2818 102.096 16.3775C102.191 16.4733 102.383 16.5691 102.479 16.6649C102.67 16.7606 102.766 16.7606 102.958 16.7606H103.245V19.3466H102C100.659 19.3466 99.4138 19.0592 99.2223 17.5268C98.073 19.0592 96.349 19.6339 94.5293 19.6339C91.5603 19.6339 89.3574 18.293 89.3574 15.5155ZM98.8392 13.8874V13.3127H95.0082C93.7631 13.3127 92.518 13.8874 92.518 15.324C92.518 16.7606 93.6673 17.3353 95.0082 17.3353C97.4026 17.2395 98.8392 15.8987 98.8392 13.8874Z" fill="#FC273F"/>
<path d="M104.395 14.845H107.364C107.651 16.2817 108.8 17.2394 110.62 17.2394C111.865 17.2394 113.302 16.8563 113.302 15.4197C113.302 14.4619 112.631 14.0788 111.099 13.7915L108.609 13.4084C106.885 13.1211 104.586 12.4507 104.586 9.76895C104.586 7.37457 106.789 5.36328 110.333 5.36328C114.451 5.36328 116.175 8.04499 116.175 9.86473H113.206C112.919 8.52387 111.769 7.75767 110.237 7.75767C108.609 7.75767 107.651 8.61965 107.651 9.48162C107.651 10.2478 108.226 10.5352 109.183 10.7267L112.248 11.3014C114.93 11.7802 116.366 13.0253 116.366 15.1324C116.366 18.293 113.493 19.6338 110.524 19.6338C107.555 19.6338 104.778 18.1972 104.395 14.845Z" fill="#FC273F"/>
</svg>
