<svg width="50" height="50" viewBox="0 0 50 50" fill="none" xmlns="http://www.w3.org/2000/svg">
<g clip-path="url(#clip0_491_829)">
<mask id="mask0_491_829" style="mask-type:luminance" maskUnits="userSpaceOnUse" x="0" y="0" width="50" height="50">
<path d="M50 0H0V50H50V0Z" fill="white"/>
</mask>
<g mask="url(#mask0_491_829)">
<path d="M24.9999 49.195C38.3625 49.195 49.195 38.3624 49.195 24.9998C49.195 11.6372 38.3625 0.804688 24.9999 0.804688C11.6373 0.804688 0.804688 11.6372 0.804688 24.9998C0.804688 38.3624 11.6373 49.195 24.9999 49.195Z" fill="white"/>
<path d="M27.4322 11.2651C27.2201 11.2273 26.1975 11.0555 24.9991 11.0555C23.8008 11.0555 22.7781 11.2264 22.5661 11.2651C22.4443 11.287 22.3975 11.1675 22.4902 11.0982C22.5741 11.0361 24.9984 9.19098 24.9984 9.19098L27.5055 11.0982C27.5999 11.1675 27.554 11.287 27.4322 11.2651ZM23.2435 23.2458C23.2435 23.2458 23.1152 23.2918 23.0814 23.4047C23.5895 23.795 23.9395 24.6829 24.9991 24.6829C26.0588 24.6829 26.4088 23.795 26.9161 23.4047C26.883 23.291 26.7548 23.2458 26.7548 23.2458C26.7548 23.2458 26.0911 23.4023 24.9991 23.4023C23.9072 23.4023 23.2435 23.2458 23.2435 23.2458ZM24.9991 21.7514C24.7048 21.7514 24.6402 21.6401 24.4395 21.641C24.2484 21.6418 23.8774 21.7942 23.7967 21.9337C23.8024 22.0047 23.8281 22.0684 23.8798 22.1248C24.3088 22.1894 24.5024 22.4281 24.9999 22.4281C25.4975 22.4281 25.6902 22.1894 26.1201 22.1248C26.1701 22.0684 26.1975 22.0055 26.2031 21.9337C26.1234 21.7942 25.7515 21.6425 25.5596 21.641C25.358 21.6394 25.2927 21.7514 24.9991 21.7514ZM49.1572 26.3265C49.1265 26.9047 49.0749 27.4781 49.004 28.045C46.2652 28.4982 45.2862 26.0579 42.4805 26.1805C42.6484 26.7757 42.7846 27.3821 42.8895 28.0014C45.2031 27.9998 46.1354 30.1628 48.7096 29.8442C48.5741 30.5055 48.4112 31.1579 48.2234 31.8007C46.1878 32.0007 45.4709 29.9781 43.1152 30.0337C43.1346 30.3692 43.1451 30.7079 43.1451 31.0498L43.1354 31.6151L47.7096 33.3604C47.4701 34.0111 47.2024 34.6474 46.9104 35.2708C45.5354 35.195 45.0612 33.4313 42.9693 33.5717C42.9064 34.0241 42.8265 34.4708 42.7314 34.912C44.5484 34.7845 44.9395 36.4571 46.2411 36.5925C45.9096 37.1974 45.5524 37.7861 45.1725 38.3595C44.4015 37.9467 43.733 36.7007 42.2709 36.6241C42.4209 36.1611 42.5524 35.6918 42.6637 35.2144C41.3668 35.2144 39.8838 34.7087 38.6402 33.5764C39.0435 31.2813 35.4814 28.9442 35.4814 27.2635C35.4814 25.4378 36.4048 24.4273 36.4048 21.966C36.4048 20.1394 35.5177 18.1579 34.1798 16.8038C33.9209 16.541 33.6555 16.3281 33.3508 16.137C34.5798 17.6579 35.5234 19.4611 35.5234 21.5498C35.5234 23.8675 34.4451 25.091 34.4451 27.2305C34.4451 29.3692 37.5741 31.22 37.5741 33.4257C37.5741 34.2934 37.2967 35.141 36.3822 36.8055C37.7871 38.2087 39.6168 38.9741 40.7975 38.9741C41.1805 38.9741 41.3862 38.8571 41.5234 38.5563C41.6411 38.2967 41.7531 38.0337 41.8588 37.7684C43.1305 37.8175 43.7128 38.9732 44.4168 39.4345C44.0305 39.9531 43.6249 40.4538 43.1999 40.9385C42.7281 40.416 42.0943 39.537 41.1661 39.2925C40.9999 39.6151 40.8241 39.9337 40.6395 40.2458C41.4387 40.4635 41.9854 41.27 42.4088 41.8007C41.9524 42.2732 41.4774 42.7265 40.983 43.162C40.6741 42.6813 40.1935 42.0717 39.6548 41.7425C39.4555 42.012 39.2484 42.2748 39.0346 42.5305C39.4927 42.841 39.8967 43.3998 40.1604 43.8555C39.5895 44.3135 38.9991 44.7482 38.3878 45.1547C38.0862 42.6974 34.7322 41.0135 35.6362 38.1628C35.3395 38.6651 34.9854 39.2934 34.9854 40.0498C34.9854 42.1135 37.1838 43.7514 37.3588 45.8022C36.9031 46.0748 36.4371 46.3313 35.9621 46.5741C35.883 44.32 33.5555 41.8531 33.5555 40.0031C33.5555 37.9378 36.2604 35.8635 36.2604 33.4257C36.2604 30.9861 33.1395 29.2974 33.1395 27.1555C33.1395 25.0151 34.4668 23.7837 34.4668 21.0401C34.4668 19.0305 33.5121 16.9967 32.0371 15.6974C31.7758 15.4668 31.5185 15.2837 31.2096 15.1232C32.6008 16.7918 33.4072 18.3055 33.4072 20.6023C33.4072 23.1821 31.8862 24.6144 31.8862 27.1401C31.8862 29.6668 34.9491 31.0717 34.9491 33.4264C34.9491 35.7813 32.0984 37.766 32.0984 40.1854C32.0984 42.3861 34.6112 44.5829 34.6484 47.1942C34.0991 47.4337 33.5395 47.6522 32.9701 47.8507C33.2895 45.2128 30.4612 42.4918 30.4612 40.3394C30.4612 37.9861 33.4185 35.9635 33.4185 33.4264C33.4185 30.8878 30.4121 29.7079 30.4121 27.1022C30.4121 24.4982 32.2564 23.0563 32.2564 20.1788C32.2564 17.9361 31.1491 15.9192 29.5314 14.6692L29.429 14.5918C29.2765 14.4788 29.1508 14.6151 29.2588 14.7491C30.404 16.1788 31.0161 17.6248 31.0161 19.766C31.0161 22.3982 28.8975 24.537 28.8975 27.087C28.8975 30.0967 31.7427 30.9571 31.7427 33.4264C31.7427 35.895 28.6918 37.87 28.6918 40.491C28.6918 42.9217 31.579 45.6192 31.0838 48.4248C30.5048 48.5748 29.9177 48.7055 29.3217 48.812C29.8637 45.3184 27.0314 42.8095 27.0314 40.5241C27.0314 38.0498 30.1911 35.8442 30.1911 33.4264C30.1911 31.1458 27.9234 30.4007 27.6249 28.0675C27.5838 27.7491 27.3281 27.5128 26.9758 27.5717C26.5152 27.6555 25.9249 27.9587 24.9975 27.9587C24.0701 27.9587 23.4798 27.6547 23.0185 27.5717C22.6668 27.5135 22.4112 27.7498 22.3701 28.0675C22.0725 30.4007 19.8031 31.145 19.8031 33.4264C19.8031 35.8442 22.9637 38.0491 22.9637 40.5241C22.9637 42.8095 20.1314 45.3184 20.6725 48.812C20.0774 48.7047 19.4895 48.5741 18.9104 48.4248C18.4152 45.6192 21.3031 42.9217 21.3031 40.491C21.3031 37.87 18.2515 35.895 18.2515 33.4264C18.2515 30.9571 21.0975 30.0967 21.0975 27.087C21.0975 24.537 18.9781 22.3991 18.9781 19.766C18.9781 17.6257 19.5902 16.1797 20.7362 14.7491C20.8435 14.6151 20.7185 14.4788 20.5652 14.5918L20.4637 14.6692C18.8475 15.916 17.7411 17.9329 17.7411 20.1757C17.7411 23.0531 19.5854 24.495 19.5854 27.0991C19.5854 29.7038 16.579 30.8837 16.579 33.4232C16.579 35.9604 19.5362 37.9829 19.5362 40.3361C19.5362 42.4894 16.708 45.2095 17.0281 47.8474C16.458 47.6491 15.8984 47.4297 15.3491 47.191C15.3871 44.5797 17.8984 42.3821 17.8984 40.1821C17.8984 37.7628 15.0491 35.7781 15.0491 33.4232C15.0491 31.0684 18.1104 29.6635 18.1104 27.137C18.1104 24.6111 16.5902 23.1788 16.5902 20.5991C16.5902 18.3023 17.3959 16.7885 18.7871 15.12C18.4774 15.2805 18.2209 15.4635 17.9604 15.6942C16.4854 16.9934 15.5314 19.0273 15.5314 21.037C15.5314 23.7805 16.8588 25.012 16.8588 27.1522C16.8588 29.2942 13.7378 30.9829 13.7378 33.4224C13.7378 35.8604 16.4427 37.9354 16.4427 39.9998C16.4427 41.8507 14.1137 44.3175 14.0354 46.5708C13.5604 46.3281 13.0943 46.0717 12.6387 45.7991C12.8145 43.7482 15.0121 42.1104 15.0121 40.0467C15.0121 39.2901 14.6588 38.662 14.3612 38.1595C15.2652 41.0104 11.9112 42.6942 11.6096 45.1515C10.9984 44.745 10.4072 44.3104 9.83703 43.8522C10.0999 43.3974 10.504 42.8378 10.9628 42.5273C10.7483 42.2724 10.5419 42.0087 10.3427 41.7394C9.80316 42.0684 9.32171 42.6781 9.01365 43.1587C8.52091 42.7241 8.04509 42.27 7.58865 41.7974C8.01203 41.2668 8.55881 40.4604 9.358 40.2425C9.17332 39.9305 8.99752 39.6128 8.83139 39.2894C7.90316 39.5337 7.26849 40.4128 6.79752 40.9354C6.37252 40.4498 5.96606 39.9491 5.58058 39.4313C6.28462 38.97 6.86688 37.8135 8.13784 37.7651C8.24429 38.0297 8.35639 38.2925 8.47413 38.5531C8.61122 38.8538 8.81768 38.9708 9.19994 38.9708C10.3806 38.9708 12.2096 38.2055 13.6152 36.8022C12.7008 35.1378 12.4234 34.2901 12.4234 33.4224C12.4234 31.2175 15.5524 29.3668 15.5524 27.2273C15.5524 25.0878 14.4741 23.8644 14.4741 21.5467C14.4741 19.4579 15.4177 17.6547 16.6467 16.1337C16.3418 16.3248 16.0765 16.5378 15.8177 16.8007C14.4798 18.1555 13.5927 20.1361 13.5927 21.9628C13.5927 24.4241 14.5168 25.4345 14.5168 27.2604C14.5168 28.941 10.954 31.2781 11.3572 33.5732C10.1136 34.7055 8.63058 35.2111 7.333 35.2111C7.44591 35.6885 7.57735 36.1579 7.72575 36.6208C6.26445 36.6982 5.59591 37.9442 4.82413 38.3563C4.44349 37.7829 4.08703 37.1942 3.75558 36.5894C5.05639 36.4538 5.44832 34.7813 7.26606 34.9087C7.17091 34.4675 7.09026 34.02 7.02736 33.5684C4.93542 33.4281 4.46122 35.1925 3.08622 35.2675C2.79429 34.6442 2.52655 34.0079 2.28703 33.3571L6.86203 31.612L6.85236 31.0467C6.85236 30.7047 6.86284 30.366 6.88139 30.0305C4.52575 29.9757 3.80881 31.9974 1.77332 31.7974C1.58622 31.1547 1.42252 30.5031 1.28784 29.841C3.86042 30.1595 4.79349 27.9967 7.108 27.9982C7.21284 27.3788 7.34913 26.7724 7.51606 26.1773C4.71042 26.0555 3.73139 28.4958 0.993486 28.0418C0.921711 27.4748 0.870904 26.9015 0.84026 26.3232C4.02332 26.6788 5.21688 24.062 8.11526 24.3821C8.38865 23.6894 8.70639 23.0192 9.06445 22.3741C5.43058 21.7354 4.19671 24.7741 0.814453 24.3071C1.17978 11.266 11.8677 0.804688 24.9991 0.804688C38.1305 0.804688 48.8185 11.266 49.1838 24.3104C45.8008 24.7773 44.5668 21.7394 40.9338 22.3773C41.2911 23.0224 41.6088 23.6925 41.883 24.3854C44.7798 24.0644 45.9734 26.6821 49.1572 26.3265ZM14.5991 16.1788C12.8177 15.4507 10.6612 15.6184 8.81929 16.8014C8.53381 15.0878 7.60397 13.5651 6.27978 12.6467C6.09671 12.52 5.90639 12.6401 5.92332 12.8523C6.20316 16.4732 4.08622 19.6175 1.483 22.3813C4.16606 23.1878 6.44994 19.7329 9.92978 20.9385C11.1781 19.0797 12.7637 17.4644 14.5991 16.1788ZM24.9991 13.9885C22.7531 13.9885 20.8717 15.2587 20.379 16.8998C20.3411 17.0257 20.3927 17.1071 20.5378 17.0418C20.9418 16.8604 21.4015 16.7732 21.9008 16.7732C22.8168 16.7732 23.6241 17.1095 24.1015 17.695C24.3128 18.3918 24.3305 19.4007 24.0918 19.9764C23.7145 19.8918 23.579 19.5998 23.2104 19.5998C22.8418 19.5998 22.5564 19.8587 21.9314 19.8587C21.3072 19.8587 21.2338 19.5635 20.8234 19.5635C20.3402 19.5635 20.2515 20.0611 20.2515 20.6224C20.2515 23.1248 22.5515 26.5684 24.9984 26.5684C27.4443 26.5684 29.7442 23.1248 29.7442 20.6224C29.7442 20.0611 29.629 19.5805 29.1241 19.5151C28.8725 19.6967 28.6411 19.8587 28.0652 19.8587C27.4402 19.8587 27.2677 19.5998 26.8999 19.5998C26.4555 19.5998 26.4999 20.537 25.9725 20.5894C25.6209 19.7442 25.604 18.6604 25.8959 17.695C26.3741 17.1095 27.1805 16.7732 28.0967 16.7732C28.5959 16.7732 29.0588 16.8611 29.4588 17.0418C29.6048 17.1071 29.6555 17.0248 29.6177 16.8998C29.1258 15.2587 27.2451 13.9885 24.9991 13.9885ZM28.5749 17.5788C28.0362 17.5788 27.4048 17.7442 27.008 18.1861C26.9668 18.3063 26.9668 18.4854 27.0249 18.6047C28.0015 18.27 28.8628 18.2571 29.279 18.7224C29.5008 18.5208 29.5717 18.3394 29.5717 18.1288C29.5717 17.8038 29.2411 17.5788 28.5749 17.5788ZM20.7193 18.7224C21.1902 18.2507 22.183 18.2708 23.2145 18.6514C23.2596 18.1385 22.3411 17.5781 21.4234 17.5781C20.7564 17.5781 20.4265 17.8031 20.4265 18.1288C20.4265 18.3394 20.4975 18.5217 20.7193 18.7224ZM36.1984 10.2515C34.4249 10.3781 32.8846 10.987 31.6387 12.0014C32.1677 10.5015 32.8395 9.18936 33.6911 7.91759C31.433 8.1571 29.5451 8.98292 28.1677 10.3942L27.0895 7.56759L29.483 5.45388L26.2781 5.22726L24.9991 2.24662L23.7193 5.22726L20.5145 5.45388L22.908 7.56759L21.8305 10.3942C20.4524 8.98292 18.5645 8.1571 16.308 7.91759C17.158 9.19017 17.8298 10.5023 18.3588 12.0014C17.1137 10.9861 15.5734 10.3773 13.7999 10.2515C14.8637 11.6192 15.8064 13.0773 16.5048 14.645C16.5838 14.8217 16.7531 14.8797 16.9362 14.7885C19.3652 13.5813 22.1024 12.9023 24.9984 12.9023C27.8943 12.9023 30.6305 13.5821 33.0612 14.7885C33.2443 14.8797 33.4137 14.8217 33.4918 14.645C34.1911 13.0773 35.1338 11.6192 36.1984 10.2515ZM40.0701 20.9401C43.5484 19.7345 45.833 23.1885 48.5161 22.3829C45.9128 19.6192 43.7967 16.4748 44.0765 12.8538C44.0935 12.6418 43.9024 12.5208 43.7201 12.6482C42.3951 13.5668 41.4652 15.0894 41.1805 16.8031C39.3378 15.62 37.1822 15.4514 35.4008 16.1805C37.2338 17.4644 38.8201 19.0797 40.0701 20.9401Z" fill="#006341"/>
<path d="M43.2234 45.9758H41.9927V49.2862H41.5516V45.9758H40.3242V45.5645H43.2234V45.9758ZM43.7403 45.5645H44.3943L45.6604 48.4822H45.6693L46.9387 45.5645H47.5823V49.2862H47.1379V46.1661H47.1282L45.7951 49.2862H45.5266L44.1887 46.1661H44.1798V49.2862H43.7403V45.5645Z" fill="#006341"/>
</g>
</g>
<defs>
<clipPath id="clip0_491_829">
<rect width="50" height="50" fill="white"/>
</clipPath>
</defs>
</svg>
