<svg width="98" height="50" viewBox="0 0 98 50" fill="none" xmlns="http://www.w3.org/2000/svg">
<g clip-path="url(#clip0_491_837)">
<path d="M96.331 1.02148H1.02148V49.0113H96.331V1.02148Z" fill="#FFF200"/>
<path d="M0 0H97.3197V50H0V0ZM1.14869 48.8513H96.171V1.14869H1.14869V48.8513Z" fill="black"/>
<path d="M30.1534 9.63558C29.8982 9.7313 29.1962 9.98657 28.6219 10.2099C28.5261 10.8481 28.3666 11.5182 28.1113 12.2201C29.3238 11.7415 30.7597 11.231 31.5574 10.9757C46.2351 6.28523 59.9556 8.35925 62.253 15.5386C62.2849 15.7619 62.3806 15.9853 62.4125 16.2086C62.3487 15.7619 62.253 15.2833 62.0935 14.8366C59.6046 7.14674 45.3417 4.84936 30.1534 9.63558Z" fill="white"/>
<path d="M62.0289 14.1347C59.4443 6.09382 44.1284 3.73262 28.6211 8.45502C28.653 8.74219 28.6849 9.06128 28.6849 9.41227C28.6849 9.66753 28.653 9.92279 28.6211 10.1781C29.2273 9.9547 29.8974 9.69944 30.1527 9.63562C45.3409 4.78559 59.6039 7.11488 62.0608 14.8047C62.2203 15.2834 62.3161 15.7301 62.3799 16.2087C62.3799 16.3044 62.4118 16.3682 62.4118 16.432C62.4118 15.6343 62.2841 14.9005 62.0289 14.1347Z" fill="black"/>
<path d="M6.60417 36.3438H8.26339C8.6782 36.3438 9.02919 36.4714 9.22064 36.6628C9.38018 36.8224 9.4759 37.0138 9.4759 37.2691C9.4759 37.7158 9.22064 37.9392 8.93347 38.0987C9.34827 38.2582 9.66735 38.4816 9.66735 38.9921C9.66735 39.6622 9.12491 40.0132 8.2953 40.0132H6.57227V36.3438H6.60417ZM8.80583 37.3967C8.80583 37.1095 8.58248 36.9181 8.16767 36.9181H7.24234V37.9072H8.13576C8.51866 37.9072 8.80583 37.7477 8.80583 37.3967ZM8.26339 38.4497H7.24234V39.4707H8.32721C8.77392 39.4707 9.02919 39.3112 9.02919 38.9602C9.02919 38.6411 8.77392 38.4497 8.26339 38.4497ZM18.474 36.3438H19.176L20.0375 39.0559L20.9309 36.3438H21.5053L22.3987 39.0559L23.2602 36.3438H23.9303L22.6539 40.0451H22.0796L21.1862 37.3967L20.2928 40.0451H19.7503L18.474 36.3438ZM26.7382 38.5773L25.2704 36.3438H26.0362L27.0573 37.9711L28.1102 36.3438H28.8441L27.3764 38.5773V40.0451H26.7382V38.5773ZM12.3795 38.5773L10.9118 36.3438H11.6776L12.7305 37.9711L13.7835 36.3438H14.5174L13.0496 38.5773V40.0451H12.3795V38.5773ZM30.5033 36.3438H31.1096L33.0879 38.8964V36.3438H33.7261V40.0451H33.1836L31.1415 37.4286V40.0451H30.5033V36.3438ZM35.9596 36.3438H37.3317C38.4804 36.3438 39.2781 37.1415 39.2781 38.1944C39.2781 39.2474 38.4804 40.0451 37.3317 40.0451H35.9596V36.3438ZM36.5978 36.95V39.4707H37.3317C38.0975 39.4707 38.608 38.9602 38.608 38.2263C38.608 37.4924 38.0975 36.9819 37.3317 36.9819H36.5978V36.95ZM41.0968 36.3438H41.735V37.8753H43.4899V36.3438H44.1281V40.0451H43.4899V38.4816H41.735V40.0451H41.0968V36.3438ZM47.3827 36.3438H48.0209L49.6482 40.0451H48.9462L48.5633 39.1517H46.8084L46.4255 40.0451H45.7554L47.3827 36.3438ZM48.3081 38.5773L47.6699 37.1095L47.0317 38.5773H48.3081ZM51.2755 36.3438H51.9775L53.0943 38.0987L54.2111 36.3438H54.913V40.0451H54.2749V37.3967L53.1262 39.1517H53.0943L51.9456 37.4286V40.077H51.3074L51.2755 36.3438Z" fill="black"/>
<path d="M79.0684 13.8159C78.3345 14.8051 77.5687 16.3367 77.122 18.1235C76.2924 21.1867 76.6115 23.4522 77.6326 23.4522C78.0474 23.4522 78.5579 23.0374 79.1003 22.3992C79.8342 21.442 80.5681 19.8785 81.0467 18.0916C81.8763 15.0284 81.5573 12.763 80.5362 12.763C80.0895 12.763 79.579 13.1459 79.0684 13.8159ZM74.8247 38.1937C75.5585 37.2365 76.2924 35.673 76.771 33.8861C77.5688 30.8549 77.2497 28.5894 76.2605 28.5894C75.8457 28.5894 75.3352 28.9723 74.8247 29.6424C74.0908 30.5996 73.325 32.1631 72.8783 33.918C72.0486 36.9812 72.3677 39.2467 73.3888 39.2467C73.7717 39.2786 74.2822 38.8638 74.8247 38.1937ZM79.0684 43.9053C77.6964 44.3839 76.2605 44.703 74.8247 44.8944C73.8355 45.0221 72.8463 45.0859 71.8572 45.0859C63.2739 45.054 57.6581 39.7572 59.413 33.1523C60.3703 29.6424 63.242 26.4515 67.0391 24.3137C65.5713 22.4949 64.997 20.1018 65.6989 17.5492C66.7519 13.6883 70.3256 10.338 74.8247 8.51919C76.1648 7.97675 77.6007 7.56195 79.0684 7.33859C80.0257 7.17905 80.9829 7.11523 81.9721 7.11523C89.3747 7.14714 94.2248 11.8376 92.6613 17.6768C91.9593 20.2614 89.7896 22.2397 87.3326 24.0265C89.981 26.2282 91.5445 29.7381 90.5873 33.2799C89.3109 37.9704 84.6843 41.9908 79.0684 43.9053Z" fill="black"/>
<path d="M75.5258 38.1306C76.5149 37.0777 77.4084 35.1313 77.9189 33.153C78.6847 30.1536 78.557 27.4095 76.9936 27.4095C76.5149 27.4095 76.0363 27.6967 75.5577 28.2072C74.6004 29.2283 73.707 31.1428 73.1646 33.0572C73.0369 33.5678 72.7179 35.0675 72.7179 36.4076C72.7179 37.7796 73.0369 38.9283 74.0899 38.9283C74.5685 38.9283 75.0791 38.6412 75.5258 38.1306ZM79.7696 12.3489C78.8123 13.4019 77.9189 15.2844 77.3764 17.2308C77.2488 17.7414 76.9297 19.241 76.9297 20.5812C76.9297 21.9532 77.2488 23.1019 78.3018 23.1019C78.7804 23.1019 79.2909 22.7828 79.7696 22.2723C80.7268 21.2512 81.6202 19.3687 82.1308 17.4223C82.2584 16.9117 82.5775 15.4121 82.5775 14.0719C82.5775 12.6999 82.2584 11.5512 81.2054 11.5512C80.7268 11.5512 80.2482 11.8384 79.7696 12.3489ZM75.5258 8.23274C76.8659 7.6903 78.3018 7.2755 79.7696 7.02023C80.7268 6.86069 81.684 6.79688 82.6732 6.79688C89.9482 6.79688 94.3835 11.3597 92.9157 16.7841C92.118 19.7516 90.044 21.8575 87.6828 23.6124C90.4907 25.9098 91.8627 28.7177 90.8736 32.4191C89.693 36.8543 85.2577 40.7471 79.7696 42.6297C78.3975 43.1083 76.9935 43.4274 75.5258 43.6507C74.5366 43.7784 73.5475 43.8422 72.5583 43.8422C64.1027 43.8103 58.8697 38.6412 60.529 32.4829C61.6138 28.4306 64.9961 25.5588 68.4103 23.6444C66.751 21.6022 66.1129 19.5282 66.8149 16.8798C67.804 13.2423 71.2182 10.0196 75.5258 8.23274Z" fill="white"/>
<path d="M76.5473 37.8116C77.5364 36.7586 78.4298 34.8123 78.9404 32.834C79.7062 29.8346 79.5785 27.0905 78.015 27.0905C77.5364 27.0905 77.0578 27.3777 76.5792 27.8882C75.6219 28.9093 74.7285 30.7918 74.1861 32.7382C74.0584 33.2488 73.7394 34.7484 73.7394 36.0886C73.7394 37.4606 74.0584 38.6093 75.1114 38.6093C75.59 38.6412 76.0686 38.3221 76.5473 37.8116ZM80.791 12.0618C79.8338 13.1147 78.9404 14.9973 78.3979 16.9437C78.2703 17.4542 77.9512 18.9539 77.9512 20.2941C77.9512 21.6661 78.2703 22.8148 79.3233 22.8148C79.8019 22.8148 80.3124 22.5276 80.791 21.9852C81.7483 20.9641 82.6417 19.0816 83.1522 17.1352C83.2799 16.6246 83.599 15.125 83.599 13.7848C83.599 12.4128 83.2799 11.2641 82.2269 11.2641C81.7483 11.2322 81.2697 11.5512 80.791 12.0618ZM76.5473 7.94563C77.8874 7.40319 79.3233 6.98839 80.791 6.73312C81.7483 6.57358 82.7055 6.50977 83.6947 6.50977C90.9697 6.50977 95.4049 11.0726 93.9372 16.497C93.1395 19.4645 91.0654 21.5704 88.7042 23.3253C91.5122 25.6227 92.8842 28.4306 91.8951 32.132C90.7145 36.5672 86.2792 40.46 80.791 42.3745C79.419 42.8531 78.015 43.1722 76.5473 43.3955C75.5581 43.5232 74.569 43.587 73.5798 43.587C65.1242 43.5551 59.8912 38.386 61.5505 32.2277C62.6353 28.1754 66.0176 25.3036 69.4318 23.3892C67.7725 21.347 67.1344 19.273 67.8364 16.6246C68.8255 12.9552 72.2397 9.73248 76.5473 7.94563Z" fill="#ED1A3B"/>
<path d="M61.7745 23.3559C61.9978 22.8135 61.6468 22.3668 61.4554 22.2072C61.2001 22.0158 60.9448 21.9201 60.5938 21.8882C60.179 21.8882 59.4771 22.3987 59.158 22.622C58.3922 23.1007 57.8817 23.4517 57.6583 23.5474C57.3392 23.7388 56.7011 24.1536 56.0629 24.5365L56.1905 24.4089C56.6692 23.9941 57.1159 23.5793 57.5626 23.1964C58.0731 22.7497 58.7432 22.0796 58.7751 21.3457C58.7751 20.4842 57.8817 19.7184 57.2754 19.2398C57.1478 19.1441 57.0201 19.0483 56.8925 18.9207C56.7011 17.8996 55.2333 16.1447 54.2441 17.421C53.8932 17.8677 53.6698 18.4102 53.6379 18.9526C52.6487 19.846 49.1708 22.8135 49.1708 22.8135C48.6283 23.324 47.1605 23.8026 45.5651 24.2494C44.4803 24.5365 43.4592 24.7599 42.9168 24.7599C43.0125 24.4089 43.172 23.9303 43.4592 23.4517C44.0655 23.5793 44.9589 23.6431 45.5332 23.6431C46.3309 23.675 47.9263 23.1645 48.5645 22.6859C49.6175 21.8882 49.9046 21.4095 49.777 20.197C49.7132 19.4631 49.3303 18.8569 48.7878 18.3783C47.8625 17.5168 45.7247 18.3783 44.7993 18.8569C44.0016 19.2717 43.2358 19.8141 42.4701 20.4523C41.6085 21.1862 40.9385 22.0477 40.3641 23.0049C40.1408 23.5155 39.7898 24.2175 39.726 24.7599C39.5026 26.1 41.1937 27.4083 41.5128 27.504C41.7681 27.5997 42.0552 27.5997 42.3424 27.6316C43.2997 27.6316 44.6398 27.3444 46.2671 26.7701C46.4905 26.7063 46.7457 26.6106 46.9691 26.5148C47.0648 26.6106 47.1605 26.7063 47.2563 26.7701C47.5434 27.0254 48.0859 27.4402 48.5007 27.4402H48.724L49.2665 26.8977C50.83 25.3981 52.3616 23.8665 53.8931 22.3668C54.1165 22.1753 54.5632 21.7605 55.2333 21.1224L55.2971 21.1862C55.329 21.2181 55.3609 21.25 55.4247 21.2819L55.68 21.5372L55.7438 21.601C55.1376 22.1753 54.4675 22.7497 53.9251 23.3878C53.7336 23.5793 52.3935 25.0152 52.2977 25.3342C52.0425 25.9724 52.2977 26.3234 52.6168 26.802C52.7764 27.0254 53.0635 27.2487 53.3507 27.4402C53.7655 27.7273 54.2122 27.9188 54.6589 27.9507C55.4566 27.9507 56.5415 27.4721 57.7859 26.7063C58.3603 26.3872 59.1261 25.8129 60.1152 25.0152C60.3705 24.728 61.5511 23.8026 61.7745 23.3559ZM44.0016 22.1434C44.225 21.8243 44.5441 21.5691 44.8951 21.3457C45.0865 21.2181 45.278 21.0905 45.4375 20.9628C45.6609 20.8033 45.8842 20.7395 46.0438 20.7395C46.1714 20.7395 46.3309 20.7395 46.3309 20.7395C46.5224 20.7395 46.6819 20.7714 46.6819 20.9947C46.65 21.4095 46.1076 21.6967 45.8204 21.8243C45.4056 22.0796 44.8632 22.1434 44.4164 22.1434C44.2569 22.1434 44.1293 22.1434 44.0016 22.1434ZM8.96654 23.1007C7.94548 24.5684 7.6264 25.3981 7.6264 25.749C7.69022 25.781 7.84976 25.781 8.04121 25.781C8.93463 25.781 10.0195 25.43 11.2958 24.6003C12.3807 23.8665 13.2422 23.1007 13.8804 22.2392C14.359 21.601 14.4228 21.3138 14.4228 21.2819C14.4228 20.8033 14.1037 20.0694 12.8912 19.0483C11.5192 17.9316 10.5619 16.6552 10.5939 15.2194C10.6258 13.0496 11.934 11.2309 14.0718 9.73117C16.9436 7.75287 19.5919 6.668 21.9531 6.6999C24.091 6.73181 25.6864 7.68905 25.6864 9.89071C25.6545 11.6138 24.6653 13.5601 23.038 15.6661C22.7827 16.0171 22.4637 16.3362 22.1765 16.6871C21.3788 17.3572 18.7942 17.9316 18.7942 16.1447C18.7942 15.7618 18.9857 15.4746 19.1452 15.3151C19.8153 14.6131 20.4535 13.6878 21.0916 12.6029C21.8574 11.2947 22.1127 10.4651 22.1127 9.98644C22.1127 9.92262 22.1127 9.89071 22.1127 9.89071C22.1127 9.89071 22.017 9.8269 21.6341 9.8269C20.5492 9.79499 18.89 10.497 16.4969 12.1881C14.6462 13.5282 14.0399 14.5812 14.008 15.3789C14.008 15.698 14.1357 15.9213 14.4228 16.1447C17.3903 18.474 20.0067 20.5161 16.4969 24.4408C15.4439 25.6214 14.1995 26.5787 12.7636 27.3444C11.1044 28.206 9.41325 28.7165 7.72212 28.6846C5.74382 28.6527 4.24414 27.7273 4.24414 25.6214C4.27605 23.8346 5.16948 22.1115 6.66916 20.4842C7.02015 20.1013 7.43495 19.7503 7.81785 19.527C8.71128 19.0483 10.7534 18.8569 10.7534 20.4204V20.548C10.7534 20.548 10.6258 20.7395 10.5939 20.8352C9.85997 21.7924 9.41325 22.4625 8.96654 23.1007ZM22.2084 25.079C22.3041 25.079 22.3679 25.0471 22.4637 25.0152C22.9423 24.8237 23.8038 24.1855 25.0801 22.973C26.3565 21.7605 27.5051 20.3885 28.4943 18.9207C28.7496 18.5059 29.2282 18.4102 29.5473 18.4102C30.2173 18.4102 31.2065 18.7293 31.0789 19.846C31.015 20.4523 29.9302 21.7924 29.6111 22.2072C28.7496 23.324 28.0157 24.1855 27.3775 24.8237C26.4203 25.8129 25.3673 26.5787 24.2505 27.1211C23.4847 27.504 22.7828 27.7912 22.2722 27.7912C21.9531 27.7593 20.5811 27.6316 19.7834 26.8977C19.2409 26.3872 18.6985 25.3981 18.7623 24.8875C18.8581 24.2813 19.1771 23.5793 19.6238 22.8454C20.2301 21.8243 21.0278 20.9309 21.9531 20.1013C22.6232 19.4951 23.2933 18.9526 24.0272 18.4421C24.1867 18.4102 24.3462 18.3783 24.5377 18.3783C24.9206 18.3783 25.3354 18.5059 25.7502 18.6974C26.2288 18.9207 26.6755 19.2717 26.6755 19.878C26.6755 20.2928 26.3565 20.6118 26.1969 20.7076C25.4949 21.1224 24.6653 21.9201 23.74 23.1326C22.8785 24.2175 22.4637 25.0152 22.3999 25.4938C22.3679 25.4619 22.3679 25.3981 22.3679 25.3342C22.3041 25.3023 22.2722 25.2066 22.2403 25.1428H21.985C22.0489 25.1109 22.1446 25.079 22.2084 25.079ZM32.8338 25.3661C33.0252 25.3342 33.2805 25.3342 33.4401 25.2385C35.0355 24.377 35.0355 24.377 36.5351 22.8773C37.2052 22.1434 37.4605 21.3776 37.6838 20.4523C37.6838 20.4204 37.6519 20.3566 37.6519 20.3247C36.7266 20.2928 36.1522 20.7076 34.7802 21.8882C33.6315 22.8454 32.9295 24.0898 32.7381 24.5046C32.6104 24.8237 32.6424 25.079 32.77 25.3981L32.8338 25.3661ZM36.7585 18.3783C37.2052 18.2187 37.62 18.1549 37.9391 18.1549C38.3539 18.1868 39.4388 18.4421 40.1088 19.1122C40.747 19.7184 41.0023 20.6437 40.9066 21.1224C40.7789 21.6967 40.4279 22.3668 39.9493 23.0369C39.2792 23.9941 38.5134 24.7918 37.6838 25.43C36.8861 26.0362 36.0884 26.5467 35.2907 26.9296C34.3335 27.3764 33.3443 27.6316 32.4828 27.6954C32.3552 27.6954 31.6851 27.6316 31.2703 27.3764C31.0469 27.2487 30.8874 27.0892 30.7598 26.9296L30.3131 27.5678C28.6857 29.929 29.994 27.9507 27.6009 31.2053C27.2818 31.684 26.1969 33.2155 25.463 33.2155C24.8568 33.1836 23.2933 32.4497 23.2933 31.7159C23.389 31.0777 23.8357 30.8862 27.3775 26.1C30.6002 21.7605 32.8657 19.0483 34.142 18.1549C34.4611 17.9316 34.844 17.8677 35.2269 17.8677C35.7374 17.8358 36.4075 17.8996 36.7585 18.3783Z" fill="white"/>
<path d="M11.4869 20.3579L11.423 20.5494C10.9444 21.1875 10.4977 21.8257 10.051 22.4958C9.02993 23.9635 8.67895 24.857 8.67895 25.2718C8.67895 25.3356 8.67895 25.3675 8.67895 25.3675C8.71085 25.3994 8.87039 25.4951 9.25329 25.4951C10.1786 25.527 11.2954 25.1441 12.6036 24.2826C13.7204 23.5487 14.5819 22.751 15.2201 21.8895C15.6987 21.2514 15.7945 20.9323 15.7945 20.8366C15.7945 20.2622 15.4116 19.4964 14.1671 18.4754C12.827 17.3905 11.9017 16.1461 11.9336 14.8059C11.9655 12.7319 13.2099 10.945 15.3477 9.44536C18.1876 7.49896 20.804 6.41409 23.1333 6.446C25.2073 6.47791 26.707 7.37133 26.6751 9.44536C26.6432 11.1046 25.686 13.0191 24.0906 15.125C23.8353 15.476 23.5481 15.7951 23.2609 16.1142C22.5909 16.6885 20.1978 17.2948 20.1978 15.6993C20.1978 15.3803 20.3573 15.125 20.5169 14.9974C21.1869 14.2635 21.8251 13.3381 22.4632 12.2852C23.229 10.9769 23.5162 10.1154 23.5162 9.57299C23.5162 9.19009 23.1333 9.222 22.8142 9.222C21.6655 9.19009 19.9425 9.92398 17.5494 11.6151C15.6668 12.9553 14.9967 14.072 14.9967 14.9336C14.9967 15.3164 15.1563 15.6036 15.4754 15.8589C18.3471 18.1244 20.9636 20.0388 17.5175 23.8678C16.4964 25.0165 15.252 25.9738 13.8481 26.7396C12.1888 27.6011 10.5615 28.0797 8.9023 28.0478C6.98782 28.0159 5.58386 27.1544 5.61577 25.1761C5.64768 23.453 6.50919 21.7619 7.97697 20.1665C8.32796 19.7836 8.71085 19.4326 9.06184 19.2731C9.82764 18.8582 11.7102 18.6349 11.7102 20.0069V20.1027C11.7102 20.1027 11.6145 20.2622 11.5507 20.3579C11.5188 20.3898 11.4869 20.4537 11.4869 20.4856C11.4869 20.3898 11.4869 20.3579 11.4869 20.3579ZM33.8225 24.9208L33.7906 24.8251C33.663 24.506 33.663 24.1869 33.7906 23.8678C33.9821 23.453 34.6841 22.1767 35.8647 21.1875C37.2367 20.0388 37.843 19.5602 38.9597 19.5921C38.9916 19.624 39.0555 19.7198 39.0874 19.9112C38.8321 20.8685 38.5768 21.6981 37.8749 22.432C36.3752 23.9316 36.3433 23.9635 34.7479 24.8251C34.5245 24.9527 34.2692 24.9208 34.014 24.9527C33.9502 24.9846 33.8863 24.9527 33.8225 24.9208ZM37.9068 18.0605C37.6834 17.55 36.9176 17.4862 36.439 17.4862C36.088 17.4543 35.737 17.5181 35.4818 17.7096C34.2692 18.603 31.9719 21.2833 28.781 25.6228C25.2073 30.4409 24.7925 30.5685 24.7287 31.1429C24.7287 31.6853 26.1008 32.4192 26.707 32.4511C27.2176 32.483 27.6324 31.781 28.2386 31.0791C29.6426 29.5156 31.8442 26.2609 32.0038 26.0376C32.1314 26.2609 32.3548 26.4843 32.61 26.6438C32.9929 26.8991 33.5992 26.9629 33.7268 26.9629C34.5564 26.931 35.4818 26.6757 36.439 26.229C37.2367 25.8461 38.0344 25.3356 38.8002 24.7293C39.6298 24.1231 40.3637 23.3254 41.0338 22.3681C41.5124 21.6981 41.8315 21.0599 41.9591 20.5175C42.0548 20.1346 41.7996 19.2411 41.2252 18.6987C40.587 18.0925 39.566 17.8372 39.1831 17.8053C38.8321 17.8053 38.3854 17.901 37.9068 18.0605ZM62.827 22.751C62.6994 23.0382 61.9974 23.6126 61.1359 24.3145C60.1786 25.1122 59.3809 25.6547 58.8385 26.0057C57.5622 26.7395 56.5411 27.2182 55.8072 27.2182C55.4243 27.1863 54.9776 26.9948 54.5947 26.7396C54.3075 26.5481 54.0523 26.3567 53.8927 26.1652C53.6056 25.7504 53.3503 25.4632 53.6056 24.857C53.6694 24.5698 55.0414 23.1339 55.201 22.9744C55.8072 22.3043 56.5092 21.6981 57.1474 21.0599L56.9559 20.8685L56.7006 20.6132L56.6049 20.5175C56.5092 20.4217 56.4454 20.3579 56.3816 20.326C55.6477 20.9961 55.1691 21.4747 54.9138 21.6662C53.3822 23.1658 51.8187 24.6974 50.2871 26.1971L49.7766 26.7076H49.649C49.298 26.7076 48.7555 26.2928 48.5322 26.0695C48.4045 25.9738 48.2769 25.878 48.1812 25.7504C47.9259 25.8461 47.6387 25.9418 47.3516 26.0376C45.7243 26.6119 44.416 26.8991 43.4907 26.8991C43.2354 26.8672 42.9482 26.8672 42.7249 26.7715C42.4377 26.6757 40.8742 25.4313 41.0657 24.2188C41.1295 23.7402 41.4805 22.9744 41.7038 22.5277C42.2782 21.6023 42.9482 20.7727 43.7779 20.0388C44.5117 19.4007 45.2775 18.8582 46.0752 18.4754C46.9049 18.0605 49.0427 17.199 49.8404 17.9648C50.3828 18.4434 50.7338 19.0178 50.7976 19.6879C50.9253 20.8046 50.6381 21.2514 49.649 22.0172C49.0746 22.4639 47.5111 22.9744 46.7453 22.9425C46.1391 22.9106 45.1818 22.8468 44.5756 22.7191C44.1927 23.3254 43.9693 23.9955 43.9055 24.3784L43.9693 24.4103C44.0012 24.4422 44.065 24.4422 44.0969 24.4422C44.6713 24.4422 45.7562 24.2188 46.841 23.9316C48.4364 23.4849 49.9361 23.0063 50.5105 22.432C50.5105 22.432 54.1161 19.3369 55.0414 18.5392C55.0733 17.9648 55.2967 17.4543 55.6158 17.0076C56.4135 15.9865 58.1365 17.6138 57.977 18.5073C58.1365 18.6668 58.296 18.7944 58.3918 18.8582C59.1257 19.4326 59.8276 20.1027 59.8276 20.8046C59.7957 21.379 59.2852 21.9852 58.6789 22.4958C58.2322 22.8787 57.7855 23.2935 57.3069 23.7083C56.9878 24.0274 56.6368 24.3783 56.3177 24.7612C57.2431 24.2507 58.7108 23.3254 58.998 23.1339C59.2214 23.0063 59.7319 22.6872 60.5296 22.1767C60.8168 21.9852 61.5188 21.4747 61.8698 21.4747C62.1569 21.5066 62.3803 21.5704 62.6036 21.73C62.7313 21.9533 63.0184 22.3043 62.827 22.751ZM45.9795 21.2194C46.171 21.2194 46.4262 21.2514 46.6815 21.2514C47.192 21.2514 47.7664 21.1875 48.1812 20.9323C48.5322 20.7727 49.0746 20.4217 49.1384 19.9431C49.1703 19.624 48.9151 19.4964 48.6279 19.4964C48.6279 19.4964 48.4683 19.4645 48.3088 19.4964C48.1174 19.5283 47.8621 19.5921 47.6068 19.7517C47.4473 19.8793 47.2558 20.0069 47.0644 20.1346C46.6177 20.3898 46.2348 20.7408 45.9795 21.2194ZM23.4524 24.7293C23.58 24.1869 23.9948 23.4211 24.8244 22.432C25.7817 21.2194 26.6113 20.4217 27.3452 19.975C27.5047 19.8793 27.76 19.624 27.76 19.305C27.76 18.7306 27.2176 18.4434 26.9304 18.3158C26.5475 18.1244 26.1646 17.9967 25.8136 17.9967C25.6541 17.9967 25.5264 18.0286 25.3988 18.0605C24.6968 18.5711 24.0267 19.1135 23.3886 19.6879C22.4632 20.4856 21.6975 21.379 21.0912 22.3681C20.6445 23.102 20.3573 23.7721 20.2616 24.3464C20.1978 24.7612 20.7083 25.7185 21.2188 26.1971C21.9527 26.8991 23.2609 27.0267 23.58 27.0586C24.0267 27.0586 24.6968 26.8034 25.4626 26.4205C26.5794 25.878 27.6005 25.1122 28.5577 24.155C29.1959 23.5168 29.9297 22.6872 30.7594 21.5704C31.5251 20.5494 32.1314 19.7198 32.1633 19.305C32.2909 18.3796 31.4613 18.0925 30.8232 18.0925C30.5041 18.0605 30.1212 18.1563 29.9297 18.5073C28.9087 20.0069 27.76 21.379 26.4837 22.5915C25.1754 23.8359 24.3139 24.4741 23.7715 24.6655C23.6438 24.6974 23.5481 24.6974 23.4524 24.7293Z" fill="black"/>
</g>
<defs>
<clipPath id="clip0_491_837">
<rect width="97.3197" height="50" fill="white"/>
</clipPath>
</defs>
</svg>
