<svg width="50" height="50" viewBox="0 0 50 50" fill="none" xmlns="http://www.w3.org/2000/svg">
<g clip-path="url(#clip0_491_878)">
<path d="M0 0H50V50H0V0Z" fill="#E20074"/>
<path d="M17.1448 30.7128H10.002V23.5699H17.1322V30.7128H17.1448ZM10.002 7.14258V19.2867H12.1435V18.934C12.1435 13.2146 15.356 9.64951 21.428 9.64951H21.7807V35.3613C21.7807 38.9264 20.3572 40.3625 16.7795 40.3625H15.7087V42.8568H34.2776V40.3625H33.2068C29.6417 40.3625 28.2055 38.939 28.2055 35.3613V9.63691H28.5583C34.6303 9.63691 37.8427 13.202 37.8427 18.9214V19.2741H39.9843V7.14258H10.002ZM32.8541 30.7128H39.9969V23.5699H32.8667V30.7128H32.8541Z" fill="white"/>
</g>
<defs>
<clipPath id="clip0_491_878">
<rect width="50" height="50" fill="white"/>
</clipPath>
</defs>
</svg>
