<svg width="46" height="50" viewBox="0 0 46 50" fill="none" xmlns="http://www.w3.org/2000/svg">
<g clip-path="url(#clip0_491_863)">
<path d="M45.3413 19.2557L22.7311 38.5113L0.119141 19.2557L22.7311 0L45.3413 19.2557Z" fill="#008C9A"/>
<path d="M26.4171 26.6807L22.7285 23.5402V4.375L37.6727 17.1008L26.4171 26.6807Z" fill="url(#paint0_linear_491_863)"/>
<path d="M19.035 26.6807L22.7254 23.5402V4.375L7.78125 17.1008L19.035 26.6807Z" fill="url(#paint1_linear_491_863)"/>
<path d="M34.2882 9.84175L33.8707 9.48681L24.7413 25.2435L23.9235 24.5458L27.908 4.40973L27.4382 4.00781L23.4538 24.1456L22.7352 23.5349L21.9853 24.1735L18.0009 4.03043L17.5294 4.43061L21.5155 24.5736L20.703 25.2644L11.5719 9.50421L11.1543 9.85915L20.2854 25.6211L19.0379 26.6824L22.7352 29.8317L26.4325 26.6824L25.1589 25.5984L34.2882 9.84175Z" fill="white"/>
<path d="M2.47938 43.569H0V41.8691H7.18412V43.569H4.69256V49.8623H2.47938V43.569Z" fill="#004990"/>
<path d="M8.10938 41.8711H13.6354V43.3831H10.3243V45.0325H13.4335V46.5445H10.3243V48.354H13.7676V49.866H8.10938V41.8746V41.8711Z" fill="#004990"/>
<path d="M15.1697 47.8937C15.7403 48.1912 16.539 48.4209 17.4559 48.4209C18.1588 48.4209 18.8252 48.2834 18.8252 47.6414C18.8252 46.1538 14.8965 47.0916 14.8965 44.1842C14.8965 42.2598 16.8487 41.7344 18.5155 41.7344C19.3124 41.7344 20.0988 41.8492 20.6591 42.0319L20.5164 43.6813C19.9457 43.4291 19.302 43.3142 18.6704 43.3142C18.1101 43.3142 17.1827 43.3595 17.1827 44.0589C17.1827 45.3517 21.1115 44.4817 21.1115 47.3682C21.1115 49.4405 19.302 50.0025 17.4576 50.0025C16.6834 50.0025 15.7195 49.8876 14.9817 49.6597L15.1714 47.8972L15.1697 47.8937Z" fill="#004990"/>
<path d="M25.6455 41.7344C28.1023 41.7344 29.3829 43.3038 29.3829 45.8684C29.3829 48.4331 28.0797 50.0025 25.6455 50.0025C23.2114 50.0025 21.9082 48.4104 21.9082 45.8684C21.9082 43.3264 23.1905 41.7344 25.6455 41.7344ZM25.6455 48.4209C26.853 48.4209 27.3333 47.1838 27.3333 45.8667C27.3333 44.4817 26.853 43.3125 25.6455 43.3125C24.438 43.3125 23.9578 44.48 23.9578 45.8667C23.9578 47.2534 24.438 48.4209 25.6455 48.4209Z" fill="#004990"/>
<path d="M41.7256 41.7344C44.1824 41.7344 45.463 43.3038 45.463 45.8684C45.463 48.4331 44.1598 50.0025 41.7256 50.0025C39.2915 50.0025 37.9883 48.4104 37.9883 45.8684C37.9883 43.3264 39.2706 41.7344 41.7256 41.7344ZM41.7256 48.4209C42.9331 48.4209 43.4133 47.1838 43.4133 45.8667C43.4133 44.4817 42.9331 43.3125 41.7256 43.3125C40.5181 43.3125 40.0379 44.48 40.0379 45.8667C40.0379 47.2534 40.5181 48.4209 41.7256 48.4209Z" fill="#004990"/>
<path d="M30.498 41.8709H34.4511C35.9266 41.8709 37.1306 42.5129 37.1306 43.8857C37.1306 44.9505 36.6069 45.6604 35.5351 45.9005V45.9231C36.2502 46.1058 36.5825 46.7131 36.9984 47.6857L37.8074 49.8606H35.4986L35.0218 48.4182C34.5695 47.0437 34.2458 46.7009 33.1775 46.7009H32.713V49.8606H30.498V41.8691V41.8709ZM32.713 45.1906H33.2958C34.0109 45.1906 34.9157 45.168 34.9157 44.2633C34.9157 43.5186 34.1414 43.3811 33.2958 43.3811H32.713V45.1906Z" fill="#004990"/>
</g>
<defs>
<linearGradient id="paint0_linear_491_863" x1="32.0325" y1="12.6469" x2="22.4689" y2="23.8836" gradientUnits="userSpaceOnUse">
<stop stop-color="#008C9A"/>
<stop offset="0.05" stop-color="#088D96"/>
<stop offset="0.13" stop-color="#21918E"/>
<stop offset="0.23" stop-color="#499981"/>
<stop offset="0.35" stop-color="#80A26E"/>
<stop offset="0.48" stop-color="#C5AF57"/>
<stop offset="0.57" stop-color="#FDB945"/>
<stop offset="1" stop-color="white"/>
</linearGradient>
<linearGradient id="paint1_linear_491_863" x1="13.4207" y1="12.6469" x2="22.9843" y2="23.8836" gradientUnits="userSpaceOnUse">
<stop stop-color="#008C9A"/>
<stop offset="0.05" stop-color="#088D96"/>
<stop offset="0.13" stop-color="#21918E"/>
<stop offset="0.23" stop-color="#499981"/>
<stop offset="0.35" stop-color="#80A26E"/>
<stop offset="0.48" stop-color="#C5AF57"/>
<stop offset="0.57" stop-color="#FDB945"/>
<stop offset="1" stop-color="white"/>
</linearGradient>
<clipPath id="clip0_491_863">
<rect width="45.464" height="50" fill="white"/>
</clipPath>
</defs>
</svg>
