<svg width="213" height="50" viewBox="0 0 213 50" fill="none" xmlns="http://www.w3.org/2000/svg">
<g clip-path="url(#clip0_491_883)">
<path d="M73.9697 19.0913H79.2052V38.4143C79.2052 41.5682 77.0185 43.5026 73.7384 43.5026H67.1152C63.8351 43.5026 61.6484 41.5892 61.6484 38.4143V19.0913H66.947V37.7625C66.947 38.2251 67.3044 38.5825 67.767 38.5825H73.1497C73.6123 38.5825 73.9697 38.2251 73.9697 37.7625V19.0913ZM81.455 38.162H86.6905V43.4606H81.455V38.162ZM88.9823 27.4177V23.5699C88.9823 21.0047 90.8326 19.0703 93.7342 19.0703H101.43C104.331 19.0703 106.182 20.9837 106.182 23.5699V27.1443H101.135V24.5371C101.135 24.0745 100.778 23.7171 100.315 23.7171H94.8696C94.4071 23.7171 94.0496 24.0745 94.0496 24.5371V26.913C94.0496 27.2705 94.2388 27.5859 94.8065 27.7541L102.796 30.088C105.299 30.8449 106.161 32.1485 106.161 34.8819V38.982C106.161 41.5262 104.247 43.4816 101.367 43.4816H93.6711C90.8116 43.4816 88.9403 41.5262 88.9403 38.982V35.0291H93.9865V37.9938C93.9865 38.4564 94.344 38.8138 94.8065 38.8138H100.252C100.715 38.8138 101.072 38.4564 101.072 37.9938V35.3865C101.072 34.9871 100.82 34.6717 100.315 34.5455L92.3255 32.2116C89.8234 31.4757 88.9823 30.1721 88.9823 27.4177ZM108.452 38.162H113.688V43.4606H108.452V38.162ZM135.955 39.3815H127.355L126.219 43.4816H120.753L128.049 19.0913H135.66L142.662 43.4816H137.09L135.955 39.3815ZM134.672 34.7558L131.686 23.7802L128.616 34.7558H134.672ZM160.891 33.3891L159.567 34.5035L163.94 43.5026H158.053L154.184 35.1132H150.631V43.4816H145.332V19.0913H157.653C160.723 19.0913 162.805 20.9416 162.805 23.7591V28.511C162.784 30.908 162.553 32.0224 160.891 33.3891ZM157.485 29.6675V24.7474C157.485 24.2848 157.128 23.9273 156.665 23.9273H150.631V30.4875H156.665C157.128 30.4875 157.485 30.13 157.485 29.6675ZM182.065 19.0913H188.94V43.4816H183.852V28.1326L178.553 43.4816H177.018L171.741 28.1746V43.4816H166.863V19.0913H173.738L177.944 32.4219L182.065 19.0913ZM212.847 19.0913L204.605 34.167V43.4816H199.306V34.2091L191.295 19.0913H197.519L202.208 28.5951L206.876 19.0913H212.847Z" fill="white"/>
<path d="M52.5652 19.0917H32.4853L26.2826 0L20.0799 19.0917H0L16.2532 30.9083L10.0505 50L26.3036 38.2044L42.5568 50L36.3331 30.9083L52.5652 19.0917ZM26.2826 32.3381L19.0496 37.5946L21.804 29.1001L14.5711 23.8436H23.5072L26.2826 15.349L29.037 23.8436H37.9731L30.7401 29.1001L33.4945 37.5946L26.2826 32.3381Z" fill="#FFCC01"/>
</g>
<defs>
<clipPath id="clip0_491_883">
<rect width="212.847" height="50" fill="white"/>
</clipPath>
</defs>
</svg>
