<svg width="56" height="50" viewBox="0 0 56 50" fill="none" xmlns="http://www.w3.org/2000/svg">
<g clip-path="url(#clip0_491_881)">
<path fill-rule="evenodd" clip-rule="evenodd" d="M20.4667 36.7692L15.1308 40.6625L21.6283 45.405L23.6658 39.105L20.4675 36.7692H20.4667ZM22.5917 46.1075L27.9275 50L33.2608 46.1067L27.9275 42.2108L22.5917 46.1075ZM25.2867 34.075L5.7225 19.7967L10.2892 29.3417L16.7775 34.075H25.2867ZM27.3333 27.7792L0 7.83167L4.56667 17.3792L25.7058 32.8058L27.3333 27.7792ZM3.87417 0L0.651667 6.73583L10.555 13.9625L3.87417 0ZM32.1833 39.105L34.2233 45.405L40.7183 40.6633L35.3817 36.7692L32.1833 39.105ZM39.0725 34.075L45.5608 29.3417L50.1258 19.7967L30.5642 34.075H39.0725ZM28.5192 27.7792L30.1442 32.8058L51.285 17.3792L55.8517 7.83167L28.5192 27.7792ZM51.975 0L45.2917 13.9625L55.1975 6.73583L51.975 0ZM24.9608 37.7092C24.9595 36.9211 25.2712 36.1648 25.8273 35.6064C26.3835 35.0481 27.1386 34.7334 27.9267 34.7317C28.7144 34.7341 29.4689 35.049 30.0247 35.6072C30.5804 36.1655 30.8919 36.9215 30.8908 37.7092C30.8924 38.4971 30.581 39.2534 30.0252 39.8119C29.4694 40.3703 28.7146 40.6853 27.9267 40.6875C26.2883 40.6875 24.9608 39.3542 24.9608 37.7092Z" fill="white"/>
</g>
<defs>
<clipPath id="clip0_491_881">
<rect width="55.8333" height="50" fill="white"/>
</clipPath>
</defs>
</svg>
