<svg width="203" height="50" viewBox="0 0 203 50" fill="none" xmlns="http://www.w3.org/2000/svg">
<g clip-path="url(#clip0_491_886)">
<mask id="mask0_491_886" style="mask-type:luminance" maskUnits="userSpaceOnUse" x="0" y="0" width="203" height="50">
<path d="M202.174 0H0V50H202.174V0Z" fill="white"/>
</mask>
<g mask="url(#mask0_491_886)">
<path fill-rule="evenodd" clip-rule="evenodd" d="M112.315 31.2813C112.315 31.6875 112.285 32.0938 112.16 32.4375C111.884 33.2498 111.359 33.9533 110.661 34.4474C109.962 34.9414 109.126 35.2005 108.272 35.1875C106.686 35.1875 105.426 34.2813 105.426 32.3438C105.426 29.4063 108.645 28.5938 112.315 28.6093V31.2813ZM118.07 26.1563C118.07 21.3125 116.001 17.0313 109.034 17.0313C105.457 17.0313 102.611 18.0313 101.056 18.9375L102.191 22.8438C103.953 21.7938 105.959 21.228 108.007 21.2031C111.553 21.2031 112.128 23.2188 112.128 24.5V24.8125C104.415 24.8125 99.5317 27.4843 99.5317 32.9531C99.5317 36.2968 102.02 39.4218 106.343 39.4218C108.987 39.4218 111.211 38.3593 112.549 36.6563H112.673C112.673 36.6563 113.56 40.3593 118.427 38.9375C118.163 37.3906 118.07 35.75 118.07 33.7813V26.1563ZM0 10.4219L5.84749 34.5313C6.7806 38.4688 8.47575 39.9218 13.3435 38.9375L16.5005 26.0781C17.2937 22.875 17.8379 20.6093 18.3512 17.3438H18.4289C18.8022 20.625 19.3154 22.8906 19.9686 26.0938L21.897 35C22.5658 38.0625 24.3853 40 29.1752 38.9375L36.6712 10.4219H30.606L28.0555 22.75C27.3557 26.3438 26.7336 29.1563 26.2515 32.4375H26.1737C25.7383 29.1718 25.1785 26.4843 24.463 22.9843L21.8192 10.4219H15.5052L12.6437 22.6563C11.8505 26.375 11.0885 29.375 10.6219 32.5468H10.5286C10.0309 29.5781 9.37776 25.7813 8.66237 22.1875L6.37625 10.4219H0ZM47.7597 31.2813C47.7597 31.6875 47.7286 32.0938 47.6041 32.4375C47.3283 33.2498 46.8035 33.9533 46.105 34.4474C45.4065 34.9414 44.5703 35.2005 43.7162 35.1875C42.1299 35.1875 40.8702 34.2813 40.8702 32.3438C40.8702 29.4063 44.0895 28.5938 47.7597 28.6093V31.2813ZM53.5139 26.1563C53.5139 21.3125 51.4611 17.0313 44.4938 17.0313C40.9168 17.0313 38.0553 18.0313 36.5002 18.9375L37.6354 22.8438C39.3978 21.7946 41.4035 21.2288 43.4518 21.2031C46.9976 21.2031 47.573 23.2188 47.573 24.5V24.8125C39.8593 24.8125 34.9761 27.4843 34.9761 32.9531C34.9761 36.2968 37.4643 39.4218 41.7878 39.4218C44.4316 39.4218 46.6555 38.3593 47.9929 36.6563H48.1174C48.1174 36.6563 49.0038 40.3593 53.8715 38.9375C53.6072 37.3906 53.5139 35.75 53.5139 33.7813V26.1563ZM62.4251 32.875V10.4375H56.6709V38.9531H62.4251V32.8906M135.767 10.4375V31.4688C135.767 34.375 136.312 36.4063 137.478 37.6406C138.489 38.7343 140.153 39.4375 142.16 39.4375C143.87 39.4375 145.534 39.125 146.327 38.8125L146.265 34.2813C145.674 34.4375 144.99 34.5468 144.072 34.5468C142.113 34.5468 141.443 33.2968 141.443 30.6875V22.6406H146.467V17.1718H141.443V10.4219H135.767M120.885 17.5156V38.9375H126.825V27.9688C126.825 27.375 126.872 26.875 126.965 26.3906C127.401 24.0938 129.142 22.625 131.662 22.625C132.346 22.625 132.843 22.6875 133.373 22.7813V17.1563C132.943 17.0645 132.505 17.0225 132.066 17.0313C129.842 17.0313 127.323 18.4688 126.265 21.5625H126.11V17.5H120.885M65.7842 17.5V38.9375H71.5385V26.375C71.5385 25.7813 71.6162 25.1563 71.8184 24.625C72.285 23.3593 73.4669 21.875 75.3332 21.875C77.6659 21.875 78.7701 23.8593 78.7701 26.7188V38.9375H84.5553V26.2188C84.5553 25.6563 84.6331 24.9688 84.8041 24.4843C85.0313 23.7297 85.4941 23.0684 86.1243 22.5984C86.7546 22.1285 87.5186 21.8748 88.3034 21.875C90.6672 21.875 91.8025 23.8281 91.8025 27.1875V38.9375H97.6034V26.3125C97.6034 19.6718 94.2286 17.0313 90.4495 17.0313C88.7543 17.0313 87.4324 17.4531 86.235 18.1875C85.2241 18.8125 84.3065 19.7031 83.5289 20.8593H83.4357C82.9711 19.6914 82.1581 18.6964 81.1085 18.011C80.0587 17.3256 78.8236 16.9834 77.5726 17.0313C76.3241 16.9571 75.0798 17.2353 73.9805 17.8345C72.8812 18.4337 71.9706 19.3299 71.3518 20.4218H71.2741V17.5156H65.7687" fill="#006ECD"/>
<path fill-rule="evenodd" clip-rule="evenodd" d="M177.603 16.5625C178.753 16.5625 179.687 15.9532 179.827 15.1875L180.947 2.3125C180.947 1.04688 179.469 0 177.603 0C175.737 0 174.259 1.04688 174.259 2.3125L175.395 15.1875C175.519 15.9688 176.468 16.5468 177.603 16.5468M170.683 20.5782C171.258 19.5782 171.211 18.4532 170.605 17.9532L160.076 10.5469C158.987 9.90625 157.355 10.6719 156.421 12.2968C155.488 13.9218 155.644 15.7343 156.733 16.3593L168.396 21.8125C169.127 22.0782 170.107 21.5625 170.683 20.5625M184.523 20.5625C185.099 21.5625 186.078 22.0782 186.825 21.8125L198.473 16.3593C199.562 15.7343 199.718 13.9218 198.8 12.2968C197.867 10.6719 196.219 9.90625 195.13 10.5469L184.601 17.9532C184.01 18.4532 183.963 19.5782 184.539 20.5782M177.603 32.6093C178.753 32.6093 179.687 33.2188 179.827 33.9843L180.947 46.8593C180.947 48.125 179.469 49.1718 177.603 49.1718C175.737 49.1718 174.259 48.125 174.259 46.8593L175.395 33.9843C175.519 33.2032 176.468 32.625 177.603 32.625M184.523 28.6093C185.099 27.6093 186.078 27.0938 186.825 27.3593L198.473 32.8125C199.562 33.4375 199.718 35.2657 198.8 36.875C197.867 38.5 196.219 39.2657 195.13 38.625L184.601 31.2187C184.01 30.7187 183.963 29.5937 184.539 28.6093M170.683 28.6093C171.258 29.5937 171.211 30.7187 170.605 31.2187L160.076 38.625C158.987 39.25 157.355 38.5 156.421 36.875C155.488 35.25 155.644 33.4375 156.733 32.8125L168.396 27.3593C169.127 27.0938 170.107 27.6093 170.683 28.6093ZM200.931 37.5H201.039C201.164 37.5 201.273 37.4532 201.273 37.3438C201.273 37.25 201.211 37.1875 201.056 37.1875H200.931V37.5ZM200.931 38.0625H200.682V37.0468L201.071 37.0157C201.273 37.0157 201.35 37.0468 201.428 37.0938C201.49 37.1407 201.537 37.2187 201.537 37.3125C201.537 37.4375 201.444 37.5157 201.32 37.5625C201.413 37.5938 201.475 37.6875 201.506 37.8125C201.537 37.9688 201.552 38.0313 201.584 38.0625H201.335C201.303 38.0313 201.273 37.9375 201.242 37.8282C201.226 37.7187 201.164 37.6718 201.039 37.6718H200.915V38.0782L200.931 38.0625ZM201.086 36.7187C200.62 36.7187 200.293 37.0938 200.293 37.5468C200.293 38 200.635 38.3593 201.086 38.3593C201.537 38.3593 201.864 38 201.864 37.5468C201.87 37.4404 201.855 37.3338 201.819 37.2335C201.783 37.1333 201.726 37.0415 201.653 36.9639C201.581 36.8863 201.493 36.8246 201.395 36.7824C201.297 36.7402 201.193 36.7186 201.086 36.7187ZM201.086 36.5157C201.677 36.5157 202.128 36.9687 202.128 37.5468C202.128 38.125 201.662 38.5782 201.086 38.5782C200.949 38.5823 200.812 38.5587 200.684 38.5088C200.556 38.4588 200.439 38.3836 200.34 38.2874C200.242 38.1912 200.163 38.0761 200.11 37.9489C200.056 37.8216 200.028 37.685 200.028 37.5468C200.028 36.9687 200.495 36.5157 201.086 36.5157Z" fill="#F3B53B"/>
</g>
</g>
<defs>
<clipPath id="clip0_491_886">
<rect width="202.174" height="50" fill="white"/>
</clipPath>
</defs>
</svg>
