<svg width="91" height="50" viewBox="0 0 91 50" fill="none" xmlns="http://www.w3.org/2000/svg">
<g clip-path="url(#clip0_491_1002)">
<path d="M67.9307 47.8861C67.2174 47.8861 66.6366 47.3133 66.6366 46.6091C66.6366 45.9052 67.2174 45.3316 67.9307 45.3316C68.6448 45.3316 69.2257 45.9052 69.2257 46.6091C69.2257 47.3133 68.6448 47.8861 67.9307 47.8861ZM69.2257 44.7579C68.8578 44.5067 68.4117 44.359 67.9307 44.359C66.8742 44.359 65.9833 45.0715 65.7256 46.0354C65.7256 46.0354 65.6504 46.2985 65.6504 46.6283C65.6504 46.9576 65.7256 47.1828 65.7256 47.1828C65.9833 48.146 66.8742 48.8594 67.9307 48.8594C68.4117 48.8594 68.8578 48.7112 69.2257 48.4601V48.7403H70.2119V44.4913H69.2257V44.7579Z" fill="#00BEDF"/>
<path d="M73.4973 45.4607C73.4973 46.5734 72.7 47.5055 71.639 47.7298V44.4902H70.6523V48.7539H71.1455C72.5876 48.7539 73.777 47.8894 74.2849 46.5811C74.4411 46.177 74.454 45.8961 74.4728 45.7122C74.4809 45.6379 74.4836 45.5456 74.4836 45.4607V44.4902H73.4973V45.4607Z" fill="#00BEDF"/>
<path d="M77.0175 45.3316C77.5147 45.3316 77.9474 45.6103 78.1644 46.0174H75.8711C76.0877 45.6103 76.5204 45.3316 77.0175 45.3316ZM77.5885 46.9903H79.2651C79.2862 46.8664 79.2983 46.7388 79.2983 46.6091C79.2983 45.3683 78.2754 44.359 77.0175 44.359C76.3669 44.359 75.8035 44.6163 75.3977 45.0166C74.9404 45.4684 74.7363 46.0487 74.7363 46.6091C74.7363 47.8498 75.7601 48.8594 77.0175 48.8594C77.8914 48.8594 78.6642 48.3577 79.0351 47.6575C79.0853 47.5621 79.1152 47.4897 79.1381 47.4378H78.0006C77.7634 47.712 77.4108 47.8861 77.0175 47.8861C76.4381 47.8861 75.9467 47.5089 75.7816 46.9903H77.5885Z" fill="#00BEDF"/>
<path d="M64.2464 46.9424C64.2464 47.4274 63.8433 47.8221 63.3475 47.8221C62.887 47.8221 62.5062 47.4806 62.4548 47.0434C62.4566 47.0095 62.4601 46.9763 62.4601 46.9424V44.4913H62.4485H61.4032H61.3916V46.9424C61.3916 46.9763 61.3952 47.0095 61.397 47.0434C61.3455 47.4806 60.9652 47.8221 60.5043 47.8221C60.0085 47.8221 59.6057 47.4274 59.6057 46.9424V44.4913H58.5488V46.9424C58.5488 48.0105 59.4263 48.8789 60.5043 48.8789C61.0645 48.8789 61.5692 48.6431 61.9263 48.2682C62.2825 48.6431 62.7872 48.8789 63.3475 48.8789C64.4259 48.8789 65.3029 48.0105 65.3029 46.9424V44.4913H64.2464V46.9424Z" fill="#00BEDF"/>
<path d="M79.0493 44.661H79.0963C79.1442 44.661 79.1598 44.647 79.1598 44.619C79.1598 44.5945 79.1477 44.5806 79.1026 44.5806H79.0493V44.661ZM79.0493 44.8048H79.0099V44.5482H79.1084C79.1692 44.5482 79.1992 44.5709 79.1992 44.6213C79.1992 44.6674 79.1706 44.6872 79.1325 44.6919L79.2055 44.8048H79.1621L79.0941 44.6933H79.0493V44.8048ZM79.0972 44.49C78.9938 44.49 78.9137 44.5697 78.9137 44.6758C78.9137 44.7843 78.9938 44.863 79.0972 44.863C79.1988 44.863 79.2784 44.7843 79.2784 44.6758C79.2784 44.5697 79.1988 44.49 79.0972 44.49ZM79.0972 44.4504C79.2198 44.4504 79.3249 44.5459 79.3249 44.6758C79.3249 44.8071 79.2198 44.9023 79.0972 44.9023C78.9723 44.9023 78.8672 44.8071 78.8672 44.6758C78.8672 44.5459 78.9723 44.4504 79.0972 44.4504Z" fill="#00BEDF"/>
<path d="M25.5694 45.7843C25.5694 45.3381 25.2613 45.0173 24.8335 45.0173H23.9342V46.5517H24.8335C25.2613 46.5517 25.5694 46.225 25.5694 45.7843ZM26.2925 45.7843C26.2925 46.5959 25.6638 47.2309 24.8335 47.2309H23.9342V48.7402H23.2109V44.3383H24.8335C25.6638 44.3383 26.2925 44.9672 26.2925 45.7843Z" fill="#483092"/>
<path d="M29.1235 47.1664C29.1235 46.5945 28.6956 46.1731 28.1424 46.1731C27.5889 46.1731 27.1615 46.5945 27.1615 47.1664C27.1615 47.7387 27.5889 48.1603 28.1424 48.1603C28.6956 48.1603 29.1235 47.7387 29.1235 47.1664ZM26.4824 47.1664C26.4824 46.2294 27.2244 45.5131 28.1424 45.5131C29.0667 45.5131 29.8026 46.2294 29.8026 47.1664C29.8026 48.0972 29.0667 48.8203 28.1424 48.8203C27.2244 48.8203 26.4824 48.0972 26.4824 47.1664Z" fill="#483092"/>
<path d="M34.6336 45.5959L33.6465 48.7402H32.9797L32.3259 46.6205L31.6656 48.7402H30.9987L30.0117 45.5959H30.7287L31.3384 47.7652L31.9986 45.5959H32.6467L33.3004 47.7652L33.9169 45.5959H34.6336Z" fill="#483092"/>
<path d="M37.3868 46.9025C37.2925 46.3615 36.8965 46.1292 36.4876 46.1292C35.9786 46.1292 35.6324 46.4307 35.5381 46.9025H37.3868ZM36.5505 48.1979C36.928 48.1979 37.2108 48.0283 37.362 47.8081L37.9213 48.1351C37.6321 48.5625 37.1605 48.8203 36.5443 48.8203C35.5066 48.8203 34.834 48.1098 34.834 47.1664C34.834 46.2362 35.5066 45.5131 36.4942 45.5131C37.431 45.5131 38.0725 46.267 38.0725 47.1731C38.0725 47.2676 38.0598 47.3678 38.0472 47.4555H35.5445C35.6511 47.9464 36.0476 48.1979 36.5505 48.1979Z" fill="#483092"/>
<path d="M40.3193 45.5391V46.2751C39.8727 46.2439 39.351 46.451 39.351 47.1557V48.7402H38.6719V45.5959H39.351V46.124C39.5397 45.6966 39.9229 45.5391 40.3193 45.5391Z" fill="#483092"/>
<path d="M43.0548 46.9025C42.9604 46.3615 42.5645 46.1292 42.1555 46.1292C41.6463 46.1292 41.3002 46.4307 41.2059 46.9025H43.0548ZM42.2184 48.1979C42.596 48.1979 42.8786 48.0283 43.0298 47.8081L43.5891 48.1351C43.3004 48.5625 42.8284 48.8203 42.2123 48.8203C41.1744 48.8203 40.502 48.1098 40.502 47.1664C40.502 46.2362 41.1744 45.5131 42.162 45.5131C43.0988 45.5131 43.7403 46.267 43.7403 47.1731C43.7403 47.2676 43.7277 47.3678 43.715 47.4555H41.2125C41.3191 47.9464 41.7153 48.1979 42.2184 48.1979Z" fill="#483092"/>
<path d="M46.8085 47.1664C46.8085 46.5816 46.3812 46.1605 45.8156 46.1605C45.2491 46.1605 44.8217 46.5816 44.8217 47.1664C44.8217 47.7518 45.2491 48.1727 45.8156 48.1727C46.3812 48.1727 46.8085 47.7518 46.8085 47.1664ZM47.4878 44.3369V48.7389H46.8085V48.286C46.5695 48.6193 46.1986 48.8203 45.7082 48.8203C44.8531 48.8203 44.1426 48.0972 44.1426 47.1664C44.1426 46.2294 44.8531 45.5131 45.7082 45.5131C46.1986 45.5131 46.5695 45.7139 46.8085 46.0406V44.3369H47.4878Z" fill="#483092"/>
<path d="M52.5195 47.1664C52.5195 46.5816 52.0922 46.1605 51.5261 46.1605C50.9601 46.1605 50.5328 46.5816 50.5328 47.1664C50.5328 47.7518 50.9601 48.1727 51.5261 48.1727C52.0922 48.1727 52.5195 47.7518 52.5195 47.1664ZM53.1988 47.1664C53.1988 48.0972 52.4882 48.8203 51.6331 48.8203C51.1427 48.8203 50.7717 48.6193 50.5328 48.286V48.7389H49.8535V44.3369H50.5328V46.0406C50.7717 45.7139 51.1427 45.5131 51.6331 45.5131C52.4882 45.5131 53.1988 46.2294 53.1988 47.1664Z" fill="#483092"/>
<path d="M56.5312 45.5951L55.324 48.8396C55.0282 49.6384 54.5127 50.0411 53.7896 49.9967V49.3618C54.2294 49.3868 54.4684 49.1605 54.6259 48.7452L54.6572 48.6826L53.3242 45.5951H54.0661L55.0031 47.8775L55.8081 45.5951H56.5312Z" fill="#483092"/>
<path d="M26.522 39.5879C26.522 39.1264 26.1786 38.7664 25.7258 38.7664H24.1746V40.409H25.7258C26.1786 40.409 26.522 40.0484 26.522 39.5879ZM24.1746 36.3521V37.8947H25.5409C25.9692 37.8947 26.2957 37.5591 26.2957 37.1238C26.2957 36.6872 25.9692 36.3521 25.5409 36.3521H24.1746ZM27.4864 39.6382C27.4864 40.6109 26.6981 41.3145 25.7258 41.3145H23.2109V35.4464H25.5409C26.4888 35.4464 27.2597 36.134 27.2597 37.0726C27.2597 37.5844 27.0333 38.0034 26.6649 38.2717C27.1592 38.5313 27.4864 39.0095 27.4864 39.6382Z" fill="#3AB54A"/>
<path d="M30.8814 37.0478V38.0289C30.2863 37.9864 29.5906 38.2629 29.5906 39.2018V41.3145H28.6855V37.1238H29.5906V37.8274C29.8418 37.2579 30.3531 37.0478 30.8814 37.0478Z" fill="#3AB54A"/>
<path d="M35.0657 39.2188C35.0657 38.4562 34.4954 37.8948 33.7578 37.8948C33.0202 37.8948 32.4503 38.4562 32.4503 39.2188C32.4503 39.9813 33.0202 40.5432 33.7578 40.5432C34.4954 40.5432 35.0657 39.9813 35.0657 39.2188ZM31.5449 39.2188C31.5449 37.9699 32.5339 37.0147 33.7578 37.0147C34.9901 37.0147 35.9706 37.9699 35.9706 39.2188C35.9706 40.4598 34.9901 41.4238 33.7578 41.4238C32.5339 41.4238 31.5449 40.4598 31.5449 39.2188Z" fill="#3AB54A"/>
<path d="M40.5326 39.2188C40.5326 38.4393 39.9631 37.8778 39.2085 37.8778C38.4538 37.8778 37.8839 38.4393 37.8839 39.2188C37.8839 39.9984 38.4538 40.5598 39.2085 40.5598C39.9631 40.5598 40.5326 39.9984 40.5326 39.2188ZM41.4383 37.1239V41.3146H40.5326V40.711C40.2144 41.1555 39.7198 41.4238 39.0655 41.4238C37.9264 41.4238 36.9785 40.4598 36.9785 39.2188C36.9785 37.9699 37.9264 37.0147 39.0655 37.0147C39.7198 37.0147 40.2144 37.283 40.5326 37.7186V37.1239H41.4383Z" fill="#3AB54A"/>
<path d="M46.2321 39.2188C46.2321 38.4393 45.6624 37.8778 44.9076 37.8778C44.153 37.8778 43.5837 38.4393 43.5837 39.2188C43.5837 39.9984 44.153 40.5598 44.9076 40.5598C45.6624 40.5598 46.2321 39.9984 46.2321 39.2188ZM47.1377 35.4465V41.3146H46.2321V40.711C45.9135 41.1555 45.4195 41.4238 44.7657 41.4238C43.6248 41.4238 42.6777 40.4598 42.6777 39.2188C42.6777 37.9699 43.6248 37.0147 44.7657 37.0147C45.4195 37.0147 45.9135 37.283 46.2321 37.7186V35.4465H47.1377Z" fill="#3AB54A"/>
<path d="M52.1675 39.2188C52.1675 38.4393 51.597 37.8778 50.8426 37.8778C50.0886 37.8778 49.5181 38.4393 49.5181 39.2188C49.5181 39.9984 50.0886 40.5598 50.8426 40.5598C51.597 40.5598 52.1675 39.9984 52.1675 39.2188ZM53.0723 39.2188C53.0723 40.4598 52.1255 41.4238 50.9853 41.4238C50.3316 41.4238 49.8367 41.1555 49.5181 40.711V41.3146H48.6133V35.4465H49.5181V37.7186C49.8367 37.283 50.3316 37.0147 50.9853 37.0147C52.1255 37.0147 53.0723 37.9699 53.0723 39.2188Z" fill="#3AB54A"/>
<path d="M57.6343 39.2188C57.6343 38.4393 57.0647 37.8778 56.3103 37.8778C55.5554 37.8778 54.9858 38.4393 54.9858 39.2188C54.9858 39.9984 55.5554 40.5598 56.3103 40.5598C57.0647 40.5598 57.6343 39.9984 57.6343 39.2188ZM58.54 37.1239V41.3146H57.6343V40.711C57.3162 41.1555 56.8213 41.4238 56.1675 41.4238C55.0274 41.4238 54.0801 40.4598 54.0801 39.2188C54.0801 37.9699 55.0274 37.0147 56.1675 37.0147C56.8213 37.0147 57.3162 37.283 57.6343 37.7186V37.1239H58.54Z" fill="#3AB54A"/>
<path d="M63.8289 38.7412V41.3145H62.9242V38.8333C62.9242 38.1967 62.555 37.8606 61.9849 37.8606C61.3898 37.8606 60.9204 38.2128 60.9204 39.0675V41.3145H60.0156V37.1238H60.9204V37.6599C61.1978 37.2238 61.6498 37.0146 62.2198 37.0146C63.1582 37.0146 63.8289 37.6512 63.8289 38.7412Z" fill="#3AB54A"/>
<path d="M68.5406 39.2188C68.5406 38.4393 67.9709 37.8778 67.2165 37.8778C66.4616 37.8778 65.892 38.4393 65.892 39.2188C65.892 39.9984 66.4616 40.5598 67.2165 40.5598C67.9709 40.5598 68.5406 39.9984 68.5406 39.2188ZM69.4462 35.4465V41.3146H68.5406V40.711C68.2224 41.1555 67.7275 41.4238 67.0738 41.4238C65.9336 41.4238 64.9863 40.4598 64.9863 39.2188C64.9863 37.9699 65.9336 37.0147 67.0738 37.0147C67.7275 37.0147 68.2224 37.283 68.5406 37.7186V35.4465H69.4462Z" fill="#3AB54A"/>
<path d="M62.6817 17.6054C61.482 17.198 60.2828 16.7905 59.0831 16.3831C58.6522 17.396 58.2209 18.4088 57.7895 19.4215C59.4183 18.9319 61.0471 18.4423 62.6754 17.9527C62.8454 17.9015 62.8495 17.6626 62.6817 17.6054ZM65.562 12.0727C64.8537 10.2168 64.1453 8.36119 63.437 6.50523C61.8471 7.01351 60.2573 7.52201 58.667 8.03029C60.8757 9.45046 63.0844 10.871 65.2931 12.2912C65.4412 12.3865 65.6247 12.2372 65.562 12.0727ZM72.4615 16.8664L82.6213 23.3132L86.6735 20.3351L72.6253 16.4963C72.3989 16.4346 72.2633 16.7407 72.4615 16.8664ZM73.7824 7.33775L72.3805 12.5307C72.3496 12.6434 72.3939 12.7633 72.4897 12.8299C72.572 12.8869 72.6785 12.8953 72.768 12.8518L81.4802 8.63558L73.7824 7.33775ZM65.3061 24.5394C63.7377 24.5394 63.6464 25.889 63.6464 27.2745C63.6464 28.7702 63.7377 30.0104 65.3428 30.0104H65.8717C66.4189 30.0104 66.6015 29.8279 66.6015 29.2806V24.5394H65.3061ZM69.446 30.2839C69.446 31.4692 68.8075 32.1075 67.6222 32.1075H64.5221C61.422 32.1075 60.7289 30.1927 60.7289 27.2745C60.7289 24.3567 61.422 22.4424 64.5221 22.4424H66.6015V19.342L69.446 18.3288V30.2839ZM50.6439 24.2658C50.6439 22.9895 51.282 22.4424 52.4673 22.4424H54.7109C57.3183 22.4424 59.1055 23.1535 59.1055 25.9251V32.1075H56.2605V26.6549C56.2605 25.2688 55.8775 24.5394 54.4917 24.5394H54.127C53.671 24.5394 53.4889 24.7217 53.4889 25.1774V32.1075H50.6439V24.2658ZM48.7364 30.2839C48.7364 31.5605 48.0978 32.1075 46.9125 32.1075H43.9946C41.7153 32.1075 40.2016 31.1046 40.2016 28.6423V22.4424H43.0464V27.8947C43.0464 29.299 43.4475 30.0104 44.8335 30.0104H45.2533C45.7088 30.0104 45.8913 29.8279 45.8913 29.372V22.4424H48.7364V30.2839ZM33.9074 30.1196C35.4574 30.1196 35.6579 29.1894 35.6579 27.2745C35.6579 25.36 35.4574 24.4298 33.9074 24.4298C32.3569 24.4298 32.1565 25.36 32.1565 27.2745C32.1565 29.1894 32.3569 30.1196 33.9074 30.1196ZM38.5757 27.2745C38.5757 31.2138 37.4632 32.2168 33.9074 32.2168C30.3512 32.2168 29.2387 31.2138 29.2387 27.2745C29.2387 23.3539 30.3512 22.3326 33.9074 22.3326C37.4632 22.3326 38.5757 23.3539 38.5757 27.2745ZM26.6217 32.1075C24.5245 32.1075 23.2115 31.2685 23.2115 28.898V24.5394H21.935V22.4424H23.2115V19.342L26.0562 18.3288V22.4424H28.0261V24.5394H26.0562V27.8583C26.0562 29.3175 26.2572 30.0104 27.8071 30.0104H28.0261V32.1075H26.6217ZM13.2452 30.0104H17.148C17.4215 30.0104 17.7496 29.9375 17.7496 29.518C17.7496 28.9342 17.0382 28.6243 16.3819 28.3324L15.3244 27.8583C13.6096 27.0922 13.136 26.5453 13.136 24.9405C13.136 23.1535 13.993 22.4424 15.7981 22.4424H20.3575V24.5394H16.6371C16.2176 24.5394 15.8347 24.5578 15.8347 24.9953C15.8347 25.5423 16.145 25.7066 16.783 25.998L18.1324 26.6182C19.7921 27.3843 20.7224 27.7669 20.7224 29.7001C20.7224 31.3414 19.9927 32.1075 18.26 32.1075H13.2452V30.0104ZM4.68704 26.9284H7.65939L6.43758 22.6609C6.36451 22.4241 6.18239 21.753 6.18239 21.753C6.18239 21.753 5.98138 22.4241 5.90885 22.6609L4.68704 26.9284ZM3.57449 20.7828C3.83668 19.9506 4.08926 19.196 4.08926 19.196H8.29475C8.29475 19.196 8.35242 19.4512 8.77193 20.7828L12.3642 32.1075H8.91735L8.13343 29.299H4.21248L3.42854 32.1075H0L3.57449 20.7828Z" fill="#483092"/>
<path d="M76.1667 24.0613C75.0073 22.7474 73.8484 21.4333 72.689 20.1192C72.5758 19.9911 72.3646 20.0752 72.37 20.2463C72.4425 22.3531 72.5154 24.4598 72.5879 26.5664C73.7808 25.7314 74.9738 24.8963 76.1667 24.0613ZM53.9316 11.3877C56.62 12.1027 60.3846 13.1613 63.2667 13.9383C63.4573 13.9896 63.5826 13.7426 63.4278 13.6199C60.8097 11.5378 57.2702 9.16203 54.8293 7.13675C54.5303 8.55379 54.231 9.97065 53.9316 11.3877ZM68.8274 14.7154C68.8681 14.9008 69.1299 14.909 69.1809 14.726C70.1103 11.3926 71.0388 7.10019 71.9677 3.91221C69.9053 2.6074 67.8434 1.30259 65.7815 -0.00222969C66.7963 4.48452 67.8121 10.1166 68.8274 14.7154ZM90.2745 15.0204C85.164 14.8915 80.0534 14.7627 74.9429 14.6339C74.7322 14.6287 74.6968 14.3289 74.9018 14.2754C79.3254 13.1142 83.745 11.4471 88.1696 10.2859C88.8694 11.6953 89.5746 13.6112 90.2745 15.0204Z" fill="#3AB54A"/>
<path d="M73.088 29.1499C72.2736 29.1499 71.6113 29.8125 71.6113 30.6269C71.6113 31.441 72.2736 32.1035 73.088 32.1035C73.9019 32.1035 74.5646 31.441 74.5646 30.6269C74.5646 29.8125 73.9019 29.1499 73.088 29.1499ZM73.088 29.4942C73.7131 29.4942 74.2201 30.0013 74.2201 30.6269C74.2201 31.2523 73.7131 31.7592 73.088 31.7592C72.4624 31.7592 71.9559 31.2523 71.9559 30.6269C71.9559 30.0013 72.4624 29.4942 73.088 29.4942ZM72.8888 30.5727H73.1998C73.3135 30.5727 73.4075 30.4722 73.4075 30.3455C73.4075 30.2189 73.3135 30.1202 73.1998 30.1202H72.8888V30.5727ZM73.1188 30.8371H72.8888V31.3685H72.5877V29.8382H73.1998C73.4817 29.8382 73.7086 30.0658 73.7086 30.3455C73.7086 30.5379 73.5887 30.7104 73.4137 30.7914L73.7525 31.3685H73.4271L73.1188 30.8371Z" fill="#483092"/>
</g>
<defs>
<clipPath id="clip0_491_1002">
<rect width="90.2765" height="50" fill="white"/>
</clipPath>
</defs>
</svg>
