<svg width="44" height="44" viewBox="0 0 44 44" fill="none" xmlns="http://www.w3.org/2000/svg">
<g clip-path="url(#clip0_430_99)">
<path d="M22 0C9.8505 0 0 9.84913 0 22C0 34.1509 9.84913 44 22 44C34.1509 44 44 34.1509 44 22C44 9.84913 34.1509 0 22 0ZM22 41.294C11.385 41.294 2.75 32.615 2.75 22C2.75 11.385 11.385 2.75 22 2.75C32.615 2.75 41.25 11.385 41.25 22C41.25 32.615 32.615 41.294 22 41.294ZM29.7784 14.223C29.2421 13.6867 28.3718 13.6867 27.8341 14.223L22.0014 20.0558L16.1686 14.223C15.6324 13.6867 14.7606 13.6867 14.223 14.223C13.6854 14.7592 13.6867 15.631 14.223 16.1673L20.0558 22L14.223 27.8328C13.6867 28.369 13.6867 29.2408 14.223 29.777C14.7592 30.3133 15.631 30.3133 16.1686 29.777L22.0014 23.9442L27.8341 29.777C28.3704 30.3133 29.2407 30.3133 29.7784 29.777C30.316 29.2408 30.3146 28.369 29.7784 27.8328L23.9456 22L29.7784 16.1673C30.316 15.6296 30.316 14.7592 29.7784 14.223Z" fill="#FFFFFF"/>
</g>
<defs>
<clipPath id="clip0_430_99">
<rect width="44" height="44" fill="white"/>
</clipPath>
</defs>
</svg>
