<svg width="19" height="19" viewBox="0 0 19 19" fill="none" xmlns="http://www.w3.org/2000/svg">
<g clip-path="url(#clip0_541_2)">
<path d="M13.7565 0H5.24317C2.35209 0 0 2.3522 0 5.24328V13.7566C0 16.6478 2.35209 18.9999 5.24317 18.9999H13.7565C16.6478 18.9999 18.9999 16.6477 18.9999 13.7566V5.24328C19 2.3522 16.6478 0 13.7565 0ZM17.3142 13.7566C17.3142 15.7183 15.7183 17.3141 13.7566 17.3141H5.24317C3.28162 17.3142 1.68576 15.7183 1.68576 13.7566V5.24328C1.68576 3.28173 3.28162 1.68576 5.24317 1.68576H13.7565C15.7182 1.68576 17.3141 3.28173 17.3141 5.24328V13.7566H17.3142Z" fill="white"/>
<path d="M9.49931 4.60449C6.79973 4.60449 4.60352 6.8007 4.60352 9.50028C4.60352 12.1997 6.79973 14.3958 9.49931 14.3958C12.1989 14.3958 14.3951 12.1997 14.3951 9.50028C14.3951 6.8007 12.1989 4.60449 9.49931 4.60449ZM9.49931 12.71C7.72937 12.71 6.28928 11.2701 6.28928 9.50017C6.28928 7.73012 7.72926 6.29014 9.49931 6.29014C11.2694 6.29014 12.7093 7.73012 12.7093 9.50017C12.7093 11.2701 11.2692 12.71 9.49931 12.71Z" fill="white"/>
<path d="M14.6015 3.17505C14.2767 3.17505 13.9576 3.30654 13.7282 3.53693C13.4977 3.76619 13.3652 4.08536 13.3652 4.41127C13.3652 4.73618 13.4978 5.05524 13.7282 5.28562C13.9575 5.51489 14.2767 5.6475 14.6015 5.6475C14.9274 5.6475 15.2454 5.51489 15.4758 5.28562C15.7062 5.05524 15.8377 4.73606 15.8377 4.41127C15.8377 4.08536 15.7062 3.76619 15.4758 3.53693C15.2465 3.30654 14.9274 3.17505 14.6015 3.17505Z" fill="white"/>
</g>
<defs>
<clipPath id="clip0_541_2">
<rect width="19" height="19" fill="white"/>
</clipPath>
</defs>
</svg>
