<svg width="29" height="29" viewBox="0 0 29 29" fill="none" xmlns="http://www.w3.org/2000/svg">
<path d="M22.6199 4.83331H6.48867C6.28075 4.82357 6.07294 4.85492 5.87716 4.9256C5.68137 4.99628 5.50145 5.10487 5.34768 5.24516C5.19392 5.38546 5.06932 5.55471 4.98106 5.74321C4.89279 5.93172 4.84256 6.13578 4.83325 6.34372V22.5113C4.84543 22.9464 5.02376 23.3605 5.3316 23.6682C5.63945 23.9761 6.05348 24.1545 6.48867 24.1667H22.6199C23.043 24.1478 23.4418 23.9639 23.731 23.6545C24.0201 23.345 24.1765 22.9347 24.1666 22.5113V6.34372C24.1701 6.14133 24.1321 5.94037 24.0552 5.75315C23.9782 5.56594 23.8638 5.39643 23.7189 5.25499C23.5741 5.11357 23.402 5.00322 23.213 4.93071C23.024 4.8582 22.8222 4.82505 22.6199 4.83331ZM10.8749 20.9525H8.0595V12.3371H10.8749V20.9525ZM9.53367 11.0321C9.33721 11.0389 9.14144 11.0051 8.95869 10.9326C8.77593 10.8602 8.61013 10.7508 8.4717 10.6112C8.33326 10.4716 8.22518 10.3049 8.15425 10.1216C8.08331 9.93824 8.05106 9.74221 8.0595 9.54581C8.05081 9.34728 8.08372 9.14914 8.15611 8.96408C8.2285 8.77901 8.33877 8.61113 8.47984 8.47119C8.62093 8.33124 8.7897 8.22233 8.97533 8.15145C9.16098 8.08056 9.35939 8.04926 9.55783 8.05956C9.7543 8.05272 9.95006 8.08656 10.1328 8.15899C10.3156 8.23142 10.4814 8.34086 10.6198 8.48043C10.7582 8.62001 10.8663 8.7867 10.9373 8.97004C11.0082 9.15338 11.0404 9.3494 11.032 9.54581C11.0407 9.74434 11.0078 9.94248 10.9354 10.1275C10.863 10.3126 10.7527 10.4805 10.6117 10.6204C10.4706 10.7604 10.3018 10.8693 10.1162 10.9402C9.93052 11.0111 9.73211 11.0424 9.53367 11.0321ZM20.9524 20.9525H18.1249V16.24C18.1249 15.1163 17.7262 14.3429 16.7233 14.3429C16.4117 14.3456 16.1086 14.4445 15.8555 14.6263C15.6024 14.808 15.4117 15.0636 15.3095 15.3579C15.231 15.5786 15.1981 15.8129 15.2128 16.0467V20.9525H12.4337V12.3371H15.2128V13.5454C15.4599 13.0915 15.8276 12.7147 16.2754 12.4566C16.7233 12.1986 17.2337 12.0694 17.7503 12.0833C19.5749 12.0833 20.9524 13.2917 20.9524 15.8654V20.9525Z" fill="white"/>
</svg>
