<svg width="35" height="35" viewBox="0 0 35 35" fill="none" xmlns="http://www.w3.org/2000/svg">
<path d="M17.4996 0C10.8024 0 5.354 5.44923 5.354 12.1466C5.354 18.5933 16.3739 33.6552 16.8431 34.293L17.281 34.889C17.3322 34.959 17.4138 35 17.4996 35C17.5867 35 17.6677 34.959 17.7195 34.889L18.1571 34.293C18.6266 33.6552 29.6462 18.5933 29.6462 12.1466C29.6462 5.44923 24.1969 0 17.4996 0ZM17.4996 7.79568C19.8992 7.79568 21.8505 9.74704 21.8505 12.1466C21.8505 14.5448 19.8991 16.4974 17.4996 16.4974C15.1014 16.4974 13.1487 14.5448 13.1487 12.1466C13.1487 9.74704 15.1013 7.79568 17.4996 7.79568Z" fill="#DD1155"/>
</svg>
