<svg width="21" height="21" viewBox="0 0 21 21" fill="none" xmlns="http://www.w3.org/2000/svg">
<path fill-rule="evenodd" clip-rule="evenodd" d="M10.5 1.3125C6.51591 1.3125 3.28125 4.54716 3.28125 8.53125C3.28125 10.3543 4.36669 12.5219 5.70872 14.45C7.63744 17.222 10.0485 19.5077 10.0485 19.5077C10.3018 19.7472 10.6982 19.7472 10.9515 19.5077C10.9515 19.5077 13.3626 17.222 15.2913 14.45C16.6333 12.5219 17.7188 10.3543 17.7188 8.53125C17.7188 4.54716 14.4841 1.3125 10.5 1.3125ZM10.5 4.92188C8.50763 4.92188 6.89062 6.53888 6.89062 8.53125C6.89062 10.5236 8.50763 12.1406 10.5 12.1406C12.4924 12.1406 14.1094 10.5236 14.1094 8.53125C14.1094 6.53888 12.4924 4.92188 10.5 4.92188ZM10.5 6.23438C11.7679 6.23438 12.7969 7.26337 12.7969 8.53125C12.7969 9.79912 11.7679 10.8281 10.5 10.8281C9.23212 10.8281 8.20312 9.79912 8.20312 8.53125C8.20312 7.26337 9.23212 6.23438 10.5 6.23438Z" fill="white"/>
</svg>
