<svg width="35" height="29" viewBox="0 0 35 29" fill="none" xmlns="http://www.w3.org/2000/svg">
<path d="M35 2.46597V9.53296L17.5 16.5999L0 9.53296V2.46597C0 1.9974 0.184374 1.54802 0.512563 1.21669C0.840752 0.885358 1.28587 0.699219 1.75 0.699219H33.25C33.7141 0.699219 34.1592 0.885358 34.4874 1.21669C34.8156 1.54802 35 1.9974 35 2.46597ZM0 13.3385V27.2004C0 27.669 0.184374 28.1184 0.512563 28.4497C0.840752 28.781 1.28587 28.9672 1.75 28.9672H33.25C33.7141 28.9672 34.1592 28.781 34.4874 28.4497C34.8156 28.1184 35 27.669 35 27.2004V13.3385L17.5 20.4055L0 13.3385Z" fill="#DD1155"/>
</svg>
