<svg width="19" height="19" viewBox="0 0 19 19" fill="none" xmlns="http://www.w3.org/2000/svg">
<path fill-rule="evenodd" clip-rule="evenodd" d="M1.79871 5.03895C1.58337 5.46249 1.58337 6.01666 1.58337 7.12499V11.875C1.58337 12.9833 1.58337 13.5375 1.79871 13.961C1.98862 14.3333 2.29152 14.636 2.664 14.8255C3.08754 15.0417 3.64171 15.0417 4.75004 15.0417H14.25C15.3584 15.0417 15.9125 15.0417 16.3361 14.8255C16.7083 14.6358 17.0109 14.3332 17.2006 13.961C17.4167 13.5375 17.4167 12.9833 17.4167 11.875V7.12499C17.4167 6.01666 17.4167 5.46249 17.2006 5.03895C17.011 4.66648 16.7084 4.36358 16.3361 4.17366C15.9125 3.95833 15.3584 3.95833 14.25 3.95833H4.75004C3.64171 3.95833 3.08754 3.95833 2.664 4.17366C2.2914 4.36344 1.98849 4.66636 1.79871 5.03895ZM3.67892 5.54166H15.3212C15.4062 5.54156 15.4889 5.56881 15.5572 5.6194C15.6255 5.66998 15.6757 5.74121 15.7004 5.82254C15.7251 5.90387 15.723 5.99099 15.6943 6.071C15.6656 6.15101 15.612 6.21968 15.5412 6.26683L9.94021 10.013C9.80995 10.1001 9.65676 10.1466 9.50004 10.1466C9.34332 10.1466 9.19013 10.1001 9.05987 10.013L3.45883 6.26683C3.38812 6.21968 3.33446 6.15101 3.30579 6.071C3.27712 5.99099 3.27497 5.90387 3.29966 5.82254C3.32434 5.74121 3.37455 5.66998 3.44285 5.6194C3.51115 5.56881 3.59392 5.54156 3.67892 5.54166Z" fill="white"/>
</svg>
