<svg width="15" height="15" viewBox="0 0 15 15" fill="none" xmlns="http://www.w3.org/2000/svg">
<g clip-path="url(#clip0_33_288)">
<path d="M5.89125 7.55958C6.27965 8.01521 6.62934 8.3486 6.62605 8.34561C6.62281 8.34292 6.92934 8.71612 7.35546 9.13682C7.69807 9.47484 8.0789 9.80848 8.50089 10.1253C8.97954 10.485 9.72795 10.5316 10.1342 10.2836C10.5408 10.0359 11.3225 9.53335 11.9074 9.66152C12.3988 9.76911 13.0513 10.1296 13.8362 11.0561C15.6869 13.2413 14.0289 13.9235 12.8799 14.8047C11.7299 15.6853 7.93598 13.5039 4.46142 9.94991C0.986565 6.39616 -0.322069 2.71968 0.639921 1.63739C1.60216 0.5551 2.40418 -1.0487 4.44871 0.955714C5.31552 1.80573 5.62748 2.48282 5.69904 2.98071C5.78441 3.57348 5.22662 4.3167 4.94984 4.70406C4.67311 5.09166 4.66524 5.84136 4.98916 6.34498C5.27436 6.78925 5.57899 7.1934 5.89125 7.55958Z" fill="white"/>
</g>
<defs>
<clipPath id="clip0_33_288">
<rect width="15" height="15" fill="white" transform="matrix(-1 0 0 1 15 0)"/>
</clipPath>
</defs>
</svg>
