<svg width="35" height="34" viewBox="0 0 35 34" fill="none" xmlns="http://www.w3.org/2000/svg">
<path d="M9.93684 2.139C9.93684 2.139 9.34986 0.980225 8.45338 0.980225C7.57113 0.980225 7.11222 1.32351 6.80628 1.56036C6.50034 1.79721 1.38117 5.34248 1.38117 5.34248C1.38117 5.34248 -0.107628 6.4383 0.00621079 8.4995C0.102262 10.5607 0.580739 13.4944 3.06384 17.5808C5.52916 21.6582 11.6996 27.8883 15.5985 30.0785C15.5985 30.0785 19.2111 32.414 22.5729 33.3629C23.5494 33.6222 25.5025 33.9595 25.9578 33.9595C26.4203 33.9595 27.2367 33.9595 28.1741 33.3824C29.1275 32.7992 34.4761 29.1745 34.4761 29.1745C34.4761 29.1745 35.7853 28.1776 34.2645 27.0189C32.7366 25.8601 28.0976 23.2832 27.1051 22.6056C26.1108 21.9176 24.6949 22.2204 24.083 22.6866C23.4729 23.1558 22.3826 23.9278 22.2492 24.0253C22.05 24.1542 21.5039 24.5724 20.892 24.364C20.1129 24.1047 16.9183 22.6431 13.9568 19.2283C11.013 15.8164 10.6892 14.7011 10.2499 13.4959C10.1754 13.3177 10.1744 13.1236 10.247 12.9448C10.3196 12.7661 10.4616 12.6133 10.6501 12.511C11.0912 12.2531 12.7152 11.1124 12.7152 11.1124C12.7152 11.1124 13.7664 10.2384 13.3271 9.20856C12.8877 8.1787 9.93684 2.139 9.93684 2.139Z" fill="#DD1155"/>
</svg>
