<svg width="16" height="16" viewBox="0 0 16 16" fill="#C72C2B" xmlns="http://www.w3.org/2000/svg">
<g clip-path="url(#clip0_33_323)">
<path d="M5.32397 14.7615C5.32397 14.8574 5.37721 14.9453 5.46186 14.9901C5.54645 15.0349 5.64931 15.0291 5.72837 14.975L7.50904 13.7591L5.32401 12.7177V14.7615H5.32397Z" fill="#C72C2B"/>
<path d="M15.9168 1.04865C15.8679 1.00356 15.8048 0.979965 15.741 0.979965C15.7025 0.979965 15.6642 0.988498 15.6279 1.00634L0.25549 8.54692C0.0983675 8.62414 -0.00105816 8.78459 8.49783e-06 8.9601C0.00107516 9.13539 0.102182 9.29474 0.260435 9.37025L4.31187 11.3007L12.4127 4.64249L5.31566 11.779L10.3627 14.1838C10.4247 14.2135 10.4924 14.2283 10.5594 14.2283C10.6165 14.2283 10.6731 14.2179 10.727 14.1967C10.8446 14.1502 10.938 14.0571 10.9846 13.9395L15.9817 1.33355C16.0212 1.23435 15.9954 1.12093 15.9168 1.04865Z" fill="#C72C2B"/>
</g>
<defs>
<clipPath id="clip0_33_323">
<rect width="16" height="16" fill="#C72C2B"/>
</clipPath>
</defs>
</svg>
