<svg width="16" height="16" viewBox="0 0 16 16" fill="none" xmlns="http://www.w3.org/2000/svg">
<g clip-path="url(#clip0_1_184)">
<path d="M5.32373 14.7615C5.32373 14.8574 5.37697 14.9453 5.46162 14.9901C5.54621 15.0349 5.64906 15.0291 5.72812 14.975L7.5088 13.7591L5.32376 12.7177V14.7615H5.32373Z" fill="#DD1155"/>
<path d="M15.9168 1.04867C15.8679 1.00358 15.8048 0.97998 15.741 0.97998C15.7025 0.97998 15.6642 0.988514 15.6279 1.00636L0.25549 8.54693C0.0983675 8.62415 -0.00105816 8.7846 8.49783e-06 8.96012C0.00107516 9.13541 0.102182 9.29476 0.260435 9.37027L4.31187 11.3007L12.4127 4.6425L5.31566 11.779L10.3627 14.1838C10.4247 14.2135 10.4924 14.2283 10.5594 14.2283C10.6165 14.2283 10.6731 14.2179 10.727 14.1967C10.8446 14.1502 10.938 14.0571 10.9846 13.9395L15.9817 1.33356C16.0212 1.23436 15.9954 1.12094 15.9168 1.04867Z" fill="#DD1155"/>
</g>
<defs>
<clipPath id="clip0_1_184">
<rect width="16" height="16" fill="white"/>
</clipPath>
</defs>
</svg>
